<svg height="423pt" viewBox="-3 0 423 423.25333" width="423pt" xmlns="http://www.w3.org/2000/svg"><path d="m322.789062 320.851562h-201.589843c-32.933594 0-59.632813 22.886719-59.632813 51.117188v44.457031h314.027344v-50.304687c0-25-23.644531-45.269532-52.804688-45.269532zm0 0" fill="#fff35f"/><path d="m322.789062 320.851562v-6.824218h-201.589843c-18.050781.003906-34.511719 6.257812-46.605469 16.613281-12.085938 10.328125-19.859375 25.007813-19.851562 41.328125v44.457031c0 1.796875.726562 3.554688 2 4.828125 1.269531 1.269532 3.027343 2 4.824218 2h314.027344c1.796875 0 3.554688-.726562 4.824219-2 1.273437-1.269531 2.003906-3.027344 2.003906-4.824218v-50.308594c.007813-14.703125-7.007813-27.925782-17.855469-37.191406-10.859375-9.300782-25.613281-14.898438-41.777344-14.902344v13.652344c12.992188-.003907 24.640626 4.535156 32.894532 11.617187 8.265625 7.117187 13.078125 16.53125 13.085937 26.824219v43.480468h-300.375v-37.628906c.007813-11.910156 5.582031-22.789062 15.082031-30.964844 9.488282-8.140624 22.84375-13.332031 37.722657-13.328124h201.589843zm0 0" fill="#54596e"/><path d="m102.527344 389.121094v20.480468c0 3.769532 3.054687 6.824219 6.824218 6.824219 3.773438 0 6.828126-3.054687 6.828126-6.824219v-20.480468c0-3.769532-3.054688-6.828125-6.828126-6.828125-3.769531 0-6.824218 3.058593-6.824218 6.828125" fill="#54596e"/><path d="m320.980469 389.121094v20.480468c0 3.769532 3.054687 6.824219 6.828125 6.824219 3.769531 0 6.824218-3.054687 6.824218-6.824219v-20.480468c0-3.769532-3.054687-6.828125-6.824218-6.828125-3.773438 0-6.828125 3.058593-6.828125 6.828125" fill="#54596e"/><path d="m341.460938 157.011719c0 15.082031-12.226563 27.308593-27.308594 27.308593-15.078125 0-27.304688-12.226562-27.304688-27.308593 0-15.078125 12.226563-27.304688 27.304688-27.304688 15.082031 0 27.308594 12.226563 27.308594 27.304688zm0 0" fill="#ffd578"/><path d="m341.460938 157.011719h6.824218c-.003906-18.851563-15.277344-34.128907-34.132812-34.132813-18.851563.003906-34.128906 15.28125-34.132813 34.132813.003907 18.855469 15.28125 34.128906 34.132813 34.136719 18.855468-.003907 34.128906-15.28125 34.132812-34.136719h-13.652344c-.019531 11.308593-9.171874 20.460937-20.480468 20.480469-11.304688-.019532-20.457032-9.171876-20.480469-20.480469.023437-11.304688 9.175781-20.457031 20.480469-20.476563 11.308594.019532 20.460937 9.171875 20.480468 20.476563zm0 0" fill="#54596e"/><path d="m150.3125 157.011719c0 15.082031-12.226562 27.308593-27.304688 27.308593-15.082031 0-27.308593-12.226562-27.308593-27.308593 0-15.078125 12.226562-27.304688 27.308593-27.304688 15.078126 0 27.304688 12.226563 27.304688 27.304688zm0 0" fill="#ffd578"/><path d="m150.3125 157.011719h6.828125c-.003906-18.851563-15.28125-34.128907-34.132813-34.132813-18.855468.003906-34.128906 15.28125-34.132812 34.132813.003906 18.855469 15.277344 34.128906 34.132812 34.136719 18.851563-.003907 34.128907-15.28125 34.132813-34.136719h-13.652344c-.023437 11.308593-9.175781 20.460937-20.480469 20.480469-11.308593-.019532-20.460937-9.171876-20.480468-20.480469.019531-11.304688 9.171875-20.457031 20.480468-20.476563 11.304688.019532 20.457032 9.171875 20.480469 20.476563zm0 0" fill="#54596e"/><path d="m218.578125 368.640625c-15.078125 0-27.304687-12.226563-27.304687-27.308594v-68.265625h54.613281v68.265625c0 15.082031-12.226563 27.308594-27.308594 27.308594zm0 0" fill="#ffd578"/><path d="m218.578125 368.640625v-6.828125c-11.304687-.019531-20.457031-9.171875-20.476563-20.480469v-61.4375h40.957032v61.4375c-.019532 11.308594-9.171875 20.460938-20.480469 20.480469v13.652344c18.855469 0 34.128906-15.277344 34.136719-34.132813v-68.265625c0-1.796875-.730469-3.554687-2-4.828125-1.273438-1.269531-3.03125-2-4.828125-2h-54.613281c-1.796876 0-3.558594.730469-4.828126 2-1.269531 1.273438-2 3.03125-2 4.828125v68.265625c.007813 18.855469 15.28125 34.128907 34.132813 34.132813zm0 0" fill="#54596e"/><path d="m218.578125 300.375c-56.550781 0-102.398437-45.847656-102.398437-102.402344v-122.878906h204.800781v122.878906c0 56.554688-45.847657 102.402344-102.402344 102.402344zm0 0" fill="#ffd578"/><g fill="#54596e"><path d="m218.578125 300.375v-6.828125c-26.414063-.003906-50.261719-10.6875-67.578125-27.992187-17.304688-17.316407-27.988281-41.167969-27.992188-67.582032v-116.054687h191.144532v116.054687c-.003906 26.414063-10.6875 50.265625-27.992188 67.582032-17.316406 17.304687-41.167968 27.988281-67.582031 27.992187v13.652344c60.328125-.003907 109.222656-48.898438 109.230469-109.226563v-122.878906c0-1.800781-.730469-3.554688-2-4.828125-1.273438-1.269531-3.03125-2-4.828125-2h-204.800781c-1.796876 0-3.554688.726563-4.828126 2-1.269531 1.269531-2 3.027344-2 4.828125v122.878906c.003907 60.328125 48.902344 109.222656 109.226563 109.226563zm0 0"/><path d="m170.792969 180.90625c0 5.65625-4.585938 10.242188-10.238281 10.242188-5.65625 0-10.242188-4.585938-10.242188-10.242188s4.585938-10.238281 10.242188-10.238281c5.652343 0 10.238281 4.582031 10.238281 10.238281zm0 0"/><path d="m286.847656 180.90625c0 5.65625-4.585937 10.242188-10.242187 10.242188-5.652344 0-10.238281-4.585938-10.238281-10.242188s4.585937-10.238281 10.238281-10.238281c5.65625 0 10.242187 4.582031 10.242187 10.238281zm0 0"/><path d="m225.40625 416.425781v-47.785156c0-3.769531-3.054688-6.828125-6.828125-6.828125-3.769531 0-6.824219 3.058594-6.824219 6.828125v47.785156c0 3.769531 3.054688 6.828125 6.824219 6.828125 3.773437 0 6.828125-3.058594 6.828125-6.828125"/></g><path d="m211.753906 266.238281h13.652344c7.539062 0 13.652344-6.113281 13.652344-13.652343 0-7.539063-6.113282-13.652344-13.652344-13.652344h-13.652344c-7.539062 0-13.652344 6.113281-13.652344 13.652344 0 7.539062 6.113282 13.652343 13.652344 13.652343" fill="#ff927d"/><path d="m160.554688 170.667969h-20.480469c-1.886719 0-3.414063 1.527343-3.414063 3.410156 0 1.886719 1.527344 3.414063 3.414063 3.414063h20.480469c1.882812 0 3.410156-1.527344 3.410156-3.414063 0-1.882813-1.527344-3.410156-3.410156-3.410156" fill="#54596e"/><path d="m297.085938 170.667969h-20.480469c-1.882813 0-3.414063 1.527343-3.414063 3.410156 0 1.886719 1.53125 3.414063 3.414063 3.414063h20.480469c1.886718 0 3.414062-1.527344 3.414062-3.414063 0-1.882813-1.527344-3.410156-3.414062-3.410156" fill="#54596e"/><path d="m327.808594 95.574219-37.28125 47.785156-65.121094-34.132813-47.785156 27.308594v-40.960937l-34.132813 47.785156-34.136719-47.785156c0-41.472657 33.621094-75.09375 75.09375-75.09375h68.269532c41.472656 0 75.09375 33.621093 75.09375 75.09375zm0 0" fill="#999"/><path d="m327.808594 95.574219-5.382813-4.199219-33.777343 43.292969-60.074219-31.484375c-2.0625-1.082032-4.535157-1.039063-6.558594.117187l-37.570313 21.46875v-29.195312c0-2.96875-1.914062-5.59375-4.742187-6.503907-2.824219-.90625-5.914063.117188-7.636719 2.535157l-28.578125 40.007812-28.578125-40.007812-5.558594 3.96875h6.828126c.003906-18.875 7.628906-35.898438 19.996093-48.273438 12.375-12.363281 29.398438-19.992187 48.269531-19.992187h68.269532c18.871094 0 35.894531 7.628906 48.269531 19.992187 12.363281 12.375 19.992187 29.398438 19.996094 48.273438h6.828125l-5.382813-4.199219 5.382813 4.199219h6.824218c-.003906-45.246094-36.675781-81.917969-81.917968-81.921875h-68.269532c-45.242187.003906-81.914062 36.675781-81.917968 81.921875 0 1.425781.441406 2.804687 1.269531 3.96875l34.132813 47.785156c1.289062 1.800781 3.34375 2.859375 5.558593 2.859375 2.210938 0 4.265625-1.058594 5.554688-2.859375l21.75-30.453125v19.660156c0 2.4375 1.289062 4.679688 3.398437 5.902344s4.695313 1.230469 6.816406.019531l44.539063-25.453125 61.808594 32.402344c2.921875 1.53125 6.527343.75 8.554687-1.847656l37.28125-47.789063c.929688-1.195312 1.441406-2.675781 1.441406-4.195312zm0 0" fill="#54596e"/><path d="m191.273438 375.464844-34.132813 13.65625-6.828125-68.269532h40.960938zm0 0" fill="#9af43b"/><path d="m191.273438 375.464844-2.535157-6.335938-25.707031 10.28125-5.175781-51.730468h26.589843v47.785156h6.828126l-2.535157-6.335938 2.535157 6.335938h6.828124v-54.613282c0-1.796874-.730468-3.554687-2-4.828124-1.273437-1.269532-3.03125-1.996094-4.828124-1.996094h-40.960938c-1.925781 0-3.769531.816406-5.0625 2.246094-1.289062 1.425781-1.921875 3.34375-1.730469 5.257812l6.828125 68.269531c.214844 2.132813 1.417969 4.042969 3.25 5.15625 1.832032 1.109375 4.085938 1.296875 6.078125.5l34.132813-13.652343c2.582031-1.035157 4.292968-3.554688 4.292968-6.339844zm0 0" fill="#54596e"/><path d="m245.886719 375.464844 34.132812 13.65625 6.828125-68.269532h-40.960937zm0 0" fill="#9af43b"/><path d="m245.886719 375.464844-2.535157 6.339844 34.132813 13.652343c1.988281.796875 4.242187.609375 6.074219-.5 1.835937-1.109375 3.039062-3.023437 3.253906-5.15625l6.824219-68.265625c.191406-1.917968-.4375-3.835937-1.730469-5.261718-1.289062-1.429688-3.132812-2.246094-5.058594-2.246094h-40.960937c-1.796875 0-3.558594.726562-4.828125 1.996094-1.269532 1.273437-2 3.03125-2 4.828124v54.613282c0 2.785156 1.710937 5.304687 4.292968 6.339844l2.535157-6.339844h6.828125v-47.785156h26.589844l-5.175782 51.730468-25.707031-10.28125-2.535156 6.335938h6.828125zm0 0" fill="#54596e"/><path d="m409.726562 44.375c0 20.734375-16.808593 37.546875-37.546874 37.546875-20.734376 0-37.546876-16.8125-37.546876-37.546875 0-20.738281 16.8125-37.546875 37.546876-37.546875 20.738281 0 37.546874 16.808594 37.546874 37.546875zm0 0" fill="#999"/><path d="m409.726562 44.375h6.828126c-.007813-24.511719-19.867188-44.37109375-44.375-44.375-24.503907.00390625-44.367188 19.863281-44.371094 44.375.003906 24.507812 19.867187 44.367188 44.371094 44.371094 24.507812-.003906 44.367187-19.863282 44.375-44.371094h-13.65625c0 8.503906-3.425782 16.140625-8.996094 21.722656-5.582032 5.570313-13.21875 8.992188-21.722656 8.996094-8.503907-.003906-16.140626-3.429688-21.722657-8.996094-5.570312-5.582031-8.996093-13.21875-9-21.722656.003907-8.507812 3.429688-16.144531 9-21.722656 5.582031-5.570313 13.21875-8.996094 21.722657-9 8.503906.003906 16.140624 3.429687 21.722656 9 5.570312 5.578125 8.996094 13.214844 8.996094 21.722656zm0 0" fill="#54596e"/><path d="m88.875 81.921875c0 22.621094-18.339844 40.957031-40.960938 40.957031-22.621093 0-40.960937-18.335937-40.960937-40.957031 0-22.625 18.339844-40.960937 40.960937-40.960937 22.621094 0 40.960938 18.335937 40.960938 40.960937zm0 0" fill="#999"/><path d="m88.875 81.921875h6.824219c-.003907-26.394531-21.390625-47.785156-47.785157-47.789063-26.394531.003907-47.78125 21.394532-47.789062 47.789063.007812 26.390625 21.394531 47.78125 47.789062 47.785156 26.394532-.003906 47.78125-21.394531 47.785157-47.785156h-13.652344c-.003906 9.445313-3.8125 17.933594-9.996094 24.132813-6.199219 6.1875-14.691406 9.996093-24.136719 10-9.445312-.003907-17.9375-3.8125-24.136718-10-6.1875-6.199219-9.992188-14.6875-9.996094-24.132813.003906-9.449219 3.808594-17.9375 9.996094-24.136719 6.199218-6.1875 14.691406-9.996094 24.136718-10 9.445313.003906 17.9375 3.8125 24.136719 10 6.183594 6.199219 9.992188 14.6875 9.996094 24.136719zm0 0" fill="#54596e"/><path d="m313.546875 50.925781 22.238281-9.535156 13.449219 31.375-22.238281 9.535156zm0 0" fill="#ff927d"/><path d="m327 82.308594 2.6875 6.273437 22.242188-9.535156c3.464843-1.484375 5.070312-5.5 3.585937-8.960937l-13.449219-31.378907c-.707031-1.652343-2.070312-2.984375-3.738281-3.652343-1.667969-.664063-3.574219-.640626-5.226563.066406l-22.238281 9.539062c-3.464843 1.484375-5.070312 5.496094-3.585937 8.960938l13.449218 31.375c.707032 1.652344 2.070313 2.980468 3.738282 3.648437 1.667968.667969 3.570312.644531 5.222656-.066406l-2.6875-6.269531 6.273438-2.691406-10.757813-25.101563 9.691406-4.15625 8.070313 18.828125-15.96875 6.84375 2.691406 6.277344 6.273438-2.691406zm0 0" fill="#54596e"/><path d="m87.1875 65.265625h24.207031v34.132813h-24.207031zm0 0" fill="#ff927d"/><path d="m87.1875 99.398438v6.828124h24.207031c1.796875 0 3.554688-.726562 4.828125-2 1.269532-1.269531 2-3.027343 2-4.824218v-34.132813c0-1.800781-.730468-3.554687-2-4.828125-1.269531-1.273437-3.03125-2-4.828125-2h-24.207031c-1.796875 0-3.558594.726563-4.828125 2-1.273437 1.269532-2 3.027344-2 4.828125v34.132813c0 1.796875.730469 3.554687 2 4.824218 1.273437 1.273438 3.03125 2 4.828125 2v-6.828124h6.828125v-27.308594h10.550781v20.484375h-17.378906v6.824219h6.828125zm0 0" fill="#54596e"/></svg>