<svg height="436pt" viewBox="-34 0 436 436.91008" width="436pt" xmlns="http://www.w3.org/2000/svg"><path d="m307.347656 334.511719h-238.046875c-34.253906 0-62.019531 20.023437-62.019531 44.726562v50.84375h354.984375v-55.964843c0-21.875-24.585937-39.605469-54.917969-39.605469zm0 0" fill="#fff35f"/><path d="m307.347656 334.511719v-6.828125h-238.046875c-18.457031.011718-35.285156 5.347656-47.847656 14.390625-6.277344 4.527343-11.496094 10.007812-15.1875 16.300781-3.6875 6.277344-5.816406 13.398438-5.8125 20.863281v50.847657c0 1.820312.710937 3.535156 2.003906 4.824218 1.285157 1.289063 3 2 4.824219 2h354.984375c1.824219 0 3.539063-.710937 4.828125-2 1.289062-1.289062 2-3.003906 2-4.828125v-55.964843c.007812-6.757813-1.921875-13.203126-5.253906-18.871094-5.011719-8.515625-13.042969-15.351563-22.796875-20.109375-9.765625-4.753907-21.320313-7.449219-33.695313-7.453125v13.652344c13.835938-.015626 26.246094 4.089843 34.84375 10.3125 4.300782 3.101562 7.644532 6.707031 9.871094 10.503906 2.226562 3.8125 3.371094 7.78125 3.378906 11.964844v49.136718h-341.335937v-44.015625c.007812-4.890625 1.351562-9.535156 3.9375-13.957031 3.863281-6.617188 10.660156-12.664062 19.570312-16.996094 8.898438-4.339844 19.839844-6.953125 31.6875-6.949218h238.046875zm0 0" fill="#54596e"/><path d="m280.347656 361.816406c0-64.09375-27.507812-116.054687-61.441406-116.054687h-68.265625c-33.933594 0-61.441406 51.960937-61.441406 116.054687" fill="#fff35f"/><g fill="#54596e"><path d="m287.171875 361.816406c-.015625-33.03125-7.023437-62.988281-18.789063-85.257812-5.898437-11.128906-13.003906-20.371094-21.300781-27.007813-8.261719-6.628906-17.910156-10.628906-28.175781-10.613281h-68.265625c-10.265625-.015625-19.914063 3.984375-28.175781 10.613281-12.429688 9.976563-22.25 25.730469-29.199219 45.078125-6.921875 19.367188-10.886719 42.417969-10.890625 67.1875 0 3.769532 3.054688 6.828125 6.824219 6.828125s6.828125-3.058593 6.828125-6.828125c-.019532-31.0625 6.726562-59.128906 17.199218-78.867187 5.21875-9.875 11.351563-17.628907 17.757813-22.730469 6.4375-5.121094 12.953125-7.617188 19.65625-7.628906h68.265625c6.703125.011718 13.21875 2.507812 19.65625 7.628906 9.621094 7.640625 18.5625 21.316406 24.863281 39.007812 6.328125 17.679688 10.097657 39.289063 10.09375 62.589844 0 3.769532 3.058594 6.828125 6.828125 6.828125 3.769532 0 6.824219-3.058593 6.824219-6.828125zm0 0"/><path d="m89.199219 402.777344v20.480468c0 3.769532 3.058593 6.824219 6.828125 6.824219 3.769531 0 6.824218-3.054687 6.824218-6.824219v-20.480468c0-3.773438-3.054687-6.828125-6.824218-6.828125-3.769532 0-6.828125 3.054687-6.828125 6.828125"/><path d="m266.691406 402.777344v20.480468c0 3.769532 3.058594 6.824219 6.828125 6.824219s6.828125-3.054687 6.828125-6.824219v-20.480468c0-3.773438-3.058594-6.828125-6.828125-6.828125s-6.828125 3.054687-6.828125 6.828125"/></g><path d="m334.960938 163.84375c0 15.082031-12.226563 27.304688-27.308594 27.304688-15.078125 0-27.304688-12.222657-27.304688-27.304688s12.226563-27.308594 27.304688-27.308594c15.082031 0 27.308594 12.226563 27.308594 27.308594zm0 0" fill="#bfad88"/><path d="m334.960938 163.84375h6.824218c-.003906-18.855469-15.277344-34.128906-34.132812-34.132812-18.851563.003906-34.128906 15.277343-34.132813 34.132812.003907 18.851562 15.28125 34.128906 34.132813 34.132812 18.855468-.003906 34.128906-15.28125 34.132812-34.132812h-13.652344c-.019531 11.304688-9.171874 20.457031-20.480468 20.480469-11.304688-.023438-20.457032-9.175781-20.480469-20.480469.023437-11.308594 9.175781-20.460938 20.480469-20.480469 11.308594.019531 20.460937 9.171875 20.480468 20.480469zm0 0" fill="#54596e"/><path d="m89.199219 163.84375c0 15.082031-12.226563 27.304688-27.304688 27.304688-15.082031 0-27.308593-12.222657-27.308593-27.304688s12.226562-27.308594 27.308593-27.308594c15.078125 0 27.304688 12.226563 27.304688 27.308594zm0 0" fill="#bfad88"/><path d="m89.199219 163.84375h6.828125c-.003906-18.855469-15.28125-34.128906-34.132813-34.132812-18.855469.003906-34.128906 15.277343-34.132812 34.132812.003906 18.851562 15.277343 34.128906 34.132812 34.132812 18.851563-.003906 34.128907-15.28125 34.132813-34.132812h-13.652344c-.023438 11.304688-9.175781 20.457031-20.480469 20.480469-11.308593-.023438-20.460937-9.175781-20.480469-20.480469.019532-11.308594 9.171876-20.460938 20.480469-20.480469 11.304688.019531 20.457031 9.171875 20.480469 20.480469zm0 0" fill="#54596e"/><path d="m180.292969 6.910156c-66.585938 2.367188-118.398438 59.117188-118.398438 125.746094v92.628906c0 49.011719 39.730469 88.746094 88.746094 88.746094v34.132812c0 18.847657 15.277344 34.132813 34.132813 34.132813 18.851562 0 34.132812-15.285156 34.132812-34.132813v-34.132812c49.015625 0 88.746094-39.734375 88.746094-88.746094v-95.574218c0-69.355469-57.453125-125.289063-127.359375-122.800782zm0 0" fill="#bfad88"/><path d="m180.292969 6.910156-.242188-6.8242185c-35.191406 1.2460935-66.511719 16.9023435-88.921875 40.9414065-22.417968 24.039062-36.058594 56.53125-36.0625 91.628906v92.628906c.003906 52.785156 42.785156 95.566406 95.574219 95.570313v-6.824219h-6.828125v34.132812c.003906 22.621094 18.332031 40.953126 40.960938 40.957032 22.625-.003906 40.953124-18.335938 40.960937-40.957032v-34.132812h-6.828125v6.824219c52.785156-.003907 95.570312-42.785157 95.574219-95.570313v-95.574218c-.003907-71.640626-58.066407-129.70703175-129.703125-129.710938-1.558594 0-3.144532.0234375-4.757813.0898438l.03125-.0039063.242188 6.8242185.273437 6.820313c1.390625-.054688 2.792969-.078125 4.210938-.078125 32.066406.003906 61.035156 12.976562 82.058594 33.992187 21.011718 21.023438 33.988281 49.992188 33.992187 82.066407v95.574218c-.003906 22.640625-9.160156 43.078125-23.996094 57.921875-14.84375 14.835938-35.28125 23.992188-57.925781 23.996094-1.796875 0-3.554688.726563-4.828125 2-1.269531 1.269531-2 3.027344-2 4.828125v34.132812c0 7.558594-3.042969 14.34375-7.996094 19.308594-4.960937 4.949219-11.746093 7.992188-19.308593 7.996094-7.5625-.003906-14.347657-3.046875-19.308594-7.996094-4.953125-4.964844-7.996094-11.75-8-19.308594v-34.132812c0-1.800781-.726563-3.558594-1.996094-4.828125-1.273438-1.269531-3.03125-2-4.828125-2-22.644531-.003906-43.078125-9.160156-57.925781-23.996094-14.835938-14.84375-23.988282-35.28125-23.992188-57.921875v-92.628906c-.003906-31.53125 12.261719-60.730469 32.394532-82.316406 20.144531-21.582032 48.023437-35.488282 79.421874-36.605469l.027344-.003906zm0 0" fill="#54596e"/><path d="m150.640625 211.628906c0 18.851563 15.277344 34.132813 34.132813 34.132813 18.851562 0 34.132812-15.28125 34.132812-34.132813zm0 0" fill="#54596e"/><path d="m150.640625 211.628906h-6.828125c.003906 22.621094 18.332031 40.957032 40.960938 40.960938 22.625-.003906 40.953124-18.339844 40.960937-40.960938 0-1.796875-.730469-3.554687-2-4.828125-1.269531-1.269531-3.027344-1.996093-4.824219-1.996093h-68.269531c-1.796875 0-3.554687.726562-4.828125 1.996093-1.269531 1.273438-2 3.03125-2 4.828125h6.828125v6.824219h68.265625v-6.824219h-6.828125c0 7.5625-3.042969 14.347656-7.996094 19.308594-4.960937 4.949219-11.746093 7.992188-19.308593 8-7.5625-.007812-14.347657-3.046875-19.308594-8-4.953125-4.960938-7.996094-11.75-8-19.308594h-6.824219v6.824219zm0 0" fill="#54596e"/><path d="m198.425781 232.109375c0-3.769531-6.113281-6.824219-13.652343-6.824219-7.539063 0-13.652344 3.054688-13.652344 6.824219s6.113281 6.828125 13.652344 6.828125c7.539062 0 13.652343-3.058594 13.652343-6.828125zm0 0" fill="#ff927d"/><path d="m143.8125 146.777344c0 5.65625-4.582031 10.238281-10.238281 10.238281s-10.242188-4.582031-10.242188-10.238281 4.585938-10.242188 10.242188-10.242188 10.238281 4.585938 10.238281 10.242188zm0 0" fill="#54596e"/><path d="m246.214844 146.777344c0 5.65625-4.585938 10.238281-10.242188 10.238281s-10.238281-4.582031-10.238281-10.238281 4.582031-10.242188 10.238281-10.242188 10.242188 4.585938 10.242188 10.242188zm0 0" fill="#54596e"/><path d="m143.8125 320.855469h34.132812c3.769532 0 6.828126-3.054688 6.828126-6.824219 0-3.773438-3.058594-6.828125-6.828126-6.828125h-34.132812c-3.769531 0-6.824219 3.054687-6.824219 6.828125 0 3.769531 3.054688 6.824219 6.824219 6.824219" fill="#54596e"/><path d="m116.507812 354.988281v54.613281c0 3.773438 3.054688 6.828126 6.824219 6.828126s6.828125-3.054688 6.828125-6.828126v-54.613281c0-3.769531-3.058594-6.824219-6.828125-6.824219s-6.824219 3.054688-6.824219 6.824219" fill="#ff927d"/><path d="m239.386719 354.988281v75.09375c0 3.769531 3.054687 6.828125 6.828125 6.828125 3.769531 0 6.824218-3.058594 6.824218-6.828125v-75.09375c0-3.769531-3.054687-6.824219-6.824218-6.824219-3.773438 0-6.828125 3.054688-6.828125 6.824219" fill="#ff927d"/></svg>