<svg height="436pt" viewBox="-41 0 436 436.90496" width="436pt" xmlns="http://www.w3.org/2000/svg"><path d="m334.960938 163.839844c0 15.078125-12.226563 27.304687-27.308594 27.304687-15.082032 0-27.304688-12.226562-27.304688-27.304687 0-15.082032 12.222656-27.308594 27.304688-27.308594 15.082031 0 27.308594 12.226562 27.308594 27.308594zm0 0" fill="#ffd578"/><path d="m334.960938 163.839844h6.824218c-.003906-18.855469-15.277344-34.132813-34.132812-34.136719-18.851563.003906-34.128906 15.28125-34.132813 34.136719.003907 18.851562 15.28125 34.125 34.132813 34.128906 18.855468-.003906 34.128906-15.277344 34.132812-34.128906h-13.652344c-.019531 11.304687-9.171874 20.457031-20.480468 20.476562-11.304688-.019531-20.460938-9.171875-20.480469-20.476562.019531-11.308594 9.175781-20.460938 20.480469-20.484375 11.308594.023437 20.460937 9.175781 20.480468 20.484375zm0 0" fill="#54596e"/><path d="m75.546875 163.839844c0 15.078125-12.226563 27.304687-27.308594 27.304687s-27.304687-12.226562-27.304687-27.304687c0-15.082032 12.222656-27.308594 27.304687-27.308594s27.308594 12.226562 27.308594 27.308594zm0 0" fill="#ffd578"/><path d="m75.546875 163.839844h6.824219c-.003906-18.855469-15.277344-34.132813-34.132813-34.136719-18.851562.003906-34.128906 15.28125-34.132812 34.136719.003906 18.851562 15.28125 34.125 34.132812 34.128906 18.855469-.003906 34.128907-15.277344 34.132813-34.128906h-13.652344c-.019531 11.304687-9.171875 20.457031-20.480469 20.476562-11.304687-.019531-20.457031-9.171875-20.480469-20.476562.023438-11.308594 9.175782-20.460938 20.480469-20.484375 11.308594.023437 20.460938 9.175781 20.480469 20.484375zm0 0" fill="#54596e"/><path d="m295.804688 307.199219h-228.890626c-32.933593 0-59.636718 22.886719-59.636718 51.117187v71.761719h341.335937v-77.613281c0-25-23.644531-45.265625-52.808593-45.265625zm0 0" fill="#999"/><path d="m295.804688 307.199219v-6.828125h-228.890626c-18.050781.003906-34.515624 6.253906-46.613281 16.613281-12.082031 10.328125-19.855469 25.007813-19.847656 41.332031v71.761719c0 1.824219.710937 3.535156 2 4.828125 1.289063 1.289062 3.003906 2 4.824219 2h341.335937c1.820313 0 3.535157-.710938 4.824219-2 1.292969-1.289062 2-3.003906 2-4.828125v-77.613281c.011719-14.703125-7-27.921875-17.851562-37.191406-10.859376-9.300782-25.617188-14.898438-41.785157-14.898438v13.648438c13-.003907 24.648438 4.535156 32.898438 11.617187 8.265625 7.117187 13.078125 16.53125 13.085937 26.828125v70.78125h-327.679687v-64.933594c.007812-11.910156 5.582031-22.789062 15.082031-30.960937 9.488281-8.144531 22.84375-13.335938 37.730469-13.332031h228.886719zm0 0" fill="#54596e"/><path d="m136.984375 430.078125h81.921875l-6.828125-109.226563h-68.265625zm0 0" fill="#fff"/><path d="m136.984375 430.078125v6.828125h81.921875c1.875 0 3.691406-.785156 4.972656-2.152344 1.285156-1.367187 1.957032-3.230468 1.839844-5.101562l-6.828125-109.226563c-.222656-3.597656-3.207031-6.398437-6.8125-6.398437h-68.265625c-3.605469 0-6.585938 2.800781-6.8125 6.398437l-6.828125 109.226563c-.117187 1.875.554687 3.734375 1.839844 5.101562 1.28125 1.367188 3.097656 2.152344 4.972656 2.152344v-6.828125l6.816406.425781 6.425781-102.828125h55.4375l5.976563 95.574219h-74.65625v6.828125l6.816406.425781zm0 0" fill="#54596e"/><path d="m48.238281 187.632812c0 65.933594 35.242188 163.71875 89.445313 189.304688l40.261718 19.007812 40.265626-19.011718c54.199218-25.582032 89.441406-123.367188 89.441406-189.300782v-51.101562h-259.414063zm0 0" fill="#fff35f"/><path d="m48.238281 187.632812h-6.824219c.023438 34.15625 9.011719 75.722657 24.960938 112.5 7.988281 18.382813 17.722656 35.550782 29.113281 49.941407 11.394531 14.371093 24.464844 26.027343 39.28125 33.035156l40.261719 19.007813c1.851562.875 3.976562.875 5.832031 0l40.261719-19.011719c14.816406-7.003907 27.882812-18.660157 39.277344-33.03125 17.078125-21.585938 30.480468-49.417969 39.742187-78.230469 9.242188-28.820312 14.324219-58.585938 14.335938-84.210938v-51.101562c0-1.796875-.726563-3.554688-2-4.828125-1.269531-1.269531-3.03125-2-4.828125-2h-259.414063c-1.796875 0-3.554687.730469-4.824219 2-1.273437 1.273437-2 3.03125-2 4.828125v51.101562h13.652344v-44.277343h245.757813v44.277343c.027343 31.773438-8.605469 72.066407-23.832031 107.058594-7.597657 17.503906-16.832032 33.699219-27.292969 46.902344-10.457031 13.214844-22.121094 23.378906-34.40625 29.164062l-37.347657 17.636719-37.347656-17.632812c-12.285156-5.785157-23.945312-15.949219-34.40625-29.164063-15.699218-19.804687-28.597656-46.347656-37.441406-73.925781-8.863281-27.574219-13.695312-56.214844-13.683594-80.039063zm0 0" fill="#54596e"/><path d="m55.066406 143.359375 30.074219 54.613281 45.421875-13.65625h95.171875l46.734375 13.65625 28.355469-54.613281v-13.65625c0-67.863281-55.015625-122.878906-122.878907-122.878906-67.863281 0-122.878906 55.019531-122.878906 122.878906zm0 0" fill="#ffd578"/><path d="m55.066406 143.359375-5.980468 3.292969 30.074218 54.613281c1.546875 2.8125 4.863282 4.167969 7.941406 3.242187l44.464844-13.363281h93.191406l45.796876 13.378907c3.125.914062 6.472656-.515626 7.972656-3.40625l28.355468-54.613282c.5-.957031.769532-2.066406.769532-3.144531v-13.652344c-.003906-71.636719-58.070313-129.70312475-129.707032-129.707031-71.636718.00390625-129.699218 58.070312-129.707031 129.707031v13.652344c0 1.15625.289063 2.277344.847657 3.292969l5.980468-3.292969h6.824219v-13.65625c.003906-32.066406 12.980469-61.035156 33.992187-82.058594 21.023438-21.015625 49.996094-33.988281 82.0625-33.992187 32.070313.003906 61.039063 12.976562 82.0625 33.992187 21.011719 21.023438 33.988282 49.992188 33.992188 82.058594v11.984375l-25.003906 48.15625-41.347656-12.078125c-.617188-.179687-1.277344-.273437-1.914063-.273437h-95.171875c-.640625 0-1.355469.105468-1.964844.289062l-40.140625 12.0625-27.410156-49.78125-5.980469 3.296875h6.824219zm0 0" fill="#54596e"/><path d="m143.8125 211.625c0 18.851562 15.28125 34.132812 34.132812 34.132812 18.851563 0 34.132813-15.28125 34.132813-34.132812zm0 0" fill="#54596e"/><path d="m143.8125 211.625h-6.828125c.007813 22.625 18.335937 40.953125 40.960937 40.957031 22.625-.003906 40.957032-18.332031 40.960938-40.957031 0-1.800781-.730469-3.558594-2-4.828125-1.273438-1.273437-3.03125-2-4.828125-2h-68.265625c-1.796875 0-3.558594.726563-4.828125 2s-2 3.03125-2 4.828125h6.828125v6.828125h68.265625v-6.828125h-6.824219c-.003906 7.558594-3.046875 14.34375-8 19.304688-4.964844 4.953124-11.746094 7.996093-19.308594 8-7.558593-.003907-14.34375-3.042969-19.308593-8-4.949219-4.960938-7.996094-11.746094-7.996094-19.304688h-6.828125v6.828125zm0 0" fill="#54596e"/><path d="m191.597656 232.105469c0-3.769531-6.109375-6.828125-13.652344-6.828125-7.539062 0-13.652343 3.058594-13.652343 6.828125s6.113281 6.824219 13.652343 6.824219c7.542969 0 13.652344-3.054688 13.652344-6.824219zm0 0" fill="#ff927d"/><g fill="#54596e"><path d="m143.8125 146.773438c0 5.652343-4.585938 10.238281-10.238281 10.238281-5.65625 0-10.242188-4.585938-10.242188-10.238281 0-5.65625 4.585938-10.242188 10.242188-10.242188 5.652343 0 10.238281 4.585938 10.238281 10.242188zm0 0"/><path d="m232.558594 146.773438c0 5.652343-4.585938 10.238281-10.238282 10.238281-5.65625 0-10.242187-4.585938-10.242187-10.238281 0-5.65625 4.585937-10.242188 10.242187-10.242188 5.652344 0 10.238282 4.585938 10.238282 10.242188zm0 0"/><path d="m68.71875 389.117188v34.132812c0 3.773438 3.058594 6.828125 6.828125 6.828125s6.824219-3.054687 6.824219-6.828125v-34.132812c0-3.769532-3.054688-6.824219-6.824219-6.824219s-6.828125 3.054687-6.828125 6.824219"/><path d="m273.519531 389.117188v34.132812c0 3.773438 3.054688 6.828125 6.828125 6.828125 3.769532 0 6.824219-3.054687 6.824219-6.828125v-34.132812c0-3.769532-3.054687-6.824219-6.824219-6.824219-3.773437 0-6.828125 3.054687-6.828125 6.824219"/></g></svg>