<svg height="436pt" viewBox="-41 0 436 436.90667" width="436pt" xmlns="http://www.w3.org/2000/svg"><path d="m295.804688 307.199219h-228.886719c-32.9375 0-59.636719 22.890625-59.636719 51.117187v71.761719h341.332031v-77.613281c0-25-23.640625-45.265625-52.808593-45.265625zm0 0" fill="#55a6ff"/><path d="m295.804688 307.199219v-6.824219h-228.886719c-18.054688.003906-34.515625 6.253906-46.613281 16.613281-12.085938 10.324219-19.859376 25.007813-19.851563 41.328125v71.761719c0 1.824219.710937 3.539063 2 4.828125s3.003906 2 4.828125 2h341.332031c1.824219 0 3.535157-.707031 4.828125-2 1.289063-1.289062 2-3 2-4.828125v-77.613281c.007813-14.703125-7.003906-27.921875-17.851562-37.191406-10.863282-9.300782-25.617188-14.898438-41.789063-14.898438v13.652344c13-.003906 24.648438 4.53125 32.902344 11.613281 8.265625 7.117187 13.074219 16.53125 13.082031 26.828125v70.785156h-327.679687v-64.9375c.007812-11.910156 5.582031-22.785156 15.085937-30.960937 9.484375-8.140625 22.84375-13.332031 37.726563-13.332031h228.886719zm0 0" fill="#54596e"/><path d="m82.390625 430.078125h191.144531l-15.925781-109.226563h-159.289063zm0 0" fill="#8065c4"/><path d="m82.390625 430.078125v6.828125h191.144531c1.976563 0 3.871094-.867188 5.167969-2.359375 1.289063-1.496094 1.875-3.496094 1.589844-5.453125l-15.925781-109.226562c-.488282-3.34375-3.375-5.839844-6.753907-5.839844h-159.292969c-3.378906 0-6.265624 2.496094-6.753906 5.839844l-15.929687 109.226562c-.285157 1.957031.300781 3.957031 1.589843 5.453125 1.292969 1.492187 3.1875 2.359375 5.164063 2.359375v-6.828125l6.757813.988281 15.078124-103.390625h147.480469l13.933594 95.578125h-183.25v6.824219l6.753906.988281zm0 0" fill="#54596e"/><path d="m334.960938 150.1875c0 15.082031-12.226563 27.304688-27.308594 27.304688-15.078125 0-27.304688-12.222657-27.304688-27.304688s12.226563-27.308594 27.304688-27.308594c15.082031 0 27.308594 12.226563 27.308594 27.308594zm0 0" fill="#ffd578"/><path d="m334.960938 150.1875h6.824218c-.003906-18.855469-15.277344-34.128906-34.132812-34.132812-18.851563.003906-34.128906 15.277343-34.132813 34.132812.003907 18.851562 15.28125 34.128906 34.132813 34.128906 18.855468 0 34.128906-15.277344 34.132812-34.128906h-13.652344c-.019531 11.304688-9.171874 20.457031-20.480468 20.480469-11.304688-.023438-20.457032-9.175781-20.480469-20.480469.023437-11.308594 9.175781-20.460938 20.480469-20.484375 11.308594.023437 20.460937 9.175781 20.480468 20.484375zm0 0" fill="#54596e"/><path d="m75.546875 150.1875c0 15.082031-12.226563 27.304688-27.308594 27.304688-15.078125 0-27.304687-12.222657-27.304687-27.304688s12.226562-27.308594 27.304687-27.308594c15.082031 0 27.308594 12.226563 27.308594 27.308594zm0 0" fill="#ffd578"/><path d="m75.546875 150.1875h6.828125c-.007812-18.855469-15.28125-34.128906-34.136719-34.132812-18.851562.003906-34.125 15.277343-34.132812 34.132812.007812 18.851562 15.28125 34.128906 34.132812 34.128906 18.855469 0 34.128907-15.277344 34.136719-34.128906h-13.65625c-.019531 11.304688-9.171875 20.457031-20.480469 20.480469-11.304687-.023438-20.457031-9.175781-20.476562-20.480469.019531-11.308594 9.171875-20.460938 20.476562-20.484375 11.308594.023437 20.460938 9.175781 20.480469 20.484375zm0 0" fill="#54596e"/><path d="m177.945312 409.601562c-33.996093 0-66.316406-15.0625-86.269531-41.238281-27.269531-35.777343-43.4375-84.914062-43.4375-139.914062v-178.664063c0-19.953125 11.714844-36.132812 26.167969-36.132812h207.082031c14.453125 0 26.164063 16.179687 26.164063 36.132812v178.664063c0 55-16.167969 104.140625-43.433594 139.914062-19.953125 26.175781-52.273438 41.238281-86.273438 41.238281zm0 0" fill="#ff927d"/><path d="m177.945312 409.601562v-6.828124c-32 .007812-62.3125-14.203126-80.839843-38.546876-26.238281-34.40625-42.046875-82.113281-42.039063-135.777343v-178.664063c-.011718-8.640625 2.582032-16.351562 6.367188-21.546875 1.882812-2.601562 4.035156-4.574219 6.230468-5.851562 2.203126-1.277344 4.410157-1.902344 6.742188-1.910157h207.082031c2.328125.007813 4.535157.632813 6.742188 1.910157 3.289062 1.90625 6.492187 5.417969 8.824219 10.195312 2.332031 4.765625 3.777343 10.722657 3.773437 17.203125v178.664063c.007813 53.664062-15.800781 101.371093-42.039063 135.777343-18.53125 24.34375-48.84375 38.554688-80.84375 38.546876v13.652343c35.996094-.007812 70.328126-15.914062 91.699219-43.921875 28.304688-37.152344 44.828125-87.722656 44.835938-144.054687v-178.664063c-.015625-11.3125-3.277344-21.671875-8.960938-29.550781-2.851562-3.9375-6.335937-7.257813-10.402343-9.636719-4.058594-2.378906-8.734376-3.777344-13.628907-3.769531h-207.082031c-4.894531-.007813-9.574219 1.390625-13.628906 3.769531-6.101563 3.578125-10.890625 9.230469-14.203125 15.984375-3.304688 6.769531-5.15625 14.71875-5.160157 23.203125v178.664063c.007813 56.332031 16.53125 106.902343 44.832032 144.054687 21.371094 28.007813 55.707031 43.914063 91.699218 43.921875zm0 0" fill="#54596e"/><path d="m68.71875 160.691406c0 13.050782 11.289062 23.628906 25.207031 23.628906h168.042969c13.917969 0 25.207031-10.578124 25.207031-23.628906v-99.25h-185.417969c-18.246093 0-33.039062 18.84375-33.039062 33.667969zm0 0" fill="#ffd578"/><g fill="#54596e"><path d="m68.71875 160.691406h-6.824219c-.007812 8.519532 3.71875 16.25 9.539063 21.6875 5.820312 5.457032 13.792968 8.769532 22.492187 8.769532h168.039063c8.703125 0 16.671875-3.3125 22.492187-8.769532 5.824219-5.4375 9.546875-13.167968 9.542969-21.6875v-99.25c0-1.800781-.730469-3.558594-2-4.828125s-3.03125-2-4.828125-2h-185.414063c-11.558593.03125-21.464843 5.878907-28.410156 13.503907-6.9375 7.703124-11.382812 17.316406-11.453125 26.992187v65.582031h13.652344v-65.582031c-.074219-5.152344 2.878906-12.371094 7.898437-17.796875 5.007813-5.503906 11.621094-9.078125 18.3125-9.046875h178.589844v92.425781c-.007812 4.523438-1.925781 8.609375-5.226562 11.722656-3.304688 3.097657-7.933594 5.078126-13.15625 5.078126h-168.039063c-5.21875 0-9.851562-1.980469-13.15625-5.078126-3.300781-3.113281-5.21875-7.199218-5.222656-11.722656zm0 0"/><path d="m143.8125 211.625c0 18.851562 15.285156 34.136719 34.132812 34.136719 18.851563 0 34.132813-15.285157 34.132813-34.136719zm0 0"/><path d="m143.8125 211.625h-6.824219c.003907 22.625 18.335938 40.957031 40.957031 40.960938 22.625-.003907 40.957032-18.335938 40.960938-40.960938 0-1.796875-.726562-3.554688-2-4.828125-1.269531-1.269531-3.027344-1.996094-4.828125-1.996094h-68.265625c-1.796875 0-3.554688.726563-4.824219 1.996094-1.273437 1.273437-2 3.03125-2 4.828125h6.824219v6.828125h68.265625v-6.828125h-6.824219c-.003906 7.5625-3.046875 14.34375-8 19.308594-4.960937 4.953125-11.746094 7.996094-19.308594 8-7.558593-.003906-14.34375-3.046875-19.304687-8-4.953125-4.964844-7.996094-11.75-8-19.308594h-6.828125v6.828125zm0 0"/><path d="m143.8125 133.121094c0 5.65625-4.582031 10.238281-10.238281 10.238281s-10.242188-4.582031-10.242188-10.238281 4.585938-10.242188 10.242188-10.242188 10.238281 4.585938 10.238281 10.242188zm0 0"/><path d="m232.558594 133.121094c0 5.65625-4.582032 10.238281-10.238282 10.238281s-10.242187-4.582031-10.242187-10.238281 4.585937-10.242188 10.242187-10.242188 10.238282 4.585938 10.238282 10.242188zm0 0"/></g><path d="m116.507812 23.894531c0-9.425781 7.914063-17.066406 17.675782-17.066406h162.617187c9.765625 0 17.679688 7.640625 17.679688 17.066406v20.480469c0 9.425781-7.914063 17.066406-17.675781 17.066406h-162.621094" fill="#ff927d"/><path d="m123.332031 23.894531c.007813-2.78125 1.140625-5.257812 3.09375-7.160156 1.960938-1.882813 4.671875-3.082031 7.757813-3.082031h162.621094c3.085937 0 5.796874 1.199218 7.757812 3.082031 1.953125 1.902344 3.085938 4.378906 3.09375 7.160156v20.480469c-.007812 2.777344-1.140625 5.253906-3.09375 7.15625-1.960938 1.882812-4.671875 3.082031-7.757812 3.082031h-162.621094c-3.769532 0-6.824219 3.054688-6.824219 6.828125 0 3.769532 3.054687 6.824219 6.824219 6.824219h162.621094c6.675781.003906 12.804687-2.621094 17.238281-6.914063 4.445312-4.273437 7.269531-10.332031 7.265625-16.976562v-20.480469c.003906-6.648437-2.820313-12.707031-7.265625-16.980469-4.433594-4.292968-10.5625-6.914062-17.238281-6.914062h-162.621094c-6.675782 0-12.800782 2.621094-17.238282 6.914062-4.445312 4.273438-7.269531 10.332032-7.261718 16.980469 0 3.769531 3.054687 6.824219 6.824218 6.824219 3.769532 0 6.824219-3.054688 6.824219-6.824219zm0 0" fill="#54596e"/><path d="m164.292969 225.28125h27.308593v-13.65625h-27.308593" fill="#fff"/></svg>