<svg height="436pt" viewBox="-41 0 436 436.90667" width="436pt" xmlns="http://www.w3.org/2000/svg"><path d="m295.804688 307.199219h-228.886719c-32.9375 0-59.636719 22.890625-59.636719 51.117187v71.761719h341.332031v-77.613281c0-25-23.644531-45.265625-52.808593-45.265625zm0 0" fill="#9af43b"/><path d="m295.804688 307.199219v-6.824219h-228.886719c-18.054688.003906-34.515625 6.253906-46.613281 16.613281-12.085938 10.324219-19.859376 25.007813-19.851563 41.328125v71.761719c0 1.824219.710937 3.539063 2 4.828125s3.003906 2 4.828125 2h341.332031c1.824219 0 3.535157-.707031 4.828125-2 1.289063-1.289062 2-3 2-4.824219v-77.613281c.007813-14.707031-7.003906-27.925781-17.851562-37.191406-10.863282-9.300782-25.617188-14.898438-41.789063-14.902344v13.652344c13-.003906 24.648438 4.53125 32.902344 11.613281 8.265625 7.117187 13.074219 16.53125 13.082031 26.828125v70.785156h-327.679687v-64.9375c.007812-11.910156 5.582031-22.785156 15.085937-30.960937 9.484375-8.140625 22.84375-13.332031 37.726563-13.332031h228.886719zm0 0" fill="#54596e"/><path d="m253.039062 327.679688h-150.1875c-15.078124 0-27.304687-12.226563-27.304687-27.304688 0-15.082031 12.226563-27.308594 27.304687-27.308594h150.1875c15.082032 0 27.308594 12.226563 27.308594 27.308594 0 15.078125-12.226562 27.304688-27.308594 27.304688zm0 0" fill="#9af43b"/><path d="m253.039062 327.679688v-6.828126h-150.1875c-11.304687-.019531-20.457031-9.171874-20.476562-20.476562.019531-11.308594 9.171875-20.460938 20.476562-20.484375h150.1875c11.308594.023437 20.460938 9.175781 20.480469 20.484375-.019531 11.304688-9.171875 20.457031-20.480469 20.476562v13.65625c18.855469-.003906 34.128907-15.277343 34.132813-34.132812-.003906-18.855469-15.277344-34.128906-34.132813-34.132812h-150.1875c-18.851562.003906-34.125 15.277343-34.132812 34.132812.007812 18.855469 15.28125 34.128906 34.132812 34.132812h150.1875zm0 0" fill="#54596e"/><path d="m68.71875 389.121094v34.132812c0 3.769532 3.058594 6.824219 6.828125 6.824219s6.828125-3.054687 6.828125-6.824219v-34.132812c0-3.773438-3.058594-6.828125-6.828125-6.828125s-6.828125 3.058593-6.828125 6.828125" fill="#54596e"/><path d="m273.519531 389.121094v34.132812c0 3.769532 3.058594 6.824219 6.828125 6.824219 3.769532 0 6.824219-3.054687 6.824219-6.824219v-34.132812c0-3.773438-3.054687-6.828125-6.824219-6.828125-3.769531 0-6.828125 3.058593-6.828125 6.828125" fill="#54596e"/><path d="m334.960938 122.878906c0 15.082032-12.226563 27.308594-27.308594 27.308594-15.078125 0-27.304688-12.226562-27.304688-27.308594 0-15.078125 12.226563-27.304687 27.304688-27.304687 15.082031 0 27.308594 12.226562 27.308594 27.304687zm0 0" fill="#ffd578"/><path d="m334.960938 122.878906h6.824218c-.003906-18.855468-15.277344-34.128906-34.132812-34.132812-18.851563.003906-34.128906 15.277344-34.132813 34.132812.003907 18.855469 15.28125 34.128906 34.132813 34.132813 18.855468-.003907 34.128906-15.277344 34.132812-34.132813h-13.652344c-.019531 11.304688-9.171874 20.457032-20.480468 20.480469-11.304688-.023437-20.457032-9.175781-20.480469-20.480469.023437-11.304687 9.175781-20.457031 20.480469-20.480468 11.308594.023437 20.460937 9.175781 20.480468 20.480468zm0 0" fill="#54596e"/><path d="m75.546875 122.878906c0 15.082032-12.226563 27.308594-27.308594 27.308594-15.078125 0-27.304687-12.226562-27.304687-27.308594 0-15.078125 12.226562-27.304687 27.304687-27.304687 15.082031 0 27.308594 12.226562 27.308594 27.304687zm0 0" fill="#ffd578"/><path d="m75.546875 122.878906h6.828125c-.007812-18.855468-15.28125-34.128906-34.136719-34.132812-18.851562.003906-34.125 15.277344-34.132812 34.132812.007812 18.855469 15.28125 34.128906 34.132812 34.132813 18.855469-.003907 34.128907-15.277344 34.136719-34.132813h-13.65625c-.019531 11.304688-9.171875 20.457032-20.480469 20.480469-11.304687-.023437-20.457031-9.175781-20.476562-20.480469.019531-11.304687 9.171875-20.457031 20.476562-20.480468 11.308594.023437 20.460938 9.175781 20.480469 20.480468zm0 0" fill="#54596e"/><path d="m218.210938 300.375h-80.527344c-54.199219-22.820312-89.445313-72.375-89.445313-131.179688v-137.863281c0-9.765625 7.914063-17.679687 17.675781-17.679687h224.0625c9.761719 0 17.675782 7.914062 17.675782 17.679687v137.863281c0 58.804688-35.242188 108.359376-89.441406 131.179688zm0 0" fill="#bfad88"/><path d="m218.210938 300.375v-6.828125h-80.527344v6.828125l2.648437-6.296875c-51.90625-21.929687-85.21875-68.886719-85.265625-124.882813v-137.863281c.011719-5.992187 4.859375-10.839843 10.847656-10.851562h224.0625c5.988282.011719 10.839844 4.859375 10.847657 10.851562v137.863281c-.046875 55.996094-33.359375 102.953126-85.265625 124.886719l2.652344 6.292969v-6.828125 6.828125l2.648437 6.289062c56.492187-23.707031 93.667969-75.855468 93.621094-137.46875v-137.863281c-.003907-13.539062-10.96875-24.5-24.503907-24.503906h-224.0625c-13.535156.003906-24.496093 10.964844-24.5 24.503906v137.863281c-.046874 61.613282 37.125 113.761719 93.621094 137.46875.835938.351563 1.738282.535157 2.648438.535157h80.527344c.90625 0 1.8125-.183594 2.648437-.535157zm0 0" fill="#54596e"/><path d="m48.238281 160.691406c0 13.050782 13.402344 23.628906 29.933594 23.628906h199.546875c16.535156 0 29.933594-10.578124 29.933594-23.628906v-99.25h-220.183594c-21.664062 0-39.230469 18.84375-39.230469 33.667969zm0 0" fill="#ffd578"/><path d="m48.238281 160.691406h-6.824219c-.007812 8.9375 4.644532 16.800782 11.363282 22.066406 6.746094 5.308594 15.671875 8.378907 25.394531 8.390626h199.546875c9.722656-.011719 18.648438-3.082032 25.398438-8.390626 6.71875-5.265624 11.371093-13.125 11.363281-22.066406v-99.25c0-1.800781-.730469-3.558594-2-4.828125s-3.03125-2-4.828125-2h-220.183594c-12.855469.019531-24.195312 5.53125-32.375 13.089844-8.132812 7.609375-13.574219 17.285156-13.683594 27.40625v65.582031h13.65625v-65.582031c-.105468-4.703125 3.234375-11.863281 9.296875-17.382813 6.019531-5.570312 14.292969-9.480468 23.105469-9.460937h213.359375v92.425781c-.007813 4.105469-2.058594 8.058594-6.171875 11.347656-4.085938 3.242188-10.125 5.460938-16.9375 5.453126h-199.546875c-6.808594.007812-12.851563-2.210938-16.9375-5.453126-4.113281-3.289062-6.164063-7.242187-6.167969-11.347656zm0 0" fill="#54596e"/><path d="m143.8125 211.625c0 18.851562 15.285156 34.136719 34.132812 34.136719 18.851563 0 34.132813-15.285157 34.132813-34.136719zm0 0" fill="#54596e"/><path d="m143.8125 211.625h-6.824219c.003907 22.625 18.335938 40.957031 40.957031 40.960938 22.625-.003907 40.957032-18.335938 40.960938-40.960938 0-1.796875-.726562-3.554688-2-4.828125-1.269531-1.269531-3.027344-1.996094-4.828125-1.996094h-68.265625c-1.796875 0-3.554688.726563-4.824219 1.996094-1.273437 1.273437-2 3.03125-2 4.828125h6.824219v6.828125h68.265625v-6.828125h-6.824219c-.003906 7.5625-3.046875 14.34375-8 19.308594-4.960937 4.953125-11.746094 7.996094-19.308594 8-7.558593-.003906-14.34375-3.046875-19.304687-8-4.953125-4.964844-7.996094-11.75-8-19.308594h-6.828125v6.828125zm0 0" fill="#54596e"/><path d="m191.601562 232.105469c0-3.769531-6.113281-6.824219-13.65625-6.824219-7.539062 0-13.652343 3.054688-13.652343 6.824219s6.113281 6.828125 13.652343 6.828125c7.542969 0 13.65625-3.058594 13.65625-6.828125zm0 0" fill="#ff927d"/><path d="m130.160156 133.121094c0 5.65625-4.585937 10.238281-10.238281 10.238281-5.65625 0-10.242187-4.582031-10.242187-10.238281s4.585937-10.242188 10.242187-10.242188c5.652344 0 10.238281 4.585938 10.238281 10.242188zm0 0" fill="#54596e"/><path d="m246.214844 133.121094c0 5.65625-4.585938 10.238281-10.242188 10.238281s-10.238281-4.582031-10.238281-10.238281 4.582031-10.242188 10.238281-10.242188 10.242188 4.585938 10.242188 10.242188zm0 0" fill="#54596e"/><g fill="#55a6ff"><path d="m14.105469 368.640625h54.613281v20.480469h-54.613281zm0 0"/><path d="m287.171875 368.640625h54.613281v20.480469h-54.613281zm0 0"/><path d="m82.375 389.121094h191.144531v20.480468h-191.144531zm0 0"/><path d="m82.375 348.160156h191.144531v20.480469h-191.144531zm0 0"/></g><path d="m222.320312 61.441406h-88.746093c-9.425781 0-17.066407-7.640625-17.066407-17.066406v-20.480469c0-9.425781 7.640626-17.066406 17.066407-17.066406h88.746093c9.425782 0 17.066407 7.640625 17.066407 17.066406v20.480469c0 9.425781-7.640625 17.066406-17.066407 17.066406zm0 0" fill="#bfad88"/><path d="m222.320312 61.441406v-6.828125h-88.746093c-5.65625-.011719-10.230469-4.585937-10.242188-10.238281v-20.480469c.011719-5.65625 4.585938-10.230469 10.242188-10.242187h88.746093c5.652344.011718 10.230469 4.585937 10.238282 10.242187v20.480469c-.007813 5.652344-4.585938 10.226562-10.238282 10.238281v13.652344c13.199219-.003906 23.890626-10.691406 23.894532-23.890625v-20.480469c-.003906-13.199219-10.695313-23.89062475-23.894532-23.894531h-88.746093c-13.199219.00390625-23.890625 10.695312-23.894531 23.894531v20.480469c.003906 13.195312 10.695312 23.886719 23.894531 23.890625h88.746093zm0 0" fill="#54596e"/></svg>