<svg height="436pt" viewBox="-41 0 436 436.98347" width="436pt" xmlns="http://www.w3.org/2000/svg"><path d="m143.851562 286.71875h68.265626v81.921875h-68.265626zm0 0" fill="#ffd578"/><path d="m212.117188 368.640625v-6.828125h-61.4375v-68.269531h54.613281v75.097656h6.824219v-6.828125 6.828125h6.828124v-81.921875c0-1.796875-.730468-3.554688-2-4.828125-1.273437-1.269531-3.03125-1.996094-4.828124-1.996094h-68.265626c-1.796874 0-3.554687.726563-4.828124 1.996094-1.269532 1.273437-2 3.03125-2 4.828125v81.921875c0 1.820313.710937 3.535156 2 4.824219 1.292968 1.292968 3.003906 2 4.828124 2h68.265626c1.824218 0 3.539062-.707032 4.828124-2 1.289063-1.289063 2-3.003906 2-4.824219zm0 0" fill="#54596e"/><path d="m295.84375 320.851562h-43.042969l-74.820312 54.613282-74.816407-54.613282h-36.210937c-32.9375 0-59.632813 22.886719-59.632813 51.117188v58.109375h341.332032v-63.957031c0-25-23.644532-45.269532-52.808594-45.269532zm0 0" fill="#fff"/><path d="m295.84375 320.851562v-6.824218h-43.042969c-1.457031 0-2.84375.449218-4.023437 1.3125l-70.796875 51.671875-70.789063-51.671875c-1.179687-.863282-2.566406-1.3125-4.023437-1.3125h-36.214844c-18.050781.003906-34.515625 6.253906-46.609375 16.613281-12.085938 10.324219-19.859375 25.007813-19.851562 41.328125v58.109375c0 1.824219.710937 3.539063 2 4.828125 1.289062 1.289062 3.003906 2 4.828124 2h341.332032c1.820312 0 3.535156-.710938 4.824218-2 1.292969-1.289062 2-3.003906 2-4.828125v-63.957031c.011719-14.707032-7-27.925782-17.851562-37.195313-10.859375-9.300781-25.617188-14.894531-41.785156-14.898437v13.652344c13-.007813 24.648437 4.53125 32.898437 11.613281 8.265625 7.117187 13.078125 16.53125 13.085938 26.828125v57.132812h-327.679688v-51.28125c.007813-11.910156 5.582031-22.789062 15.085938-30.964844 9.484375-8.140624 22.84375-13.332031 37.726562-13.328124h33.980469l73.019531 53.300781c2.398438 1.75 5.652344 1.75 8.050781 0l73.019532-53.300781h40.816406zm0 0" fill="#54596e"/><path d="m143.851562 368.640625-34.132812 13.652344-6.828125-68.265625h40.960937zm0 0" fill="#fff"/><path d="m143.851562 368.640625-2.535156-6.339844-25.707031 10.28125-5.175781-51.734375h26.589844v47.789063h6.828124l-2.535156-6.339844 2.535156 6.34375h6.828126v-54.613281c0-1.800782-.730469-3.558594-2-4.828125-1.273438-1.273438-3.03125-2-4.828126-2h-40.960937c-1.925781 0-3.765625.816406-5.0625 2.246093-1.289063 1.425782-1.921875 3.34375-1.730469 5.257813l6.828125 68.269531c.210938 2.132813 1.417969 4.042969 3.25 5.152344 1.832031 1.113281 4.085938 1.300781 6.078125.503906l34.132813-13.652344c2.582031-1.03125 4.292969-3.554687 4.292969-6.339843h-6.828126zm0 0" fill="#54596e"/><path d="m212.117188 368.640625 34.132812 13.652344 6.828125-68.265625h-40.960937zm0 0" fill="#fff"/><g fill="#54596e"><path d="m212.117188 368.640625-2.535157 6.339844 34.132813 13.652343c1.992187.792969 4.242187.609376 6.078125-.503906 1.832031-1.113281 3.039062-3.023437 3.25-5.15625l6.828125-68.265625c.191406-1.917969-.4375-3.832031-1.730469-5.261719-1.292969-1.429687-3.136719-2.242187-5.0625-2.242187h-40.960937c-1.796876 0-3.558594.726563-4.828126 1.996094-1.269531 1.273437-1.996093 3.027343-1.996093 4.828125v54.613281c0 2.78125 1.707031 5.304687 4.289062 6.339844l2.535157-6.339844h6.828124v-47.789063h26.589844l-5.171875 51.730469-25.707031-10.28125-2.539062 6.339844h6.828124zm0 0"/><path d="m157.5 430.15625h40.957031l-9.097656-54.691406h-22.757813zm0 0"/><path d="m157.5 430.15625v6.828125h40.957031c2 0 3.917969-.886719 5.210938-2.414063 1.292969-1.527343 1.851562-3.5625 1.523437-5.535156l-9.097656-54.691406c-.546875-3.292969-3.398438-5.703125-6.734375-5.703125h-22.757813c-3.339843 0-6.1875 2.410156-6.734374 5.703125l-9.101563 54.691406c-.332031 1.972656.230469 4.007813 1.523437 5.535156 1.292969 1.527344 3.207032 2.414063 5.210938 2.414063v-6.828125l6.734375 1.121094 8.152344-48.988282h11.1875l6.828125 41.039063-32.902344.003906v6.824219l6.734375 1.121094zm0 0"/><path d="m68.757812 402.773438v20.480468c0 3.769532 3.058594 6.824219 6.828126 6.824219 3.769531 0 6.824218-3.054687 6.824218-6.824219v-20.480468c0-3.773438-3.054687-6.828126-6.824218-6.828126-3.769532 0-6.828126 3.054688-6.828126 6.828126"/><path d="m273.558594 402.773438v20.480468c0 3.769532 3.054687 6.824219 6.828125 6.824219 3.769531 0 6.824219-3.054687 6.824219-6.824219v-20.480468c0-3.773438-3.054688-6.828126-6.824219-6.828126-3.773438 0-6.828125 3.054688-6.828125 6.828126"/></g><path d="m341.824219 163.839844c0 15.082031-12.226563 27.308594-27.304688 27.308594-15.082031 0-27.308593-12.226563-27.308593-27.308594 0-15.082032 12.226562-27.304688 27.308593-27.304688 15.078125 0 27.304688 12.222656 27.304688 27.304688zm0 0" fill="#ffd578"/><path d="m341.824219 163.839844h6.828125c-.003906-18.855469-15.28125-34.128906-34.132813-34.132813-18.855469.003907-34.128906 15.277344-34.132812 34.132813.003906 18.855468 15.277343 34.128906 34.132812 34.132812 18.851563-.003906 34.128907-15.277344 34.132813-34.132812h-13.652344c-.023438 11.304687-9.175781 20.457031-20.480469 20.480468-11.308593-.023437-20.460937-9.175781-20.480469-20.480468.019532-11.304688 9.171876-20.460938 20.480469-20.480469 11.304688.019531 20.457031 9.175781 20.480469 20.480469zm0 0" fill="#54596e"/><path d="m68.757812 163.839844c0 15.082031-12.226562 27.308594-27.304687 27.308594-15.082031 0-27.308594-12.226563-27.308594-27.308594 0-15.082032 12.226563-27.304688 27.308594-27.304688 15.078125 0 27.304687 12.222656 27.304687 27.304688zm0 0" fill="#ffd578"/><path d="m68.757812 163.839844h6.828126c-.007813-18.855469-15.28125-34.128906-34.132813-34.132813-18.855469.003907-34.128906 15.277344-34.132813 34.132813.003907 18.855468 15.277344 34.128906 34.132813 34.132812 18.851563-.003906 34.125-15.277344 34.132813-34.132812h-13.652344c-.023438 11.304687-9.175782 20.457031-20.480469 20.480468-11.308594-.023437-20.460937-9.175781-20.480469-20.480468.019532-11.304688 9.171875-20.460938 20.480469-20.480469 11.304687.019531 20.457031 9.175781 20.480469 20.480469zm0 0" fill="#54596e"/><path d="m296.554688 34.132812h-61.082032v-1.652343c0-14.171875-12.085937-25.652344-27-25.652344h-60.972656c-14.914062 0-27 11.484375-27 25.652344v1.652343h-61.085938c-9.917968 0-17.960937 7.640626-17.960937 17.066407v157.015625c0 9.425781 8.042969 17.066406 17.960937 17.066406h237.140626c9.917968 0 17.960937-7.640625 17.960937-17.066406v-157.015625c.003906-9.425781-8.039063-17.066407-17.960937-17.066407zm0 0" fill="#bfad88"/><path d="m296.554688 34.132812v-6.824218h-61.082032v6.824218h6.828125v-1.652343c.003907-9.054688-3.894531-17.277344-10.035156-23.089844-6.132813-5.832031-14.570313-9.390625-23.792969-9.390625h-60.972656c-9.222656 0-17.660156 3.558594-23.796875 9.390625-6.136719 5.8125-10.039063 14.035156-10.03125 23.089844v1.652343h6.828125v-6.824218h-61.085938c-6.722656-.003906-12.902343 2.59375-17.402343 6.871094-4.503907 4.261718-7.394531 10.335937-7.386719 17.019531v157.015625c-.007812 6.679687 2.882812 12.753906 7.386719 17.015625 4.5 4.28125 10.675781 6.875 17.402343 6.875h237.140626c6.722656 0 12.902343-2.597657 17.402343-6.875 4.503907-4.261719 7.390625-10.335938 7.386719-17.015625v-157.015625c.007812-6.683594-2.882812-12.757813-7.386719-17.019531-4.5-4.277344-10.679687-6.875-17.402343-6.871094v13.648437c3.195312.003907 6 1.226563 8 3.121094 1.996093 1.917969 3.128906 4.375 3.136718 7.121094v157.015625c-.007812 2.742187-1.140625 5.199218-3.136718 7.117187-2 1.894531-4.804688 3.121094-8 3.121094h-237.140626c-3.195312 0-6-1.226563-8-3.121094-1.996093-1.917969-3.128906-4.375-3.136718-7.117187v-157.015625c.007812-2.742188 1.140625-5.203125 3.136718-7.121094 2-1.894531 4.804688-3.117187 8-3.121094h61.082032c1.824218 0 3.539062-.707031 4.828125-1.996093 1.289062-1.292969 2-3.003907 2-4.828126v-1.652343c.007812-5.117188 2.152343-9.722657 5.785156-13.191407 3.632813-3.453124 8.695313-5.636718 14.390625-5.636718h60.972656c5.691406 0 10.753906 2.183594 14.390625 5.636718 3.632813 3.46875 5.777344 8.074219 5.785157 13.191407v1.652343c0 1.824219.710937 3.535157 2 4.828126 1.289062 1.289062 3.003906 1.996093 4.824218 1.996093h61.085938v-6.824219zm0 0" fill="#54596e"/><path d="m177.984375 334.507812c64.09375 0 116.054687-51.960937 116.054687-116.054687v-96.089844c0-11.027343-8.9375-19.964843-19.964843-19.964843h-192.179688c-11.027343 0-19.960937 8.9375-19.960937 19.964843v96.089844c0 64.09375 51.957031 116.054687 116.050781 116.054687zm0 0" fill="#ffd578"/><path d="m177.984375 334.507812v6.824219c67.867187-.003906 122.875-55.011719 122.878906-122.878906v-96.089844c0-14.800781-11.988281-26.785156-26.789062-26.789062h-192.179688c-14.796875.003906-26.785156 11.988281-26.789062 26.789062v96.089844c.003906 67.867187 55.011719 122.875 122.878906 122.878906v-13.652343c-30.183594-.003907-57.445313-12.214844-77.234375-31.992188-19.777344-19.789062-31.988281-47.054688-31.992188-77.234375v-96.089844c.015626-7.253906 5.882813-13.125 13.136719-13.136719h192.179688c7.253906.011719 13.121093 5.882813 13.136719 13.136719v96.089844c-.003907 30.183594-12.214844 57.445313-31.992188 77.234375-19.789062 19.777344-47.050781 31.988281-77.234375 31.992188zm0 0" fill="#54596e"/><path d="m143.851562 252.585938c0 18.851562 15.285157 34.132812 34.132813 34.132812 18.851563 0 34.132813-15.28125 34.132813-34.132812zm0 0" fill="#54596e"/><path d="m143.851562 252.585938h-6.828124c.007812 22.625 18.339843 40.957031 40.960937 40.960937 22.625-.003906 40.957031-18.335937 40.960937-40.960937 0-1.796876-.730468-3.554688-2-4.828126-1.273437-1.269531-3.03125-1.996093-4.828124-1.996093h-68.265626c-1.796874 0-3.554687.726562-4.828124 1.996093-1.269532 1.273438-2 3.03125-2 4.828126h6.828124v6.824218h68.265626v-6.824218h-6.824219c-.003907 7.5625-3.046875 14.34375-8 19.304687-4.964844 4.953125-11.746094 7.996094-19.308594 8.003906-7.558594-.007812-14.34375-3.046875-19.308594-8.003906-4.949219-4.960937-7.992187-11.746094-7.996093-19.304687h-6.828126v6.824218zm0 0" fill="#54596e"/><path d="m191.636719 273.066406c0-3.769531-6.109375-6.828125-13.652344-6.828125-7.539063 0-13.652344 3.058594-13.652344 6.828125 0 3.769532 6.113281 6.828125 13.652344 6.828125 7.542969 0 13.652344-3.058593 13.652344-6.828125zm0 0" fill="#ff927d"/><path d="m143.851562 174.078125c0 5.65625-4.585937 10.242187-10.238281 10.242187-5.65625 0-10.242187-4.585937-10.242187-10.242187 0-5.652344 4.585937-10.238281 10.242187-10.238281 5.652344 0 10.238281 4.585937 10.238281 10.238281zm0 0" fill="#54596e"/><path d="m232.597656 174.078125c0 5.65625-4.582031 10.242187-10.238281 10.242187s-10.242187-4.585937-10.242187-10.242187c0-5.652344 4.585937-10.238281 10.242187-10.238281s10.238281 4.585937 10.238281 10.238281zm0 0" fill="#54596e"/></svg>