<svg height="423pt" viewBox="0 -48 423.25333 423" width="423pt" xmlns="http://www.w3.org/2000/svg"><path d="m416.425781 54.738281h-409.597656v-31.988281c0-8.722656 7.074219-15.796875 15.792969-15.796875h378.011718c8.71875 0 15.792969 7.074219 15.792969 15.796875zm0 0" fill="#fff"/><path d="m416.425781 54.738281v-6.824219h-402.773437v-25.164062c.007812-4.949219 4.023437-8.960938 8.96875-8.96875h378.011718c4.945313.007812 8.957032 4.019531 8.96875 8.96875v31.988281h6.824219v-6.824219 6.824219h6.828125v-31.988281c-.003906-12.496094-10.125-22.617188-22.621094-22.625h-378.011718c-12.496094.007812-22.61718775 10.128906-22.621094 22.625v31.988281c0 1.800781.730469 3.558594 2 4.828125 1.273438 1.273438 3.03125 2 4.828125 2h409.597656c1.796875 0 3.554688-.726562 4.828125-2 1.269532-1.269531 2-3.027344 2-4.828125zm0 0" fill="#54596e"/><path d="m400.632812 320.980469h-378.011718c-8.71875 0-15.792969-7.074219-15.792969-15.796875v-250.445313h409.597656v250.445313c0 8.722656-7.070312 15.796875-15.792969 15.796875zm0 0" fill="#8065c4"/><path d="m400.632812 320.980469v-6.828125h-378.011718c-4.945313-.007813-8.960938-4.019532-8.96875-8.96875v-243.617188h395.949218v243.617188c-.011718 4.949218-4.023437 8.960937-8.96875 8.96875v13.65625c12.496094-.007813 22.617188-10.128906 22.621094-22.625v-250.445313c0-1.796875-.730468-3.554687-2-4.828125-1.269531-1.269531-3.03125-1.996094-4.828125-1.996094h-409.597656c-1.796875 0-3.558594.726563-4.828125 1.996094-1.269531 1.273438-2 3.03125-2 4.828125v250.445313c.00390625 12.496094 10.125 22.617187 22.621094 22.621094h378.011718zm0 0" fill="#54596e"/><path d="m40.960938 30.847656c0 5.65625-4.585938 10.238282-10.242188 10.238282-5.652344 0-10.238281-4.582032-10.238281-10.238282s4.585937-10.242187 10.238281-10.242187c5.65625 0 10.242188 4.585937 10.242188 10.242187zm0 0" fill="#ff927d"/><path d="m68.265625 30.847656c0 5.65625-4.582031 10.238282-10.238281 10.238282s-10.242188-4.582032-10.242188-10.238282 4.585938-10.242187 10.242188-10.242187 10.238281 4.585937 10.238281 10.242187zm0 0" fill="#ffd400"/><path d="m95.574219 30.847656c0 5.65625-4.585938 10.238282-10.242188 10.238282-5.652343 0-10.238281-4.582032-10.238281-10.238282s4.585938-10.242187 10.238281-10.242187c5.65625 0 10.242188 4.585937 10.242188 10.242187zm0 0" fill="#9af43b"/><path d="m382.292969 320.980469h-177.492188v-165.402344c0-21.757813 17.640625-39.398437 39.398438-39.398437h98.695312c21.757813 0 39.398438 17.640624 39.398438 39.398437zm0 0" fill="#fff35f"/><path d="m382.292969 320.980469v-6.828125h-170.667969v-158.574219c.003906-9.015625 3.636719-17.117187 9.542969-23.03125 5.914062-5.90625 14.015625-9.535156 23.03125-9.539063h98.695312c9.015625.003907 17.113281 3.632813 23.03125 9.539063 5.90625 5.914063 9.539063 14.015625 9.539063 23.03125v165.402344h6.828125v-6.828125 6.828125h6.828125v-165.402344c-.007813-25.53125-20.695313-46.222656-46.226563-46.226563h-98.695312c-25.53125.003907-46.222657 20.695313-46.226563 46.226563v165.402344c0 1.796875.730469 3.554687 2 4.824219 1.273438 1.273437 3.03125 2 4.828125 2h177.492188c1.796875 0 3.554687-.726563 4.828125-2 1.269531-1.269532 2-3.027344 2-4.824219zm0 0" fill="#54596e"/><path d="m273.066406 273.191406h40.960938v47.789063h-40.960938zm0 0" fill="#ffd578"/><path d="m314.027344 273.191406v-6.824218h-40.960938c-1.796875 0-3.554687.726562-4.828125 1.996093-1.269531 1.273438-2 3.03125-2 4.828125v47.789063c0 1.796875.730469 3.554687 2 4.824219 1.273438 1.273437 3.03125 2 4.828125 2h40.960938c1.796875 0 3.554687-.726563 4.824218-2 1.273438-1.269532 2-3.027344 2-4.824219v-47.789063c0-1.796875-.726562-3.554687-1.996093-4.828125-1.273438-1.269531-3.03125-1.996093-4.828125-1.996093v6.824218h-6.828125v40.960938h-27.304688v-34.132813h34.132813v-6.828125h-6.828125zm0 0" fill="#54596e"/><path d="m313.960938 149.898438.066406.414062c0 11.3125-15.28125 20.480469-34.132813 20.480469-18.855469 0-34.132812-9.167969-34.132812-20.480469l.011719-.097656-20.492188.097656v68.695312c0 41.234376 30.566406 74.664063 68.265625 74.664063s68.265625-33.429687 68.265625-74.664063v-69.335937zm0 0" fill="#ffd578"/><path d="m313.960938 149.898438-6.742188 1.078124.066406.414063 6.742188-1.078125h-6.828125c-.007813 1.269531-.382813 2.523438-1.433594 4.039062-1.550781 2.246094-4.796875 4.789063-9.351563 6.617188-4.535156 1.84375-10.28125 3-16.519531 2.996094-8.320312.019531-15.765625-2.082032-20.625-5.023438-2.4375-1.457031-4.203125-3.097656-5.246093-4.589844-1.054688-1.515624-1.425782-2.769531-1.4375-4.039062h-6.824219l6.761719.933594.011718-.097656c.269532-1.957032-.324218-3.945313-1.625-5.429688-1.304687-1.488281-3.195312-2.339844-5.167968-2.328125l-20.496094.097656c-3.75.015625-6.792969 3.074219-6.792969 6.824219v68.695312c0 22.3125 8.265625 42.617188 21.785156 57.402344 13.492188 14.785156 32.40625 24.097656 53.308594 24.089844 20.902344.007812 39.816406-9.304688 53.308594-24.089844 13.515625-14.785156 21.78125-35.089844 21.785156-57.402344v-69.335937c0-1.824219-.71875-3.550781-2.011719-4.835937-1.292968-1.285157-3.023437-1.996094-4.847656-1.988282l-47.855469.222656c-2 .007813-3.878906.882813-5.171875 2.410157-1.292968 1.523437-1.851562 3.519531-1.535156 5.496093l6.742188-1.078124.03125 6.824218 40.996093-.191406v62.476562c0 18.921876-7.019531 35.953126-18.207031 48.191407-11.21875 12.238281-26.4375 19.640625-43.234375 19.648437-16.796875-.007812-32.015625-7.410156-43.234375-19.652344-11.191406-12.238281-18.207031-29.265624-18.207031-48.1875v-61.898437l13.699219-.066406-.03125-6.828125-6.761719-.933594-.015625.097656-.0625.933594c-.011719 4.386719 1.527344 8.519531 3.929687 11.90625 3.628907 5.101562 9.039063 8.8125 15.378907 11.402344 6.359374 2.570312 13.75 3.992187 21.652343 3.996094 10.535157-.019532 20.15625-2.5 27.648438-6.96875 3.738281-2.25 6.96875-5.023438 9.378906-8.429688 2.402344-3.386719 3.941406-7.519531 3.929687-11.90625l-.085937-1.078125-.066406-.417969-6.738281 1.082032.03125 6.824218zm0 0" fill="#54596e"/><path d="m286.71875 256.125h13.65625c5.652344 0 10.238281-4.585938 10.238281-10.238281 0-5.65625-4.585937-10.238281-10.238281-10.238281h-13.65625c-5.65625 0-10.238281 4.582031-10.238281 10.238281s4.582031 10.238281 10.238281 10.238281" fill="#ff927d"/><g fill="#54596e"><path d="m273.066406 204.925781c0 3.769531-3.054687 6.828125-6.828125 6.828125-3.769531 0-6.824219-3.058594-6.824219-6.828125s3.054688-6.824219 6.824219-6.824219c3.773438 0 6.828125 3.054688 6.828125 6.824219zm0 0"/><path d="m327.679688 204.925781c0 3.769531-3.054688 6.828125-6.828126 6.828125-3.769531 0-6.824218-3.058594-6.824218-6.828125s3.054687-6.824219 6.824218-6.824219c3.773438 0 6.828126 3.054688 6.828126 6.824219zm0 0"/><path d="m40.960938 109.351562h116.050781c3.773437 0 6.828125-3.054687 6.828125-6.824218 0-3.769532-3.054688-6.828125-6.828125-6.828125h-116.050781c-3.769532 0-6.828126 3.058593-6.828126 6.828125 0 3.769531 3.058594 6.824218 6.828126 6.824218"/><path d="m40.960938 204.925781h88.746093c3.769531 0 6.828125-3.054687 6.828125-6.824219 0-3.773437-3.058594-6.828124-6.828125-6.828124h-88.746093c-3.769532 0-6.828126 3.054687-6.828126 6.828124 0 3.769532 3.058594 6.824219 6.828126 6.824219"/><path d="m40.960938 239.058594h88.746093c3.769531 0 6.828125-3.054688 6.828125-6.824219s-3.058594-6.828125-6.828125-6.828125h-88.746093c-3.769532 0-6.828126 3.058594-6.828126 6.828125s3.058594 6.824219 6.828126 6.824219"/><path d="m40.960938 273.191406h88.746093c3.769531 0 6.828125-3.054687 6.828125-6.824218 0-3.769532-3.058594-6.828126-6.828125-6.828126h-88.746093c-3.769532 0-6.828126 3.058594-6.828126 6.828126 0 3.769531 3.058594 6.824218 6.828126 6.824218"/><path d="m40.960938 143.488281h47.785156c3.769531 0 6.828125-3.058593 6.828125-6.828125 0-3.769531-3.058594-6.828125-6.828125-6.828125h-47.785156c-3.769532 0-6.828126 3.058594-6.828126 6.828125 0 3.769532 3.058594 6.828125 6.828126 6.828125"/><path d="m116.054688 143.488281h61.4375c3.769531 0 6.828124-3.058593 6.828124-6.828125 0-3.769531-3.058593-6.828125-6.828124-6.828125h-61.4375c-3.769532 0-6.828126 3.058594-6.828126 6.828125 0 3.769532 3.058594 6.828125 6.828126 6.828125"/></g></svg>