<svg height="423pt" viewBox="0 -27 423.25333 423" width="423pt" xmlns="http://www.w3.org/2000/svg"><path d="m416.425781 252.714844h-409.597656v-224.3125c0-11.84375 9.601563-21.449219 21.449219-21.449219h366.699218c11.847657 0 21.449219 9.605469 21.449219 21.449219zm0 0" fill="#8065c4"/><path d="m416.425781 252.714844v-6.828125h-402.773437v-217.484375c.015625-8.074219 6.550781-14.609375 14.625-14.625h366.699218c8.074219.015625 14.609376 6.550781 14.621094 14.625v224.3125h6.828125v-6.828125 6.828125h6.828125v-224.3125c-.003906-15.617188-12.65625-28.273438-28.277344-28.277344h-366.699218c-15.621094.003906-28.27343775 12.660156-28.277344 28.277344v224.3125c0 1.796875.730469 3.554687 2 4.824218 1.273438 1.273438 3.03125 2 4.828125 2h409.597656c1.796875 0 3.554688-.726562 4.828125-1.996093 1.269532-1.273438 2-3.03125 2-4.828125zm0 0" fill="#54596e"/><path d="m95.574219 204.925781h54.613281v47.789063h-54.613281zm0 0" fill="#ffd578"/><path d="m150.1875 204.925781v-6.824219h-54.613281c-1.796875 0-3.558594.726563-4.828125 1.996094-1.269532 1.273438-2 3.03125-2 4.828125v47.789063c0 1.796875.730468 3.554687 2 4.824218 1.269531 1.273438 3.03125 2 4.828125 2h54.613281c1.796875 0 3.554688-.726562 4.824219-2 1.273437-1.269531 2-3.027343 2-4.824218v-47.789063c0-1.796875-.726563-3.554687-2-4.828125-1.269531-1.269531-3.027344-1.996094-4.824219-1.996094v6.824219h-6.828125v40.960938h-40.960937v-34.132813h47.789062v-6.828125h-6.828125zm0 0" fill="#54596e"/><path d="m122.878906 225.40625c-37.703125 0-68.265625-33.429688-68.265625-74.667969v-96l136.535157 26.667969v69.332031c0 41.238281-30.566407 74.667969-68.269532 74.667969zm0 0" fill="#ffd578"/><path d="m122.878906 225.40625v-6.828125c-16.796875-.003906-32.019531-7.40625-43.230468-19.648437-11.195313-12.238282-18.210938-29.265626-18.207032-48.191407v-87.710937l122.878906 24v63.710937c0 18.925781-7.015624 35.953125-18.207031 48.191407-11.214843 12.242187-26.433593 19.644531-43.234375 19.648437v13.65625c20.90625.003906 39.820313-9.308594 53.308594-24.089844 13.519531-14.785156 21.78125-35.089843 21.785156-57.40625v-69.332031c0-3.257812-2.320312-6.078125-5.519531-6.699219l-136.53125-26.667969c-2.011719-.390624-4.066406.128907-5.648437 1.429688-1.582032 1.304688-2.488282 3.222656-2.488282 5.269531v96c.003906 22.316407 8.269532 42.621094 21.785156 57.40625 13.492188 14.78125 32.40625 24.09375 53.308594 24.089844zm0 0" fill="#54596e"/><path d="m88.746094 163.964844c0 18.851562 15.285156 34.136718 34.132812 34.136718 18.851563 0 34.132813-15.285156 34.132813-34.136718zm0 0" fill="#54596e"/><path d="m136.535156 184.445312c0-3.769531-6.113281-6.824218-13.65625-6.824218-7.539062 0-13.652344 3.054687-13.652344 6.824218 0 3.773438 6.113282 6.828126 13.652344 6.828126 7.542969 0 13.65625-3.054688 13.65625-6.828126zm0 0" fill="#ff927d"/><path d="m102.398438 136.660156c0 3.769532-3.054688 6.828125-6.824219 6.828125s-6.828125-3.058593-6.828125-6.828125c0-3.769531 3.058594-6.828125 6.828125-6.828125s6.824219 3.058594 6.824219 6.828125zm0 0" fill="#54596e"/><path d="m157.011719 136.660156c0 3.769532-3.054688 6.828125-6.824219 6.828125s-6.828125-3.058593-6.828125-6.828125c0-3.769531 3.058594-6.828125 6.828125-6.828125s6.824219 3.058594 6.824219 6.828125zm0 0" fill="#54596e"/><path d="m394.976562 307.328125h-366.699218c-11.847656 0-21.449219-9.605469-21.449219-21.449219v-33.164062h409.597656v33.164062c0 11.84375-9.601562 21.449219-21.449219 21.449219zm0 0" fill="#fff"/><path d="m394.976562 307.328125v-6.828125h-366.699218c-8.074219-.015625-14.609375-6.550781-14.625-14.621094v-26.339844h395.949218v26.339844c-.015624 8.070313-6.550781 14.609375-14.625 14.621094v13.652344c15.621094-.003906 28.273438-12.65625 28.277344-28.273438v-33.164062c0-1.800782-.730468-3.558594-2-4.828125-1.269531-1.269531-3.03125-2-4.828125-2h-409.597656c-1.796875 0-3.558594.726562-4.828125 2-1.269531 1.269531-2 3.027343-2 4.828125v33.164062c.00390625 15.617188 12.65625 28.269532 28.277344 28.273438h366.699218zm0 0" fill="#54596e"/><path d="m225.28125 280.019531c0 7.539063-6.113281 13.652344-13.65625 13.652344-7.539062 0-13.652344-6.113281-13.652344-13.652344 0-7.539062 6.113282-13.652343 13.652344-13.652343 7.542969 0 13.65625 6.113281 13.65625 13.652343zm0 0" fill="#999"/><path d="m279.894531 361.941406-34.132812-27.308594v-27.304687h-68.269531v27.304687l-34.132813 27.308594zm0 0" fill="#fff"/><path d="m279.894531 361.941406 4.265625-5.332031-31.574218-25.257813v-24.023437c0-1.800781-.726563-3.558594-2-4.828125-1.269532-1.273438-3.027344-2-4.824219-2h-68.269531c-1.796876 0-3.554688.726562-4.824219 2-1.273438 1.269531-2 3.027344-2 4.828125v24.023437l-31.574219 25.257813c-2.269531 1.816406-3.136719 4.847656-2.175781 7.589844.960937 2.742187 3.535156 4.566406 6.441406 4.566406h136.535156c2.90625 0 5.480469-1.820313 6.441407-4.566406.960937-2.742188.089843-5.773438-2.179688-7.589844l-4.261719 5.332031v-6.828125h-117.074219l18.9375-15.148437c1.617188-1.296875 2.5625-3.257813 2.5625-5.332032v-20.480468h54.613282v20.480468c0 2.074219.945312 4.035157 2.5625 5.332032l34.132812 27.304687 4.265625-5.328125v-6.828125zm0 0" fill="#54596e"/><path d="m61.441406 368.765625h300.371094c3.769531 0 6.828125-3.054687 6.828125-6.824219 0-3.769531-3.058594-6.828125-6.828125-6.828125h-300.371094c-3.769531 0-6.828125 3.058594-6.828125 6.828125 0 3.769532 3.058594 6.824219 6.828125 6.824219" fill="#54596e"/><path d="m34.132812 47.914062h157.015626v47.785157h-109.226563c-26.394531 0-47.789063-21.390625-47.789063-47.785157zm0 0" fill="#fff35f"/><path d="m34.132812 47.914062v6.824219h150.1875v34.136719h-102.398437c-11.335937-.003906-21.53125-4.574219-28.964844-11.996094-7.421875-7.4375-11.992187-17.632812-11.996093-28.964844h-6.828126v6.824219-6.824219h-6.824218c0 30.164063 24.445312 54.609376 54.613281 54.613282h109.226563c1.796874 0 3.554687-.730469 4.824218-2 1.273438-1.273438 2-3.03125 2-4.828125v-47.785157c0-1.800781-.726562-3.558593-2-4.828124-1.269531-1.269532-3.027344-2-4.824218-2h-157.015626c-1.796874 0-3.554687.726562-4.824218 2-1.273438 1.269531-2 3.027343-2 4.828124zm0 0" fill="#54596e"/><path d="m389.121094 252.714844h-177.496094v-165.40625c0-21.753906 17.640625-39.394532 39.398438-39.394532h98.699218c21.757813 0 39.398438 17.640626 39.398438 39.394532zm0 0" fill="#fff35f"/><path d="m389.121094 252.714844v-6.828125h-170.667969v-158.578125c.003906-9.011719 3.636719-17.113282 9.539063-23.027344 5.917968-5.90625 14.015624-9.539062 23.03125-9.542969h98.699218c9.015625.003907 17.113282 3.636719 23.03125 9.542969 5.902344 5.914062 9.535156 14.015625 9.539063 23.027344v165.40625h6.828125v-6.828125 6.828125h6.824218v-165.40625c-.003906-25.527344-20.691406-46.21875-46.222656-46.222656h-98.699218c-25.53125.003906-46.21875 20.695312-46.222657 46.222656v165.40625c0 1.796875.726563 3.554687 2 4.824218 1.269531 1.273438 3.027344 2 4.824219 2h177.496094c1.796875 0 3.554687-.726562 4.824218-2 1.273438-1.269531 2-3.027343 2-4.824218zm0 0" fill="#54596e"/><path d="m279.894531 204.925781h40.957031v47.789063h-40.957031zm0 0" fill="#ffd578"/><path d="m320.851562 204.925781v-6.824219h-40.957031c-1.796875 0-3.558593.726563-4.828125 1.996094-1.269531 1.273438-2 3.03125-2 4.828125v47.789063c0 1.796875.730469 3.554687 2 4.824218 1.273438 1.273438 3.03125 2 4.828125 2h40.957031c1.800782 0 3.558594-.726562 4.828126-2 1.273437-1.269531 2-3.027343 2-4.824218v-47.789063c0-1.796875-.726563-3.554687-2-4.828125-1.269532-1.269531-3.027344-1.996094-4.828126-1.996094v6.824219h-6.824218v40.960938h-27.308594v-34.132813h34.132812v-6.828125h-6.824218zm0 0" fill="#54596e"/><path d="m320.785156 81.628906.066406.417969c0 11.308594-15.28125 20.480469-34.132812 20.480469-18.847656 0-34.132812-9.171875-34.132812-20.480469l.019531-.097656-20.5.097656v68.691406c0 41.238281 30.5625 74.667969 68.269531 74.667969 37.703125 0 68.265625-33.429688 68.265625-74.667969v-69.332031zm0 0" fill="#ffd578"/><path d="m320.785156 81.628906-6.734375 1.132813.070313.417969 6.730468-1.132813h-6.824218c-.011719 1.269531-.382813 2.523437-1.4375 4.039063-1.546875 2.246093-4.796875 4.789062-9.351563 6.617187-4.535156 1.84375-10.28125 3-16.519531 2.996094-8.3125.019531-15.761719-2.082031-20.621094-5.023438-2.4375-1.460937-4.203125-3.097656-5.25-4.589843-1.050781-1.515626-1.425781-2.769532-1.433594-4.039063h-6.828124l6.726562 1.160156.019531-.097656c.34375-1.996094-.207031-4.027344-1.519531-5.570313-1.304688-1.546874-3.21875-2.425781-5.242188-2.417968l-20.496093.097656c-3.75.019531-6.792969 3.078125-6.792969 6.828125v68.691406c0 22.316407 8.265625 42.621094 21.78125 57.40625 13.492188 14.78125 32.40625 24.09375 53.3125 24.089844 20.902344.003906 39.816406-9.308594 53.308594-24.089844 13.515625-14.785156 21.78125-35.089843 21.78125-57.40625v-69.332031c0-1.824219-.71875-3.554688-2.011719-4.839844-1.289063-1.285156-3.023437-1.996094-4.84375-1.988281l-47.859375.226563c-2 .007812-3.902344.898437-5.1875 2.425781-1.289062 1.53125-1.84375 3.558593-1.511719 5.53125l6.734375-1.132813.03125 6.828125 40.996094-.191406v62.472656c.003906 18.925781-7.011719 35.953125-18.207031 48.191407-11.214844 12.242187-26.433594 19.644531-43.230469 19.648437-16.800781-.003906-32.019531-7.40625-43.234375-19.648437-11.191406-12.238282-18.210937-29.265626-18.207031-48.191407v-61.898437l13.703125-.0625-.03125-6.828125-6.730469-1.160157-.015625.097657-.097656 1.160156c-.011719 4.386719 1.523437 8.519531 3.925781 11.902344 3.632812 5.105469 9.042969 8.816406 15.382812 11.40625 6.359376 2.570312 13.746094 3.992187 21.648438 3.996093 10.535156-.019531 20.15625-2.5 27.648438-6.96875 3.738281-2.25 6.972656-5.023437 9.382812-8.433593 2.402344-3.382813 3.941406-7.515625 3.929688-11.902344l-.09375-1.132813-.070313-.414062-6.730469 1.128906.03125 6.828125zm0 0" fill="#54596e"/><path d="m293.546875 187.859375h13.652344c5.65625 0 10.242187-4.585937 10.242187-10.238281 0-5.65625-4.585937-10.242188-10.242187-10.242188h-13.652344c-5.65625 0-10.238281 4.585938-10.238281 10.242188 0 5.652344 4.582031 10.238281 10.238281 10.238281" fill="#ff927d"/><g fill="#54596e"><path d="m279.894531 136.660156c0 3.769532-3.058593 6.828125-6.828125 6.828125-3.769531 0-6.828125-3.058593-6.828125-6.828125 0-3.769531 3.058594-6.828125 6.828125-6.828125 3.769532 0 6.828125 3.058594 6.828125 6.828125zm0 0"/><path d="m334.507812 136.660156c0 3.769532-3.058593 6.828125-6.828124 6.828125-3.769532 0-6.828126-3.058593-6.828126-6.828125 0-3.769531 3.058594-6.828125 6.828126-6.828125 3.769531 0 6.828124 3.058594 6.828124 6.828125zm0 0"/></g></svg>