<svg height="432pt" viewBox="0 -1 432.40006 432" width="432pt" xmlns="http://www.w3.org/2000/svg"><path d="m333.871094 300.578125h-228.890625c-32.933594 0-59.632813 22.886719-59.632813 51.113281v71.765625h341.332032v-77.613281c0-25-23.644532-45.265625-52.808594-45.265625zm0 0" fill="#fff35f"/><path d="m333.871094 300.578125v-6.828125h-228.890625c-18.050781.003906-34.515625 6.257812-46.609375 16.613281-12.085938 10.328125-19.859375 25.007813-19.851563 41.328125v71.765625c0 1.796875.730469 3.554688 2 4.828125 1.273438 1.269532 3.03125 1.996094 4.828125 1.996094h341.332032c1.796874 0 3.554687-.726562 4.828124-1.996094 1.269532-1.273437 2-3.03125 2-4.828125v-77.613281c.007813-14.707031-7.003906-27.925781-17.851562-37.191406-10.863281-9.300782-25.617188-14.898438-41.789062-14.902344v13.652344c13-.003906 24.648437 4.535156 32.902343 11.617187 8.261719 7.113281 13.074219 16.527344 13.082031 26.824219v70.785156h-327.679687v-64.9375c.007813-11.910156 5.582031-22.785156 15.082031-30.960937 9.488282-8.140625 22.84375-13.332031 37.726563-13.328125h228.886719v-6.824219zm0 0" fill="#54596e"/><path d="m216.011719 362.015625c-18.847657 0-34.132813-15.28125-34.132813-34.132813v-13.652343c0-18.851563 15.285156-34.132813 34.132813-34.132813 18.851562 0 34.132812 15.28125 34.132812 34.132813v13.652343c0 18.851563-15.28125 34.132813-34.132812 34.132813zm0 0" fill="#ffd578"/><path d="m216.011719 362.015625v-6.824219c-7.558594-.003906-14.34375-3.046875-19.304688-8-4.953125-4.964844-7.996093-11.746094-8-19.308594v-13.652343c.003907-7.5625 3.046875-14.34375 8-19.308594 4.960938-4.953125 11.746094-7.996094 19.304688-8 7.5625.003906 14.34375 3.046875 19.308593 8 4.953126 4.964844 7.996094 11.746094 8 19.308594v13.652343c-.003906 7.5625-3.046874 14.34375-8 19.308594-4.964843 4.953125-11.746093 7.996094-19.308593 8v13.652344c22.625-.003906 40.957031-18.335938 40.960937-40.960938v-13.652343c-.003906-22.625-18.335937-40.957031-40.960937-40.960938-22.621094.003907-40.953125 18.335938-40.957031 40.960938v13.652343c.003906 22.625 18.335937 40.957032 40.957031 40.960938zm0 0" fill="#54596e"/><path d="m120.441406 177.695312c0 15.082032-12.226562 27.308594-27.308594 27.308594-15.082031 0-27.308593-12.226562-27.308593-27.308594 0-15.078124 12.226562-27.304687 27.308593-27.304687 15.082032 0 27.308594 12.226563 27.308594 27.304687zm0 0" fill="#ffd578"/><path d="m120.441406 177.695312h6.824219c-.003906-18.851562-15.277344-34.128906-34.132813-34.132812-18.855468.003906-34.128906 15.28125-34.132812 34.132812.003906 18.855469 15.277344 34.128907 34.132812 34.136719 18.855469-.003906 34.128907-15.28125 34.132813-34.136719h-13.652344c-.019531 11.308594-9.171875 20.460938-20.480469 20.480469-11.308593-.019531-20.460937-9.171875-20.480468-20.480469.019531-11.304687 9.171875-20.457031 20.480468-20.480468 11.308594.023437 20.460938 9.175781 20.480469 20.480468zm0 0" fill="#54596e"/><path d="m366.199219 177.695312c0 15.082032-12.226563 27.308594-27.304688 27.308594-15.082031 0-27.308593-12.226562-27.308593-27.308594 0-15.078124 12.226562-27.304687 27.308593-27.304687 15.078125 0 27.304688 12.226563 27.304688 27.304687zm0 0" fill="#ffd578"/><path d="m366.199219 177.695312h6.828125c-.007813-18.851562-15.28125-34.128906-34.132813-34.132812-18.855469.003906-34.128906 15.28125-34.136719 34.132812.007813 18.855469 15.28125 34.128907 34.136719 34.136719 18.851563-.003906 34.125-15.28125 34.132813-34.136719h-13.65625c-.019532 11.308594-9.171875 20.460938-20.476563 20.480469-11.308593-.019531-20.460937-9.171875-20.480469-20.480469.019532-11.304687 9.171876-20.457031 20.480469-20.480468 11.304688.023437 20.457031 9.175781 20.476563 20.480468zm0 0" fill="#54596e"/><path d="m161.398438 75.296875c-13.023438 0-25.425782-1.125-36.738282-3.148437-15.425781 19.703124-24.699218 44.453124-24.699218 71.414062v61.441406c0 64.09375 51.957031 116.054688 116.050781 116.054688s116.054687-51.960938 116.054687-116.054688v-102.402344zm0 0" fill="#ffd578"/><path d="m161.398438 75.296875v-6.828125c-12.628907 0-24.644532-1.09375-35.539063-3.039062-2.484375-.445313-5.015625.519531-6.574219 2.511718-16.316406 20.832032-26.15625 47.078125-26.152344 75.621094v61.441406c.003907 67.863282 55.011719 122.875 122.878907 122.878906 67.867187-.003906 122.875-55.011718 122.882812-122.878906v-102.402344c0-3.355468-2.433593-6.210937-5.75-6.738281l-170.667969-27.308593-1.078124-.085938v6.828125l-1.078126 6.742187 164.917969 26.386719v96.578125c-.003906 30.183594-12.214843 57.445313-31.992187 77.234375-19.785156 19.777344-47.050782 31.988281-77.234375 31.992188-30.179688-.003907-57.445313-12.214844-77.234375-31.992188-19.777344-19.789062-31.988282-47.050781-31.992188-77.234375v-61.441406c.003906-25.386719 8.71875-48.628906 23.25-67.203125l-5.375-4.207031-1.203125 6.71875c11.734375 2.09375 24.523438 3.25 37.941407 3.25v-6.824219l-1.078126 6.742187zm0 0" fill="#54596e"/><path d="m285.675781 7.152344-70.875 7.910156c-1.464843.164062-2.9375.164062-4.402343 0l-70.875-7.910156c-9.847657-1.101563-19.03125 5.238281-21.769532 15.015625l-17.792968 80.433593h225.277343l-17.792969-80.433593c-2.734374-9.777344-11.921874-16.117188-21.769531-15.015625zm0 0" fill="#bfad88"/><g fill="#54596e"><path d="m285.675781 7.152344-.757812-6.785156-70.875 7.910156-1.445313.082031-1.449218-.082031-70.867188-7.910156c-.988281-.109376-1.984375-.167969-2.976562-.167969-12.109376.003906-22.800782 8.210937-26.125 20.125l-.09375.367187-17.792969 80.4375c-.445313 2.023438.042969 4.128906 1.34375 5.746094 1.296875 1.617188 3.25 2.554688 5.324219 2.554688h225.277343c2.074219 0 4.027344-.9375 5.324219-2.554688 1.296875-1.613281 1.789062-3.722656 1.34375-5.746094l-17.792969-80.4375-.09375-.363281c-3.328125-11.914063-14.015625-20.121094-26.128906-20.125-.972656 0-1.980469.050781-3.003906.171875l.03125-.003906.757812 6.78125.789063 6.78125 1.425781-.082032c5.847656 0 11.246094 3.992188 12.980469 10.15625l6.574218-1.839843-6.667968 1.472656 15.960937 72.132813h-208.277343l15.957031-72.132813-6.667969-1.476563 6.574219 1.839844c1.734375-6.164062 7.132812-10.152344 12.980469-10.152344l1.457031.085938 70.878906 7.910156c.980469.105469 1.964844.164063 2.957031.164063.988282 0 1.976563-.054688 2.957032-.164063l70.875-7.910156.035156-.003906zm0 0"/><path d="m178.824219 252.066406 13.648437 6.828125c.960938.484375 1.972656.71875 3.054688.71875h40.964844c1.078124 0 2.085937-.234375 3.054687-.71875l13.652344-6.828125c3.371093-1.683594 4.738281-5.785156 3.054687-9.15625-1.6875-3.375-5.789062-4.742187-9.160156-3.054687l-12.210938 6.105469h-37.746093l-12.203125-6.105469c-3.375-1.6875-7.472656-.320313-9.160156 3.054687-1.6875 3.371094-.320313 7.472656 3.050781 9.15625zm0 0"/><path d="m168.226562 181.109375c0 5.65625-4.585937 10.242187-10.242187 10.242187-5.652344 0-10.238281-4.585937-10.238281-10.242187s4.585937-10.238281 10.238281-10.238281c5.65625 0 10.242187 4.582031 10.242187 10.238281zm0 0"/><path d="m284.28125 181.109375c0 5.65625-4.585938 10.242187-10.242188 10.242187s-10.238281-4.585937-10.238281-10.242187 4.582031-10.238281 10.238281-10.238281 10.242188 4.582031 10.242188 10.238281zm0 0"/></g><path d="m284.28125 300.578125v88.746094h-136.535156v-88.746094h-40.960938v122.878906h218.453125v-122.878906zm0 0" fill="#55a6ff"/><path d="m284.28125 300.578125h-6.828125v81.917969h-122.878906v-81.917969c0-1.800781-.730469-3.558594-2-4.828125-1.273438-1.273438-3.03125-2-4.828125-2h-40.960938c-1.796875 0-3.554687.726562-4.824218 2-1.273438 1.269531-2 3.027344-2 4.828125v122.878906c0 1.796875.726562 3.554688 2 4.828125 1.269531 1.269532 3.027343 2 4.824218 2h218.453125c1.796875 0 3.558594-.730468 4.828125-2 1.269532-1.273437 2-3.03125 2-4.828125v-122.878906c0-1.800781-.730468-3.558594-2-4.828125-1.273437-1.273438-3.03125-2-4.828125-2h-40.957031c-1.800781 0-3.558594.726562-4.828125 2-1.273437 1.269531-2 3.027344-2 4.828125h6.828125v6.824219h34.132812v109.226562h-204.800781v-109.226562h27.304688v81.921875c0 1.796875.730469 3.554687 2 4.828125 1.273437 1.269531 3.03125 1.996094 4.828125 1.996094h136.535156c1.796875 0 3.554688-.726563 4.824219-1.996094 1.273437-1.273438 2-3.03125 2-4.828125v-88.746094h-6.824219v6.828125zm0 0" fill="#54596e"/><path d="m99.960938 102.601562h204.796874v27.308594h-204.796874zm0 0" fill="#ffd578"/><path d="m304.757812 129.910156v-6.828125h-197.972656v-13.652343h191.148438v20.480468h6.824218v-6.828125 6.828125h6.828126v-27.308594c0-1.796874-.730469-3.554687-2-4.828124-1.269532-1.269532-3.03125-1.996094-4.828126-1.996094h-204.796874c-1.796876 0-3.558594.726562-4.828126 1.996094-1.269531 1.273437-2 3.03125-2 4.828124v27.308594c0 1.796875.730469 3.554688 2 4.828125 1.273438 1.269531 3.03125 1.996094 4.828126 1.996094h204.796874c1.796876 0 3.558594-.726563 4.828126-1.996094 1.269531-1.273437 2-3.03125 2-4.828125zm0 0" fill="#54596e"/><path d="m113.613281 150.390625h211.625s62.320313.578125 79.050781-2.902344c16.726563-3.488281 41.824219-41.828125-8.367187-55.769531-39.332031-10.925781-112.070313 12.40625-198.070313 36.429688-23.722656 6.628906-48.457031 13.308593-73.777343 19.339843-117.101563 27.882813-125.46875-10.457031-112.921875-34.859375 12.546875-24.394531 88.804687-10.027344 88.804687-10.027344v27.308594h85.335938" fill="#bfad88"/><path d="m113.613281 157.214844h211.625-.0625c.019531 0 3.925781.035156 10.050781.035156 9.195313 0 23.375-.082031 36.898438-.492188 6.761719-.207031 13.363281-.496093 19.132812-.902343 5.792969-.414063 10.671876-.914063 14.421876-1.683594 3.515624-.746094 6.738281-2.328125 9.757812-4.40625 4.515625-3.140625 8.597656-7.464844 11.714844-12.625 3.089844-5.15625 5.234375-11.21875 5.246094-17.773437.050781-6.898438-2.613282-14.253907-8.417969-20.214844-5.792969-5.996094-14.355469-10.707032-26.234375-14.011719-7.644532-2.121094-16.113282-3.015625-25.34375-3.015625-21.835938.015625-48.085938 4.996094-77.882813 12.359375-29.78125 7.375-63.058593 17.1875-98.503906 27.089844-23.683594 6.617187-48.332031 13.273437-73.523437 19.273437-28.640626 6.824219-50.507813 9.566406-66.746094 9.5625-17.859375.023438-28.746094-3.371094-34.566406-7.457031-2.933594-2.046875-4.707032-4.207031-5.855469-6.480469-1.136719-2.277344-1.664063-4.75-1.671875-7.484375-.011719-4.167969 1.332031-8.910156 3.570312-13.234375.785156-1.519531 2.09375-2.945312 4.234375-4.320312 3.179688-2.058594 8.167969-3.746094 14.09375-4.757813 5.925781-1.03125 12.746094-1.449219 19.628907-1.449219 10.8125 0 21.769531 1.019532 29.964843 2.050782 4.101563.511718 7.515625 1.027344 9.890625 1.410156 1.1875.191406 2.113282.351562 2.738282.460938.621093.109374.917968.164062.917968.164062l1.265625-6.707031h-6.824219v27.304687c0 1.796875.726563 3.558594 2 4.828125 1.269532 1.269531 3.027344 2 4.824219 2h85.335938c3.769531 0 6.824219-3.058593 6.824219-6.828125 0-3.769531-3.054688-6.828125-6.824219-6.828125h-78.507813v-20.480469c0-3.273437-2.34375-6.101562-5.5625-6.707031-.226562-.03125-22.761718-4.308593-46.042968-4.324219-9.910157.011719-19.953126.753907-28.804688 3.15625-4.429688 1.214844-8.585938 2.847657-12.273438 5.203126-3.675781 2.34375-6.925781 5.496093-9.019531 9.578124-3 5.851563-5.066406 12.503907-5.082031 19.480469-.00390625 4.53125.917969 9.222657 3.121094 13.609375 3.289062 6.609375 9.429687 12.191406 18.085937 15.820313 8.683594 3.660156 19.921875 5.632812 34.539063 5.640625 17.753906-.003906 40.546875-2.945313 69.90625-9.929688 25.453125-6.0625 50.269531-12.765625 74.035156-19.40625 35.554688-9.9375 68.761719-19.722656 98.109375-26.988281 29.332031-7.273437 54.855469-11.976563 74.605469-11.960937 8.339844 0 15.621094.832031 21.691406 2.523437 10.296875 2.851563 16.554688 6.675781 20.046875 10.324219 3.476563 3.683594 4.550781 7.070312 4.605469 10.746094.039062 4.609374-2.207032 9.875-5.613282 14.039062-1.683593 2.074219-3.613281 3.851562-5.464843 5.132812-1.84375 1.285157-3.617188 2.035157-4.773438 2.265626-2.523437.53125-7.128906 1.054687-12.601562 1.433593-16.519531 1.167969-41.421875 1.363281-55.070313 1.359375-6.066406 0-9.910156-.035156-9.921875-.035156h-211.691406c-3.769531 0-6.824219 3.058594-6.824219 6.828125s3.058594 6.824219 6.828125 6.824219zm0 0" fill="#54596e"/></svg>