<svg height="435pt" viewBox="-1 0 435 435.70176" width="435pt" xmlns="http://www.w3.org/2000/svg"><path d="m263.875 6.910156-49.398438 5.371094c-1.019531.109375-2.046874.109375-3.066406 0l-49.394531-5.371094c-6.863281-.746094-13.265625 3.554688-15.179687 10.191406l-12.398438 49.960938h157.011719l-12.398438-49.960938c-1.910156-6.636718-8.3125-10.9375-15.175781-10.191406zm0 0" fill="#fff35f"/><path d="m263.875 6.910156-.738281-6.785156-49.394531 5.367188-.796876.042968-.8125-.042968h.015626l-49.394532-5.367188c-.757812-.0820312-1.519531-.125-2.285156-.125-9.285156 0-17.570312 6.128906-20.191406 15.214844l-.0625.242187-12.402344 49.960938c-.503906 2.03125-.042969 4.195312 1.25 5.847656s3.28125 2.621094 5.378906 2.621094h157.011719c2.097656 0 4.085937-.96875 5.378906-2.621094s1.753907-3.816406 1.25-5.847656l-12.402343-49.960938-.066407-.242187c-2.621093-9.085938-10.902343-15.214844-20.191406-15.214844-.746094 0-1.519531.0390625-2.308594.128906l.027344-.003906.734375 6.785156.761719 6.785156.785156-.042968c3.230469 0 6.160156 2.148437 7.070313 5.335937l6.558593-1.886719-6.625 1.644532 10.296875 41.488281h-139.554687l10.296875-41.488281-6.625-1.644532 6.558594 1.886719c.910156-3.1875 3.835937-5.335937 7.070312-5.335937l.804688.046875 49.398437 5.371093h.019531c.738282.078126 1.492188.121094 2.253906.121094.757813 0 1.511719-.039062 2.265626-.121094l49.402343-5.371093.023438-.003907zm0 0" fill="#54596e"/><path d="m120.785156 67.0625h184.320313v27.304688h-184.320313zm0 0" fill="#9af43b"/><path d="m305.105469 94.367188v-6.824219h-177.496094v-13.65625h170.667969v20.480469h6.828125v-6.824219 6.824219h6.824219v-27.304688c0-1.800781-.726563-3.558594-2-4.828125-1.269532-1.273437-3.027344-2-4.824219-2h-184.320313c-1.796875 0-3.558594.726563-4.828125 2-1.269531 1.269531-2 3.027344-2 4.828125v27.304688c0 1.796874.730469 3.554687 2 4.828124 1.273438 1.269532 3.03125 2 4.828125 2h184.320313c1.796875 0 3.554687-.730468 4.824219-2 1.273437-1.273437 2-3.03125 2-4.828124zm0 0" fill="#54596e"/><path d="m320.558594 333.300781h-201.578125c-32.9375 0-59.636719 22.886719-59.636719 51.117188v44.457031h314.027344v-50.308594c0-24.996094-23.644532-45.265625-52.8125-45.265625zm0 0" fill="#9af43b"/><path d="m320.558594 333.300781v-6.824219h-201.578125c-18.054688.003907-34.515625 6.253907-46.613281 16.613282-12.082032 10.324218-19.859376 25.007812-19.851563 41.328125v44.457031c0 1.796875.730469 3.554688 2 4.828125 1.273437 1.269531 3.03125 1.996094 4.828125 1.996094h314.027344c1.796875 0 3.554687-.726563 4.824218-1.996094 1.273438-1.273437 2-3.03125 2-4.828125v-50.308594c.011719-14.703125-7-27.921875-17.851562-37.191406-10.859375-9.300781-25.617188-14.898438-41.785156-14.898438v13.652344c13-.003906 24.648437 4.53125 32.898437 11.613282 8.265625 7.117187 13.078125 16.53125 13.085938 26.828124v43.476563h-300.375v-37.628906c.007812-11.910157 5.582031-22.785157 15.085937-30.960938 9.484375-8.140625 22.84375-13.332031 37.726563-13.328125h201.578125zm0 0" fill="#54596e"/><path d="m189.050781 387.914062-34.132812 13.65625-6.828125-68.269531h40.960937zm0 0" fill="#9af43b"/><path d="m189.050781 387.914062-2.535156-6.335937-25.710937 10.28125-5.171876-51.734375h26.589844v47.789062h6.828125l-2.535156-6.335937 2.535156 6.335937h6.824219v-54.613281c0-1.796875-.726562-3.554687-2-4.828125-1.269531-1.269531-3.027344-1.996094-4.824219-1.996094h-40.960937c-1.925782 0-3.769532.816407-5.0625 2.246094-1.292969 1.425782-1.921875 3.339844-1.730469 5.257813l6.828125 68.265625c.210938 2.136718 1.417969 4.046875 3.25 5.15625 1.832031 1.113281 4.085938 1.300781 6.078125.503906l34.132813-13.65625c2.582031-1.03125 4.289062-3.554688 4.289062-6.335938zm0 0" fill="#54596e"/><path d="m243.664062 387.914062 34.132813 13.65625 6.828125-68.269531h-40.960938zm0 0" fill="#9af43b"/><path d="m243.664062 387.914062-2.535156 6.339844 34.132813 13.652344c1.988281.796875 4.242187.609375 6.074219-.5 1.832031-1.113281 3.039062-3.023438 3.25-5.15625l6.828124-68.265625c.191407-1.917969-.4375-3.835937-1.730468-5.261719-1.292969-1.429687-3.136719-2.246094-5.0625-2.246094h-40.960938c-1.796875 0-3.554687.726563-4.824218 2-1.273438 1.269532-2 3.027344-2 4.828126v54.613281c0 2.78125 1.707031 5.304687 4.289062 6.335937l2.539062-6.339844h6.824219v-47.789062h26.589844l-5.171875 51.734375-25.707031-10.28125-2.535157 6.335937h6.824219zm0 0" fill="#54596e"/><path d="m100.304688 401.570312v20.476563c0 3.773437 3.054687 6.828125 6.824218 6.828125 3.769532 0 6.828125-3.054688 6.828125-6.828125v-20.476563c0-3.773437-3.058593-6.828124-6.828125-6.828124-3.769531 0-6.824218 3.054687-6.824218 6.828124" fill="#54596e"/><path d="m318.757812 401.570312v20.476563c0 3.773437 3.054688 6.828125 6.824219 6.828125 3.773438 0 6.828125-3.054688 6.828125-6.828125v-20.476563c0-3.773437-3.054687-6.828124-6.828125-6.828124-3.769531 0-6.824219 3.054687-6.824219 6.828124" fill="#54596e"/><path d="m339.238281 285.515625-122.882812 40.960937-122.878907-40.960937v-170.667969h245.761719zm0 0" fill="#999"/><path d="m339.238281 285.515625-2.160156-6.476563-120.722656 40.238282-116.050781-38.683594v-158.921875h232.105468v163.84375h6.828125l-2.160156-6.476563 2.160156 6.476563h6.824219v-170.667969c0-1.796875-.726562-3.554687-2-4.828125-1.269531-1.269531-3.027344-1.996093-4.824219-1.996093h-245.761719c-1.796874 0-3.554687.726562-4.824218 1.996093-1.273438 1.273438-2.003906 3.03125-2.003906 4.828125v170.667969c0 2.945313 1.871093 5.542969 4.667968 6.472656l122.882813 40.960938c1.410156.472656 2.902343.472656 4.316406 0l122.878906-40.960938c2.796875-.929687 4.667969-3.527343 4.667969-6.472656zm0 0" fill="#54596e"/><path d="m339.238281 169.460938c0 15.082031-12.226562 27.308593-27.308593 27.308593-15.082032 0-27.304688-12.226562-27.304688-27.308593 0-15.082032 12.222656-27.304688 27.304688-27.304688 15.082031 0 27.308593 12.222656 27.308593 27.304688zm0 0" fill="#ffd578"/><path d="m339.238281 169.460938h6.824219c-.003906-18.851563-15.277344-34.128907-34.132812-34.132813-18.851563.003906-34.128907 15.28125-34.132813 34.132813.003906 18.855468 15.28125 34.128906 34.132813 34.132812 18.855468-.003906 34.128906-15.277344 34.132812-34.132812h-13.652344c-.019531 11.308593-9.171875 20.460937-20.480468 20.480468-11.304688-.019531-20.460938-9.171875-20.480469-20.480468.019531-11.304688 9.175781-20.457032 20.480469-20.480469 11.308593.023437 20.460937 9.175781 20.480468 20.480469zm0 0" fill="#54596e"/><path d="m148.089844 169.460938c0 15.082031-12.226563 27.308593-27.304688 27.308593-15.082031 0-27.308594-12.226562-27.308594-27.308593 0-15.082032 12.226563-27.304688 27.308594-27.304688 15.078125 0 27.304688 12.222656 27.304688 27.304688zm0 0" fill="#ffd578"/><path d="m148.089844 169.460938h6.828125c-.007813-18.851563-15.28125-34.128907-34.132813-34.132813-18.855468.003906-34.128906 15.28125-34.136718 34.132813.007812 18.855468 15.28125 34.128906 34.136718 34.132812 18.851563-.003906 34.125-15.277344 34.132813-34.132812h-13.65625c-.019531 11.308593-9.171875 20.460937-20.476563 20.480468-11.308594-.019531-20.460937-9.171875-20.480468-20.480468.019531-11.304688 9.171874-20.457032 20.480468-20.480469 11.304688.023437 20.457032 9.175781 20.476563 20.480469zm0 0" fill="#54596e"/><path d="m216.355469 381.089844c-15.078125 0-27.304688-12.226563-27.304688-27.308594v-68.265625h54.613281v68.265625c0 15.082031-12.226562 27.308594-27.308593 27.308594zm0 0" fill="#ffd578"/><path d="m216.355469 381.089844v-6.828125c-11.304688-.019531-20.457031-9.171875-20.480469-20.480469v-61.441406h40.960938v61.441406c-.019532 11.308594-9.171876 20.460938-20.480469 20.480469v13.652343c18.855469-.003906 34.128906-15.277343 34.132812-34.132812v-68.265625c0-1.800781-.726562-3.558594-2-4.828125-1.269531-1.273438-3.027343-2-4.824219-2h-54.613281c-1.796875 0-3.558593.726562-4.828125 2-1.269531 1.269531-2 3.027344-2 4.828125v68.265625c.007813 18.855469 15.28125 34.128906 34.132813 34.132812zm0 0" fill="#54596e"/><path d="m216.355469 312.820312c-56.550781 0-102.398438-45.84375-102.398438-102.398437v-88.746094h204.800781v88.746094c0 56.554687-45.847656 102.398437-102.402343 102.398437zm0 0" fill="#ffd578"/><path d="m216.355469 312.820312v-6.824218c-26.410157-.003906-50.261719-10.6875-67.578125-27.992188-17.308594-17.320312-27.992188-41.167968-27.992188-67.582031v-81.921875h191.144532v81.921875c-.003907 26.414063-10.6875 50.261719-27.992188 67.582031-17.316406 17.304688-41.167969 27.988282-67.582031 27.992188v13.652344c60.328125-.003907 109.222656-48.898438 109.226562-109.226563v-88.746094c0-1.800781-.726562-3.558593-2-4.828125-1.269531-1.273437-3.027343-2-4.824219-2h-204.800781c-1.796875 0-3.558593.726563-4.828125 2-1.269531 1.269532-2 3.027344-2 4.828125v88.746094c.007813 60.324219 48.902344 109.222656 109.226563 109.226563zm0 0" fill="#54596e"/><path d="m168.570312 193.355469c0 5.65625-4.585937 10.238281-10.238281 10.238281-5.65625 0-10.242187-4.582031-10.242187-10.238281s4.585937-10.242188 10.242187-10.242188c5.652344 0 10.238281 4.585938 10.238281 10.242188zm0 0" fill="#54596e"/><path d="m284.625 193.355469c0 5.65625-4.585938 10.238281-10.242188 10.238281s-10.238281-4.582031-10.238281-10.238281 4.582031-10.242188 10.238281-10.242188 10.242188 4.585938 10.242188 10.242188zm0 0" fill="#54596e"/><path d="m223.183594 428.875v-47.785156c0-3.769532-3.058594-6.828125-6.828125-6.828125s-6.824219 3.058593-6.824219 6.828125v47.785156c0 3.769531 3.054688 6.828125 6.824219 6.828125s6.828125-3.058594 6.828125-6.828125" fill="#54596e"/><g fill="#ff927d"><path d="m148.089844 217.25c0 3.769531-3.054688 6.824219-6.828125 6.824219-3.769531 0-6.824219-3.054688-6.824219-6.824219 0-3.773438 3.054688-6.828125 6.824219-6.828125 3.773437 0 6.828125 3.054687 6.828125 6.828125zm0 0"/><path d="m175.398438 217.25c0 3.769531-3.058594 6.824219-6.828126 6.824219-3.769531 0-6.828124-3.054688-6.828124-6.824219 0-3.773438 3.058593-6.828125 6.828124-6.828125 3.769532 0 6.828126 3.054687 6.828126 6.828125zm0 0"/><path d="m161.742188 230.902344c0 3.769531-3.054688 6.824218-6.824219 6.824218s-6.828125-3.054687-6.828125-6.824218c0-3.769532 3.058594-6.828125 6.828125-6.828125s6.824219 3.058593 6.824219 6.828125zm0 0"/><path d="m270.96875 217.25c0 3.769531-3.054688 6.824219-6.824219 6.824219s-6.828125-3.054688-6.828125-6.824219c0-3.773438 3.058594-6.828125 6.828125-6.828125s6.824219 3.054687 6.824219 6.828125zm0 0"/><path d="m298.277344 217.25c0 3.769531-3.058594 6.824219-6.828125 6.824219s-6.824219-3.054688-6.824219-6.824219c0-3.773438 3.054688-6.828125 6.824219-6.828125s6.828125 3.054687 6.828125 6.828125zm0 0"/><path d="m284.625 230.902344c0 3.769531-3.058594 6.824218-6.828125 6.824218s-6.828125-3.054687-6.828125-6.824218c0-3.769532 3.058594-6.828125 6.828125-6.828125s6.828125 3.058593 6.828125 6.828125zm0 0"/><path d="m209.53125 278.6875h13.652344c7.539062 0 13.652344-6.113281 13.652344-13.652344 0-7.539062-6.113282-13.652344-13.652344-13.652344h-13.652344c-7.542969 0-13.65625 6.113282-13.65625 13.652344 0 7.539063 6.113281 13.652344 13.65625 13.652344"/></g><path d="m100.304688 108.023438c0 26.390624 36.675781 47.785156 81.917968 47.785156 23.925782 0 45.386719-6.019532 60.363282-15.558594 8.738281 9.539062 21.253906 15.558594 35.210937 15.558594 26.394531 0 47.785156-21.394532 47.785156-47.785156" fill="#999"/><path d="m93.476562 108.023438c-.011718 8.203124 2.898438 15.957031 7.738282 22.605468 7.289062 10.003906 18.75 17.847656 32.703125 23.367188 13.972656 5.503906 30.53125 8.632812 48.304687 8.636718 25.074219-.023437 47.65625-6.230468 64.03125-16.628906l-3.667968-5.757812-5.035157 4.609375c9.945313 10.875 24.300781 17.78125 40.246094 17.777343 30.164063-.003906 54.609375-24.445312 54.613281-54.613281 0-3.769531-3.054687-6.824219-6.828125-6.824219-3.769531 0-6.824219 3.054688-6.824219 6.824219-.003906 11.335938-4.574218 21.53125-11.996093 28.964844-7.433594 7.421875-17.632813 11.992187-28.964844 11.996094-11.96875-.003907-22.648437-5.140625-30.175781-13.34375-2.242188-2.449219-5.902344-2.929688-8.703125-1.148438-13.578125 8.683594-33.921875 14.515625-56.695313 14.492188-21.539062.019531-40.96875-5.15625-54.484375-13.066407-6.765625-3.9375-12.027343-8.539062-15.472656-13.296874-3.449219-4.789063-5.125-9.601563-5.136719-14.59375 0-3.773438-3.054687-6.828126-6.824218-6.828126-3.769532 0-6.828126 3.054688-6.828126 6.828126zm0 0" fill="#54596e"/><path d="m113.957031 114.847656h211.625s62.320313.582032 79.050781-2.902344c16.726563-3.488281 41.824219-41.828124-8.367187-55.765624-39.332031-10.925782-112.070313 12.402343-198.070313 36.425781-23.722656 6.628906-48.457031 13.308593-73.777343 19.339843-117.101563 27.882813-125.46875-10.457031-112.921875-34.855468 12.546875-24.398438 109.285156-10.027344 109.285156-10.027344v27.304688h64.855469" fill="#fff35f"/><path d="m113.957031 121.671875h211.625-.0625c.019531 0 3.925781.039063 10.050781.039063 9.195313 0 23.375-.082032 36.898438-.496094 6.765625-.207032 13.363281-.492188 19.132812-.898438 5.796876-.417968 10.671876-.917968 14.421876-1.6875 3.515624-.746094 6.738281-2.328125 9.757812-4.40625 4.515625-3.136718 8.597656-7.460937 11.714844-12.625 3.09375-5.152344 5.234375-11.21875 5.246094-17.769531.050781-6.898437-2.613282-14.257813-8.417969-20.21875-5.792969-5.992187-14.355469-10.703125-26.234375-14.007813-7.644532-2.121093-16.113282-3.015624-25.34375-3.019531-21.832032.019531-48.085938 4.996094-77.882813 12.359375-29.78125 7.375-63.058593 17.1875-98.503906 27.089844-23.683594 6.617188-48.332031 13.273438-73.523437 19.273438-28.636719 6.824218-50.503907 9.566406-66.742188 9.5625-17.859375.023437-28.75-3.371094-34.566406-7.457032-2.9375-2.050781-4.707032-4.207031-5.855469-6.480468-1.140625-2.277344-1.667969-4.75-1.671875-7.484376-.015625-4.167968 1.332031-8.914062 3.566406-13.234374.605469-1.199219 1.980469-2.65625 4.59375-4.089844 3.867188-2.152344 10.175782-3.921875 17.621094-4.953125 7.453125-1.0625 16.046875-1.488281 24.730469-1.484375 13.648437 0 27.53125 1.03125 37.949219 2.066406 5.214843.519531 9.5625 1.039062 12.601562 1.425781 1.519531.195313 2.707031.355469 3.515625.464844.804687.109375 1.203125.171875 1.207031.171875l1-6.753906h-6.824218v27.308594c0 1.796874.726562 3.554687 2 4.824218 1.269531 1.273438 3.027343 2 4.824218 2h64.855469c3.769531 0 6.828125-3.054687 6.828125-6.828125 0-3.769531-3.058594-6.824219-6.828125-6.824219h-58.027344v-20.480468c0-3.378906-2.480469-6.257813-5.824219-6.753906-.179687-.019532-28.648437-4.269532-57.273437-4.277344-12.175781.007812-24.359375.75-34.753906 3.082031-5.203125 1.179687-9.980469 2.746094-14.171875 5.042969-4.160156 2.285156-7.882813 5.40625-10.15625 9.8125-3.003906 5.851562-5.070313 12.5-5.082032 19.480468-.003906 4.53125.917969 9.222657 3.117188 13.605469 3.289062 6.613281 9.429688 12.195313 18.085938 15.824219 8.683593 3.660156 19.925781 5.632812 34.542968 5.640625 17.753906-.003906 40.546875-2.945313 69.90625-9.929687 25.453125-6.0625 50.269532-12.765626 74.035156-19.40625 35.554688-9.9375 68.761719-19.722657 98.109376-26.988282 29.328124-7.273437 54.855468-11.976562 74.605468-11.960937 8.335938 0 15.621094.832031 21.691406 2.523437 10.296876 2.851563 16.558594 6.675782 20.046876 10.324219 3.476562 3.683594 4.550781 7.070313 4.601562 10.746094.039062 4.609375-2.207031 9.875-5.613281 14.039062-1.679688 2.074219-3.613281 3.851563-5.460938 5.128907-1.84375 1.289062-3.617187 2.039062-4.773437 2.269531-2.523438.53125-7.128906 1.054687-12.601563 1.433593-16.519531 1.167969-41.421875 1.363282-55.070312 1.359376-6.070313 0-9.914063-.035157-9.921875-.035157h-211.691406c-3.769532 0-6.824219 3.058594-6.824219 6.828125-.007813 3.769532 3.050781 6.828125 6.820312 6.824219zm0 0" fill="#54596e"/><path d="m72.996094 101.195312h54.613281c3.769531 0 6.828125-3.058593 6.828125-6.828124 0-3.769532-3.058594-6.824219-6.828125-6.824219h-54.613281c-3.769532 0-6.824219 3.054687-6.824219 6.824219 0 3.769531 3.054687 6.828124 6.824219 6.828124" fill="#54596e"/></svg>