<svg height="430pt" viewBox="-51 0 430 430.08003" width="430pt" xmlns="http://www.w3.org/2000/svg"><path d="m163.878906 6.828125c-71.636718 0-129.707031 58.066406-129.707031 129.707031v197.972656h259.414063v-197.972656c0-71.636718-58.070313-129.707031-129.707032-129.707031zm0 0" fill="#ff927d"/><path d="m163.878906 6.828125v-6.828125c-75.40625.00390625-136.527344 61.121094-136.53125 136.535156v197.972656c0 1.796876.726563 3.554688 2 4.824219 1.269532 1.273438 3.027344 2 4.824219 2h259.414063c1.796874 0 3.554687-.726562 4.828124-1.996093 1.269532-1.273438 2-3.03125 2-4.828126v-197.972656c-.003906-75.414062-61.125-136.53124975-136.535156-136.535156v13.652344c33.957032.003906 64.632813 13.746094 86.890625 35.992187 22.25 22.257813 35.988281 52.933594 35.992188 86.890625v191.144532h-245.761719v-191.144532c.003906-33.957031 13.742188-64.636718 35.988281-86.890625 22.261719-22.25 52.9375-35.988281 86.890625-35.992187zm0 0" fill="#54596e"/><path d="m293.585938 163.839844c0 15.082031-12.226563 27.308594-27.304688 27.308594-15.082031 0-27.308594-12.226563-27.308594-27.308594 0-15.082032 12.226563-27.304688 27.308594-27.304688 15.078125 0 27.304688 12.222656 27.304688 27.304688zm0 0" fill="#ffd578"/><path d="m293.585938 163.839844h6.828124c-.003906-18.851563-15.28125-34.128906-34.132812-34.132813-18.855469.003907-34.128906 15.28125-34.132812 34.132813.003906 18.855468 15.277343 34.128906 34.132812 34.132812 18.851562-.003906 34.128906-15.277344 34.132812-34.132812h-13.652343c-.023438 11.308594-9.175781 20.460937-20.480469 20.480468-11.308594-.019531-20.460938-9.171874-20.480469-20.480468.019531-11.304688 9.171875-20.460938 20.480469-20.480469 11.304688.019531 20.457031 9.175781 20.480469 20.480469zm0 0" fill="#54596e"/><path d="m88.785156 163.839844c0 15.082031-12.222656 27.308594-27.304687 27.308594s-27.308594-12.226563-27.308594-27.308594c0-15.082032 12.226563-27.304688 27.308594-27.304688s27.304687 12.222656 27.304687 27.304688zm0 0" fill="#ffd578"/><path d="m88.785156 163.839844h6.828125c-.003906-18.851563-15.28125-34.128906-34.132812-34.132813-18.855469.003907-34.128907 15.28125-34.132813 34.132813.003906 18.855468 15.277344 34.128906 34.132813 34.132812 18.851562-.003906 34.128906-15.277344 34.132812-34.132812h-13.652343c-.019532 11.308594-9.175782 20.460937-20.480469 20.480468-11.308594-.019531-20.460938-9.171874-20.480469-20.480468.019531-11.304688 9.171875-20.460938 20.480469-20.480469 11.304687.019531 20.460937 9.175781 20.480469 20.480469zm0 0" fill="#54596e"/><path d="m268.082031 327.679688h-76.894531v-47.785157h-54.613281v47.785157h-70.070313c-32.9375 0-59.636718 22.886718-59.636718 51.117187v44.457031h314.027343v-50.308594c0-25-23.644531-45.265624-52.8125-45.265624zm0 0" fill="#ffd578"/><path d="m268.082031 327.679688v-6.828126h-70.070312v-40.957031c0-1.800781-.726563-3.558593-2-4.828125-1.269531-1.269531-3.027344-2-4.824219-2h-54.613281c-1.796875 0-3.558594.726563-4.828125 2-1.269532 1.269532-2 3.03125-2 4.828125v40.957031h-63.242188c-18.054687.007813-34.515625 6.257813-46.613281 16.617188-12.082031 10.324219-19.859375 25.007812-19.8515625 41.328125v44.457031c0 1.796875.7304685 3.554688 1.9999995 4.824219 1.273438 1.273437 3.03125 2 4.828126 2h314.027343c1.796875 0 3.554688-.726563 4.824219-1.996094 1.273438-1.273437 2-3.03125 2-4.828125v-50.304687c.011719-14.707031-7-27.925781-17.851562-37.191407-10.859376-9.304687-25.617188-14.898437-41.785157-14.902343v13.652343c13-.007812 24.648438 4.53125 32.898438 11.613282 8.265625 7.117187 13.074219 16.53125 13.085937 26.828125v43.476562h-300.375v-37.628906c.011719-11.910156 5.585938-22.785156 15.085938-30.960937 9.488281-8.144532 22.84375-13.335938 37.726562-13.328126h70.070313c1.796875 0 3.554687-.726562 4.824219-2 1.273437-1.269531 2-3.027343 2-4.824218v-40.960938h40.960937v40.960938c0 1.796875.730469 3.554687 2 4.824218 1.273437 1.273438 3.03125 2 4.828125 2h76.894531zm0 0" fill="#54596e"/><path d="m163.878906 307.199219c-56.550781 0-102.398437-66.324219-102.398437-122.878907v-95.574218h204.800781v95.574218c0 56.554688-45.847656 122.878907-102.402344 122.878907zm0 0" fill="#ffd578"/><path d="m163.878906 307.199219v-6.824219c-12.789062-.003906-25.050781-3.734375-36.433594-10.328125-17.058593-9.867187-31.980468-26.269531-42.503906-45.300781-10.542968-19.015625-16.652344-40.601563-16.632812-60.425782v-88.75h191.144531v88.75c.046875 26.4375-10.898437 55.984376-28.539063 78.4375-8.800781 11.234376-19.230468 20.703126-30.597656 27.289063-11.382812 6.589844-23.644531 10.324219-36.433594 10.328125v13.652344c15.484376.003906 30.160157-4.554688 43.28125-12.167969 19.695313-11.4375 36.042969-29.644531 47.601563-50.5 11.539063-20.871094 18.324219-44.449219 18.339844-67.039063v-95.574218c0-1.796875-.726563-3.554688-2-4.828125-1.269531-1.269531-3.027344-1.996094-4.824219-1.996094h-204.800781c-1.796875 0-3.558594.726563-4.828125 1.996094-1.269532 1.273437-2 3.03125-2 4.828125v95.574218c.046875 30.117188 12.027344 62.007813 31.445312 86.855469 9.730469 12.414063 21.367188 23.066407 34.5 30.683594 13.117188 7.609375 27.796875 12.167969 43.28125 12.164063zm0 0" fill="#54596e"/><path d="m170.425781 6.828125h-60.4375c-61.65625 0-86.203125 70.628906-32.839843 97.023437 6.878906 3.398438 14.039062 5.375 21.386718 5.375h167.746094v-20.480468c0-45.242188-42.914062-81.917969-95.855469-81.917969zm0 0" fill="#ff927d"/><path d="m170.425781 6.828125v-6.828125h-60.4375c-20.726562-.015625-38.054687 7.417969-50.089843 18.78125-12.039063 11.347656-18.886719 26.582031-18.898438 42.074219-.007812 9.5 2.621094 19.085937 8.140625 27.628906 5.507813 8.550781 13.867187 15.996094 24.980469 21.484375v.003906c7.613281 3.761719 15.828125 6.082032 24.414062 6.082032h167.746094c1.796875 0 3.554688-.726563 4.824219-2 1.273437-1.269532 2-3.03125 2-4.828126v-20.480468c.007812-24.832032-11.824219-47.21875-30.464844-63.117188-18.648437-15.929687-44.164063-25.62499975-72.214844-25.628906v13.652344c24.890625-.003906 47.304688 8.640625 63.34375 22.359375 16.054688 13.75 25.675781 32.324219 25.683594 52.734375v13.652344h-160.917969c-6.113281 0-12.214844-1.632813-18.363281-4.667969-9.183594-4.550781-15.484375-10.34375-19.558594-16.648438-4.070312-6.316406-5.953125-13.207031-5.960937-20.226562-.011719-11.414063 5.117187-23.199219 14.609375-32.136719 9.492187-8.925781 23.242187-15.050781 40.722656-15.066406h60.441406zm0 0" fill="#54596e"/><path d="m116.09375 153.601562c0 5.652344-4.585938 10.238282-10.242188 10.238282-5.652343 0-10.238281-4.585938-10.238281-10.238282 0-5.65625 4.585938-10.242187 10.238281-10.242187 5.65625 0 10.242188 4.585937 10.242188 10.242187zm0 0" fill="#54596e"/><path d="m232.148438 153.601562c0 5.652344-4.585938 10.238282-10.242188 10.238282s-10.238281-4.585938-10.238281-10.238282c0-5.65625 4.582031-10.242187 10.238281-10.242187s10.242188 4.585937 10.242188 10.242187zm0 0" fill="#54596e"/><g fill="#ff927d"><path d="m102.441406 184.320312c0 7.539063-6.113281 13.652344-13.65625 13.652344-7.539062 0-13.652344-6.113281-13.652344-13.652344 0-7.539062 6.113282-13.652343 13.652344-13.652343 7.542969 0 13.65625 6.113281 13.65625 13.652343zm0 0"/><path d="m252.625 184.320312c0 7.539063-6.109375 13.652344-13.652344 13.652344-7.539062 0-13.652344-6.113281-13.652344-13.652344 0-7.539062 6.113282-13.652343 13.652344-13.652343 7.542969 0 13.652344 6.113281 13.652344 13.652343zm0 0"/><path d="m157.054688 232.105469h13.652343c7.539063 0 13.652344-6.113281 13.652344-13.652344s-6.113281-13.652344-13.652344-13.652344h-13.652343c-7.542969 0-13.65625 6.113281-13.65625 13.652344s6.113281 13.652344 13.65625 13.652344"/><path d="m136.574219 218.453125h54.613281c3.769531 0 6.824219-3.054687 6.824219-6.828125 0-3.769531-3.054688-6.824219-6.824219-6.824219h-54.613281c-3.769531 0-6.828125 3.054688-6.828125 6.824219 0 3.773438 3.058594 6.828125 6.828125 6.828125"/></g><path d="m41 191.148438v20.476562c0 3.773438 3.058594 6.828125 6.828125 6.828125s6.824219-3.054687 6.824219-6.828125v-20.476562c0-3.773438-3.054688-6.828126-6.824219-6.828126s-6.828125 3.054688-6.828125 6.828126" fill="#fff"/><path d="m273.105469 191.148438v20.476562c0 3.773438 3.058593 6.828125 6.828125 6.828125 3.769531 0 6.828125-3.054687 6.828125-6.828125v-20.476562c0-3.773438-3.058594-6.828126-6.828125-6.828126-3.769532 0-6.828125 3.054688-6.828125 6.828126" fill="#fff"/><path d="m109.265625 327.679688c.003906 30.164062 24.449219 54.609374 54.613281 54.613281 30.167969-.003907 54.609375-24.445313 54.613282-54.613281 0-3.769532-3.054688-6.828126-6.824219-6.828126s-6.828125 3.058594-6.828125 6.828126c-.003906 11.335937-4.574219 21.53125-11.996094 28.964843-7.433594 7.421875-17.628906 11.992188-28.964844 11.996094-11.332031-.003906-21.527344-4.574219-28.960937-11.996094-7.425781-7.433593-11.996094-17.628906-11.996094-28.964843 0-3.769532-3.058594-6.828126-6.828125-6.828126s-6.828125 3.058594-6.828125 6.828126zm0 0" fill="#fff"/><path d="m168.710938 423.183594c-5.898438-19.707032-24.167969-34.070313-45.789063-34.070313-21.652344 0-39.9375 14.398438-45.8125 34.140625zm0 0" fill="#8065c4"/><path d="m168.710938 423.183594 6.539062-1.957032c-6.738281-22.539062-27.617188-38.929687-52.328125-38.941406-24.746094.011719-45.644531 16.441406-52.355469 39.019532-.617187 2.078124-.222656 4.296874 1.074219 6.03125 1.296875 1.734374 3.308594 2.742187 5.472656 2.742187l91.601563-.066406c2.167968-.003907 4.179687-1.015625 5.472656-2.753907 1.292969-1.738281 1.683594-3.953124 1.0625-6.03125l-6.539062 1.957032-.007813-6.828125-91.597656.070312.003906 6.828125 6.542969 1.945313c5.035156-16.90625 20.710937-29.273438 39.269531-29.261719 18.53125-.011719 34.191406 12.328125 39.25 29.203125l6.539063-1.957031-.007813-6.828125zm0 0" fill="#54596e"/><path d="m257.457031 423.183594c-5.898437-19.707032-24.167969-34.070313-45.789062-34.070313-21.652344 0-39.9375 14.398438-45.8125 34.140625zm0 0" fill="#8065c4"/><path d="m257.457031 423.183594 6.539063-1.957032c-6.738282-22.539062-27.617188-38.929687-52.328125-38.941406-24.746094.011719-45.644531 16.441406-52.355469 39.019532-.617188 2.078124-.222656 4.296874 1.074219 6.03125 1.296875 1.734374 3.308593 2.742187 5.476562 2.742187l91.597657-.070313c2.167968 0 4.179687-1.011718 5.472656-2.75 1.292968-1.738281 1.683594-3.957031 1.0625-6.03125l-6.539063 1.957032-.003906-6.828125-91.601563.070312.003907 6.828125 6.542969 1.945313c5.035156-16.90625 20.710937-29.273438 39.269531-29.261719 18.53125-.011719 34.195312 12.328125 39.25 29.203125l6.539062-1.957031-.003906-6.828125zm0 0" fill="#54596e"/></svg>