<svg height="430pt" viewBox="-10 0 430 430.08069" width="430pt" xmlns="http://www.w3.org/2000/svg"><path d="m355.027344 177.492188c0 15.082031-12.226563 27.308593-27.308594 27.308593-15.078125 0-27.304688-12.226562-27.304688-27.308593 0-15.078126 12.226563-27.304688 27.304688-27.304688 15.082031 0 27.308594 12.226562 27.308594 27.304688zm0 0" fill="#ffd578"/><path d="m355.027344 177.492188h6.828125c-.007813-18.851563-15.28125-34.128907-34.136719-34.132813-18.851562.003906-34.125 15.28125-34.132812 34.132813.007812 18.855468 15.28125 34.128906 34.132812 34.132812 18.855469 0 34.128906-15.277344 34.136719-34.132812h-13.65625c-.019531 11.308593-9.171875 20.460937-20.480469 20.480468-11.304688-.019531-20.457031-9.171875-20.476562-20.480468.019531-11.304688 9.171874-20.457032 20.476562-20.480469 11.308594.023437 20.460938 9.175781 20.480469 20.480469zm0 0" fill="#54596e"/><path d="m341.554688 314.027344h-265.507813c-38.207031 0-69.179687 22.886718-69.179687 51.117187v58.109375h395.945312v-63.960937c0-25-27.425781-45.265625-61.257812-45.265625zm0 0" fill="#fff35f"/><path d="m341.554688 314.027344v-6.828125h-265.507813c-20.464844.011719-39.113281 6.085937-52.976563 16.308593-13.8125 10.164063-23.0312495 24.914063-23.0312495 41.636719v58.109375c0 1.796875.7304685 3.554688 1.9999995 4.824219 1.273438 1.273437 3.03125 2 4.828126 2h395.945312c1.796875 0 3.554688-.726563 4.828125-2 1.269531-1.269531 2-3.027344 2-4.824219v-63.960937c0-15.105469-8.332031-28.394531-20.710937-37.5-12.425782-9.164063-29.097657-14.582031-47.375-14.59375v13.652343c15.554687-.011718 29.515624 4.703126 39.261718 11.925782 9.789063 7.277344 15.171875 16.621094 15.171875 26.515625v57.132812h-382.292969v-51.28125c0-11.511719 6.269532-22.316406 17.492188-30.652343 11.179688-8.28125 27.121094-13.652344 44.859375-13.636719h265.507813zm0 0" fill="#54596e"/><path d="m109.265625 177.492188c0 15.082031-12.222656 27.308593-27.304687 27.308593-15.082032 0-27.308594-12.226562-27.308594-27.308593 0-15.078126 12.226562-27.304688 27.308594-27.304688 15.082031 0 27.304687 12.226562 27.304687 27.304688zm0 0" fill="#ffd578"/><path d="m109.265625 177.492188h6.828125c-.003906-18.851563-15.28125-34.128907-34.132812-34.132813-18.855469.003906-34.128907 15.28125-34.132813 34.132813.003906 18.855468 15.277344 34.128906 34.132813 34.132812 18.851562 0 34.128906-15.277344 34.132812-34.132812h-13.652344c-.023437 11.308593-9.175781 20.460937-20.480468 20.480468-11.308594-.019531-20.460938-9.171875-20.480469-20.480468.019531-11.304688 9.171875-20.457032 20.480469-20.480469 11.304687.023437 20.457031 9.175781 20.480468 20.480469zm0 0" fill="#54596e"/><path d="m225.320312 375.464844h-40.960937c-18.851563 0-34.132813-15.28125-34.132813-34.132813v-54.613281h109.226563v54.613281c0 18.851563-15.277344 34.132813-34.132813 34.132813zm0 0" fill="#ffd578"/><path d="m225.320312 375.464844v-6.824219h-40.960937c-7.5625-.003906-14.34375-3.046875-19.308594-8-4.953125-4.960937-7.992187-11.746094-7.996093-19.308594v-47.785156h95.574218v47.785156c-.003906 7.5625-3.046875 14.347657-8 19.308594-4.960937 4.953125-11.746094 7.996094-19.308594 8v13.652344c22.628907-.003907 40.953126-18.335938 40.960938-40.960938v-54.613281c0-1.796875-.730469-3.554688-2-4.828125-1.269531-1.269531-3.03125-1.996094-4.828125-1.996094h-109.226563c-1.796874 0-3.554687.726563-4.828124 1.996094-1.269532 1.273437-2 3.03125-2 4.828125v54.613281c.003906 22.625 18.335937 40.957031 40.960937 40.960938h40.960937zm0 0" fill="#54596e"/><path d="m204.839844 6.828125c71.632812 0 129.707031 51.957031 129.707031 116.050781v136.355469c0 37.800781-34.246094 68.445313-76.5 68.445313h-106.414063c-42.25 0-76.5-30.644532-76.5-68.445313v-136.355469c0-64.09375 58.074219-116.050781 129.707032-116.050781zm0 0" fill="#ffd578"/><g fill="#54596e"><path d="m204.839844 6.828125v6.824219c34.160156 0 64.976562 12.398437 87.164062 32.253906 22.195313 19.882812 35.707032 47.027344 35.714844 76.972656v136.355469c-.007812 16.796875-7.5625 32.042969-20.128906 43.308594-12.558594 11.242187-30.074219 18.3125-49.542969 18.308593h-106.414063c-19.46875.003907-36.984374-7.066406-49.542968-18.308593-12.5625-11.265625-20.121094-26.511719-20.128906-43.308594v-136.355469c.007812-29.945312 13.523437-57.089844 35.714843-76.972656 22.1875-19.855469 53.003907-32.257812 87.164063-32.253906v-13.652344c-37.472656 0-71.511719 13.582031-96.265625 35.730469-24.753907 22.117187-40.277344 53-40.265625 87.148437v136.355469c-.011719 21.003906 9.554687 39.980469 24.679687 53.484375 15.125 13.53125 35.863281 21.78125 58.648438 21.785156h106.414062c22.78125 0 43.515625-8.253906 58.644531-21.785156 15.121094-13.503906 24.6875-32.480469 24.679688-53.484375v-136.355469c.007812-34.148437-15.511719-65.03125-40.265625-87.148437-24.757813-22.148438-58.796875-35.730469-96.269531-35.730469zm0 0"/><path d="m163.878906 160.425781c0 5.65625-4.582031 10.242188-10.238281 10.242188s-10.242187-4.585938-10.242187-10.242188 4.585937-10.238281 10.242187-10.238281 10.238281 4.582031 10.238281 10.238281zm0 0"/><path d="m266.28125 160.425781c0 5.65625-4.585938 10.242188-10.242188 10.242188-5.652343 0-10.238281-4.585938-10.238281-10.242188s4.585938-10.238281 10.238281-10.238281c5.65625 0 10.242188 4.582031 10.242188 10.238281zm0 0"/></g><path d="m177.535156 252.585938h54.613282c3.769531 0 6.824218-3.054688 6.824218-6.824219 0-3.773438-3.054687-6.828125-6.824218-6.828125h-54.613282c-3.773437 0-6.828125 3.054687-6.828125 6.828125 0 3.769531 3.054688 6.824219 6.828125 6.824219" fill="#f4a14e"/><path d="m170.273438 268.636719 11.839843-31.566407c1.625-4.339843 2.410157-8.839843 2.410157-13.277343.003906-12.371094-6.085938-24.320313-16.855469-31.5-3.136719-2.09375-7.375-1.246094-9.46875 1.894531-2.089844 3.136719-1.242188 7.375 1.894531 9.464844 6.886719 4.585937 10.773438 12.226562 10.777344 20.140625 0 2.832031-.5 5.695312-1.542969 8.484375l-11.839844 31.5625c-1.324219 3.53125.464844 7.464844 3.996094 8.789062 3.527344 1.328125 7.464844-.460937 8.789063-3.992187zm0 0" fill="#f4a14e"/><path d="m252.351562 263.84375-11.832031-31.566406c-1.050781-2.792969-1.546875-5.65625-1.546875-8.492188.003906-7.914062 3.886719-15.546875 10.773438-20.132812 3.136718-2.09375 3.984375-6.328125 1.894531-9.464844s-6.328125-3.984375-9.464844-1.894531c-10.769531 7.175781-16.859375 19.121093-16.855469 31.492187 0 4.441406.785157 8.945313 2.417969 13.285156l11.832031 31.5625c1.320313 3.53125 5.257813 5.320313 8.785157 4 3.53125-1.324218 5.320312-5.257812 3.996093-8.789062zm0 0" fill="#f4a14e"/><path d="m96.164062 378.15625 20.480469 47.785156c1.484375 3.464844 5.5 5.070313 8.964844 3.585938s5.070313-5.5 3.585937-8.964844l-20.480468-47.785156c-1.484375-3.464844-5.5-5.070313-8.964844-3.585938s-5.070312 5.5-3.585938 8.964844" fill="#54596e"/><path d="m300.964844 372.777344-20.480469 47.785156c-1.484375 3.464844.121094 7.480469 3.585937 8.964844 3.464844 1.484375 7.480469-.121094 8.964844-3.585938l20.480469-47.785156c1.484375-3.464844-.121094-7.480469-3.585937-8.964844-3.464844-1.484375-7.476563.121094-8.964844 3.585938" fill="#54596e"/></svg>