<svg height="436pt" viewBox="-54 0 436 436.90667" width="436pt" xmlns="http://www.w3.org/2000/svg"><path d="m268.496094 334.507812h-201.578125c-32.9375 0-59.636719 22.886719-59.636719 51.113282v44.457031h314.027344v-50.304687c0-25-23.644532-45.265626-52.8125-45.265626zm0 0" fill="#ff80c3"/><path d="m268.496094 334.507812v-6.828124h-201.578125c-18.054688.003906-34.515625 6.257812-46.613281 16.613281-12.085938 10.328125-19.859376 25.007812-19.851563 41.328125v44.457031c0 1.800781.730469 3.558594 2 4.828125 1.273437 1.273438 3.03125 2 4.828125 2h314.027344c1.796875 0 3.554687-.726562 4.824218-2 1.273438-1.269531 2-3.027344 2-4.824219v-50.308593c.007813-14.703126-7-27.921876-17.851562-37.191407-10.859375-9.300781-25.617188-14.898437-41.785156-14.898437v13.648437c12.996094-.003906 24.648437 4.535157 32.898437 11.617188 8.265625 7.113281 13.074219 16.527343 13.082031 26.824219v43.480468h-300.371093v-37.628906c.007812-11.910156 5.582031-22.789062 15.085937-30.960938 9.484375-8.144531 22.84375-13.335937 37.726563-13.332031h201.578125zm0 0" fill="#54596e"/><path d="m294 300.375h-259.414062l-13.652344-150.1875c0-79.179688 64.183594-143.359375 143.359375-143.359375 79.179687 0 143.359375 64.179687 143.359375 143.359375zm0 0" fill="#999"/><path d="m294 300.375v-6.828125h-253.179688l-13.085937-143.976563-6.800781.617188h6.828125c0-37.726562 15.269531-71.816406 39.988281-96.546875 24.726562-24.714844 58.816406-39.984375 96.542969-39.988281 37.722656.003906 71.816406 15.273437 96.542969 39.992187 24.71875 24.726563 39.988281 58.816407 39.992187 96.542969h6.824219l-6.796875-.617188-13.65625 150.183594 6.800781.621094v-6.828125 6.828125l6.800781.617188 13.652344-150.1875.027344-.617188c-.003907-82.953125-67.238281-150.18359375-150.1875-150.1875-82.949219.00390625-150.179688 67.234375-150.1875 150.1875l.027343.617188 13.65625 150.1875c.316407 3.507812 3.273438 6.207031 6.796876 6.207031h259.414062c3.523438 0 6.480469-2.699219 6.800781-6.207031zm0 0" fill="#54596e"/><path d="m48.238281 402.773438v20.480468c0 3.769532 3.058594 6.824219 6.828125 6.824219 3.769532 0 6.828125-3.054687 6.828125-6.824219v-20.480468c0-3.769532-3.058593-6.828126-6.828125-6.828126-3.769531 0-6.828125 3.058594-6.828125 6.828126" fill="#54596e"/><path d="m266.691406 402.773438v20.480468c0 3.769532 3.058594 6.824219 6.828125 6.824219s6.828125-3.054687 6.828125-6.824219v-20.480468c0-3.769532-3.058594-6.828126-6.828125-6.828126s-6.828125 3.058594-6.828125 6.828126" fill="#54596e"/><path d="m287.171875 170.667969c0 15.078125-12.222656 27.304687-27.304687 27.304687-15.082032 0-27.308594-12.226562-27.308594-27.304687 0-15.082031 12.226562-27.308594 27.308594-27.308594 15.082031 0 27.304687 12.226563 27.304687 27.308594zm0 0" fill="#ffd578"/><path d="m287.171875 170.667969h6.828125c-.003906-18.855469-15.28125-34.132813-34.132812-34.132813-18.855469 0-34.128907 15.277344-34.132813 34.132813.003906 18.851562 15.277344 34.125 34.132813 34.132812 18.851562-.003906 34.128906-15.28125 34.132812-34.132812h-13.652344c-.019531 11.304687-9.175781 20.457031-20.480468 20.480469-11.308594-.023438-20.460938-9.175782-20.480469-20.480469.019531-11.308594 9.171875-20.460938 20.480469-20.480469 11.304687.019531 20.460937 9.171875 20.480468 20.480469zm0 0" fill="#54596e"/><path d="m96.027344 170.667969c0 15.078125-12.226563 27.304687-27.308594 27.304687-15.078125 0-27.304688-12.226562-27.304688-27.304687 0-15.082031 12.226563-27.308594 27.304688-27.308594 15.082031 0 27.308594 12.226563 27.308594 27.308594zm0 0" fill="#ffd578"/><path d="m96.027344 170.667969h6.824218c-.003906-18.855469-15.277343-34.132813-34.132812-34.132813-18.851562 0-34.128906 15.277344-34.132812 34.132813.003906 18.851562 15.28125 34.125 34.132812 34.132812 18.855469-.003906 34.128906-15.28125 34.132812-34.132812h-13.652343c-.019531 11.304687-9.171875 20.457031-20.480469 20.480469-11.304688-.023438-20.457031-9.175782-20.480469-20.480469.023438-11.308594 9.175781-20.460938 20.480469-20.480469 11.308594.019531 20.460938 9.171875 20.480469 20.480469zm0 0" fill="#54596e"/><path d="m164.292969 382.292969c-15.078125 0-27.304688-12.226563-27.304688-27.304688v-68.269531h54.613281v68.269531c0 15.078125-12.226562 27.304688-27.308593 27.304688zm0 0" fill="#ffd578"/><path d="m164.292969 382.292969v-6.828125c-11.304688-.019532-20.460938-9.171875-20.480469-20.476563v-61.441406h40.960938v61.441406c-.019532 11.304688-9.171876 20.457031-20.480469 20.476563v13.65625c18.855469-.003906 34.128906-15.28125 34.132812-34.132813v-68.269531c0-1.796875-.726562-3.554688-2-4.828125-1.269531-1.269531-3.027343-1.996094-4.824219-1.996094h-54.613281c-1.796875 0-3.558593.726563-4.828125 1.996094-1.269531 1.273437-2 3.03125-2 4.828125v68.269531c.003906 18.851563 15.28125 34.125 34.132813 34.132813zm0 0" fill="#54596e"/><path d="m164.292969 314.027344c-56.554688 0-102.398438-45.847656-102.398438-102.402344v-88.746094h204.796875v88.746094c0 56.554688-45.84375 102.402344-102.398437 102.402344zm0 0" fill="#ffd578"/><path d="m164.292969 314.027344v-6.828125c-26.410157-.003907-50.261719-10.6875-67.582031-27.992188-17.304688-17.316406-27.988282-41.167969-27.992188-67.582031v-81.921875h191.148438v81.921875c-.003907 26.414062-10.6875 50.265625-27.992188 67.582031-17.320312 17.304688-41.167969 27.988281-67.582031 27.992188v13.652343c60.324219 0 109.222656-48.898437 109.226562-109.226562v-88.746094c0-1.796875-.726562-3.554687-2-4.828125-1.269531-1.269531-3.027343-1.996093-4.828125-1.996093h-204.796875c-1.796875 0-3.558593.726562-4.828125 1.996093-1.269531 1.273438-2 3.03125-2 4.828125v88.746094c.003906 60.328125 48.898438 109.222656 109.226563 109.226562zm0 0" fill="#54596e"/><path d="m116.507812 194.558594c0 5.65625-4.585937 10.242187-10.242187 10.242187s-10.238281-4.585937-10.238281-10.242187c0-5.652344 4.582031-10.238282 10.238281-10.238282s10.242187 4.585938 10.242187 10.238282zm0 0" fill="#54596e"/><path d="m232.558594 194.558594c0 5.65625-4.582032 10.242187-10.238282 10.242187s-10.242187-4.585937-10.242187-10.242187c0-5.652344 4.585937-10.238282 10.242187-10.238282s10.238282 4.585938 10.238282 10.238282zm0 0" fill="#54596e"/><path d="m171.121094 430.078125v-47.785156c0-3.769531-3.058594-6.828125-6.828125-6.828125s-6.828125 3.058594-6.828125 6.828125v47.785156c0 3.773437 3.058594 6.828125 6.828125 6.828125s6.828125-3.054688 6.828125-6.828125" fill="#54596e"/><g fill="#ff927d"><path d="m96.027344 218.453125c0 3.769531-3.058594 6.828125-6.828125 6.828125s-6.824219-3.058594-6.824219-6.828125 3.054688-6.828125 6.824219-6.828125 6.828125 3.058594 6.828125 6.828125zm0 0"/><path d="m123.332031 218.453125c0 3.769531-3.054687 6.828125-6.824219 6.828125-3.769531 0-6.828124-3.058594-6.828124-6.828125s3.058593-6.828125 6.828124-6.828125c3.769532 0 6.824219 3.058594 6.824219 6.828125zm0 0"/><path d="m109.679688 232.105469c0 3.769531-3.054688 6.828125-6.828126 6.828125-3.769531 0-6.824218-3.058594-6.824218-6.828125s3.054687-6.824219 6.824218-6.824219c3.773438 0 6.828126 3.054688 6.828126 6.824219zm0 0"/><path d="m218.90625 218.453125c0 3.769531-3.054688 6.828125-6.828125 6.828125-3.769531 0-6.824219-3.058594-6.824219-6.828125s3.054688-6.828125 6.824219-6.828125c3.773437 0 6.828125 3.058594 6.828125 6.828125zm0 0"/><path d="m246.214844 218.453125c0 3.769531-3.058594 6.828125-6.828125 6.828125s-6.828125-3.058594-6.828125-6.828125 3.058594-6.828125 6.828125-6.828125 6.828125 3.058594 6.828125 6.828125zm0 0"/><path d="m232.558594 232.105469c0 3.769531-3.054688 6.828125-6.824219 6.828125s-6.828125-3.058594-6.828125-6.828125 3.058594-6.824219 6.828125-6.824219 6.824219 3.054688 6.824219 6.824219zm0 0"/><path d="m157.464844 279.894531h13.65625c7.539062 0 13.652344-6.113281 13.652344-13.65625 0-7.539062-6.113282-13.652343-13.652344-13.652343h-13.65625c-7.539063 0-13.652344 6.113281-13.652344 13.652343 0 7.542969 6.113281 13.65625 13.652344 13.65625"/></g><path d="m48.238281 95.574219c0 26.394531 36.679688 47.785156 81.921875 47.785156 23.925782 0 45.386719-6.019531 60.363282-15.558594 8.734374 9.539063 21.253906 15.558594 35.210937 15.558594 26.390625 0 47.785156-21.390625 47.785156-47.785156" fill="#999"/><path d="m41.414062 95.574219c-.011718 8.203125 2.898438 15.957031 7.738282 22.605469 7.289062 10.003906 18.75 17.851562 32.703125 23.371093 13.96875 5.5 30.53125 8.628907 48.304687 8.632813 25.074219-.023438 47.65625-6.230469 64.03125-16.625l-3.667968-5.761719-5.035157 4.613281c9.945313 10.871094 24.300781 17.777344 40.246094 17.773438 30.164063-.003906 54.605469-24.445313 54.613281-54.613282 0-3.769531-3.058594-6.824218-6.828125-6.824218s-6.828125 3.054687-6.828125 6.824218c0 11.335938-4.570312 21.53125-11.996094 28.964844-7.433593 7.421875-17.628906 11.992188-28.960937 11.996094-11.96875-.003906-22.648437-5.136719-30.175781-13.34375-2.242188-2.449219-5.902344-2.929688-8.703125-1.148438-13.578125 8.683594-33.921875 14.515626-56.695313 14.492188-21.542968.019531-40.96875-5.15625-54.488281-13.066406-6.765625-3.941406-12.023437-8.539063-15.46875-13.300782-3.449219-4.78125-5.125-9.597656-5.136719-14.589843 0-3.769531-3.054687-6.828125-6.828125-6.828125-3.769531 0-6.824219 3.058594-6.824219 6.828125zm0 0" fill="#54596e"/><path d="m106.265625 184.320312h-20.480469c-1.882812 0-3.410156 1.527344-3.410156 3.414063 0 1.882813 1.527344 3.414063 3.410156 3.414063h20.480469c1.886719 0 3.414063-1.53125 3.414063-3.414063 0-1.886719-1.527344-3.414063-3.414063-3.414063" fill="#54596e"/><path d="m242.800781 184.320312h-20.480469c-1.886718 0-3.414062 1.527344-3.414062 3.414063 0 1.882813 1.527344 3.414063 3.414062 3.414063h20.480469c1.886719 0 3.414063-1.53125 3.414063-3.414063 0-1.886719-1.527344-3.414063-3.414063-3.414063" fill="#54596e"/></svg>