<svg height="436pt" viewBox="-41 0 436 436.90667" width="436pt" xmlns="http://www.w3.org/2000/svg"><path d="m295.804688 320.851562h-228.886719c-32.9375 0-59.636719 22.886719-59.636719 51.117188v58.109375h341.332031v-63.957031c0-25-23.644531-45.269532-52.808593-45.269532zm0 0" fill="#61c5a8"/><path d="m295.804688 320.851562v-6.824218h-228.886719c-18.054688.003906-34.515625 6.257812-46.613281 16.613281-12.085938 10.324219-19.859376 25.007813-19.851563 41.328125v58.109375c0 1.800781.730469 3.558594 2 4.828125 1.273437 1.273438 3.03125 2 4.828125 2h341.332031c1.796875 0 3.554688-.726562 4.828125-2 1.269532-1.269531 2-3.027344 2-4.824219v-63.960937c.007813-14.703125-7.003906-27.925782-17.851562-37.191406-10.863282-9.300782-25.617188-14.898438-41.789063-14.902344v13.652344c13-.003907 24.648438 4.535156 32.902344 11.617187 8.265625 7.113281 13.074219 16.527344 13.082031 26.824219v57.132812h-327.679687v-51.28125c.007812-11.910156 5.582031-22.789062 15.085937-30.964844 9.484375-8.140624 22.84375-13.332031 37.726563-13.328124h228.886719zm0 0" fill="#54596e"/><path d="m68.71875 402.773438v20.480468c0 3.769532 3.058594 6.824219 6.828125 6.824219s6.828125-3.054687 6.828125-6.824219v-20.480468c0-3.769532-3.058594-6.828126-6.828125-6.828126s-6.828125 3.058594-6.828125 6.828126" fill="#54596e"/><path d="m273.519531 402.773438v20.480468c0 3.769532 3.058594 6.824219 6.828125 6.824219 3.769532 0 6.824219-3.054687 6.824219-6.824219v-20.480468c0-3.769532-3.054687-6.828126-6.824219-6.828126-3.769531 0-6.828125 3.058594-6.828125 6.828126" fill="#54596e"/><path d="m300.828125 129.707031c0-67.863281-55.015625-122.878906-122.882813-122.878906-67.863281 0-122.878906 55.015625-122.878906 122.878906s55.015625 122.878907 122.878906 122.878907c67.867188 0 122.882813-55.015626 122.882813-122.878907" fill="#ff927d"/><path d="m300.828125 129.707031h6.824219c-.003906-71.636719-58.070313-129.70312475-129.707032-129.707031-71.632812.00390625-129.699218 58.070312-129.707031 129.707031.007813 71.636719 58.074219 129.703125 129.707031 129.707031 71.636719-.003906 129.703126-58.070312 129.707032-129.707031h-13.652344c-.003906 32.066407-12.980469 61.035157-33.992188 82.0625-21.023437 21.011719-49.992187 33.988281-82.0625 33.992188-32.066406-.003907-61.039062-12.980469-82.058593-33.992188-21.015625-21.027343-33.988281-49.996093-33.992188-82.0625.003907-32.070312 12.976563-61.039062 33.992188-82.0625 21.019531-21.011719 49.992187-33.988281 82.058593-33.992187 32.070313.003906 61.039063 12.980468 82.0625 33.992187 21.011719 21.023438 33.988282 49.992188 33.992188 82.0625zm0 0" fill="#54596e"/><path d="m334.960938 184.320312c0 15.082032-12.226563 27.304688-27.308594 27.304688-15.078125 0-27.304688-12.222656-27.304688-27.304688 0-15.082031 12.226563-27.308593 27.304688-27.308593 15.082031 0 27.308594 12.226562 27.308594 27.308593zm0 0" fill="#ffd578"/><path d="m334.960938 184.320312h6.824218c-.003906-18.855468-15.277344-34.128906-34.132812-34.132812-18.851563.003906-34.128906 15.277344-34.132813 34.132812.003907 18.851563 15.28125 34.128907 34.132813 34.132813 18.855468-.003906 34.128906-15.28125 34.132812-34.132813h-13.652344c-.019531 11.304688-9.171874 20.460938-20.480468 20.480469-11.304688-.019531-20.457032-9.175781-20.480469-20.480469.023437-11.308593 9.175781-20.460937 20.480469-20.480468 11.308594.019531 20.460937 9.171875 20.480468 20.480468zm0 0" fill="#54596e"/><path d="m75.546875 184.320312c0 15.082032-12.226563 27.304688-27.308594 27.304688-15.078125 0-27.304687-12.222656-27.304687-27.304688 0-15.082031 12.226562-27.308593 27.304687-27.308593 15.082031 0 27.308594 12.226562 27.308594 27.308593zm0 0" fill="#ffd578"/><path d="m75.546875 184.320312h6.828125c-.007812-18.855468-15.28125-34.128906-34.136719-34.132812-18.851562.003906-34.125 15.277344-34.132812 34.132812.007812 18.851563 15.28125 34.128907 34.132812 34.132813 18.855469-.003906 34.128907-15.28125 34.136719-34.132813h-13.65625c-.019531 11.304688-9.171875 20.460938-20.480469 20.480469-11.304687-.019531-20.457031-9.175781-20.476562-20.480469.019531-11.308593 9.171875-20.460937 20.476562-20.480468 11.308594.019531 20.460938 9.171875 20.480469 20.480468zm0 0" fill="#54596e"/><path d="m218.210938 409.601562-40.265626-34.136718-40.261718 34.136718c-54.199219-22.820312-89.445313-120.160156-89.445313-178.96875v-46.3125h259.414063v46.3125c0 58.808594-35.242188 156.148438-89.441406 178.96875zm0 0" fill="#999"/><path d="m218.210938 409.601562 4.414062-5.207031-40.261719-34.136719c-2.546875-2.15625-6.285156-2.15625-8.828125 0l-40.265625 34.136719 4.414063 5.207031 2.648437-6.292968c-12.183593-5.117188-23.789062-14.707032-34.21875-27.371094-15.664062-18.972656-28.558593-44.710938-37.394531-71.027344-8.855469-26.300781-13.667969-53.226562-13.652344-74.277344v-39.488281h245.761719v39.488281c.035156 28.085938-8.582031 66.535157-23.792969 100.171876-7.59375 16.828124-16.820312 32.484374-27.25 45.132812-10.433594 12.664062-22.039062 22.253906-34.222656 27.371094l2.648438 6.292968 4.414062-5.207031-4.414062 5.207031 2.648437 6.289063c14.914063-6.292969 28.039063-17.429687 39.460937-31.269531 17.117188-20.789063 30.519532-47.820313 39.792969-75.359375 9.25-27.558594 14.351563-55.574219 14.367188-78.628907v-46.3125c0-1.800781-.730469-3.558593-2-4.828124-1.269531-1.269532-3.03125-2-4.828125-2h-259.414063c-1.796875 0-3.554687.726562-4.824219 2-1.273437 1.269531-2 3.03125-2 4.828124v46.3125c.035157 30.722657 9.042969 70.34375 25 105.785157 7.996094 17.707031 17.742188 34.34375 29.160157 48.203125 11.421875 13.839844 24.542969 24.976562 39.460937 31.269531 2.367188 1 5.105469.578125 7.0625-1.082031l35.847656-30.394532 35.851563 30.394532c1.957031 1.660156 4.695313 2.082031 7.0625 1.082031zm0 0" fill="#54596e"/><path d="m239.382812 245.761719h38.335938c16.535156 0 29.933594-10.578125 29.933594-23.628907v-99.25h-259.414063v99.25c0 13.050782 13.402344 23.628907 29.9375 23.628907z" fill="#ffd578"/><path d="m239.382812 252.585938h38.335938c9.726562-.007813 18.648438-3.078126 25.398438-8.386719 6.71875-5.265625 11.371093-13.125 11.363281-22.066407v-99.25c0-1.800781-.730469-3.558593-2-4.828124-1.273438-1.273438-3.027344-2-4.828125-2h-259.414063c-1.796875 0-3.554687.726562-4.824219 2-1.273437 1.269531-2 3.027343-2 4.828124v99.25c-.007812 8.941407 4.644532 16.796876 11.359376 22.066407 6.75 5.308593 15.675781 8.378906 25.398437 8.386719h38.332031c3.769532 0 6.824219-3.054688 6.824219-6.824219 0-3.773438-3.054687-6.828125-6.824219-6.828125h-38.328125c-6.8125.007812-12.851562-2.210938-16.941406-5.453125-4.113281-3.289063-6.160156-7.246094-6.167969-11.347657v-92.425781h245.761719v92.425781c-.007813 4.105469-2.054687 8.058594-6.171875 11.347657-4.085938 3.238281-10.128906 5.460937-16.9375 5.453125h-38.339844c-3.769531 0-6.824218 3.054687-6.824218 6.828125 0 3.769531 3.058593 6.824219 6.828124 6.824219" fill="#54596e"/><path d="m300.71875 150.183594h-245.542969c-7.597656 0-13.761719-6.160156-13.761719-13.761719v-33.910156c0-7.597657 6.164063-13.761719 13.761719-13.761719h245.542969c7.597656 0 13.761719 6.164062 13.761719 13.761719v33.914062c0 7.597657-6.164063 13.757813-13.761719 13.757813" fill="#ff927d"/><path d="m300.71875 150.183594v-6.824219h-245.542969c-3.824219-.007813-6.929687-3.109375-6.9375-6.9375v-33.910156c.007813-3.828125 3.113281-6.929688 6.9375-6.9375h245.542969c3.824219.007812 6.925781 3.109375 6.933594 6.9375v33.914062c-.007813 3.828125-3.109375 6.929688-6.933594 6.9375v13.648438c11.371094-.003907 20.582031-9.214844 20.585938-20.589844v-33.910156c-.003907-11.378907-9.214844-20.585938-20.585938-20.589844h-245.542969c-11.371093.003906-20.585937 9.214844-20.585937 20.589844v33.914062c0 11.375 9.214844 20.585938 20.585937 20.589844h245.542969z" fill="#54596e"/><path d="m143.8125 252.585938c0 18.851562 15.285156 34.132812 34.132812 34.132812 18.851563 0 34.132813-15.28125 34.132813-34.132812zm0 0" fill="#54596e"/><path d="m143.8125 252.585938h-6.824219c.003907 22.625 18.335938 40.957031 40.957031 40.960937 22.625-.003906 40.957032-18.335937 40.960938-40.960937 0-1.796876-.726562-3.554688-2-4.828126-1.269531-1.269531-3.027344-1.996093-4.828125-1.996093h-68.265625c-1.796875 0-3.554688.726562-4.824219 1.996093-1.273437 1.273438-2 3.03125-2 4.828126h6.824219v6.828124h68.265625v-6.828124h-6.824219c-.003906 7.5625-3.046875 14.34375-8 19.308593-4.960937 4.953125-11.746094 7.996094-19.308594 8-7.558593-.003906-14.34375-3.046875-19.304687-8-4.953125-4.964843-7.996094-11.746093-8-19.308593h-6.828125v6.828124zm0 0" fill="#54596e"/><path d="m191.601562 273.066406c0-3.769531-6.113281-6.828125-13.65625-6.828125-7.539062 0-13.652343 3.058594-13.652343 6.828125 0 3.769532 6.113281 6.828125 13.652343 6.828125 7.542969 0 13.65625-3.058593 13.65625-6.828125zm0 0" fill="#ff927d"/><path d="m143.8125 194.558594c0 5.65625-4.582031 10.242187-10.238281 10.242187s-10.242188-4.585937-10.242188-10.242187c0-5.652344 4.585938-10.238282 10.242188-10.238282s10.238281 4.585938 10.238281 10.238282zm0 0" fill="#54596e"/><path d="m232.558594 194.558594c0 5.65625-4.582032 10.242187-10.238282 10.242187s-10.242187-4.585937-10.242187-10.242187c0-5.652344 4.585937-10.238282 10.242187-10.238282s10.238282 4.585938 10.238282 10.238282zm0 0" fill="#54596e"/><g fill="#a97575"><path d="m89.203125 95.574219h-13.65625v47.785156h13.65625z"/><path d="m280.347656 95.574219h-13.65625v47.785156h13.65625z"/><path d="m130.160156 95.574219h-13.65625v47.785156h13.65625z"/><path d="m239.386719 95.574219h-13.652344v47.785156h13.652344z"/><path d="m184.773438 95.574219h-13.65625v47.785156h13.65625z"/></g><path d="m171.121094 320.851562v27.308594c0 3.769532 3.054687 6.828125 6.824218 6.828125 3.769532 0 6.828126-3.058593 6.828126-6.828125v-27.308594c0-3.769531-3.058594-6.824218-6.828126-6.824218-3.769531 0-6.824218 3.054687-6.824218 6.824218" fill="#54596e"/></svg>