<svg height="436pt" viewBox="-54 0 436 436.90667" width="436pt" xmlns="http://www.w3.org/2000/svg"><path d="m55.066406 402.773438v20.480468c0 3.769532 3.058594 6.824219 6.828125 6.824219s6.824219-3.054687 6.824219-6.824219v-20.480468c0-3.769532-3.054688-6.828126-6.824219-6.828126s-6.828125 3.058594-6.828125 6.828126" fill="#54596e"/><path d="m259.867188 402.773438v20.480468c0 3.769532 3.054687 6.824219 6.824218 6.824219 3.773438 0 6.828125-3.054687 6.828125-6.824219v-20.480468c0-3.769532-3.054687-6.828126-6.828125-6.828126-3.769531 0-6.824218 3.058594-6.824218 6.828126" fill="#54596e"/><path d="m272.722656 320.851562h-210.578125c-30.300781 0-54.863281 22.886719-54.863281 51.117188v58.109375h314.027344v-63.957031c0-25-21.753906-45.269532-48.585938-45.269532zm0 0" fill="#ffd578"/><path d="m272.722656 320.851562v-6.824218h-210.578125c-16.878906 0-32.257812 6.375-43.449219 16.804687-11.191406 10.402344-18.25 25.011719-18.242187 41.136719v58.109375c0 1.800781.730469 3.558594 2 4.828125 1.273437 1.273438 3.03125 2 4.828125 2h314.027344c1.796875 0 3.554687-.726562 4.824218-2 1.273438-1.269531 2-3.027344 2-4.824219v-63.960937c.007813-14.511719-6.347656-27.65625-16.402343-37.003906-10.054688-9.367188-23.863281-15.089844-39.003907-15.089844v13.652344c11.683594 0 22.167969 4.410156 29.699219 11.425781 7.527344 7.039062 12.050781 16.527343 12.054688 27.015625v57.132812h-300.375v-51.28125c.007812-12.105468 5.230469-23.054687 13.898437-31.152344 8.667969-8.074218 20.722656-13.140624 34.144532-13.140624h210.578124v-6.828126zm0 0" fill="#54596e"/><path d="m75.546875 375.464844c0 21.011718-7.980469 40.117187-20.984375 54.613281h219.460938c-13.003907-14.496094-20.984376-33.601563-20.984376-54.613281 0-21.007813 7.980469-40.113282 20.984376-54.613282h-219.460938c13.003906 14.5 20.984375 33.605469 20.984375 54.613282zm0 0" fill="#55a6ff"/><path d="m75.546875 375.464844h-6.828125c-.003906 19.265625-7.292969 36.730468-19.238281 50.058594-1.800781 2.003906-2.25 4.875-1.152344 7.339843 1.101563 2.460938 3.535156 4.042969 6.234375 4.042969h219.460938c2.695312 0 5.132812-1.582031 6.234374-4.042969 1.097657-2.464843.648438-5.335937-1.152343-7.339843-11.941407-13.328126-19.234375-30.792969-19.238281-50.058594.003906-19.261719 7.296874-36.726563 19.238281-50.054688 1.800781-2.007812 2.25-4.878906 1.152343-7.339844-1.097656-2.464843-3.535156-4.042968-6.234374-4.042968h-219.460938c-2.699219 0-5.132812 1.578125-6.234375 4.042968-1.097656 2.460938-.648437 5.332032 1.152344 7.339844 11.945312 13.328125 19.234375 30.792969 19.238281 50.054688h13.65625c0-22.753906-8.664062-43.496094-22.730469-59.171875l-5.082031 4.558593v6.828126h219.460938v-6.828126l-5.082032-4.558593c-14.066406 15.675781-22.730468 36.417969-22.726562 59.171875-.003906 22.757812 8.660156 43.5 22.726562 59.171875l5.082032-4.558594v-6.824219h-219.460938v6.824219l5.082031 4.558594c14.066407-15.671875 22.730469-36.414063 22.730469-59.171875zm0 0" fill="#54596e"/><path d="m164.296875 402.777344c30.160156 0 54.609375-24.449219 54.609375-54.609375v-54.625h-109.21875v54.625c0 30.160156 24.449219 54.609375 54.609375 54.609375zm0 0" fill="#ffd578"/><path d="m164.296875 402.777344v6.824218c33.933594 0 61.429687-27.5 61.4375-61.433593v-54.625c0-1.796875-.730469-3.554688-2-4.828125-1.273437-1.269532-3.03125-2-4.828125-2h-109.21875c-1.796875 0-3.558594.730468-4.828125 2-1.269531 1.273437-2 3.03125-2 4.828125v54.625c.007813 33.929687 27.503906 61.429687 61.4375 61.433593v-13.652343c-13.214844-.003907-25.117187-5.335938-33.789063-13.996094-8.65625-8.667969-13.992187-20.570313-13.996093-33.785156v-47.796875h95.566406v47.796875c0 13.214843-5.335937 25.117187-13.996094 33.785156-8.667969 8.660156-20.570312 13.992187-33.785156 13.996094zm0 0" fill="#54596e"/><path d="m314.480469 197.972656c0 15.082032-12.226563 27.308594-27.308594 27.308594-15.078125 0-27.304687-12.226562-27.304687-27.308594 0-15.082031 12.226562-27.304687 27.304687-27.304687 15.082031 0 27.308594 12.222656 27.308594 27.304687zm0 0" fill="#ffd578"/><path d="m314.480469 197.972656h6.828125c-.007813-18.851562-15.28125-34.128906-34.136719-34.132812-18.851563.003906-34.125 15.28125-34.132813 34.132812.007813 18.855469 15.28125 34.128906 34.132813 34.132813 18.855469-.003907 34.128906-15.277344 34.136719-34.132813h-13.65625c-.019532 11.308594-9.171875 20.460938-20.480469 20.480469-11.304687-.019531-20.457031-9.171875-20.480469-20.480469.023438-11.304687 9.175782-20.457031 20.480469-20.480468 11.308594.023437 20.460937 9.175781 20.480469 20.480468zm0 0" fill="#54596e"/><path d="m68.71875 197.972656c0 15.082032-12.222656 27.308594-27.304688 27.308594-15.082031 0-27.308593-12.226562-27.308593-27.308594 0-15.082031 12.226562-27.304687 27.308593-27.304687 15.082032 0 27.304688 12.222656 27.304688 27.304687zm0 0" fill="#ffd578"/><path d="m68.71875 197.972656h6.828125c-.003906-18.851562-15.28125-34.128906-34.132813-34.132812-18.855468.003906-34.128906 15.28125-34.132812 34.132812.003906 18.855469 15.277344 34.128906 34.132812 34.132813 18.851563-.003907 34.128907-15.277344 34.132813-34.132813h-13.652344c-.023437 11.308594-9.175781 20.460938-20.480469 20.480469-11.308593-.019531-20.460937-9.171875-20.480468-20.480469.019531-11.304687 9.171875-20.457031 20.480468-20.480468 11.304688.023437 20.457032 9.175781 20.480469 20.480468zm0 0" fill="#54596e"/><path d="m164.292969 334.507812c64.09375 0 116.054687-51.960937 116.054687-116.054687v-68.265625h-232.109375v68.265625c0 64.09375 51.960938 116.054687 116.054688 116.054687zm0 0" fill="#ffd578"/><g fill="#54596e"><path d="m164.292969 334.507812v6.824219c67.867187-.003906 122.875-55.011719 122.878906-122.878906v-68.265625c0-1.800781-.726563-3.558594-2-4.828125-1.269531-1.269531-3.027344-2-4.824219-2h-232.109375c-1.796875 0-3.554687.726563-4.824219 2-1.273437 1.269531-2 3.03125-2 4.828125v68.265625c.003907 67.867187 55.011719 122.875 122.878907 122.878906v-13.652343c-30.183594-.003907-57.445313-12.214844-77.234375-31.992188-19.777344-19.789062-31.988282-47.050781-31.992188-77.234375v-61.441406h218.453125v61.441406c-.003906 30.183594-12.214843 57.445313-31.992187 77.234375-19.789063 19.777344-47.050782 31.988281-77.234375 31.992188zm0 0"/><path d="m130.160156 252.585938c0 18.851562 15.28125 34.132812 34.132813 34.132812 18.851562 0 34.132812-15.28125 34.132812-34.132812zm0 0"/><path d="m130.160156 252.585938h-6.828125c.007813 22.625 18.335938 40.957031 40.960938 40.960937 22.625-.003906 40.957031-18.335937 40.960937-40.960937 0-1.796876-.730468-3.554688-2-4.828126-1.269531-1.269531-3.03125-1.996093-4.828125-1.996093h-68.265625c-1.796875 0-3.558594.726562-4.828125 1.996093-1.269531 1.273438-2 3.03125-2 4.828126h6.828125v6.828124h68.265625v-6.828124h-6.824219c-.003906 7.5625-3.046874 14.34375-8 19.308593-4.964843 4.953125-11.746093 7.996094-19.308593 8-7.558594-.003906-14.34375-3.046875-19.308594-8-4.953125-4.964843-7.996094-11.746093-7.996094-19.308593h-6.828125v6.828124zm0 0"/><path d="m130.160156 187.734375c0 5.65625-4.585937 10.238281-10.238281 10.238281-5.65625 0-10.242187-4.582031-10.242187-10.238281s4.585937-10.242187 10.242187-10.242187c5.652344 0 10.238281 4.585937 10.238281 10.242187zm0 0"/></g><path d="m270.703125 36.949219c-5.613281-13.664063-19.039063-23.296875-34.730469-23.296875-10.773437 0-20.457031 4.566406-27.304687 11.832031-6.847657-7.265625-16.535157-11.832031-27.308594-11.832031-5.394531 0-10.511719 1.160156-15.148437 3.207031-8.082032-6.265625-18.203126-10.03125-29.222657-10.03125-19.097656 0-35.527343 11.226563-43.183593 27.417969-25.351563 1.167968-45.566407 22.03125-45.566407 47.675781 0 26.390625 21.394531 47.785156 47.789063 47.785156 19.09375 0 35.523437-11.226562 43.179687-27.417969 12.773438-.589843 24.21875-6.160156 32.449219-14.855468 3.101562.832031 6.34375 1.3125 9.703125 1.3125 10.773437 0 20.460937-4.5625 27.308594-11.828125 3.640625 3.863281 8.070312 6.960937 13.054687 9.011719 5.613282 13.667968 19.042969 23.296874 34.730469 23.296874 20.734375 0 37.546875-16.8125 37.546875-37.546874 0-15.6875-9.628906-29.117188-23.296875-34.730469zm0 0" fill="#fff35f"/><path d="m270.703125 36.949219 6.316406-2.59375c-6.625-16.148438-22.503906-27.519531-41.046875-27.527344-12.722656-.003906-24.21875 5.410156-32.273437 13.972656l4.96875 4.683594 4.96875-4.683594c-8.054688-8.5625-19.550781-13.976562-32.277344-13.972656-6.378906-.003906-12.445313 1.375-17.90625 3.785156l2.757813 6.246094 4.183593-5.394531c-9.207031-7.144532-20.820312-11.46875025-33.40625-11.464844-21.832031.00390625-40.628906 12.839844-49.351562 31.328125l6.167969 2.917969-.3125-6.820313c-28.976563 1.335938-52.070313 25.175781-52.078126 54.496094.003907 30.164063 24.449219 54.605469 54.613282 54.613281 21.828125-.007812 40.625-12.84375 49.351562-31.332031l-6.171875-2.914063.3125 6.816407c14.582031-.664063 27.703125-7.050781 37.09375-16.976563l-4.957031-4.695312-1.765625 6.59375c3.609375.96875 7.453125 1.546875 11.46875 1.546875 12.726563.003906 24.222656-5.414063 32.277344-13.976563l-4.96875-4.679687-4.96875 4.679687c4.285156 4.550782 9.515625 8.21875 15.429687 10.648438l2.59375-6.3125-6.3125 2.59375c6.621094 16.144531 22.5 27.515625 41.042969 27.527344 24.507813-.003907 44.367187-19.867188 44.375-44.375-.011719-18.542969-11.382813-34.421876-27.53125-41.046876l-2.59375 6.316407 6.316406-2.59375-6.316406 2.59375-2.59375 6.316406c11.183594 4.601563 19.074219 15.578125 19.0625 28.417969 0 8.503906-3.425781 16.140625-8.996094 21.71875-5.582031 5.574218-13.21875 8.996094-21.722656 9-12.835937.007812-23.8125-7.878906-28.414063-19.0625-.695312-1.691406-2.035156-3.027344-3.71875-3.722656-4.0625-1.671876-7.691406-4.203126-10.683593-7.378907-1.289063-1.367187-3.09375-2.148437-4.96875-2.148437s-3.683594.78125-4.96875 2.148437c-5.640625 5.96875-13.515625 9.679688-22.339844 9.683594-2.703125 0-5.34375-.390625-7.9375-1.082031-2.417969-.648438-5 .082031-6.722656 1.902344-7.070313 7.457031-16.839844 12.21875-27.804688 12.726562-2.523437.113281-4.777343 1.617188-5.859375 3.902344-6.582031 13.898437-20.644531 23.515625-37.007812 23.507812-11.335938-.003906-21.53125-4.574218-28.964844-11.996094-7.421875-7.433593-11.992188-17.628906-11.996094-28.960937-.007812-21.972656 17.324219-39.855469 39.054688-40.855469 2.523437-.117187 4.777344-1.621094 5.855468-3.902344 6.582032-13.898437 20.648438-23.515624 37.011719-23.511718 9.449219.003906 18.078125 3.214844 25.039063 8.605468 1.980468 1.53125 4.648437 1.859376 6.9375.847657 3.816406-1.679688 7.976562-2.625 12.394531-2.625 8.824219.003906 16.699219 3.714843 22.339844 9.683593 1.285156 1.363282 3.09375 2.148438 4.96875 2.148438s3.683593-.785156 4.96875-2.148438c5.636719-5.96875 13.515625-9.679687 22.335937-9.683593 12.839844-.007813 23.8125 7.878906 28.417969 19.0625.691406 1.6875 2.03125 3.027343 3.71875 3.722656zm0 0" fill="#54596e"/><path d="m218.90625 187.734375c0 5.65625-4.585938 10.238281-10.238281 10.238281-5.65625 0-10.242188-4.582031-10.242188-10.238281s4.585938-10.242187 10.242188-10.242187c5.652343 0 10.238281 4.585937 10.238281 10.242187zm0 0" fill="#54596e"/><path d="m150.640625 266.238281h27.304687v-13.652343h-27.304687" fill="#fff"/><path d="m41.414062 116.054688h245.757813v34.132812h-245.757813zm0 0" fill="#55a6ff"/><path d="m287.171875 150.1875v-6.828125h-238.933594v-20.480469h232.109375v27.308594h6.824219v-6.828125 6.828125h6.828125v-34.132812c0-1.800782-.730469-3.558594-2-4.828126-1.269531-1.269531-3.03125-2-4.828125-2h-245.757813c-1.796874 0-3.558593.726563-4.828124 2-1.269532 1.269532-2 3.03125-2 4.828126v34.132812c0 1.796875.730468 3.554688 2 4.824219 1.273437 1.273437 3.03125 2 4.828124 2h245.757813c1.796875 0 3.554687-.726563 4.828125-1.996094 1.269531-1.273437 2-3.03125 2-4.828125zm0 0" fill="#54596e"/><path d="m48.238281 211.625c15.082031 0 27.308594-12.226562 27.308594-27.304688v-34.132812h-27.308594zm0 0" fill="#fff35f"/><path d="m48.238281 211.625v6.828125c18.855469-.003906 34.128907-15.28125 34.136719-34.132813v-34.132812c0-1.800781-.730469-3.558594-2-4.828125-1.273438-1.269531-3.03125-2-4.828125-2h-27.308594c-1.796875 0-3.554687.726563-4.824219 2-1.273437 1.269531-2 3.03125-2 4.828125v61.4375c0 1.796875.726563 3.558594 2 4.828125 1.269532 1.269531 3.027344 2 4.824219 2v-6.828125h6.828125v-54.613281h13.652344v27.308593c-.019531 11.304688-9.171875 20.460938-20.480469 20.480469v6.824219h6.828125zm0 0" fill="#54596e"/><path d="m280.347656 211.625v-61.4375h-27.308594v34.132812c0 15.078126 12.226563 27.304688 27.308594 27.304688zm0 0" fill="#fff35f"/><path d="m280.347656 211.625h6.824219v-61.4375c0-1.800781-.726563-3.558594-2-4.828125-1.269531-1.269531-3.027344-2-4.824219-2h-27.308594c-1.796874 0-3.554687.726563-4.824218 2-1.273438 1.269531-2 3.03125-2 4.828125v34.132812c.003906 18.851563 15.277344 34.128907 34.132812 34.132813 1.796875 0 3.554688-.726563 4.824219-2 1.273437-1.269531 2-3.027344 2-4.824219h-6.824219v-6.828125c-11.308594-.019531-20.460937-9.171875-20.480468-20.480469v-27.304687h13.652343v54.613281h6.828125v-6.828125zm0 0" fill="#54596e"/><path d="m119.921875 98.988281c0 16.964844 13.753906 30.71875 30.71875 30.71875h81.917969c16.96875 0 30.722656-13.753906 30.722656-30.71875 0-16.96875-13.753906-30.722656-30.722656-30.722656h-81.917969" fill="#fff35f"/><path d="m113.09375 98.988281c.003906 20.738281 16.808594 37.539063 37.546875 37.546875h81.917969c20.742187-.003906 37.542968-16.808594 37.546875-37.546875-.003907-20.742187-16.804688-37.542969-37.546875-37.546875h-81.917969c-3.769531 0-6.828125 3.054688-6.828125 6.824219s3.058594 6.828125 6.828125 6.828125h81.917969c13.195312.023438 23.871094 10.699219 23.894531 23.894531-.023437 13.191407-10.699219 23.867188-23.894531 23.890625h-81.917969c-13.195313-.023437-23.871094-10.699218-23.894531-23.890625 0-3.773437-3.054688-6.828125-6.824219-6.828125-3.773437 0-6.828125 3.054688-6.828125 6.828125zm0 0" fill="#54596e"/></svg>