<svg height="436pt" viewBox="-13 0 436 436.90667" width="436pt" xmlns="http://www.w3.org/2000/svg"><path d="m341.96875 320.851562h-265.507812c-38.207032 0-69.179688 22.886719-69.179688 51.117188v58.109375h395.945312v-63.957031c0-25-27.425781-45.269532-61.257812-45.269532zm0 0" fill="#ffd578"/><path d="m341.96875 320.851562v-6.824218h-265.507812c-20.46875.011718-39.117188 6.085937-52.976563 16.304687-13.816406 10.164063-23.03125 24.917969-23.03125 41.636719v58.109375c0 1.800781.730469 3.558594 2 4.828125 1.273437 1.273438 3.03125 2 4.828125 2h395.945312c1.796876 0 3.554688-.726562 4.828126-2 1.269531-1.269531 2-3.027344 2-4.824219v-63.960937c0-15.105469-8.332032-28.394532-20.714844-37.5-12.425782-9.160156-29.09375-14.582032-47.371094-14.59375v13.652344c15.550781-.011719 29.515625 4.703124 39.257812 11.921874 9.789063 7.28125 15.171876 16.621094 15.171876 26.519532v57.132812h-382.292969v-51.28125c0-11.511718 6.273437-22.316406 17.496093-30.65625 11.175782-8.277344 27.117188-13.648437 44.859376-13.632812h265.507812zm0 0" fill="#54596e"/><path d="m123.332031 423.253906c0 2.304688-.207031 4.554688-.34375 6.824219h164.53125c-.140625-2.269531-.347656-4.519531-.347656-6.824219 0-45.863281 28.300781-85.0625 68.367187-101.246094-4.371093-.734374-8.898437-1.15625-13.570312-1.15625h-265.507812c-6.6875 0-13.128907.738282-19.242188 2.042969 38.875 16.730469 66.113281 55.351563 66.113281 100.359375zm0 0" fill="#fff"/><path d="m123.332031 423.253906h-6.824219c.003907 1.890625-.183593 4-.335937 6.40625-.117187 1.871094.554687 3.730469 1.839844 5.09375 1.285156 1.367188 3.097656 2.152344 4.972656 2.152344h164.535156c1.875 0 3.6875-.785156 4.972657-2.152344 1.285156-1.367187 1.953124-3.226562 1.839843-5.09375-.152343-2.40625-.339843-4.515625-.335937-6.40625-.007813-42.996094 26.53125-79.730468 64.097656-94.917968 2.828125-1.144532 4.558594-4.039063 4.230469-7.074219-.332031-3.035157-2.648438-5.484375-5.660157-5.988281-4.710937-.792969-9.617187-1.25-14.703124-1.246094h-265.5c-7.191407 0-14.109376.792968-20.667969 2.191406-2.902344.621094-5.078125 3.054688-5.367188 6.011719-.292969 2.953125 1.367188 5.761719 4.09375 6.9375 36.449219 15.691406 61.996094 51.890625 61.988281 94.085937h13.652344c-.007812-47.820312-28.941406-88.867187-70.242187-106.628906l-2.699219 6.269531 1.429688 6.679688c5.667968-1.214844 11.625-1.894531 17.8125-1.894531h265.507812c4.261719 0 8.40625.382812 12.445312 1.058593l1.128907-6.730469-2.558594-6.332031c-42.566406 17.1875-72.628906 58.84375-72.636719 107.578125.003906 2.714844.230469 5.113282.359375 7.246094l6.8125-.421875v-6.824219h-164.53125v6.824219l6.8125.421875c.128907-2.132812.355469-4.53125.359375-7.246094zm0 0" fill="#54596e"/><path d="m362.265625 184.320312c0 15.082032-12.222656 27.304688-27.304687 27.304688-15.082032 0-27.308594-12.222656-27.308594-27.304688 0-15.082031 12.226562-27.308593 27.308594-27.308593 15.082031 0 27.304687 12.226562 27.304687 27.308593zm0 0" fill="#ffd578"/><path d="m362.265625 184.320312h6.828125c-.003906-18.855468-15.28125-34.128906-34.132812-34.132812-18.855469.003906-34.128907 15.277344-34.132813 34.132812.003906 18.851563 15.277344 34.128907 34.132813 34.132813 18.851562-.003906 34.128906-15.28125 34.132812-34.132813h-13.652344c-.023437 11.304688-9.175781 20.460938-20.480468 20.480469-11.308594-.019531-20.460938-9.175781-20.480469-20.480469.019531-11.308593 9.171875-20.460937 20.480469-20.480468 11.304687.019531 20.457031 9.171875 20.480468 20.480468zm0 0" fill="#54596e"/><path d="m102.851562 184.320312c0 15.082032-12.222656 27.304688-27.304687 27.304688s-27.308594-12.222656-27.308594-27.304688c0-15.082031 12.226563-27.308593 27.308594-27.308593s27.304687 12.226562 27.304687 27.308593zm0 0" fill="#ffd578"/><path d="m102.851562 184.320312h6.828126c-.003907-18.855468-15.28125-34.128906-34.132813-34.132812-18.855469.003906-34.128906 15.277344-34.132813 34.132812.003907 18.851563 15.277344 34.128907 34.132813 34.132813 18.851563-.003906 34.128906-15.28125 34.132813-34.132813h-13.652344c-.019532 11.304688-9.175782 20.460938-20.480469 20.480469-11.308594-.019531-20.460937-9.175781-20.480469-20.480469.019532-11.308593 9.171875-20.460937 20.480469-20.480468 11.304687.019531 20.460937 9.171875 20.480469 20.480468zm0 0" fill="#54596e"/><path d="m218.214844 409.601562h-25.921875c-27.667969-11.652343-71.167969-48.058593-93.753907-88.734374-21.660156-39-22.992187-81.925782-22.992187-110.714844v-32.660156h259.414063v32.660156c0 28.785156-1.332032 71.707031-22.988282 110.703125-22.59375 40.679687-66.09375 77.09375-93.757812 88.746093zm0 0" fill="#aaa"/><path d="m218.214844 409.601562v-6.828124h-25.921875v6.828124l2.648437-6.292968c-12.726562-5.332032-30.160156-17.003906-46.832031-32.238282-16.710937-15.222656-32.800781-34.042968-43.601563-53.519531-20.699218-37.203125-22.164062-78.839843-22.132812-107.398437v-25.835938h245.757812v25.835938c.03125 28.554687-1.433593 70.1875-22.128906 107.390625-10.804687 19.476562-26.894531 38.296875-43.609375 53.527343-16.671875 15.234376-34.101562 26.910157-46.832031 32.238282l2.652344 6.292968v-6.828124 6.828124l2.648437 6.289063c14.9375-6.320313 33.089844-18.675781 50.730469-34.730469 17.601562-16.0625 34.558594-35.789062 46.347656-56.988281 22.613282-40.796875 23.816406-85.007813 23.84375-114.019531v-32.660156c0-1.796876-.726562-3.554688-1.996094-4.828126-1.273437-1.269531-3.03125-1.996093-4.828124-1.996093h-259.414063c-1.796875 0-3.558594.726562-4.828125 1.996093-1.269531 1.273438-2 3.03125-2 4.828126v32.660156c.03125 29.015625 1.234375 73.234375 23.855469 114.027344 11.78125 21.199218 28.738281 40.925781 46.339843 56.984374 17.640626 16.050782 35.792969 28.410157 50.730469 34.726563.835938.355469 1.742188.535156 2.648438.535156h25.921875c.910156 0 1.8125-.183593 2.648437-.535156zm0 0" fill="#54596e"/><path d="m75.546875 201.652344c0 13.046875 13.402344 23.628906 29.933594 23.628906h199.546875c16.535156 0 29.933594-10.582031 29.933594-23.632812v-85.59375h-259.414063zm0 0" fill="#ffd578"/><g fill="#54596e"><path d="m75.546875 201.652344h-6.828125c-.003906 8.941406 4.644531 16.800781 11.363281 22.066406 6.75 5.3125 15.675781 8.378906 25.398438 8.390625h199.546875c9.722656-.011719 18.648437-3.078125 25.394531-8.390625 6.722656-5.265625 11.371094-13.125 11.363281-22.066406v-85.597656c0-1.800782-.726562-3.554688-1.996094-4.828126-1.273437-1.269531-3.03125-2-4.828124-2h-259.414063c-1.796875 0-3.558594.726563-4.828125 2-1.269531 1.269532-2 3.03125-2 4.828126v85.59375h13.65625v-78.769532h245.757812v78.769532c-.007812 4.109374-2.054687 8.0625-6.167968 11.351562-4.085938 3.238281-10.128906 5.460938-16.9375 5.453125h-199.546875c-6.808594.007813-12.851563-2.214844-16.9375-5.453125-4.113281-3.289062-6.164063-7.242188-6.167969-11.351562h-6.828125zm0 0"/><path d="m171.121094 252.585938c0 18.851562 15.277344 34.132812 34.132812 34.132812 18.851563 0 34.132813-15.28125 34.132813-34.132812zm0 0"/><path d="m171.121094 252.585938h-6.828125c.003906 22.621093 18.332031 40.957031 40.960937 40.960937 22.625-.003906 40.953125-18.339844 40.960938-40.960937 0-1.796876-.730469-3.554688-2-4.828126-1.269532-1.269531-3.03125-1.996093-4.828125-1.996093h-68.265625c-1.796875 0-3.558594.726562-4.828125 1.996093-1.269531 1.273438-2 3.03125-2 4.828126h6.828125v6.828124h68.265625v-6.828124h-6.828125c-.003906 7.5625-3.042969 14.34375-7.996094 19.308593-4.964844 4.949219-11.746094 7.992188-19.308594 8-7.566406-.003906-14.347656-3.046875-19.308594-8-4.953124-4.964843-7.996093-11.746093-8-19.308593h-6.824218v6.828124zm0 0"/></g><path d="m218.90625 273.066406c0-3.769531-6.113281-6.828125-13.652344-6.828125-7.542968 0-13.652344 3.058594-13.652344 6.828125 0 3.769532 6.109376 6.828125 13.652344 6.828125 7.539063 0 13.652344-3.058593 13.652344-6.828125zm0 0" fill="#ff927d"/><path d="m171.121094 174.078125c0 5.65625-4.585938 10.242187-10.242188 10.242187s-10.238281-4.585937-10.238281-10.242187c0-5.652344 4.582031-10.238281 10.238281-10.238281s10.242188 4.585937 10.242188 10.238281zm0 0" fill="#54596e"/><path d="m259.867188 174.078125c0 5.65625-4.585938 10.242187-10.242188 10.242187-5.652344 0-10.238281-4.585937-10.238281-10.242187 0-5.652344 4.585937-10.238281 10.238281-10.238281 5.65625 0 10.242188 4.585937 10.242188 10.238281zm0 0" fill="#54596e"/><path d="m334.960938 116.054688h-279.894532c-22.621094 0-40.960937 18.339843-40.960937 40.957031h279.894531c22.621094 0 40.960938-18.339844 40.960938-40.957031zm0 0" fill="#ff927d"/><path d="m334.960938 116.054688v-6.828126h-279.894532c-26.394531.003907-47.78125 21.394532-47.785156 47.785157 0 1.796875.726562 3.554687 2 4.828125 1.269531 1.269531 3.027344 2 4.824219 2h279.894531c26.394531-.003906 47.78125-21.394532 47.785156-47.785156 0-1.800782-.726562-3.554688-1.996094-4.828126-1.273437-1.269531-3.03125-2-4.828124-2v6.828126h-6.828126c-.003906 9.445312-3.808593 17.933593-9.996093 24.132812-6.199219 6.1875-14.691407 9.996094-24.136719 10h-279.894531v6.824219h6.828125c.003906-9.445313 3.8125-17.933594 9.996094-24.132813 6.199218-6.1875 14.691406-9.996094 24.136718-10h279.894532v-6.824218h-6.828126zm0 0" fill="#54596e"/><path d="m225.734375 6.828125h-40.960937c-60.328126 0-109.226563 48.902344-109.226563 109.226563h259.414063c0-60.324219-48.898438-109.226563-109.226563-109.226563zm0 0" fill="#61c5a8"/><path d="m225.734375 6.828125v-6.828125h-40.960937c-64.101563.00390625-116.050782 51.957031-116.054688 116.054688 0 1.796874.730469 3.554687 2 4.824218 1.273438 1.273438 3.03125 2 4.828125 2h259.414063c1.796874 0 3.554687-.726562 4.824218-1.996094 1.273438-1.273437 2-3.03125 2-4.828124 0-64.097657-51.953125-116.05078175-116.050781-116.054688v13.652344c28.300781.003906 53.855469 11.453125 72.40625 29.992187 18.542969 18.554688 29.988281 44.109375 29.992187 72.410157h6.828126v-6.828126h-259.414063v6.828126h6.828125c0-28.300782 11.449219-53.855469 29.988281-72.410157 18.554688-18.539062 44.109375-29.988281 72.410157-29.992187h40.960937zm0 0" fill="#54596e"/><path d="m205.253906 6.828125v-6.828125c-49.015625.00390625-88.742187 39.730469-88.746094 88.746094v27.308594c0 1.796874.726563 3.554687 2 4.824218 1.269532 1.273438 3.027344 2 4.824219 2h163.839844c1.796875 0 3.554687-.726562 4.828125-1.996094 1.269531-1.273437 2-3.03125 2-4.828124v-27.308594c-.003906-49.015625-39.734375-88.74218775-88.746094-88.746094v13.652344c20.757813.003906 39.484375 8.394531 53.097656 21.996094 13.601563 13.609374 21.992188 32.339843 21.996094 53.097656v20.480468h-150.1875v-20.480468c.003906-20.757813 8.394532-39.488282 21.996094-53.097656 13.609375-13.601563 32.339844-21.992188 53.097656-21.996094zm0 0" fill="#54596e"/><path d="m205.253906 6.828125v-6.828125c-18.855468.00390625-34.128906 15.28125-34.132812 34.132812v81.921876c0 1.796874.726562 3.554687 1.996094 4.824218 1.273437 1.273438 3.03125 2 4.828124 2h54.613282c1.796875 0 3.554687-.726562 4.828125-2 1.269531-1.269531 2-3.027344 2-4.824218v-81.921876c-.003907-18.851562-15.28125-34.12890575-34.132813-34.132812v13.652344c11.304688.019531 20.457032 9.175781 20.480469 20.480468v75.09375h-40.960937v-75.09375c.019531-11.304687 9.171874-20.460937 20.480468-20.480468zm0 0" fill="#54596e"/><path d="m184.769531 68.269531 20.480469-20.480469 20.480469 20.480469-20.480469 20.480469zm0 0" fill="#ffd578"/><path d="m198.425781 382.292969v20.480469c0 3.769531 3.058594 6.828124 6.828125 6.828124 3.769532 0 6.824219-3.058593 6.824219-6.828124v-20.480469c0-3.769531-3.054687-6.828125-6.824219-6.828125-3.769531 0-6.828125 3.058594-6.828125 6.828125" fill="#54596e"/></svg>