<svg height="436pt" viewBox="-37 0 436 436.90667" width="436pt" xmlns="http://www.w3.org/2000/svg"><path d="m191.601562 238.933594h-27.308593c-86.71875 0-157.011719 63.46875-157.011719 150.1875v40.957031h341.332031v-40.957031c0-86.71875-70.296875-150.1875-157.011719-150.1875zm0 0" fill="#ffb8f2"/><path d="m191.601562 238.933594v-6.828125h-27.308593c-45.023438-.003907-85.984375 16.492187-115.703125 44.425781-29.726563 27.910156-48.15625 67.367188-48.136719 112.589844v40.957031c0 1.824219.710937 3.539063 2 4.828125s3.003906 2 4.828125 2h341.332031c1.824219 0 3.535157-.707031 4.828125-2 1.289063-1.289062 2-3 2-4.828125v-40.957031c.019532-45.222656-18.414062-84.679688-48.140625-112.589844-29.71875-27.929688-70.675781-44.429688-115.699219-44.425781v13.65625c41.6875 0 79.238282 15.242187 106.347657 40.722656 27.101562 25.503906 43.816406 61.140625 43.835937 102.636719v34.132812h-327.679687v-34.132812c.023437-41.496094 16.738281-77.132813 43.839843-102.640625 27.109376-25.476563 64.65625-40.71875 106.347657-40.71875h27.308593zm0 0" fill="#54596e"/><path d="m75.546875 245.761719s-88.746094 6.824219 6.828125 102.398437" fill="#ffb8f2"/><path d="m75.023438 238.953125c-.4375.058594-10.386719.761719-21.046876 5.5625-5.320312 2.425781-10.902343 5.925781-15.324218 11.246094-4.433594 5.292969-7.46875 12.558593-7.429688 21.148437.015625 9.265625 3.265625 19.832032 10.5625 32.25 7.316406 12.429688 18.757813 26.816406 35.761719 43.828125 2.664063 2.667969 6.984375 2.667969 9.652344 0 2.667969-2.664062 2.667969-6.988281 0-9.652343-16.445313-16.441407-27.167969-30.070313-33.648438-41.097657-6.503906-11.039062-8.6875-19.375-8.675781-25.328125.039062-5.542968 1.695312-9.234375 4.292969-12.4375 3.867187-4.757812 10.585937-8.019531 16.492187-9.773437 2.9375-.890625 5.621094-1.4375 7.53125-1.746094.953125-.160156 1.710938-.253906 2.214844-.316406l.546875-.058594.117187-.011719c3.757813-.289062 6.570313-3.570312 6.28125-7.328125-.289062-3.757812-3.570312-6.574219-7.328124-6.285156zm0 0" fill="#54596e"/><path d="m276.984375 245.761719s88.746094 6.824219-6.828125 102.398437" fill="#ffb8f2"/><path d="m276.460938 252.566406.023437.003906c.652344.035157 9.402344.976563 17.179687 4.730469 3.902344 1.859375 7.480469 4.363281 9.941407 7.46875 2.449219 3.140625 4.011719 6.765625 4.046875 12.140625.011718 5.949219-2.171875 14.285156-8.675782 25.324219-6.480468 11.027344-17.203124 24.65625-33.648437 41.097656-2.664063 2.664063-2.667969 6.988281 0 9.65625 2.664063 2.664063 6.988281 2.664063 9.65625 0 17-17.015625 28.441406-31.402343 35.757813-43.832031 7.296874-12.417969 10.546874-22.984375 10.5625-32.25.039062-8.585938-2.996094-15.855469-7.429688-21.148438-6.675781-7.972656-15.777344-11.890624-23.050781-14.132812-7.304688-2.207031-12.996094-2.644531-13.320313-2.671875-3.757812-.292969-7.039062 2.523437-7.328125 6.28125-.289062 3.761719 2.523438 7.042969 6.285157 7.332031zm0 0" fill="#54596e"/><path d="m334.960938 163.839844c0 15.082031-12.226563 27.308594-27.308594 27.308594-15.078125 0-27.304688-12.226563-27.304688-27.308594 0-15.082032 12.226563-27.304688 27.304688-27.304688 15.082031 0 27.308594 12.222656 27.308594 27.304688zm0 0" fill="#ffd578"/><path d="m334.960938 163.839844h6.824218c-.003906-18.855469-15.277344-34.128906-34.132812-34.132813-18.851563.003907-34.128906 15.277344-34.132813 34.132813.003907 18.855468 15.28125 34.128906 34.132813 34.132812 18.855468-.003906 34.128906-15.277344 34.132812-34.132812h-13.652344c-.019531 11.304687-9.171874 20.457031-20.480468 20.480468-11.304688-.023437-20.457032-9.175781-20.480469-20.480468.023437-11.304688 9.175781-20.460938 20.480469-20.480469 11.308594.019531 20.460937 9.175781 20.480468 20.480469zm0 0" fill="#54596e"/><path d="m218.90625 320.851562h-81.917969l6.824219 109.226563h68.265625zm0 0" fill="#fff"/><path d="m218.90625 320.851562v-6.824218h-81.917969c-1.878906 0-3.691406.785156-4.976562 2.152344-1.285157 1.367187-1.957031 3.226562-1.839844 5.097656l6.828125 109.226562c.222656 3.597656 3.210938 6.402344 6.8125 6.402344h68.265625c3.605469 0 6.589844-2.804688 6.816406-6.402344l6.824219-109.226562c.117188-1.871094-.554688-3.734375-1.835938-5.097656-1.285156-1.367188-3.101562-2.152344-4.976562-2.152344v6.824218l-6.8125-.425781-6.425781 102.828125h-55.441407l-5.972656-95.578125 74.652344.003907v-6.828126l-6.8125-.425781zm0 0" fill="#54596e"/><path d="m75.546875 163.839844c0 15.082031-12.226563 27.308594-27.308594 27.308594-15.078125 0-27.304687-12.226563-27.304687-27.308594 0-15.082032 12.226562-27.304688 27.304687-27.304688 15.082031 0 27.308594 12.222656 27.308594 27.304688zm0 0" fill="#ffd578"/><path d="m75.546875 163.839844h6.828125c-.007812-18.855469-15.28125-34.128906-34.136719-34.132813-18.851562.003907-34.125 15.277344-34.132812 34.132813.007812 18.855468 15.28125 34.128906 34.132812 34.132812 18.855469-.003906 34.128907-15.277344 34.136719-34.132812h-13.65625c-.019531 11.304687-9.171875 20.457031-20.480469 20.480468-11.304687-.023437-20.457031-9.175781-20.476562-20.480468.019531-11.304688 9.171875-20.460938 20.476562-20.480469 11.308594.019531 20.460938 9.175781 20.480469 20.480469zm0 0" fill="#54596e"/><path d="m218.210938 351.6875-40.265626 16.953125-40.261718-16.953125c-54.199219-22.820312-89.445313-110.035156-89.445313-168.839844v-121.710937c0-29.992188 24.316407-54.308594 54.3125-54.308594h205.101563v176.019531c0 58.804688-35.242188 146.019532-89.441406 168.839844zm0 0" fill="#999"/><path d="m218.210938 351.6875-2.648438-6.292969-37.617188 15.835938-37.613281-15.835938c-24.710937-10.292969-46.453125-36.472656-61.554687-67.621093-15.160156-31.0625-23.742188-66.859376-23.707032-94.925782v-121.710937c0-13.132813 5.300782-24.960938 13.90625-33.574219 8.613282-8.605469 20.441407-13.902344 33.574219-13.910156h198.277344v169.195312c.03125 28.070313-8.550781 63.863282-23.707031 94.925782-15.105469 31.148437-36.847656 57.328124-61.558594 67.621093l5.296875 12.585938c29.484375-12.527344 52.464844-41.363281 68.535156-74.226563 16.011719-32.953125 25.054688-70.167968 25.085938-100.90625v-176.019531c0-1.800781-.730469-3.558594-2-4.828125s-3.03125-2-4.828125-2h-205.101563c-33.769531.00390625-61.132812 27.371094-61.136719 61.136719v121.710937c.03125 30.738282 9.070313 67.949219 25.085938 100.902344 16.066406 32.867188 39.046875 61.703125 68.535156 74.226562l40.261719 16.957032c1.707031.714844 3.59375.714844 5.300781 0l40.261719-16.957032zm0 0" fill="#54596e"/><path d="m191.601562 75.09375h95.570313c37.707031 0 68.269531-30.5625 68.269531-68.265625h-163.839844" fill="#999"/><path d="m191.601562 81.921875h95.570313c41.476563-.003906 75.089844-33.617187 75.09375-75.09375 0-1.796875-.726563-3.554687-2-4.828125-1.269531-1.269531-3.027344-2-4.824219-2h-163.839844c-3.773437 0-6.828124 3.054688-6.828124 6.828125 0 3.769531 3.054687 6.824219 6.828124 6.824219h163.839844v-6.824219h-6.828125c-.003906 16.984375-6.867187 32.300781-17.996093 43.441406-11.136719 11.132813-26.457032 17.992188-43.445313 17.996094h-95.570313c-3.773437 0-6.828124 3.054687-6.828124 6.828125 0 3.769531 3.054687 6.828125 6.828124 6.828125zm0 0" fill="#54596e"/><path d="m75.546875 225.28125 25.058594-27.308594h156.113281l23.628906 27.308594v-150.1875h-173.828125c-17.105469 0-30.972656 18.84375-30.972656 33.671875zm0 0" fill="#ffd578"/><path d="m75.546875 225.28125 5.03125 4.613281 23.03125-25.097656h149.984375l21.589844 24.949219c1.859375 2.152344 4.878906 2.921875 7.546875 1.929687 2.664062-.992187 4.441406-3.550781 4.441406-6.394531v-150.1875c0-1.800781-.726563-3.558594-2-4.828125-1.269531-1.269531-3.027344-2-4.824219-2h-173.828125c-5.539062-.003906-10.746093 1.535156-15.296875 3.996094-6.835937 3.703125-12.3125 9.390625-16.21875 15.78125-3.882812 6.410156-6.261718 13.5625-6.285156 20.722656v116.515625c0 2.820312 1.71875 5.335938 4.351562 6.359375 2.628907 1.027344 5.597657.335937 7.503907-1.742187l-5.027344-4.617188h6.828125v-116.515625c-.066406-5.300781 2.75-12.558594 7.433594-17.964844 2.316406-2.71875 5.042968-4.988281 7.894531-6.523437 2.863281-1.535156 5.804687-2.355469 8.816406-2.355469h167v125.035156l-11.640625-13.449219c-1.292968-1.496093-3.1875-2.359374-5.164062-2.359374h-156.109375c-1.902344 0-3.746094.808593-5.03125 2.210937l-25.058594 27.304687 5.03125 4.617188h6.828125zm0 0" fill="#54596e"/><path d="m143.8125 225.28125c0 18.847656 15.285156 34.132812 34.132812 34.132812 18.851563 0 34.132813-15.285156 34.132813-34.132812zm0 0" fill="#54596e"/><path d="m143.8125 225.28125h-6.824219c.003907 22.621094 18.335938 40.953125 40.957031 40.957031 22.625-.003906 40.957032-18.335937 40.960938-40.957031 0-1.800781-.726562-3.558594-2-4.828125-1.269531-1.269531-3.027344-2-4.828125-2h-68.265625c-1.796875 0-3.554688.726563-4.824219 2-1.273437 1.273437-2 3.03125-2 4.828125h6.824219v6.824219h68.265625v-6.824219h-6.824219c-.003906 7.558594-3.046875 14.339844-8 19.304688-4.960937 4.953124-11.746094 7.996093-19.308594 8-7.558593-.003907-14.34375-3.046876-19.304687-8-4.953125-4.964844-7.996094-11.746094-8-19.304688h-6.828125v6.824219zm0 0" fill="#54596e"/><path d="m191.601562 245.761719c0-3.773438-6.113281-6.828125-13.65625-6.828125-7.539062 0-13.652343 3.054687-13.652343 6.828125 0 3.769531 6.113281 6.824219 13.652343 6.824219 7.542969 0 13.65625-3.054688 13.65625-6.824219zm0 0" fill="#ff927d"/><g fill="#54596e"><path d="m143.8125 146.773438c0 5.65625-4.582031 10.238281-10.238281 10.238281s-10.242188-4.582031-10.242188-10.238281 4.585938-10.238282 10.242188-10.238282 10.238281 4.582032 10.238281 10.238282zm0 0"/><path d="m232.558594 146.773438c0 5.65625-4.582032 10.238281-10.238282 10.238281s-10.242187-4.582031-10.242187-10.238281 4.585937-10.238282 10.242187-10.238282 10.238282 4.582032 10.238282 10.238282zm0 0"/><path d="m68.71875 389.121094v34.132812c0 3.769532 3.058594 6.824219 6.828125 6.824219s6.828125-3.054687 6.828125-6.824219v-34.132812c0-3.773438-3.058594-6.828125-6.828125-6.828125s-6.828125 3.058593-6.828125 6.828125"/><path d="m273.519531 389.121094v34.132812c0 3.769532 3.058594 6.824219 6.828125 6.824219 3.769532 0 6.824219-3.054687 6.824219-6.824219v-34.132812c0-3.773438-3.054687-6.828125-6.824219-6.828125-3.769531 0-6.828125 3.058593-6.828125 6.828125"/><path d="m116.507812 47.785156v27.308594c0 3.769531 3.054688 6.828125 6.824219 6.828125s6.828125-3.058594 6.828125-6.828125v-27.308594c0-3.769531-3.058594-6.824218-6.828125-6.824218s-6.824219 3.054687-6.824219 6.824218"/></g></svg>