<svg height="436pt" viewBox="-54 0 436 436.90667" width="436pt" xmlns="http://www.w3.org/2000/svg"><path d="m286.820312 95.574219c-3.617187-59.441407-60.78125-88.746094-122.527343-88.746094-61.742188 0-118.910157 29.304687-122.527344 88.746094l-7.179687 245.757812h259.414062zm0 0" fill="#fff35f"/><path d="m286.820312 95.574219 6.816407-.414063c-.960938-15.917968-5.566407-30.058594-12.988281-42.105468-11.140626-18.101563-28.429688-31.382813-48.710938-40.09375-20.304688-8.714844-43.683594-12.95703175-67.644531-12.960938-31.9375.0195312-62.878907 7.515625-86.808594 23.203125-11.949219 7.847656-22.128906 17.789063-29.542969 29.847656-7.425781 12.050781-12.027344 26.191407-12.988281 42.105469l-.011719.214844-7.179687 245.761718c-.054688 1.847657.636719 3.628907 1.925781 4.957032 1.289062 1.324218 3.050781 2.070312 4.898438 2.070312h259.414062c1.851562 0 3.609375-.746094 4.894531-2.070312 1.289063-1.324219 1.984375-3.109375 1.929688-4.957032l-7.179688-245.757812-.011719-.214844-6.8125.414063-6.824218.199219 6.972656 238.734374h-245.355469l6.976563-238.734374-6.824219-.199219 6.816406.414062c.847657-13.804687 4.742188-25.617187 10.988281-35.78125 9.359376-15.21875 24.183594-26.839843 42.46875-34.699219 18.265626-7.859374 39.910157-11.859374 62.253907-11.855468 29.804687-.019532 58.316406 7.136718 79.3125 20.964844 10.511719 6.90625 19.164062 15.4375 25.414062 25.59375 6.242188 10.160156 10.136719 21.972656 10.984375 35.777343l6.816406-.414062-6.824218.199219zm0 0" fill="#54596e"/><path d="m268.496094 334.507812h-201.578125c-32.9375 0-59.636719 22.886719-59.636719 51.113282v44.457031h314.027344v-50.304687c0-25-23.644532-45.265626-52.8125-45.265626zm0 0" fill="#fff"/><path d="m268.496094 334.507812v-6.828124h-201.578125c-18.054688.003906-34.515625 6.257812-46.613281 16.613281-12.085938 10.328125-19.859376 25.007812-19.851563 41.328125v44.457031c0 1.800781.730469 3.558594 2 4.828125 1.273437 1.273438 3.03125 2 4.828125 2h314.027344c1.796875 0 3.554687-.726562 4.824218-2 1.273438-1.269531 2-3.027344 2-4.824219v-50.308593c.007813-14.703126-7-27.921876-17.851562-37.191407-10.859375-9.300781-25.617188-14.898437-41.785156-14.898437v13.648437c12.996094-.003906 24.648437 4.535157 32.898437 11.617188 8.265625 7.113281 13.074219 16.527343 13.082031 26.824219v43.480468h-300.371093v-37.628906c.007812-11.910156 5.582031-22.789062 15.085937-30.960938 9.484375-8.144531 22.84375-13.335937 37.726563-13.332031h201.578125zm0 0" fill="#54596e"/><path d="m48.238281 402.773438v20.480468c0 3.769532 3.058594 6.824219 6.828125 6.824219 3.769532 0 6.828125-3.054687 6.828125-6.824219v-20.480468c0-3.769532-3.058593-6.828126-6.828125-6.828126-3.769531 0-6.828125 3.058594-6.828125 6.828126" fill="#54596e"/><path d="m266.691406 402.773438v20.480468c0 3.769532 3.058594 6.824219 6.828125 6.824219s6.828125-3.054687 6.828125-6.824219v-20.480468c0-3.769532-3.058594-6.828126-6.828125-6.828126s-6.828125 3.058594-6.828125 6.828126" fill="#54596e"/><path d="m294 170.667969c0 15.078125-12.226562 27.304687-27.308594 27.304687-15.078125 0-27.304687-12.226562-27.304687-27.304687 0-15.082031 12.226562-27.308594 27.304687-27.308594 15.082032 0 27.308594 12.226563 27.308594 27.308594zm0 0" fill="#ffd578"/><path d="m294 170.667969h6.828125c-.007813-18.855469-15.28125-34.132813-34.136719-34.132813-18.851562 0-34.125 15.277344-34.132812 34.132813.007812 18.851562 15.28125 34.125 34.132812 34.132812 18.855469-.003906 34.128906-15.28125 34.136719-34.132812h-13.65625c-.019531 11.304687-9.171875 20.457031-20.480469 20.480469-11.304687-.023438-20.457031-9.175782-20.476562-20.480469.019531-11.308594 9.171875-20.460938 20.476562-20.480469 11.308594.019531 20.460938 9.171875 20.480469 20.480469zm0 0" fill="#54596e"/><path d="m89.199219 170.667969c0 15.078125-12.226563 27.304687-27.304688 27.304687-15.082031 0-27.308593-12.226562-27.308593-27.304687 0-15.082031 12.226562-27.308594 27.308593-27.308594 15.078125 0 27.304688 12.226563 27.304688 27.308594zm0 0" fill="#ffd578"/><path d="m89.199219 170.667969h6.828125c-.003906-18.855469-15.28125-34.132813-34.132813-34.132813-18.855469 0-34.128906 15.277344-34.132812 34.132813.003906 18.851562 15.277343 34.125 34.132812 34.132812 18.851563-.003906 34.128907-15.28125 34.132813-34.132812h-13.652344c-.023438 11.304687-9.175781 20.457031-20.480469 20.480469-11.308593-.023438-20.460937-9.175782-20.480469-20.480469.019532-11.308594 9.171876-20.460938 20.480469-20.480469 11.304688.019531 20.457031 9.171875 20.480469 20.480469zm0 0" fill="#54596e"/><path d="m164.292969 382.292969c-15.078125 0-27.304688-12.226563-27.304688-27.304688v-68.269531h54.613281v68.269531c0 15.078125-12.226562 27.304688-27.308593 27.304688zm0 0" fill="#ffd578"/><path d="m164.292969 382.292969v-6.828125c-11.304688-.019532-20.460938-9.171875-20.480469-20.476563v-61.441406h40.960938v61.441406c-.019532 11.304688-9.171876 20.457031-20.480469 20.476563v13.65625c18.855469-.003906 34.128906-15.28125 34.132812-34.132813v-68.269531c0-1.796875-.726562-3.554688-2-4.828125-1.269531-1.269531-3.027343-1.996094-4.824219-1.996094h-54.613281c-1.796875 0-3.558593.726563-4.828125 1.996094-1.269531 1.273437-2 3.03125-2 4.828125v68.269531c.003906 18.851563 15.28125 34.125 34.132813 34.132813zm0 0" fill="#54596e"/><path d="m164.292969 314.027344c-56.554688 0-102.398438-66.328125-102.398438-122.878906v-102.402344h204.796875v102.402344c0 56.550781-45.84375 122.878906-102.398437 122.878906zm0 0" fill="#ffd578"/><g fill="#54596e"><path d="m164.292969 314.027344v-6.828125c-12.789063-.003907-25.050781-3.734375-36.433594-10.328125-17.058594-9.867188-31.984375-26.265625-42.507813-45.296875-10.539062-19.015625-16.648437-40.605469-16.632812-60.425781v-95.578126h191.148438v95.578126c.046874 26.433593-10.898438 55.980468-28.539063 78.433593-8.800781 11.238281-19.230469 20.703125-30.597656 27.289063-11.382813 6.59375-23.644531 10.324218-36.433594 10.328125v13.652343c15.484375.003907 30.160156-4.554687 43.28125-12.164062 19.695313-11.4375 36.042969-29.648438 47.601563-50.5 11.539062-20.875 18.324218-44.449219 18.339843-67.039062v-102.402344c0-1.796875-.726562-3.554688-2-4.828125-1.269531-1.269531-3.027343-1.996094-4.828125-1.996094h-204.796875c-1.796875 0-3.558593.726563-4.828125 1.996094-1.269531 1.273437-2 3.03125-2 4.828125v102.402344c.046875 30.113281 12.027344 62.007812 31.445313 86.855468 9.730469 12.414063 21.367187 23.0625 34.5 30.679688 13.117187 7.613281 27.796875 12.171875 43.28125 12.167968zm0 0"/><path d="m116.507812 160.425781c0 5.65625-4.585937 10.242188-10.242187 10.242188s-10.238281-4.585938-10.238281-10.242188 4.582031-10.238281 10.238281-10.238281 10.242187 4.582031 10.242187 10.238281zm0 0"/><path d="m232.558594 160.425781c0 5.65625-4.582032 10.242188-10.238282 10.242188s-10.242187-4.585938-10.242187-10.242188 4.585937-10.238281 10.242187-10.238281 10.238282 4.582031 10.238282 10.238281zm0 0"/><path d="m171.121094 430.078125v-47.785156c0-3.769531-3.058594-6.828125-6.828125-6.828125s-6.828125 3.058594-6.828125 6.828125v47.785156c0 3.773437 3.058594 6.828125 6.828125 6.828125s6.828125-3.054688 6.828125-6.828125"/></g><path d="m75.546875 75.09375c0 18.851562 27.507813 34.132812 61.441406 34.132812 33.933594 0 61.4375-15.28125 61.4375-34.132812" fill="#fff35f"/><path d="m68.71875 75.09375c-.011719 6.402344 2.390625 12.414062 6.222656 17.421875 5.785156 7.542969 14.632813 13.25 25.292969 17.273437 10.675781 4 23.257813 6.257813 36.753906 6.265626 17.996094-.019532 34.355469-3.992188 46.757813-10.859376 6.199218-3.445312 11.441406-7.644531 15.285156-12.679687 3.832031-5.007813 6.234375-11.019531 6.222656-17.421875 0-3.769531-3.058594-6.828125-6.828125-6.828125s-6.824219 3.058594-6.824219 6.828125c-.011718 3.019531-1.050781 5.988281-3.433593 9.148438-3.542969 4.710937-10.277344 9.425781-19.230469 12.761718-8.933594 3.363282-19.996094 5.398438-31.949219 5.394532-15.9375.019531-30.300781-3.652344-40.128906-9.136719-4.921875-2.726563-8.679687-5.886719-11.050781-9.019531-2.386719-3.160157-3.421875-6.128907-3.433594-9.148438 0-3.769531-3.058594-6.828125-6.828125-6.828125s-6.828125 3.058594-6.828125 6.828125zm0 0" fill="#54596e"/><path d="m102.851562 191.148438c0 7.539062-6.109374 13.652343-13.652343 13.652343-7.539063 0-13.652344-6.113281-13.652344-13.652343 0-7.542969 6.113281-13.65625 13.652344-13.65625 7.542969 0 13.652343 6.113281 13.652343 13.65625zm0 0" fill="#ff927d"/><path d="m253.039062 191.148438c0 7.539062-6.113281 13.652343-13.652343 13.652343-7.539063 0-13.652344-6.113281-13.652344-13.652343 0-7.542969 6.113281-13.65625 13.652344-13.65625 7.539062 0 13.652343 6.113281 13.652343 13.65625zm0 0" fill="#ff927d"/><path d="m157.464844 238.933594h13.65625c7.539062 0 13.652344-6.113282 13.652344-13.652344 0-7.542969-6.113282-13.65625-13.652344-13.65625h-13.65625c-7.539063 0-13.652344 6.113281-13.652344 13.65625 0 7.539062 6.113281 13.652344 13.652344 13.652344" fill="#ff927d"/><path d="m136.988281 225.28125h54.613281c3.769532 0 6.824219-3.058594 6.824219-6.828125s-3.054687-6.828125-6.824219-6.828125h-54.613281c-3.773437 0-6.828125 3.058594-6.828125 6.828125s3.054688 6.828125 6.828125 6.828125" fill="#ff927d"/></svg>