<svg height="436pt" viewBox="-41 0 436 436.9066" width="436pt" xmlns="http://www.w3.org/2000/svg"><path d="m295.804688 320.851562h-228.886719c-32.9375 0-59.636719 22.890626-59.636719 51.121094v58.105469h341.332031v-63.957031c0-25-23.640625-45.269532-52.808593-45.269532zm0 0" fill="#ff927d"/><path d="m295.804688 320.851562v-6.824218h-228.886719c-18.054688.003906-34.515625 6.257812-46.613281 16.613281-12.085938 10.324219-19.859376 25.007813-19.851563 41.328125v58.109375c0 1.800781.730469 3.558594 2 4.828125 1.273437 1.273438 3.03125 2 4.828125 2h341.332031c1.796875 0 3.554688-.726562 4.828125-2 1.269532-1.269531 2-3.027344 2-4.824219v-63.960937c.007813-14.703125-7.003906-27.925782-17.851562-37.191406-10.863282-9.300782-25.617188-14.898438-41.789063-14.902344v13.652344c13-.003907 24.648438 4.53125 32.902344 11.617187 8.265625 7.113281 13.074219 16.527344 13.082031 26.824219v57.132812h-327.679687v-51.28125c.007812-11.914062 5.582031-22.789062 15.085937-30.964844 9.484375-8.140624 22.84375-13.332031 37.726563-13.328124h228.886719zm0 0" fill="#54596e"/><path d="m68.71875 402.773438v20.480468c0 3.769532 3.058594 6.824219 6.828125 6.824219s6.828125-3.054687 6.828125-6.824219v-20.480468c0-3.769532-3.058594-6.828126-6.828125-6.828126s-6.828125 3.058594-6.828125 6.828126" fill="#54596e"/><path d="m130.160156 286.71875h95.574219v143.359375h-95.574219zm0 0" fill="#f4a14e"/><path d="m225.734375 430.078125v-6.824219h-88.746094v-129.710937h81.917969v136.535156h6.828125v-6.824219 6.824219h6.824219v-143.359375c0-1.796875-.726563-3.554688-2-4.828125-1.269532-1.269531-3.027344-1.996094-4.824219-1.996094h-95.574219c-1.796875 0-3.558594.726563-4.828125 1.996094-1.269531 1.273437-2 3.03125-2 4.828125v143.359375c0 1.800781.730469 3.558594 2 4.828125 1.273438 1.273438 3.03125 2 4.828125 2h95.574219c1.796875 0 3.554687-.726562 4.824219-2 1.273437-1.269531 2-3.027344 2-4.828125zm0 0" fill="#54596e"/><path d="m273.519531 402.773438v20.480468c0 3.769532 3.058594 6.824219 6.828125 6.824219 3.769532 0 6.824219-3.054687 6.824219-6.824219v-20.480468c0-3.769532-3.054687-6.828126-6.824219-6.828126-3.769531 0-6.828125 3.058594-6.828125 6.828126" fill="#54596e"/><path d="m328.132812 163.839844c0 15.082031-12.226562 27.308594-27.304687 27.308594-15.082031 0-27.308594-12.226563-27.308594-27.308594 0-15.082032 12.226563-27.304688 27.308594-27.304688 15.078125 0 27.304687 12.222656 27.304687 27.304688zm0 0" fill="#f4a14e"/><path d="m328.132812 163.839844h6.828126c-.007813-18.851563-15.28125-34.128906-34.132813-34.132813-18.855469.003907-34.128906 15.28125-34.136719 34.132813.007813 18.855468 15.28125 34.128906 34.136719 34.132812 18.851563-.003906 34.125-15.277344 34.132813-34.132812h-13.65625c-.019532 11.308594-9.171876 20.460937-20.476563 20.480468-11.308594-.019531-20.460937-9.171874-20.480469-20.480468.019532-11.304688 9.171875-20.460938 20.480469-20.480469 11.304687.019531 20.457031 9.175781 20.476563 20.480469zm0 0" fill="#54596e"/><path d="m82.375 163.839844c0 15.082031-12.226562 27.308594-27.308594 27.308594-15.082031 0-27.304687-12.226563-27.304687-27.308594 0-15.082032 12.222656-27.304688 27.304687-27.304688 15.082032 0 27.308594 12.222656 27.308594 27.304688zm0 0" fill="#f4a14e"/><path d="m82.375 163.839844h6.824219c-.003907-18.851563-15.277344-34.128906-34.132813-34.132813-18.851562.003907-34.128906 15.28125-34.132812 34.132813.003906 18.855468 15.28125 34.128906 34.132812 34.132812 18.855469-.003906 34.128906-15.277344 34.132813-34.132812h-13.652344c-.019531 11.308594-9.171875 20.460937-20.480469 20.480468-11.304687-.019531-20.460937-9.171874-20.480468-20.480468.019531-11.304688 9.175781-20.460938 20.480468-20.480469 11.308594.019531 20.460938 9.175781 20.480469 20.480469zm0 0" fill="#54596e"/><path d="m177.945312 334.507812c64.09375 0 116.054688-51.960937 116.054688-116.054687v-82.546875c0-41.125-33.339844-74.464844-74.46875-74.464844h-83.171875c-41.125 0-74.464844 33.339844-74.464844 74.464844v82.546875c0 64.09375 51.957031 116.054687 116.050781 116.054687zm0 0" fill="#f4a14e"/><g fill="#54596e"><path d="m177.945312 334.507812v6.824219c67.867188-.003906 122.875-55.011719 122.882813-122.878906v-82.546875c-.007813-44.898438-36.394531-81.289062-81.296875-81.292969h-83.171875c-44.898437.003907-81.289063 36.394531-81.292969 81.292969v82.546875c.003906 67.867187 55.011719 122.875 122.878906 122.878906v-13.652343c-30.179687-.003907-57.445312-12.214844-77.234374-31.992188-19.777344-19.789062-31.988282-47.050781-31.992188-77.234375v-82.546875c.003906-18.699219 7.5625-35.566406 19.8125-47.828125 12.261719-12.25 29.128906-19.808594 47.828125-19.8125h83.171875c18.703125.003906 35.570312 7.5625 47.832031 19.8125 12.25 12.261719 19.804688 29.128906 19.808594 47.828125v82.546875c-.003906 30.183594-12.214844 57.445313-31.988281 77.234375-19.789063 19.777344-47.054688 31.988281-77.238282 31.992188zm0 0"/><path d="m143.8125 252.585938c0 18.851562 15.285156 34.132812 34.132812 34.132812 18.851563 0 34.132813-15.28125 34.132813-34.132812zm0 0"/><path d="m143.8125 252.585938h-6.824219c.003907 22.625 18.335938 40.957031 40.957031 40.960937 22.625-.003906 40.957032-18.335937 40.960938-40.960937 0-1.796876-.726562-3.554688-2-4.828126-1.269531-1.269531-3.027344-1.996093-4.828125-1.996093h-68.265625c-1.796875 0-3.554688.726562-4.824219 1.996093-1.273437 1.273438-2 3.03125-2 4.828126h6.824219v6.828124h68.265625v-6.828124h-6.824219c-.003906 7.5625-3.046875 14.34375-8 19.308593-4.960937 4.953125-11.746094 7.996094-19.308594 8-7.558593-.003906-14.34375-3.046875-19.304687-8-4.953125-4.964843-7.996094-11.746093-8-19.308593h-6.828125v6.828124zm0 0"/><path d="m143.8125 174.078125c0 5.65625-4.582031 10.242187-10.238281 10.242187s-10.242188-4.585937-10.242188-10.242187c0-5.652344 4.585938-10.238281 10.242188-10.238281s10.238281 4.585937 10.238281 10.238281zm0 0"/><path d="m232.558594 174.078125c0 5.65625-4.582032 10.242187-10.238282 10.242187s-10.242187-4.585937-10.242187-10.242187c0-5.652344 4.585937-10.238281 10.242187-10.238281s10.238282 4.585937 10.238282 10.238281zm0 0"/></g><path d="m164.292969 266.238281h27.308593v-13.652343h-27.308593" fill="#fff"/><path d="m166.832031 220.359375c-.523437-.367187-4.25-2.972656-10.6875-5.535156-6.429687-2.558594-15.613281-5.078125-26.859375-5.078125-8.984375-.003906-19.265625 1.628906-30.234375 6.027344-8.6875 3.492187-16.347656 8.824218-23.460937 14.621093-10.628906 8.707031-20.160156 18.613281-28.753906 25.902344-4.269532 3.644531-8.28125 6.605469-11.730469 8.46875-3.476563 1.890625-6.222657 2.613281-8.28125 2.601563-2.027344-.046876-3.78125-.464844-6.574219-2.496094-4.523438-3.390625-10.941406-2.472656-14.335938 2.054687-3.390624 4.523438-2.472656 10.941407 2.050782 14.335938 5.667968 4.3125 12.371094 6.632812 18.859375 6.585937 4.410156 0 8.597656-.972656 12.449219-2.46875 6.757812-2.644531 12.664062-6.792968 18.398437-11.453125 8.566406-7.007812 16.773437-15.347656 25.019531-22.660156 8.207032-7.335937 16.429688-13.507813 23.964844-16.476563 8.535156-3.410156 16.085938-4.558593 22.625-4.566406 8.164062 0 14.777344 1.835938 19.292969 3.628906 2.253906.898438 3.972656 1.78125 5.0625 2.398438l1.152343.6875.199219.132812 1.761719-2.597656-1.824219 2.550782.0625.046874 1.761719-2.597656-1.828125 2.550782c4.601563 3.289062 10.996094 2.222656 14.285156-2.378907 3.292969-4.597656 2.226563-10.996093-2.375-14.285156zm0 0" fill="#54596e"/><path d="m341.785156 88.746094h-327.679687c0 26.394531 21.394531 47.789062 47.789062 47.789062h232.105469c26.394531 0 47.785156-21.394531 47.785156-47.789062zm0 0" fill="#fff35f"/><path d="m341.785156 88.746094v-6.824219h-327.679687c-1.796875 0-3.554688.726563-4.824219 1.996094-1.273438 1.273437-2 3.03125-2 4.828125.003906 30.164062 24.445312 54.609375 54.613281 54.613281h232.105469c30.164062-.003906 54.609375-24.445313 54.613281-54.613281 0-1.796875-.730469-3.554688-2-4.828125-1.273437-1.269531-3.03125-1.996094-4.828125-1.996094v6.824219h-6.824218c-.003907 11.335937-4.574219 21.53125-11.996094 28.964844-7.433594 7.421874-17.632813 11.992187-28.964844 11.996093h-232.105469c-11.335937-.003906-21.53125-4.574219-28.964843-11.996093-7.421876-7.433594-11.992188-17.628907-11.996094-28.964844h-6.828125v6.828125h327.679687v-6.828125h-6.824218zm0 0" fill="#54596e"/><path d="m197.554688 237.023438-1.835938-2.566407 1.773438 2.613281.0625-.046874-1.835938-2.566407 1.773438 2.613281c.386718-.289062 10.457031-6.886718 25.703124-6.847656 6.542969.007813 14.09375 1.15625 22.628907 4.5625 5.734375 2.277344 11.886719 6.371094 18.109375 11.46875 9.371094 7.632813 18.753906 17.367188 28.433594 25.636719 4.867187 4.132813 9.828124 7.925781 15.242187 10.875 5.390625 2.921875 11.402344 5.070313 18.050781 5.082031 6.484375.050782 13.1875-2.273437 18.855469-6.585937 4.523437-3.394531 5.445313-9.8125 2.050781-14.335938-3.390625-4.527343-9.808594-5.445312-14.332031-2.050781-2.792969 2.027344-4.550781 2.445312-6.574219 2.496094-1.390625 0-3.035156-.304688-5.046875-1.082032-3.511719-1.335937-7.996093-4.238281-12.855469-8.226562-7.332031-5.964844-15.484374-14.195312-24.363281-22.101562-8.914062-7.886719-18.566406-15.585938-29.964843-20.1875-10.96875-4.394532-21.25-6.03125-30.234376-6.027344-11.242187 0-20.425781 2.523437-26.859374 5.082031-6.4375 2.5625-10.164063 5.164063-10.6875 5.535156-4.601563 3.285157-5.667969 9.683594-2.378907 14.285157 3.285157 4.597656 9.679688 5.664062 14.285157 2.375zm0 0" fill="#54596e"/><path d="m259.867188 6.828125-81.921876 6.824219-81.917968-6.824219-20.480469 54.613281h204.800781zm0 0" fill="#fff35f"/><path d="m259.867188 6.828125-.566407-6.8046875-81.355469 6.7773435-81.351562-6.7773435c-3.042969-.2539065-5.886719 1.5468745-6.960938 4.4062505l-20.480468 54.613281c-.785156 2.09375-.492188 4.449219.78125 6.285156 1.277344 1.839844 3.375 2.9375 5.613281 2.9375h204.800781c2.234375 0 4.335938-1.097656 5.609375-2.9375 1.277344-1.839844 1.566407-4.191406.78125-6.285156l-20.476562-54.613281c-1.074219-2.855469-3.921875-4.660157-6.960938-4.4062505l.566407 6.8046875-6.390626 2.394531 17.019532 45.390625h-185.097656l15.207031-40.554687 76.773437 6.398437h1.132813l81.921875-6.828125-.566406-6.800781-6.390626 2.394531zm0 0" fill="#54596e"/><path d="m75.546875 61.441406h204.800781v27.304688h-204.800781zm0 0" fill="#9af43b"/><path d="m280.347656 88.746094v-6.824219h-197.972656v-13.65625h191.144531v20.480469h6.828125v-6.824219 6.824219h6.824219v-27.304688c0-1.800781-.726563-3.558594-2-4.828125-1.269531-1.269531-3.027344-2-4.824219-2h-204.800781c-1.796875 0-3.558594.726563-4.828125 2-1.269531 1.269531-2 3.03125-2 4.828125v27.304688c0 1.796875.730469 3.554687 2 4.828125 1.273438 1.273437 3.03125 2 4.828125 2h204.800781c1.796875 0 3.554688-.726563 4.824219-2 1.273437-1.269531 2-3.027344 2-4.828125zm0 0" fill="#54596e"/><path d="m164.292969 368.640625h27.308593c3.769532 0 6.824219-3.058594 6.824219-6.828125s-3.054687-6.824219-6.824219-6.824219h-27.308593c-3.769531 0-6.828125 3.054688-6.828125 6.824219s3.058594 6.828125 6.828125 6.828125" fill="#54596e"/><path d="m164.292969 389.121094h27.308593c3.769532 0 6.824219-3.058594 6.824219-6.828125s-3.054687-6.828125-6.824219-6.828125h-27.308593c-3.769531 0-6.828125 3.058594-6.828125 6.828125s3.058594 6.828125 6.828125 6.828125" fill="#54596e"/></svg>