<svg height="389pt" viewBox="-51 0 389 389.11829" width="389pt" xmlns="http://www.w3.org/2000/svg"><path d="m279.953125 327.679688h-273.066406v-299.402344c0-11.847656 9.601562-21.453125 21.449219-21.453125h230.164062c11.847656 0 21.453125 9.605469 21.453125 21.453125zm0 0" fill="#8065c4"/><path d="m279.953125 327.679688v-6.828126h-266.242187v-292.578124c.015624-8.074219 6.550781-14.609376 14.625-14.625h230.164062c8.074219.015624 14.609375 6.550781 14.625 14.625v299.40625h6.828125v-6.828126 6.828126h6.824219v-299.402344c-.003906-15.621094-12.65625-28.27343775-28.273438-28.277344h-230.167968c-15.621094.00390625-28.273438 12.65625-28.2773442 28.277344v299.402344c0 1.796874.7304682 3.554687 2.0000002 4.824218 1.273437 1.273438 3.03125 2 4.828125 2h273.066406c1.796875 0 3.554687-.726562 4.824219-1.996094 1.273437-1.273437 2-3.03125 2-4.828124zm0 0" fill="#54596e"/><path d="m61.5 191.144531c0 11.3125-9.171875 20.480469-20.480469 20.480469-11.3125 0-20.480469-9.167969-20.480469-20.480469 0-11.308593 9.167969-20.480469 20.480469-20.480469 11.308594 0 20.480469 9.171876 20.480469 20.480469zm0 0" fill="#ffd578"/><path d="m61.5 191.144531h6.824219c-.003907-15.082031-12.222657-27.304687-27.304688-27.304687s-27.300781 12.222656-27.308593 27.304687c.007812 15.082031 12.226562 27.300781 27.308593 27.308594 15.082031-.003906 27.300781-12.226563 27.304688-27.308594h-13.652344c-.011719 7.535157-6.117187 13.640625-13.652344 13.652344-7.535156-.011719-13.640625-6.117187-13.652343-13.652344.011718-7.535156 6.117187-13.640625 13.652343-13.652343 7.535157.011718 13.640625 6.117187 13.652344 13.652343zm0 0" fill="#54596e"/><path d="m266.300781 191.144531c0 11.3125-9.171875 20.480469-20.480469 20.480469-11.3125 0-20.480468-9.167969-20.480468-20.480469 0-11.308593 9.167968-20.480469 20.480468-20.480469 11.308594 0 20.480469 9.171876 20.480469 20.480469zm0 0" fill="#ffd578"/><path d="m266.300781 191.144531h6.824219c-.003906-15.082031-12.222656-27.304687-27.304688-27.304687-15.085937 0-27.300781 12.222656-27.308593 27.304687.007812 15.082031 12.222656 27.300781 27.308593 27.308594 15.082032-.003906 27.300782-12.226563 27.304688-27.308594h-13.652344c-.015625 7.535157-6.117187 13.640625-13.652344 13.652344-7.539062-.011719-13.640624-6.117187-13.65625-13.652344.015626-7.535156 6.117188-13.640625 13.65625-13.652343 7.535157.011718 13.636719 6.117187 13.652344 13.652343zm0 0" fill="#54596e"/><path d="m116.113281 279.890625h54.613281v47.789063h-54.613281zm0 0" fill="#ffd578"/><path d="m170.726562 279.890625v-6.824219h-54.613281c-1.796875 0-3.558593.726563-4.828125 1.996094-1.269531 1.273438-2 3.03125-2 4.828125v47.789063c0 1.796874.730469 3.554687 2 4.824218 1.273438 1.273438 3.03125 2 4.828125 2h54.613281c1.796876 0 3.554688-.726562 4.824219-2 1.273438-1.269531 2-3.027344 2-4.824218v-47.789063c0-1.796875-.726562-3.554687-2-4.828125-1.269531-1.269531-3.027343-1.996094-4.824219-1.996094v6.824219h-6.828124v40.960937h-40.960938v-34.132812h47.789062v-6.828125h-6.828124zm0 0" fill="#54596e"/><path d="m143.417969 300.371094c-52.78125 0-95.570313-42.789063-95.570313-95.574219v-122.878906l191.144532 34.132812v88.746094c0 52.785156-42.789063 95.574219-95.574219 95.574219zm0 0" fill="#ffd578"/><g fill="#54596e"><path d="m143.417969 300.371094v-6.824219c-24.527344-.003906-46.671875-9.925781-62.753907-25.996094-16.070312-16.082031-25.988281-38.222656-25.992187-62.753906v-114.722656l177.492187 31.691406v83.03125c0 24.53125-9.921874 46.671875-25.992187 62.753906-16.082031 16.070313-38.222656 25.992188-62.753906 25.996094v13.652344c56.558593-.003907 102.394531-45.84375 102.402343-102.402344v-88.746094c0-3.316406-2.363281-6.136719-5.628906-6.71875l-191.144531-34.132812c-1.996094-.359375-4.03125.183593-5.582031 1.484375-1.554688 1.300781-2.445313 3.210937-2.445313 5.234375v122.878906c.003907 56.558594 45.84375 102.394531 102.398438 102.402344zm0 0"/><path d="m109.285156 211.625c0 18.851562 15.285156 34.132812 34.132813 34.132812 18.851562 0 34.132812-15.28125 34.132812-34.132812zm0 0"/><path d="m109.285156 211.625h-6.824218c.003906 22.625 18.335937 40.953125 40.957031 40.960938 22.625-.003907 40.957031-18.335938 40.960937-40.960938 0-1.800781-.726562-3.558594-2-4.828125-1.269531-1.269531-3.03125-2-4.828125-2h-68.265625c-1.796875 0-3.554687.726563-4.824218 2-1.273438 1.269531-2 3.03125-2 4.828125h6.824218v6.828125h68.265625v-6.828125h-6.824219c-.003906 7.558594-3.046874 14.34375-8 19.308594-4.960937 4.953125-11.746093 7.996094-19.308593 7.996094-7.558594 0-14.34375-3.042969-19.304688-7.996094-4.953125-4.964844-7.996093-11.75-8-19.308594h-6.828125v6.828125zm0 0"/></g><path d="m157.074219 232.105469c0-3.769531-6.113281-6.828125-13.65625-6.828125-7.539063 0-13.652344 3.058594-13.652344 6.828125s6.113281 6.824219 13.652344 6.824219c7.542969 0 13.65625-3.054688 13.65625-6.824219zm0 0" fill="#ff927d"/><path d="m109.285156 160.425781c0 5.65625-4.582031 10.238281-10.238281 10.238281s-10.242187-4.582031-10.242187-10.238281 4.585937-10.242187 10.242187-10.242187 10.238281 4.585937 10.238281 10.242187zm0 0" fill="#54596e"/><path d="m198.03125 160.425781c0 5.65625-4.582031 10.238281-10.238281 10.238281s-10.242188-4.582031-10.242188-10.238281 4.585938-10.242187 10.242188-10.242187 10.238281 4.585937 10.238281 10.242187zm0 0" fill="#54596e"/><path d="m27.367188 40.957031h211.625v75.09375h-136.53125c-41.476563 0-75.09375-33.617187-75.09375-75.09375zm0 0" fill="#fff35f"/><path d="m27.367188 40.957031v6.828125h204.796874v61.441406h-129.703124c-18.875-.003906-35.898438-7.632812-48.273438-19.996093-12.363281-12.375-19.992188-29.398438-19.996094-48.273438h-6.824218v6.828125-6.828125h-6.828126c.003907 45.246094 36.675782 81.917969 81.921876 81.921875h136.53125c1.796874 0 3.554687-.726562 4.828124-2 1.269532-1.269531 2-3.027344 2-4.824218v-75.097657c0-1.796875-.730468-3.554687-2-4.828125-1.269531-1.269531-3.03125-1.996094-4.828124-1.996094h-211.625c-1.796876 0-3.558594.726563-4.828126 1.996094-1.269531 1.273438-2 3.03125-2 4.828125zm0 0" fill="#54596e"/><path d="m258.503906 382.292969h-230.167968c-11.847657 0-21.449219-9.605469-21.449219-21.449219v-33.164062h273.066406v33.164062c0 11.84375-9.605469 21.449219-21.449219 21.449219zm0 0" fill="#fff"/><path d="m258.503906 382.292969v-6.828125h-230.167968c-8.074219-.015625-14.609376-6.550782-14.625-14.621094v-26.339844h259.414062v26.339844c-.015625 8.070312-6.550781 14.609375-14.621094 14.621094v13.652344c15.617188-.003907 28.273438-12.65625 28.273438-28.273438v-33.164062c0-1.800782-.726563-3.558594-2-4.828126-1.269532-1.269531-3.027344-2-4.824219-2h-273.066406c-1.796875 0-3.558594.726563-4.828125 2-1.269532 1.269532-2.0000002 3.03125-2.0000002 4.828126v33.164062c.0039062 15.617188 12.6562502 28.269531 28.2773442 28.273438h230.164062v-6.824219zm0 0" fill="#54596e"/><path d="m157.074219 354.984375c0 7.542969-6.113281 13.652344-13.65625 13.652344-7.539063 0-13.652344-6.109375-13.652344-13.652344 0-7.539063 6.113281-13.652344 13.652344-13.652344 7.542969 0 13.65625 6.113281 13.65625 13.652344zm0 0" fill="#999"/></svg>