<svg height="436pt" viewBox="-13 0 436 436.90667" width="436pt" xmlns="http://www.w3.org/2000/svg"><path d="m341.96875 307.199219h-265.507812c-38.207032 0-69.179688 22.890625-69.179688 51.117187v71.761719h395.945312v-77.613281c0-25-27.425781-45.265625-61.257812-45.265625zm0 0" fill="#61c5a8"/><path d="m341.96875 307.199219v-6.824219h-265.507812c-20.46875.011719-39.117188 6.085938-52.976563 16.304688-13.816406 10.164062-23.03125 24.917968-23.03125 41.636718v71.761719c0 1.824219.710937 3.539063 2 4.828125s3.003906 2 4.828125 2h395.945312c1.824219 0 3.535157-.707031 4.828126-2 1.289062-1.289062 2-3 2-4.824219v-77.613281c0-15.105469-8.332032-28.398438-20.714844-37.5-12.425782-9.164062-29.09375-14.582031-47.371094-14.59375v13.652344c15.550781-.011719 29.515625 4.703125 39.257812 11.921875 9.789063 7.277343 15.171876 16.621093 15.171876 26.519531v70.785156h-382.292969v-64.9375c0-11.511718 6.273437-22.316406 17.496093-30.652344 11.175782-8.28125 27.117188-13.648437 44.859376-13.636718h265.507812zm0 0" fill="#54596e"/><path d="m205.261719 389.121094c30.160156 0 54.605469-24.449219 54.605469-54.609375v-27.3125h-109.214844v27.3125c0 30.160156 24.449218 54.609375 54.609375 54.609375zm0 0" fill="#ffd578"/><path d="m205.261719 389.121094v6.824218c33.933593-.003906 61.425781-27.5 61.429687-61.433593v-27.3125c0-1.796875-.726562-3.554688-1.996094-4.828125-1.273437-1.269532-3.03125-1.996094-4.828124-1.996094h-109.214844c-1.796875 0-3.554688.726562-4.828125 1.996094-1.269531 1.273437-1.996094 3.03125-1.996094 4.828125v27.3125c.003906 33.929687 27.5 61.429687 61.433594 61.433593v-13.652343c-13.21875-.003907-25.121094-5.339844-33.789063-13.996094-8.65625-8.667969-13.992187-20.570313-13.992187-33.785156v-20.484375h95.558593v20.484375c-.003906 13.214843-5.335937 25.117187-13.992187 33.785156-8.667969 8.660156-20.570313 13.992187-33.785156 14zm0 0" fill="#54596e"/><path d="m89.332031 390.460938 6.828125 34.132812c.738282 3.695312 4.335938 6.09375 8.03125 5.355469 3.699219-.738281 6.097656-4.335938 5.355469-8.035157l-6.824219-34.132812c-.738281-3.695312-4.335937-6.09375-8.035156-5.355469-3.695312.738281-6.09375 4.335938-5.355469 8.035157" fill="#54596e"/><path d="m307.785156 387.78125-6.824218 34.132812c-.738282 3.695313 1.65625 7.292969 5.355468 8.03125 3.695313.742188 7.292969-1.65625 8.03125-5.355468l6.828125-34.132813c.738281-3.695312-1.65625-7.292969-5.355469-8.03125-3.699218-.742187-7.292968 1.65625-8.035156 5.355469" fill="#54596e"/><path d="m362.265625 150.1875c0 15.082031-12.222656 27.304688-27.304687 27.304688-15.082032 0-27.308594-12.222657-27.308594-27.304688s12.226562-27.308594 27.308594-27.308594c15.082031 0 27.304687 12.226563 27.304687 27.308594zm0 0" fill="#ffd578"/><path d="m362.265625 150.1875h6.828125c-.003906-18.855469-15.28125-34.128906-34.132812-34.132812-18.855469.003906-34.128907 15.277343-34.132813 34.132812.003906 18.851562 15.277344 34.128906 34.132813 34.128906 18.851562 0 34.128906-15.277344 34.132812-34.128906h-13.652344c-.023437 11.304688-9.175781 20.457031-20.480468 20.480469-11.308594-.023438-20.460938-9.175781-20.480469-20.480469.019531-11.308594 9.171875-20.460938 20.480469-20.484375 11.304687.023437 20.457031 9.175781 20.480468 20.484375zm0 0" fill="#54596e"/><path d="m102.851562 150.1875c0 15.082031-12.222656 27.304688-27.304687 27.304688s-27.308594-12.222657-27.308594-27.304688 12.226563-27.308594 27.308594-27.308594 27.304687 12.226563 27.304687 27.308594zm0 0" fill="#ffd578"/><path d="m102.851562 150.1875h6.828126c-.003907-18.855469-15.28125-34.128906-34.132813-34.132812-18.855469.003906-34.128906 15.277343-34.132813 34.132812.003907 18.851562 15.277344 34.128906 34.132813 34.128906 18.851563 0 34.128906-15.277344 34.132813-34.128906h-13.652344c-.019532 11.304688-9.175782 20.457031-20.480469 20.480469-11.308594-.023438-20.460937-9.175781-20.480469-20.480469.019532-11.308594 9.171875-20.460938 20.480469-20.484375 11.304687.023437 20.460937 9.175781 20.480469 20.484375zm0 0" fill="#54596e"/><path d="m75.546875 204.800781v-155.015625c0-19.953125 11.710937-36.132812 26.167969-36.132812h207.078125c14.453125 0 26.167969 16.179687 26.167969 36.132812v155.015625zm0 0" fill="#8065c4"/><path d="m75.546875 204.800781h6.828125v-155.015625c-.015625-8.640625 2.582031-16.351562 6.363281-21.546875 1.886719-2.601562 4.039063-4.574219 6.230469-5.851562 2.207031-1.277344 4.414062-1.902344 6.746094-1.910157h207.078125c2.332031.007813 4.539062.632813 6.742187 1.910157 3.289063 1.90625 6.496094 5.417969 8.824219 10.195312 2.335937 4.765625 3.777344 10.722657 3.773437 17.203125v148.1875h-252.585937v6.828125h6.828125-6.828125v6.824219h259.414063c1.820312 0 3.535156-.707031 4.824218-1.996094 1.292969-1.289062 2-3.003906 2-4.828125v-155.015625c-.011718-11.3125-3.273437-21.671875-8.957031-29.550781-2.851563-3.9375-6.335937-7.257813-10.40625-9.636719-4.054687-2.378906-8.730469-3.777344-13.628906-3.769531h-207.078125c-4.898438-.007813-9.574219 1.390625-13.632813 3.769531-6.101562 3.578125-10.886719 9.230469-14.199219 15.984375-3.308593 6.769531-5.160156 14.71875-5.164062 23.203125v155.015625c0 1.820313.710938 3.535157 2 4.824219 1.292969 1.292969 3.003906 2 4.828125 2zm0 0" fill="#54596e"/><path d="m116.242188 307.199219h178.023437c11.160156 0 20.214844-8.296875 20.214844-18.527344v-206.75h-185.417969c-18.242188 0-33.035156 12.273437-33.035156 40.957031v165.792969c0 10.230469 9.054687 18.527344 20.214844 18.527344zm0 0" fill="#ffd578"/><g fill="#54596e"><path d="m116.242188 307.199219v6.828125h178.023437c7.28125-.003906 13.976563-2.703125 18.90625-7.222656 4.925781-4.492188 8.140625-10.96875 8.136719-18.132813v-206.75c0-1.800781-.730469-3.558594-2-4.828125-1.273438-1.273438-3.03125-2-4.828125-2h-185.417969c-10.605469-.046875-21.042969 3.710938-28.4375 11.984375-7.410156 8.257813-11.4375 20.335937-11.425781 35.800781v165.792969c-.007813 7.160156 3.207031 13.636719 8.136719 18.132813 4.929687 4.515624 11.625 7.21875 18.90625 7.21875v-13.648438c-3.882813 0-7.292969-1.445312-9.679688-3.636719-2.390625-2.210937-3.699219-5-3.710938-8.070312v-165.789063c.015626-13.21875 3.382813-21.621094 7.929688-26.675781 4.566406-5.03125 10.644531-7.410156 18.28125-7.457031h178.589844v199.925781c-.003906 3.066406-1.316406 5.855469-3.707032 8.070313-2.386718 2.1875-5.800781 3.632812-9.679687 3.632812h-178.023437zm0 0"/><path d="m171.121094 225.28125c0 18.847656 15.277344 34.132812 34.132812 34.132812 18.851563 0 34.132813-15.285156 34.132813-34.132812zm0 0"/><path d="m171.121094 225.28125h-6.828125c.003906 22.621094 18.332031 40.953125 40.960937 40.957031 22.625-.003906 40.953125-18.335937 40.960938-40.957031 0-1.800781-.730469-3.558594-2-4.828125-1.269532-1.269531-3.03125-2-4.828125-2h-68.265625c-1.796875 0-3.558594.726563-4.828125 2-1.273438 1.269531-2 3.03125-2 4.828125h6.828125v6.824219h68.265625v-6.824219h-6.828125c-.003906 7.558594-3.042969 14.34375-7.996094 19.304688-4.964844 4.953124-11.746094 7.996093-19.308594 8-7.566406-.003907-14.347656-3.046876-19.308594-8-4.953124-4.960938-7.996093-11.746094-8-19.304688h-6.824218v6.824219zm0 0"/><path d="m171.121094 133.121094c0 5.65625-4.585938 10.238281-10.242188 10.238281s-10.238281-4.582031-10.238281-10.238281 4.582031-10.242188 10.238281-10.242188 10.242188 4.585938 10.242188 10.242188zm0 0"/><path d="m259.867188 133.121094c0 5.65625-4.585938 10.238281-10.242188 10.238281-5.652344 0-10.238281-4.582031-10.238281-10.238281s4.585937-10.242188 10.238281-10.242188c5.65625 0 10.242188 4.585938 10.242188 10.242188zm0 0"/></g><path d="m177.945312 23.894531c0-9.425781 7.914063-17.066406 17.675782-17.066406h162.625c9.761718 0 17.675781 7.640625 17.675781 17.066406v20.480469c0 9.425781-7.914063 17.066406-17.675781 17.066406h-67.171875" fill="#8065c4"/><path d="m184.773438 23.894531c.003906-2.78125 1.136718-5.257812 3.09375-7.160156 1.957031-1.882813 4.667968-3.082031 7.753906-3.082031h162.625c3.085937 0 5.796875 1.195312 7.757812 3.082031 1.953125 1.902344 3.085938 4.378906 3.089844 7.160156v20.480469c-.003906 2.777344-1.136719 5.253906-3.089844 7.15625-1.960937 1.886719-4.671875 3.082031-7.757812 3.082031h-67.171875c-3.769531 0-6.824219 3.054688-6.824219 6.828125 0 3.769532 3.054688 6.824219 6.824219 6.824219h67.171875c6.675781.003906 12.804687-2.621094 17.242187-6.914063 4.441407-4.273437 7.265625-10.332031 7.261719-16.976562v-20.480469c.003906-6.648437-2.820312-12.707031-7.261719-16.980469-4.4375-4.289062-10.5625-6.914062-17.242187-6.914062h-162.625c-6.675782 0-12.800782 2.625-17.238282 6.914062-4.445312 4.273438-7.269531 10.332032-7.261718 16.980469 0 3.769531 3.054687 6.824219 6.824218 6.824219 3.769532 0 6.828126-3.054688 6.828126-6.824219zm0 0" fill="#54596e"/><path d="m191.601562 238.933594h27.304688v-13.652344h-27.304688" fill="#fff"/><path d="m280.347656 218.453125h-150.1875l6.828125-27.304687h136.53125zm0 0" fill="#8065c4"/><path d="m280.347656 218.453125v-6.828125h-141.445312l3.414062-13.65625h125.871094l5.535156 22.140625 6.625-1.65625v-6.828125 6.828125l6.621094-1.65625-6.828125-27.308594c-.761719-3.039062-3.488281-5.167969-6.621094-5.167969h-136.53125c-3.136719 0-5.863281 2.128907-6.625 5.167969l-6.828125 27.308594c-.507812 2.03125-.046875 4.203125 1.242188 5.855469 1.292968 1.65625 3.285156 2.628906 5.382812 2.628906h150.1875c2.09375 0 4.089844-.972656 5.378906-2.625 1.292969-1.652344 1.753907-3.824219 1.242188-5.859375zm0 0" fill="#54596e"/><path d="m198.425781 361.8125v20.480469c0 3.769531 3.058594 6.828125 6.828125 6.828125 3.769532 0 6.824219-3.058594 6.824219-6.828125v-20.480469c0-3.769531-3.054687-6.824219-6.824219-6.824219-3.769531 0-6.828125 3.054688-6.828125 6.824219" fill="#54596e"/><path d="m185.921875 345.121094 13.652344 20.480468c1.265625 1.898438 3.398437 3.035157 5.679687 3.035157s4.414063-1.136719 5.679688-3.035157l13.652344-20.480468c2.089843-3.140625 1.246093-7.375-1.890626-9.46875-3.136718-2.089844-7.378906-1.242188-9.46875 1.894531l-7.972656 11.957031-7.972656-11.957031c-2.09375-3.140625-6.332031-3.984375-9.46875-1.890625-3.136719 2.089844-3.984375 6.328125-1.890625 9.464844zm0 0" fill="#54596e"/></svg>