<svg height="436pt" viewBox="-41 0 436 436.90667" width="436pt" xmlns="http://www.w3.org/2000/svg"><path d="m295.804688 307.199219h-228.890626c-32.933593 0-59.636718 22.890625-59.636718 51.117187v71.761719h341.335937v-77.617187c0-24.996094-23.648437-45.261719-52.808593-45.261719zm0 0" fill="#fff"/><path d="m295.804688 307.199219v-6.824219h-228.890626c-18.054687.003906-34.515624 6.253906-46.609374 16.613281-12.085938 10.328125-19.859376 25.007813-19.851563 41.328125v71.761719c0 1.824219.710937 3.539063 2 4.828125s3.003906 2 4.824219 2h341.335937c1.820313 0 3.535157-.707031 4.824219-2 1.289062-1.289062 2-3 2-4.824219v-77.617187c.007812-14.703125-7.003906-27.921875-17.851562-37.191406-10.859376-9.296876-25.613282-14.894532-41.78125-14.898438v13.652344c12.996093-.003906 24.644531 4.53125 32.898437 11.613281 8.265625 7.117187 13.074219 16.53125 13.082031 26.824219v70.789062h-327.679687v-64.9375c.007812-11.910156 5.582031-22.789062 15.082031-30.960937 9.488281-8.140625 22.84375-13.332031 37.726562-13.332031h228.890626zm0 0" fill="#54596e"/><path d="m82.390625 430.078125h191.148437l-15.933593-109.226563h-159.285157zm0 0" fill="#a1b7ff"/><path d="m82.390625 430.078125v6.828125h191.148437c1.972657 0 3.871094-.867188 5.164063-2.359375 1.292969-1.496094 1.878906-3.5 1.589844-5.453125l-15.933594-109.226562c-.488281-3.34375-3.375-5.839844-6.753906-5.839844h-159.285157c-3.378906 0-6.269531 2.496094-6.757812 5.839844l-15.925781 109.226562c-.285157 1.957031.300781 3.957031 1.59375 5.453125 1.289062 1.492187 3.1875 2.359375 5.164062 2.359375v-6.828125l6.753907.988281 15.074218-103.386718h147.480469l13.941406 95.574218h-183.253906v6.824219l6.757813.988281zm0 0" fill="#54596e"/><path d="m334.957031 163.839844c0 15.082031-12.222656 27.308594-27.304687 27.308594-15.082032 0-27.308594-12.226563-27.308594-27.308594 0-15.082032 12.226562-27.304688 27.308594-27.304688 15.082031 0 27.304687 12.222656 27.304687 27.304688zm0 0" fill="#bfad88"/><path d="m334.957031 163.839844h6.828125c-.003906-18.855469-15.28125-34.128906-34.132812-34.132813-18.855469.003907-34.128906 15.277344-34.132813 34.132813.003907 18.855468 15.277344 34.128906 34.132813 34.132812 18.851562-.003906 34.128906-15.277344 34.132812-34.132812h-13.652344c-.023437 11.304687-9.175781 20.457031-20.480468 20.480468-11.308594-.023437-20.460938-9.175781-20.480469-20.480468.019531-11.304688 9.171875-20.460938 20.480469-20.480469 11.304687.019531 20.457031 9.175781 20.480468 20.480469zm0 0" fill="#54596e"/><path d="m75.546875 163.839844c0 15.082031-12.226563 27.308594-27.308594 27.308594s-27.308593-12.226563-27.308593-27.308594c0-15.082032 12.226562-27.304688 27.308593-27.304688s27.308594 12.222656 27.308594 27.304688zm0 0" fill="#bfad88"/><path d="m75.546875 163.839844h6.824219c-.003906-18.855469-15.277344-34.128906-34.132813-34.132813-18.855469.003907-34.128906 15.277344-34.132812 34.132813.003906 18.855468 15.277343 34.128906 34.132812 34.132812 18.855469-.003906 34.128907-15.277344 34.132813-34.132812h-13.652344c-.019531 11.304687-9.171875 20.457031-20.480469 20.480468-11.308593-.023437-20.460937-9.175781-20.480469-20.480468.019532-11.304688 9.171876-20.460938 20.480469-20.480469 11.308594.019531 20.460938 9.175781 20.480469 20.480469zm0 0" fill="#54596e"/><path d="m204.558594 354.988281h-53.226563c-54.195312-22.820312-103.09375-86.027343-103.09375-144.835937v-32.660156h259.414063v32.660156c0 58.808594-48.898438 122.015625-103.09375 144.835937zm0 0" fill="#999"/><path d="m204.558594 354.988281v-6.828125h-53.226563v6.828125l2.648438-6.292969c-25.710938-10.800781-50.699219-31.5625-69.007813-56.660156-18.351562-25.082031-29.941406-54.390625-29.90625-81.882812v-25.835938h245.757813v25.835938c.035156 27.488281-11.558594 56.800781-29.910157 81.886718-18.304687 25.09375-43.296874 45.859376-69.003906 56.65625l2.648438 6.292969v-6.828125 6.828125l2.648437 6.289063c28.484375-12.023438 55.042969-34.269532 74.730469-61.1875 19.648438-26.925782 32.507812-58.621094 32.539062-89.9375v-32.660156c0-1.796876-.730468-3.554688-2-4.828126-1.269531-1.269531-3.027343-1.996093-4.824218-1.996093h-259.414063c-1.796875 0-3.558593.726562-4.828125 1.996093-1.269531 1.273438-2 3.03125-2 4.828126v32.660156c.035156 31.320312 12.894532 63.011718 32.539063 89.9375 19.691406 26.917968 46.246093 49.164062 74.730469 61.1875.835937.351562 1.742187.535156 2.648437.535156h53.230469c.90625 0 1.8125-.183594 2.648437-.535156zm0 0" fill="#54596e"/><path d="m48.238281 201.652344c0 13.046875 13.402344 23.628906 29.933594 23.628906h199.542969c16.535156 0 29.933594-10.582031 29.933594-23.632812v-85.59375h-259.410157zm0 0" fill="#bfad88"/><g fill="#54596e"><path d="m48.238281 201.652344h-6.828125c-.003906 8.9375 4.644532 16.800781 11.363282 22.066406 6.75 5.308594 15.675781 8.378906 25.398437 8.386719h199.542969c9.726562-.007813 18.652344-3.078125 25.398437-8.386719 6.71875-5.265625 11.371094-13.125 11.363281-22.066406v-85.597656c0-1.800782-.730468-3.558594-2-4.828126-1.269531-1.269531-3.027343-2-4.824218-2h-259.414063c-1.796875 0-3.558593.726563-4.828125 2-1.269531 1.269532-2 3.03125-2 4.828126v85.59375h13.65625v-78.769532h245.757813v78.773438c-.007813 4.105468-2.054688 8.0625-6.167969 11.347656-4.085938 3.242188-10.128906 5.464844-16.9375 5.453125h-199.546875c-6.808594.011719-12.851563-2.210937-16.9375-5.453125-4.113281-3.289062-6.164063-7.242188-6.167969-11.347656zm0 0"/><path d="m143.8125 252.585938c0 18.851562 15.277344 34.132812 34.132812 34.132812 18.851563 0 34.132813-15.28125 34.132813-34.132812zm0 0"/><path d="m143.8125 252.585938h-6.828125c.003906 22.621093 18.332031 40.957031 40.960937 40.960937 22.625-.003906 40.953126-18.339844 40.960938-40.960937 0-1.796876-.730469-3.554688-2-4.828126-1.269531-1.269531-3.03125-1.996093-4.828125-1.996093h-68.265625c-1.796875 0-3.558594.726562-4.828125 1.996093-1.273437 1.273438-2 3.03125-2 4.828126h6.828125v6.828124h68.265625v-6.828124h-6.828125c0 7.5625-3.042969 14.34375-7.996094 19.308593-4.960937 4.949219-11.746094 7.992188-19.308594 8-7.5625-.007812-14.347656-3.046875-19.308593-8-4.953125-4.964843-7.996094-11.75-8-19.308593h-6.824219v6.828124zm0 0"/></g><path d="m191.597656 273.066406c0-3.769531-6.113281-6.828125-13.652344-6.828125-7.539062 0-13.652343 3.058594-13.652343 6.828125 0 3.769532 6.113281 6.828125 13.652343 6.828125 7.539063 0 13.652344-3.058593 13.652344-6.828125zm0 0" fill="#ff927d"/><path d="m143.8125 174.078125c0 5.65625-4.585938 10.242187-10.242188 10.242187-5.652343 0-10.238281-4.585937-10.238281-10.242187 0-5.652344 4.585938-10.238281 10.238281-10.238281 5.65625 0 10.242188 4.585937 10.242188 10.238281zm0 0" fill="#54596e"/><path d="m232.558594 174.078125c0 5.65625-4.585938 10.242187-10.242188 10.242187-5.652344 0-10.238281-4.585937-10.238281-10.242187 0-5.652344 4.585937-10.238281 10.238281-10.238281 5.65625 0 10.242188 4.585937 10.242188 10.238281zm0 0" fill="#54596e"/><path d="m201.839844 143.359375h-88.75c-9.425782 0-17.066406-7.640625-17.066406-17.066406v-20.480469c0-9.425781 7.640624-17.066406 17.066406-17.066406h88.75c9.425781 0 17.066406 7.640625 17.066406 17.066406v20.480469c0 9.429687-7.640625 17.066406-17.066406 17.066406zm0 0" fill="#999"/><path d="m201.839844 143.359375v-6.824219h-88.75c-5.652344-.015625-10.226563-4.589844-10.238282-10.242187v-20.480469c.011719-5.652344 4.585938-10.230469 10.238282-10.242188h88.75c5.652344.011719 10.226562 4.589844 10.238281 10.242188v20.480469c-.011719 5.652343-4.585937 10.226562-10.238281 10.242187v13.652344c13.199218-.003906 23.886718-10.695312 23.890625-23.890625v-20.484375c-.003907-13.199219-10.691407-23.890625-23.890625-23.890625h-88.75c-13.199219 0-23.886719 10.691406-23.890625 23.890625v20.480469c.003906 13.199219 10.691406 23.886719 23.890625 23.890625h88.75zm0 0" fill="#54596e"/><path d="m198.425781 6.828125h-40.960937c-60.328125 0-109.226563 48.902344-109.226563 109.226563h259.414063c0-60.324219-48.898438-109.226563-109.226563-109.226563zm0 0" fill="#fff"/><path d="m198.425781 6.828125v-6.828125h-40.960937c-64.101563.00390625-116.050782 51.957031-116.054688 116.054688 0 1.820312.710938 3.535156 2 4.824218 1.292969 1.292969 3.003906 2 4.828125 2h259.414063c1.820312 0 3.535156-.707031 4.824218-1.996094 1.292969-1.292968 2-3.003906 2-4.828124 0-64.097657-51.953124-116.05078175-116.050781-116.054688v13.652344c28.300781.007812 53.855469 11.453125 72.40625 29.992187 18.542969 18.554688 29.988281 44.109375 29.992188 72.410157h6.828125v-6.828126h-259.414063v6.828126h6.828125c.003906-28.300782 11.449219-53.859376 29.988282-72.410157 18.554687-18.542969 44.109374-29.988281 72.410156-29.992187h40.960937zm0 0" fill="#54596e"/><path d="m191.597656 395.945312c0 7.542969-6.113281 13.65625-13.652344 13.65625-7.539062 0-13.652343-6.113281-13.652343-13.65625 0-7.539062 6.113281-13.652343 13.652343-13.652343 7.539063 0 13.652344 6.113281 13.652344 13.652343zm0 0" fill="#54596e"/></svg>