<svg height="436pt" viewBox="-41 0 436 436.90667" width="436pt" xmlns="http://www.w3.org/2000/svg"><path d="m334.960938 177.492188c0 15.082031-12.226563 27.308593-27.308594 27.308593-15.078125 0-27.304688-12.226562-27.304688-27.308593 0-15.078126 12.226563-27.304688 27.304688-27.304688 15.082031 0 27.308594 12.226562 27.308594 27.304688zm0 0" fill="#ffd578"/><path d="m334.960938 177.492188h6.824218c-.003906-18.851563-15.277344-34.128907-34.132812-34.132813-18.851563.003906-34.128906 15.28125-34.132813 34.132813.003907 18.855468 15.28125 34.128906 34.132813 34.132812 18.855468 0 34.128906-15.277344 34.132812-34.132812h-13.652344c-.019531 11.308593-9.171874 20.460937-20.480468 20.480468-11.304688-.019531-20.457032-9.171875-20.480469-20.480468.023437-11.304688 9.175781-20.457032 20.480469-20.480469 11.308594.023437 20.460937 9.175781 20.480468 20.480469zm0 0" fill="#54596e"/><path d="m295.804688 341.332031h-83.726563v-68.265625h-68.265625v68.265625h-76.894531c-32.9375 0-59.636719 22.886719-59.636719 51.117188v37.628906h341.332031v-43.480469c0-24.996094-23.640625-45.265625-52.808593-45.265625zm0 0" fill="#ffd578"/><path d="m295.804688 341.332031v-6.824219h-76.898438v-61.441406c0-1.796875-.726562-3.554687-2-4.828125-1.269531-1.269531-3.027344-2-4.828125-2h-68.265625c-1.796875 0-3.554688.730469-4.824219 2-1.273437 1.273438-2 3.03125-2 4.828125v61.441406h-70.070312c-18.054688.003907-34.515625 6.253907-46.613281 16.613282-12.085938 10.324218-19.859376 25.007812-19.851563 41.328125v37.628906c0 1.800781.730469 3.558594 2 4.828125 1.273437 1.273438 3.03125 2 4.828125 2h341.332031c1.796875 0 3.554688-.726562 4.828125-2 1.269532-1.269531 2-3.027344 2-4.824219v-43.480469c.007813-14.707031-7.003906-27.925781-17.851562-37.191406-10.863282-9.300781-25.617188-14.898437-41.789063-14.902344v13.652344c13-.003906 24.648438 4.53125 32.902344 11.617188 8.265625 7.113281 13.074219 16.527344 13.082031 26.824218v36.652344h-327.679687v-30.800781c.007812-11.914063 5.582031-22.789063 15.085937-30.964844 9.484375-8.140625 22.84375-13.332031 37.726563-13.328125h76.894531c1.796875 0 3.554688-.726562 4.828125-2 1.269531-1.269531 2-3.027344 2-4.824218v-61.441407h54.613281v61.4375c0 1.796875.726563 3.554688 2 4.828125 1.269532 1.269532 3.027344 2 4.824219 2h83.726563zm0 0" fill="#54596e"/><path d="m75.546875 177.492188c0 15.082031-12.226563 27.308593-27.308594 27.308593-15.078125 0-27.304687-12.226562-27.304687-27.308593 0-15.078126 12.226562-27.304688 27.304687-27.304688 15.082031 0 27.308594 12.226562 27.308594 27.304688zm0 0" fill="#ffd578"/><path d="m75.546875 177.492188h6.828125c-.007812-18.851563-15.28125-34.128907-34.136719-34.132813-18.851562.003906-34.125 15.28125-34.132812 34.132813.007812 18.855468 15.28125 34.128906 34.132812 34.132812 18.855469 0 34.128907-15.277344 34.136719-34.132812h-13.65625c-.019531 11.308593-9.171875 20.460937-20.480469 20.480468-11.304687-.019531-20.457031-9.171875-20.476562-20.480468.019531-11.304688 9.171875-20.457032 20.476562-20.480469 11.308594.023437 20.460938 9.175781 20.480469 20.480469zm0 0" fill="#54596e"/><path d="m300.828125 184.320312 6.824219-80.253906c0-53.703125-42.417969-97.238281-94.746094-97.238281h-69.921875c-52.324219 0-94.746094 43.535156-94.746094 97.238281l6.828125 80.253906" fill="#999"/><path d="m307.628906 184.898438 6.828125-80.253907.023438-.578125c0-28.664062-11.335938-54.691406-29.6875-73.523437-18.339844-18.835938-43.808594-30.54687525-71.886719-30.542969h-69.921875c-28.078125-.00390625-53.546875 11.707031-71.882813 30.542969-18.355468 18.832031-29.691406 44.859375-29.6875 73.523437l.023438.578125 6.828125 80.253907c.316406 3.757812 3.621094 6.542968 7.378906 6.222656 3.757813-.320313 6.542969-3.625 6.226563-7.378906l-6.828125-80.253907-6.804688.578125h6.828125c.003906-25.039062 9.875-47.628906 25.8125-63.992187 15.953125-16.359375 37.859375-26.414063 62.109375-26.421875h69.917969c24.25.007812 46.15625 10.0625 62.105469 26.421875 15.9375 16.363281 25.8125 38.953125 25.816406 63.992187h6.824219l-6.800782-.578125-6.828124 80.253907c-.320313 3.753906 2.464843 7.058593 6.222656 7.378906 3.757812.320312 7.0625-2.464844 7.382812-6.222656zm0 0" fill="#54596e"/><path d="m132.675781 122.878906c-67.867187 0-77.609375-61.039062-77.609375 6.828125v56.757813c0 30.265625 13.960938 69.984375 37.710938 99.1875 17.988281 22.125 50.597656 35.199218 85.167968 35.199218 34.570313 0 67.179688-13.074218 85.171876-35.199218 23.75-29.203125 37.710937-68.921875 37.710937-99.1875v-56.757813c0-67.867187-100.289063-6.828125-168.152344-6.828125zm0 0" fill="#ffd578"/><path d="m132.675781 122.878906v-6.824218c-20.480469-.023438-34.949219-5.832032-45.722656-11.757813-5.390625-2.976563-9.796875-5.988281-13.652344-8.449219-1.9375-1.230468-3.730469-2.335937-5.613281-3.25-1.894531-.882812-3.910156-1.722656-6.679688-1.761718-1.523437-.011719-3.289062.351562-4.84375 1.199218-1.363281.730469-2.488281 1.765625-3.316406 2.84375-1.453125 1.910156-2.171875 3.867188-2.734375 5.957032-.816406 3.140624-1.222656 6.765624-1.503906 11.453124-.265625 4.675782-.371094 10.386719-.371094 17.417969v56.757813c.011719 16.175781 3.683594 34.351562 10.378907 52.371094 6.703124 18.015624 16.449218 35.851562 28.863281 51.125 9.863281 12.117187 23.472656 21.507812 39.074219 27.90625 15.609374 6.394531 33.246093 9.808593 51.390624 9.8125 18.144532-.003907 35.785157-3.417969 51.390626-9.8125 15.597656-6.398438 29.210937-15.789063 39.074218-27.90625 12.414063-15.273438 22.15625-33.109376 28.863282-51.125 6.695312-18.019532 10.367187-36.195313 10.375-52.371094v-56.757813c0-6.65625-.867188-12.484375-2.714844-17.570312-2.714844-7.640625-7.96875-13.476563-14.496094-16.789063-6.519531-3.355468-13.976562-4.5-21.96875-4.507812-19.140625.058594-42.351562 6.566406-66.457031 12.828125-24.027344 6.308593-48.820313 12.417969-69.335938 12.386719v13.652343c23.097657-.03125 48.617188-6.53125 72.792969-12.828125 24.09375-6.34375 46.976562-12.445312 63.003906-12.386718 4.433594 0 8.296875.453124 11.457032 1.34375 4.765624 1.382812 7.816406 3.453124 10.132812 6.867187 2.300781 3.425781 3.9375 8.773437 3.9375 17.003906v56.757813c.011719 14.089844-3.296875 30.90625-9.519531 47.609375-6.210938 16.71875-15.324219 33.339843-26.660157 47.273437-8.125 10.003906-19.8125 18.214844-33.660156 23.882813-13.835937 5.679687-29.789062 8.800781-46.214844 8.796875-16.421874.003906-32.375-3.117188-46.210937-8.796875-13.847656-5.667969-25.535156-13.878907-33.660156-23.882813-11.335938-13.933594-20.445313-30.554687-26.660157-47.273437-6.226562-16.703125-9.53125-33.519531-9.519531-47.609375v-56.757813c-.015625-11.980469.347657-19.867187 1.101563-23.902343.175781-1 .371094-1.738282.527344-2.183594l.203124-.5-2.171874-1.253906 1.296874 2.070312c.625-.390625.875-.808594.875-.816406l-2.167968-1.253906 1.296875 2.070312-1.847657-2.945312v3.5l1.847657-.554688-1.847657-2.945312v3.5-1.808594l-.296874 1.789062.296874.019532v-1.808594l-.296874 1.789062.03125-.191406-.046876.1875h.011719l.03125-.1875-.042969.183594c.082032.003906.949219.316406 2.15625 1.003906 2.148438 1.191406 5.355469 3.371094 9.339844 5.90625 11.980469 7.65625 31.515625 18.382812 60.484375 18.332031zm0 0" fill="#54596e"/><path d="m143.8125 225.28125c0 18.847656 15.285156 34.132812 34.132812 34.132812 18.851563 0 34.132813-15.285156 34.132813-34.132812zm0 0" fill="#54596e"/><path d="m143.8125 225.28125h-6.824219c.003907 22.621094 18.335938 40.953125 40.957031 40.957031 22.625 0 40.957032-18.335937 40.960938-40.957031 0-1.800781-.726562-3.558594-2-4.828125-1.269531-1.273437-3.027344-2-4.828125-2h-68.265625c-1.796875 0-3.554688.726563-4.824219 2-1.273437 1.269531-2 3.03125-2 4.828125h6.824219v6.824219h68.265625v-6.824219h-6.824219c-.003906 7.558594-3.046875 14.34375-8 19.304688-4.960937 4.953124-11.746094 7.996093-19.308594 8-7.558593-.003907-14.34375-3.046876-19.304687-8-4.953125-4.960938-7.996094-11.746094-8-19.304688h-6.828125v6.824219zm0 0" fill="#54596e"/><path d="m191.601562 245.761719c0-3.773438-6.113281-6.828125-13.65625-6.828125-7.539062 0-13.652343 3.054687-13.652343 6.828125 0 3.769531 6.113281 6.824219 13.652343 6.824219 7.542969 0 13.65625-3.054688 13.65625-6.824219zm0 0" fill="#ff927d"/><g fill="#54596e"><path d="m130.160156 160.425781c0 5.65625-4.585937 10.242188-10.238281 10.242188-5.65625 0-10.242187-4.585938-10.242187-10.242188s4.585937-10.238281 10.242187-10.238281c5.652344 0 10.238281 4.582031 10.238281 10.238281zm0 0"/><path d="m246.214844 160.425781c0 5.65625-4.585938 10.242188-10.242188 10.242188s-10.238281-4.585938-10.238281-10.242188 4.582031-10.238281 10.238281-10.238281 10.242188 4.582031 10.242188 10.238281zm0 0"/><path d="m68.71875 389.121094v34.132812c0 3.769532 3.058594 6.824219 6.828125 6.824219s6.828125-3.054687 6.828125-6.824219v-34.132812c0-3.769532-3.058594-6.828125-6.828125-6.828125s-6.828125 3.058593-6.828125 6.828125"/><path d="m273.519531 389.121094v34.132812c0 3.769532 3.058594 6.824219 6.828125 6.824219 3.769532 0 6.824219-3.054687 6.824219-6.824219v-34.132812c0-3.769532-3.054687-6.828125-6.824219-6.828125-3.769531 0-6.828125 3.058593-6.828125 6.828125"/></g><path d="m116.507812 197.972656c0 7.542969-6.113281 13.652344-13.65625 13.652344-7.539062 0-13.652343-6.109375-13.652343-13.652344 0-7.539062 6.113281-13.652344 13.652343-13.652344 7.542969 0 13.65625 6.113282 13.65625 13.652344zm0 0" fill="#ff927d"/><path d="m266.691406 197.972656c0 7.542969-6.109375 13.652344-13.652344 13.652344-7.539062 0-13.652343-6.109375-13.652343-13.652344 0-7.539062 6.113281-13.652344 13.652343-13.652344 7.542969 0 13.652344 6.113282 13.652344 13.652344zm0 0" fill="#ff927d"/></svg>