<svg height="436pt" viewBox="-54 0 436 436.90667" width="436pt" xmlns="http://www.w3.org/2000/svg"><path d="m286.820312 95.574219c-3.617187-59.441407-60.78125-88.746094-122.527343-88.746094-61.742188 0-118.910157 29.304687-122.527344 88.746094l-.351563 191.144531h245.757813zm0 0" fill="#fff35f"/><path d="m286.820312 95.574219 6.816407-.414063c-.960938-15.917968-5.566407-30.058594-12.988281-42.105468-11.140626-18.101563-28.429688-31.382813-48.710938-40.09375-20.304688-8.714844-43.683594-12.95703175-67.644531-12.960938-31.9375.0195312-62.878907 7.515625-86.808594 23.203125-11.949219 7.847656-22.128906 17.789063-29.542969 29.847656-7.425781 12.050781-12.027344 26.191407-12.988281 42.105469l-.011719.402344-.355468 191.144531c-.003907 1.824219.707031 3.546875 1.996093 4.835937 1.289063 1.289063 3.007813 2.007813 4.832031 2.007813h245.757813c1.824219 0 3.542969-.710937 4.832031-2.003906 1.289063-1.292969 2-3.011719 1.996094-4.835938l-.351562-191.144531-.011719-.402344-6.816407.414063-6.828124.011719.34375 184.304687h-232.082032l.339844-184.304687-6.828125-.011719 6.816406.414062c.847657-13.804687 4.742188-25.617187 10.988281-35.78125 9.359376-15.21875 24.183594-26.839843 42.46875-34.699219 18.265626-7.859374 39.910157-11.859374 62.253907-11.855468 29.804687-.019532 58.316406 7.136718 79.3125 20.964844 10.511719 6.90625 19.164062 15.4375 25.414062 25.59375 6.242188 10.160156 10.136719 21.972656 10.984375 35.777343l6.816406-.414062-6.828124.011719zm0 0" fill="#54596e"/><path d="m268.496094 334.507812h-76.894532v-47.789062h-54.613281v47.789062h-70.070312c-32.9375 0-59.636719 22.886719-59.636719 51.113282v44.457031h314.027344v-50.304687c0-25-23.644532-45.265626-52.8125-45.265626zm0 0" fill="#ffd578"/><path d="m268.496094 334.507812v-6.828124h-70.070313v-40.960938c0-1.796875-.726562-3.554688-2-4.828125-1.269531-1.269531-3.027343-1.996094-4.824219-1.996094h-54.613281c-1.796875 0-3.558593.726563-4.828125 1.996094-1.269531 1.273437-2 3.03125-2 4.828125v40.960938h-63.242187c-18.054688.003906-34.515625 6.257812-46.613281 16.613281-12.085938 10.328125-19.859376 25.007812-19.851563 41.328125v44.457031c0 1.800781.730469 3.558594 2 4.828125 1.273437 1.273438 3.03125 2 4.828125 2h314.027344c1.796875 0 3.554687-.726562 4.824218-2 1.273438-1.269531 2-3.027344 2-4.824219v-50.308593c.007813-14.703126-7-27.921876-17.851562-37.191407-10.859375-9.300781-25.617188-14.898437-41.785156-14.898437v13.648437c12.996094-.003906 24.648437 4.535157 32.898437 11.617188 8.265625 7.113281 13.074219 16.527343 13.082031 26.824219v43.480468h-300.371093v-37.628906c.007812-11.910156 5.582031-22.789062 15.085937-30.960938 9.484375-8.144531 22.84375-13.335937 37.726563-13.332031h70.070312c1.796875 0 3.554688-.726562 4.824219-1.996093 1.273438-1.273438 2-3.03125 2-4.828126v-40.960937h40.960938v40.960937c0 1.796876.730468 3.554688 2 4.828126 1.273437 1.269531 3.03125 1.996093 4.828124 1.996093h76.894532zm0 0" fill="#54596e"/><path d="m48.238281 402.773438v20.480468c0 3.769532 3.058594 6.824219 6.828125 6.824219 3.769532 0 6.828125-3.054687 6.828125-6.824219v-20.480468c0-3.769532-3.058593-6.828126-6.828125-6.828126-3.769531 0-6.828125 3.058594-6.828125 6.828126" fill="#54596e"/><path d="m266.691406 402.773438v20.480468c0 3.769532 3.058594 6.824219 6.828125 6.824219s6.828125-3.054687 6.828125-6.824219v-20.480468c0-3.769532-3.058594-6.828126-6.828125-6.828126s-6.828125 3.058594-6.828125 6.828126" fill="#54596e"/><path d="m294 170.667969c0 15.078125-12.226562 27.304687-27.308594 27.304687-15.078125 0-27.304687-12.226562-27.304687-27.304687 0-15.082031 12.226562-27.308594 27.304687-27.308594 15.082032 0 27.308594 12.226563 27.308594 27.308594zm0 0" fill="#ffd578"/><path d="m294 170.667969h6.828125c-.007813-18.855469-15.28125-34.132813-34.136719-34.132813-18.851562 0-34.125 15.277344-34.132812 34.132813.007812 18.851562 15.28125 34.125 34.132812 34.132812 18.855469-.003906 34.128906-15.28125 34.136719-34.132812h-13.65625c-.019531 11.304687-9.171875 20.457031-20.480469 20.480469-11.304687-.023438-20.457031-9.175782-20.476562-20.480469.019531-11.308594 9.171875-20.460938 20.476562-20.480469 11.308594.019531 20.460938 9.171875 20.480469 20.480469zm0 0" fill="#54596e"/><path d="m89.199219 170.667969c0 15.078125-12.226563 27.304687-27.304688 27.304687-15.082031 0-27.308593-12.226562-27.308593-27.304687 0-15.082031 12.226562-27.308594 27.308593-27.308594 15.078125 0 27.304688 12.226563 27.304688 27.308594zm0 0" fill="#ffd578"/><path d="m89.199219 170.667969h6.828125c-.003906-18.855469-15.28125-34.132813-34.132813-34.132813-18.855469 0-34.128906 15.277344-34.132812 34.132813.003906 18.851562 15.277343 34.125 34.132812 34.132812 18.851563-.003906 34.128907-15.28125 34.132813-34.132812h-13.652344c-.023438 11.304687-9.175781 20.457031-20.480469 20.480469-11.308593-.023438-20.460937-9.175782-20.480469-20.480469.019532-11.308594 9.171876-20.460938 20.480469-20.480469 11.304688.019531 20.457031 9.171875 20.480469 20.480469zm0 0" fill="#54596e"/><path d="m164.292969 314.027344c-56.554688 0-102.398438-45.847656-102.398438-102.402344v-92.53125c0-16.761719 13.585938-30.347656 30.34375-30.347656l17.03125 4.839844c35.96875 10.222656 74.078125 10.222656 110.046875 0l17.03125-4.839844c16.757813 0 30.34375 13.585937 30.34375 30.347656v92.53125c0 56.554688-45.84375 102.402344-102.398437 102.402344zm0 0" fill="#ffd578"/><path d="m164.292969 314.027344v-6.828125c-26.410157-.003907-50.261719-10.6875-67.582031-27.992188-17.304688-17.316406-27.988282-41.167969-27.992188-67.582031v-92.53125c.023438-12.988281 10.535156-23.5 23.519531-23.523438v-6.824218l-1.867187 6.5625 17.03125 4.84375c18.59375 5.285156 37.742187 7.925781 56.890625 7.925781 19.148437 0 38.292969-2.644531 56.890625-7.925781l17.03125-4.84375-1.867188-6.5625v6.828125c12.988282.023437 23.496094 10.53125 23.519532 23.519531v92.53125c-.003907 26.414062-10.6875 50.265625-27.992188 67.582031-17.320312 17.304688-41.167969 27.988281-67.582031 27.992188v13.652343c60.324219 0 109.222656-48.898437 109.226562-109.226562v-92.53125c-.003906-20.535156-16.640625-37.167969-37.171875-37.171875-.640625 0-1.25.082031-1.867187.257813l-17.03125 4.839843c-17.375 4.9375-35.265625 7.40625-53.15625 7.40625s-35.785157-2.46875-53.160157-7.40625l-17.03125-4.839843c-.613281-.175782-1.226562-.257813-1.867187-.257813-20.527344.003906-37.164063 16.636719-37.167969 37.171875v92.53125c.003906 60.328125 48.902344 109.222656 109.226563 109.226562zm0 0" fill="#54596e"/><path d="m116.507812 160.425781c0 5.65625-4.585937 10.242188-10.242187 10.242188s-10.238281-4.585938-10.238281-10.242188 4.582031-10.238281 10.238281-10.238281 10.242187 4.582031 10.242187 10.238281zm0 0" fill="#54596e"/><path d="m232.558594 160.425781c0 5.65625-4.582032 10.242188-10.238282 10.242188s-10.242187-4.585938-10.242187-10.242188 4.585937-10.238281 10.242187-10.238281 10.238282 4.582031 10.238282 10.238281zm0 0" fill="#54596e"/><g fill="#ff927d"><path d="m102.851562 191.148438c0 7.539062-6.109374 13.652343-13.652343 13.652343-7.539063 0-13.652344-6.113281-13.652344-13.652343 0-7.542969 6.113281-13.65625 13.652344-13.65625 7.542969 0 13.652343 6.113281 13.652343 13.65625zm0 0"/><path d="m253.039062 191.148438c0 7.539062-6.113281 13.652343-13.652343 13.652343-7.539063 0-13.652344-6.113281-13.652344-13.652343 0-7.542969 6.113281-13.65625 13.652344-13.65625 7.539062 0 13.652343 6.113281 13.652343 13.65625zm0 0"/><path d="m157.464844 238.933594h13.65625c7.539062 0 13.652344-6.113282 13.652344-13.652344 0-7.542969-6.113282-13.65625-13.652344-13.65625h-13.65625c-7.539063 0-13.652344 6.113281-13.652344 13.65625 0 7.539062 6.113281 13.652344 13.652344 13.652344"/><path d="m136.988281 225.28125h54.613281c3.769532 0 6.824219-3.058594 6.824219-6.828125s-3.054687-6.828125-6.824219-6.828125h-54.613281c-3.773437 0-6.828125 3.058594-6.828125 6.828125s3.054688 6.828125 6.828125 6.828125"/></g></svg>