<svg height="436pt" viewBox="-41 0 436 436.90667" width="436pt" xmlns="http://www.w3.org/2000/svg"><path d="m143.8125 286.71875h68.265625v109.226562h-68.265625zm0 0" fill="#ffd578"/><path d="m212.078125 395.945312v-6.824218h-61.4375v-95.578125h54.613281v102.402343h6.824219v-6.824218 6.824218h6.828125v-109.226562c0-1.796875-.726562-3.554688-2-4.828125-1.269531-1.269531-3.027344-1.996094-4.828125-1.996094h-68.265625c-1.796875 0-3.554688.726563-4.824219 1.996094-1.269531 1.273437-2 3.03125-2 4.828125v109.226562c0 1.824219.707031 3.539063 2 4.828126 1.289063 1.289062 3.003907 2 4.824219 2h68.265625c1.824219 0 3.539063-.707032 4.828125-2 1.289062-1.289063 2-3.003907 2-4.828126zm0 0" fill="#54596e"/><path d="m295.804688 320.851562h-43.042969l-74.820313 75.09375-74.816406-75.09375h-36.207031c-32.9375 0-59.636719 22.890626-59.636719 51.121094v58.105469h341.332031v-63.957031c0-25-23.640625-45.269532-52.808593-45.269532zm0 0" fill="#ff927d"/><path d="m295.804688 320.851562v-6.824218h-43.042969c-1.824219 0-3.546875.710937-4.835938 2.007812l-69.984375 70.238282-69.976562-70.238282c-1.289063-1.292968-3.015625-2.007812-4.839844-2.007812h-36.207031c-18.054688.003906-34.515625 6.253906-46.613281 16.613281-12.085938 10.324219-19.859376 25.007813-19.851563 41.328125v58.109375c0 1.824219.710937 3.539063 2 4.828125s3.003906 2 4.828125 2h341.332031c1.824219 0 3.535157-.707031 4.828125-2 1.289063-1.289062 2-3 2-4.824219v-63.960937c.007813-14.703125-7.003906-27.925782-17.851562-37.191406-10.863282-9.300782-25.617188-14.898438-41.789063-14.902344v13.652344c13-.003907 24.648438 4.535156 32.902344 11.617187 8.265625 7.117187 13.074219 16.53125 13.082031 26.824219v57.132812h-327.679687v-51.28125c.007812-11.910156 5.582031-22.789062 15.085937-30.964844 9.484375-8.140624 22.84375-13.332031 37.726563-13.328124h33.375l72.816406 73.082031c1.285156 1.292969 3.007813 2.011719 4.832031 2.011719 1.828125 0 3.550782-.71875 4.839844-2.007813l72.820312-73.085937h40.203126zm0 0" fill="#54596e"/><path d="m143.8125 368.640625-34.132812 13.652344-6.828126-68.265625h40.960938zm0 0" fill="#fff"/><path d="m143.8125 368.640625-2.535156-6.339844-25.707032 10.28125-5.171874-51.734375h26.589843v47.792969h6.824219l-2.535156-6.339844 2.535156 6.339844h6.828125v-54.613281c0-1.800782-.730469-3.558594-2-4.828125-1.273437-1.273438-3.03125-2-4.828125-2h-40.960938c-1.925781 0-3.765624.816406-5.058593 2.246093-1.292969 1.425782-1.925781 3.34375-1.734375 5.257813l6.828125 68.269531c.210937 2.132813 1.417969 4.042969 3.25 5.152344 1.832031 1.113281 4.085937 1.300781 6.078125.503906l34.132812-13.652344c2.582032-1.03125 4.292969-3.554687 4.292969-6.335937zm0 0" fill="#54596e"/><path d="m212.078125 368.640625 34.136719 13.652344 6.824218-68.265625h-40.960937zm0 0" fill="#fff"/><path d="m212.078125 368.640625-2.535156 6.339844 34.132812 13.652343c1.992188.792969 4.246094.609376 6.078125-.503906 1.832032-1.113281 3.039063-3.023437 3.253906-5.15625l6.824219-68.265625c.191407-1.917969-.4375-3.832031-1.730469-5.261719-1.292968-1.429687-3.136718-2.246093-5.0625-2.246093h-40.960937c-1.796875 0-3.554687.726562-4.824219 2-1.269531 1.269531-2 3.03125-2 4.828125v54.613281c0 2.78125 1.707032 5.304687 4.289063 6.339844l2.535156-6.339844h6.828125v-47.789063h26.589844l-5.171875 51.730469-25.707031-10.28125-2.539063 6.339844h6.828125zm0 0" fill="#54596e"/><path d="m68.71875 402.773438v20.480468c0 3.769532 3.058594 6.824219 6.828125 6.824219s6.828125-3.054687 6.828125-6.824219v-20.480468c0-3.773438-3.058594-6.828126-6.828125-6.828126s-6.828125 3.058594-6.828125 6.828126" fill="#54596e"/><path d="m273.519531 402.773438v20.480468c0 3.769532 3.058594 6.824219 6.828125 6.824219 3.769532 0 6.824219-3.054687 6.824219-6.824219v-20.480468c0-3.773438-3.054687-6.828126-6.824219-6.828126-3.769531 0-6.828125 3.058594-6.828125 6.828126" fill="#54596e"/><path d="m341.785156 163.839844c0 15.082031-12.222656 27.308594-27.304687 27.308594s-27.308594-12.226563-27.308594-27.308594c0-15.082032 12.226563-27.304688 27.308594-27.304688s27.304687 12.222656 27.304687 27.304688zm0 0" fill="#ffd578"/><path d="m341.785156 163.839844h6.828125c-.003906-18.855469-15.28125-34.128906-34.132812-34.132813-18.855469.003907-34.128907 15.277344-34.132813 34.132813.003906 18.855468 15.277344 34.128906 34.132813 34.132812 18.851562-.003906 34.128906-15.277344 34.132812-34.132812h-13.652343c-.019532 11.304687-9.175782 20.457031-20.480469 20.480468-11.308594-.023437-20.460938-9.175781-20.480469-20.480468.019531-11.304688 9.171875-20.460938 20.480469-20.480469 11.304687.019531 20.460937 9.175781 20.480469 20.480469zm0 0" fill="#54596e"/><path d="m307.652344 6.828125h-259.414063l13.65625 122.878906h232.105469zm0 0" fill="#8065c4"/><path d="m307.652344 6.828125v-6.828125h-259.414063c-1.949219 0-3.785156.816406-5.085937 2.273438-1.296875 1.453124-1.910156 3.367187-1.695313 5.304687l13.652344 122.882813c.382813 3.460937 3.304687 6.074218 6.785156 6.074218h232.105469c3.480469 0 6.398438-2.613281 6.785156-6.074218l13.652344-122.878907c.214844-1.941406-.398438-3.855469-1.699219-5.308593-1.300781-1.453126-3.132812-2.273438-5.085937-2.273438v6.828125l-6.785156-.753906-12.976563 116.804687h-219.886719l-12.136718-109.226562h251.785156v-6.824219l-6.785156-.753906zm0 0" fill="#54596e"/><path d="m68.71875 163.839844c0 15.082031-12.222656 27.308594-27.304688 27.308594-15.082031 0-27.308593-12.226563-27.308593-27.308594 0-15.082032 12.226562-27.304688 27.308593-27.304688 15.082032 0 27.304688 12.222656 27.304688 27.304688zm0 0" fill="#ffd578"/><path d="m68.71875 163.839844h6.828125c-.003906-18.855469-15.28125-34.128906-34.132813-34.132813-18.855468.003907-34.128906 15.277344-34.132812 34.132813.003906 18.855468 15.277344 34.128906 34.132812 34.132812 18.851563-.003906 34.128907-15.277344 34.132813-34.132812h-13.652344c-.023437 11.304687-9.175781 20.457031-20.480469 20.480468-11.308593-.023437-20.460937-9.175781-20.480468-20.480468.019531-11.304688 9.171875-20.460938 20.480468-20.480469 11.304688.019531 20.457032 9.175781 20.480469 20.480469zm0 0" fill="#54596e"/><path d="m177.945312 334.507812c64.097657 0 116.058594-51.960937 116.058594-116.054687v-75.71875c0-41.128906-33.34375-74.46875-74.46875-74.46875h-125.445312c-17.785156 0-32.195313 14.417969-32.195313 32.199219v117.988281c0 64.09375 51.960938 116.054687 116.050781 116.054687" fill="#ffd578"/><g fill="#54596e"><path d="m177.945312 334.507812v6.824219c67.867188-.003906 122.875-55.011719 122.882813-122.878906v-75.71875c-.007813-44.898437-36.394531-81.289063-81.296875-81.292969h-125.441406c-21.554688.003906-39.019532 17.464844-39.023438 39.023438v117.988281c.003906 67.867187 55.011719 122.875 122.878906 122.878906v-13.652343c-30.179687-.003907-57.445312-12.214844-77.234374-31.992188-19.777344-19.789062-31.988282-47.050781-31.992188-77.234375v-117.988281c.003906-7.03125 2.832031-13.328125 7.433594-17.941406 4.613281-4.601563 10.910156-7.425782 17.9375-7.429688h125.445312c18.699219.003906 35.566406 7.5625 47.828125 19.8125 12.25 12.261719 19.808594 29.128906 19.8125 47.828125v75.71875c-.003906 30.183594-12.214843 57.445313-31.992187 77.234375-19.789063 19.777344-47.054688 31.988281-77.238282 31.992188zm0 0"/><path d="m143.8125 252.585938c0 18.851562 15.285156 34.132812 34.132812 34.132812 18.851563 0 34.132813-15.28125 34.132813-34.132812zm0 0"/><path d="m143.8125 252.585938h-6.824219c.003907 22.625 18.335938 40.957031 40.957031 40.960937 22.625-.003906 40.957032-18.335937 40.960938-40.960937 0-1.796876-.726562-3.554688-2-4.828126-1.269531-1.269531-3.027344-1.996093-4.828125-1.996093h-68.265625c-1.796875 0-3.554688.726562-4.824219 1.996093-1.269531 1.273438-2 3.03125-2 4.828126h6.824219v6.828124h68.265625v-6.828124h-6.824219c-.003906 7.5625-3.046875 14.34375-8 19.304687-4.960937 4.953125-11.746094 7.996094-19.308594 8.003906-7.558593-.007812-14.34375-3.046875-19.304687-8.003906-4.953125-4.960937-7.996094-11.746094-8-19.304687h-6.828125v6.828124zm0 0"/><path d="m143.8125 174.078125c0-5.652344-4.582031-10.238281-10.242188-10.238281-5.65625 0-10.238281 4.585937-10.238281 10.238281 0 5.660156 4.582031 10.246094 10.238281 10.246094 5.664063-.003907 10.242188-4.585938 10.242188-10.246094"/><path d="m232.558594 174.078125c0-5.652344-4.582032-10.238281-10.238282-10.238281s-10.242187 4.585937-10.242187 10.238281c0 5.660156 4.585937 10.246094 10.242187 10.246094s10.238282-4.585938 10.238282-10.246094"/></g><path d="m164.292969 266.238281h27.308593v-13.652343h-27.308593" fill="#fff"/><path d="m222.320312 184.320312c-5.65625 0-10.242187-4.582031-10.242187-10.242187 0-5.65625 4.585937-10.238281 10.242187-10.238281s10.238282 4.582031 10.238282 10.238281c0 5.660156-4.582032 10.242187-10.238282 10.242187m0-47.785156c-20.734374 0-37.546874 16.808594-37.546874 37.542969 0 20.742187 16.8125 37.546875 37.546874 37.546875 20.734376 0 37.546876-16.808594 37.546876-37.546875 0-20.734375-16.8125-37.542969-37.546876-37.542969" fill="#ffeabc"/><path d="m222.320312 163.839844c-5.65625 0-10.242187 4.585937-10.242187 10.238281 0 5.660156 4.585937 10.246094 10.242187 10.246094s10.238282-4.585938 10.238282-10.246094c0-5.65625-4.582032-10.238281-10.238282-10.238281" fill="#aaacb7"/><path d="m133.570312 184.320312c-5.65625 0-10.238281-4.582031-10.238281-10.242187 0-5.65625 4.582031-10.238281 10.238281-10.238281 5.660157 0 10.242188 4.582031 10.242188 10.238281 0 5.660156-4.578125 10.242187-10.242188 10.242187m0-47.785156c-20.734374 0-37.542968 16.808594-37.542968 37.542969 0 20.738281 16.808594 37.546875 37.542968 37.546875 20.742188 0 37.550782-16.804688 37.550782-37.546875 0-20.734375-16.808594-37.542969-37.550782-37.542969" fill="#ffeabc"/><path d="m133.570312 163.839844c-5.65625 0-10.238281 4.585937-10.238281 10.238281 0 5.660156 4.582031 10.246094 10.238281 10.246094 5.660157 0 10.242188-4.585938 10.242188-10.246094 0-5.65625-4.578125-10.238281-10.242188-10.238281" fill="#aaacb7"/><path d="m266.691406 174.078125c-.003906-24.507813-19.863281-44.367187-44.371094-44.371094-24.507812.003907-44.367187 19.863281-44.375 44.371094 0 3.773437 3.058594 6.828125 6.828126 6.828125 3.769531 0 6.828124-3.054688 6.828124-6.828125 0-8.503906 3.425782-16.140625 8.996094-21.722656 5.582032-5.570313 13.21875-8.992188 21.722656-8.996094 8.503907.003906 16.140626 3.425781 21.722657 8.996094 5.570312 5.582031 8.992187 13.21875 8.996093 21.722656 0 3.773437 3.058594 6.828125 6.828126 6.828125 3.769531 0 6.824218-3.054688 6.824218-6.828125zm0 0" fill="#54596e"/><path d="m177.945312 174.078125c-.003906-24.507813-19.863281-44.367187-44.371093-44.371094-24.511719.003907-44.367188 19.863281-44.375 44.371094 0 3.773437 3.058593 6.828125 6.828125 6.828125 3.769531 0 6.824218-3.054688 6.824218-6.828125.003907-8.503906 3.429688-16.140625 9-21.722656 5.582032-5.570313 13.21875-8.992188 21.722657-8.996094 8.503906.003906 16.140625 3.425781 21.722656 8.996094 5.570313 5.582031 8.992187 13.21875 8.996094 21.722656 0 3.773437 3.058593 6.828125 6.828125 6.828125 3.769531 0 6.824218-3.054688 6.824218-6.828125zm0 0" fill="#54596e"/></svg>