<svg height="436pt" viewBox="-27 0 436 436.90667" width="436pt" xmlns="http://www.w3.org/2000/svg"><path d="m157.464844 286.71875h68.269531v109.226562h-68.269531zm0 0" fill="#ffd578"/><path d="m225.734375 395.945312v-6.824218h-61.441406v-95.574219h54.613281v102.398437h6.828125v-6.824218 6.824218h6.824219v-109.226562c0-1.796875-.726563-3.554688-2-4.828125-1.269532-1.269531-3.027344-1.996094-4.824219-1.996094h-68.269531c-1.796875 0-3.554688.726563-4.824219 1.996094-1.273437 1.273437-2 3.03125-2 4.828125v109.226562c0 1.796876.726563 3.554688 2 4.828126 1.269531 1.269531 3.027344 2 4.824219 2h68.269531c1.796875 0 3.554687-.730469 4.824219-2 1.273437-1.273438 2-3.03125 2-4.828126zm0 0" fill="#54596e"/><path d="m309.457031 320.851562h-43.042969l-74.820312 75.09375-74.816406-75.09375h-36.207032c-32.9375 0-59.636718 22.886719-59.636718 51.117188v58.109375h341.332031v-63.957031c0-25-23.644531-45.269532-52.808594-45.269532zm0 0" fill="#fff35f"/><path d="m309.457031 320.851562v-6.824218h-43.042969c-1.824218 0-3.546874.714844-4.835937 2.007812l-69.984375 70.238282-69.980469-70.238282c-1.285156-1.292968-3.011719-2.011718-4.835937-2.011718h-36.207032c-18.054687.007812-34.515624 6.257812-46.613281 16.617187-12.082031 10.324219-19.859375 25.007813-19.851562 41.328125v58.109375c0 1.800781.730469 3.558594 2 4.828125 1.269531 1.273438 3.027343 2 4.828125 2h341.332031c1.796875 0 3.554687-.726562 4.828125-2 1.269531-1.269531 2-3.027344 2-4.824219v-63.960937c.007812-14.703125-7.003906-27.925782-17.851562-37.191406-10.863282-9.300782-25.617188-14.898438-41.785157-14.902344v13.652344c12.996094-.003907 24.644531 4.535156 32.898438 11.617187 8.265625 7.113281 13.074219 16.527344 13.082031 26.824219v57.132812h-327.679688v-51.28125c.007813-11.910156 5.582032-22.789062 15.085938-30.964844 9.484375-8.140624 22.84375-13.332031 37.726562-13.328124h33.375l72.816407 73.085937c1.285156 1.289063 3.011719 2.007813 4.832031 2.007813 1.824219 0 3.550781-.71875 4.835938-2.007813l72.820312-73.085937h40.207031zm0 0" fill="#54596e"/><path d="m157.464844 368.640625-34.132813 13.652344-6.824219-68.265625h40.957032zm0 0" fill="#fff35f"/><path d="m157.464844 368.640625-2.535156-6.339844-25.707032 10.285157-5.171875-51.734376h26.589844v47.789063h6.824219l-2.535156-6.339844 2.535156 6.339844h6.828125v-54.613281c0-1.800782-.726563-3.558594-2-4.828125-1.269531-1.269531-3.027344-2-4.828125-2h-40.957032c-1.929687 0-3.769531.816406-5.0625 2.246093-1.292968 1.425782-1.925781 3.34375-1.730468 5.261719l6.824218 68.265625c.214844 2.132813 1.421876 4.042969 3.253907 5.15625 1.832031 1.113282 4.085937 1.296875 6.074219.5l34.132812-13.652344c2.582031-1.03125 4.292969-3.554687 4.292969-6.335937zm0 0" fill="#54596e"/><path d="m225.734375 368.640625 34.132813 13.652344 6.824218-68.265625h-40.957031zm0 0" fill="#fff35f"/><path d="m225.734375 368.640625-2.539063 6.339844 34.136719 13.652343c1.988281.792969 4.242188.609376 6.074219-.503906 1.832031-1.109375 3.039062-3.019531 3.25-5.15625l6.828125-68.265625c.191406-1.914062-.4375-3.832031-1.730469-5.257812-1.292968-1.433594-3.136718-2.25-5.0625-2.25h-40.957031c-1.796875 0-3.558594.726562-4.828125 2-1.273438 1.269531-2 3.03125-2 4.828125v54.613281c0 2.78125 1.707031 5.304687 4.289062 6.339844l2.539063-6.339844h6.824219v-47.789063h26.589844l-5.171876 51.734376-25.707031-10.285157-2.535156 6.339844h6.824219zm0 0" fill="#54596e"/><path d="m82.375 402.773438v20.480468c0 3.769532 3.054688 6.824219 6.824219 6.824219s6.828125-3.054687 6.828125-6.824219v-20.480468c0-3.769532-3.058594-6.828126-6.828125-6.828126s-6.824219 3.058594-6.824219 6.828126" fill="#54596e"/><path d="m287.171875 402.773438v20.480468c0 3.769532 3.058594 6.824219 6.828125 6.824219s6.828125-3.054687 6.828125-6.824219v-20.480468c0-3.769532-3.058594-6.828126-6.828125-6.828126-3.773438 0-6.828125 3.058594-6.828125 6.828126" fill="#54596e"/><path d="m314.480469 129.707031c0-67.863281-55.015625-122.878906-122.878907-122.878906-67.867187 0-122.882812 55.015625-122.882812 122.878906s55.015625 122.878907 122.882812 122.878907c67.863282 0 122.878907-55.015626 122.878907-122.878907" fill="#999"/><path d="m314.480469 129.707031h6.828125c-.007813-71.636719-58.074219-129.70312475-129.707032-129.707031-71.636718.00390625-129.703124 58.070312-129.707031 129.707031.003907 71.636719 58.070313 129.703125 129.707031 129.707031 71.632813-.003906 129.699219-58.070312 129.707032-129.707031h-13.65625c-.003906 32.066407-12.976563 61.035157-33.992188 82.0625-21.023437 21.011719-49.992187 33.988281-82.058594 33.992188-32.070312-.003907-61.039062-12.980469-82.0625-33.992188-21.011718-21.027343-33.988281-49.996093-33.992187-82.0625 0-32.070312 12.976563-61.039062 33.988281-82.0625 21.027344-21.011719 49.996094-33.988281 82.066406-33.992187 32.066407.003906 61.039063 12.980468 82.058594 33.992187 21.011719 21.023438 33.988282 49.992188 33.992188 82.0625zm0 0" fill="#54596e"/><path d="m328.132812 259.414062v-143.363281h-273.066406v143.363281h-47.785156c0 22.617188 18.339844 40.960938 40.960938 40.960938h286.71875c22.617187 0 40.957031-18.339844 40.957031-40.960938z" fill="#bfad88"/><path d="m328.132812 259.414062h6.824219v-143.363281c0-1.796875-.726562-3.554687-2-4.824219-1.269531-1.269531-3.027343-2-4.824219-2h-273.066406c-1.796875 0-3.554687.730469-4.828125 2-1.269531 1.269532-1.996093 3.027344-1.996093 4.824219v136.535157h-40.964844c-1.796875 0-3.554688.726562-4.828125 2-1.269531 1.269531-1.996094 3.027343-1.996094 4.828124.003906 26.394532 21.390625 47.78125 47.785156 47.785157h286.71875c26.394531-.003907 47.78125-21.390625 47.789063-47.785157 0-1.800781-.730469-3.554687-2-4.828124-1.273438-1.269532-3.027344-2-4.828125-2h-47.785157v6.828124h6.824219-6.824219v6.828126h47.785157v-6.828126h-6.824219c-.003906 9.449219-3.8125 17.9375-10 24.136719-6.199219 6.1875-14.6875 9.992188-24.132812 9.996094h-286.71875c-9.445313-.003906-17.941407-3.808594-24.136719-9.996094-6.191407-6.199219-9.992188-14.6875-10-24.136719h-6.824219v6.828126h47.785156c1.796875 0 3.558594-.730469 4.824219-2 1.273437-1.273438 2-3.027344 2-4.824219v-136.539063h259.414063v136.535156c0 1.796876.730468 3.554688 2 4.824219 1.273437 1.273438 3.03125 2 4.828124 2z" fill="#54596e"/><path d="m348.613281 184.320312c0 15.082032-12.226562 27.304688-27.304687 27.304688-15.082032 0-27.308594-12.222656-27.308594-27.304688 0-15.082031 12.226562-27.308593 27.308594-27.308593 15.078125 0 27.304687 12.226562 27.304687 27.308593zm0 0" fill="#ffd578"/><path d="m348.613281 184.320312h6.828125c-.007812-18.855468-15.28125-34.128906-34.132812-34.132812-18.855469.003906-34.128906 15.277344-34.136719 34.132812.007813 18.851563 15.28125 34.128907 34.136719 34.132813 18.851562-.003906 34.125-15.28125 34.132812-34.132813h-13.65625c-.019531 11.304688-9.171875 20.460938-20.476562 20.480469-11.308594-.019531-20.460938-9.175781-20.480469-20.480469.019531-11.308593 9.171875-20.460937 20.480469-20.480468 11.304687.019531 20.457031 9.171875 20.476562 20.480468zm0 0" fill="#54596e"/><path d="m89.199219 184.320312c0 15.082032-12.226563 27.304688-27.304688 27.304688-15.082031 0-27.308593-12.222656-27.308593-27.304688 0-15.082031 12.226562-27.308593 27.308593-27.308593 15.078125 0 27.304688 12.226562 27.304688 27.308593zm0 0" fill="#ffd578"/><path d="m89.199219 184.320312h6.828125c-.003906-18.855468-15.28125-34.128906-34.132813-34.132812-18.855469.003906-34.128906 15.277344-34.132812 34.132812.003906 18.851563 15.277343 34.128907 34.132812 34.132813 18.851563-.003906 34.128907-15.28125 34.132813-34.132813h-13.652344c-.023438 11.304688-9.175781 20.460938-20.480469 20.480469-11.308593-.019531-20.460937-9.175781-20.480469-20.480469.019532-11.308593 9.171876-20.460937 20.480469-20.480468 11.304688.019531 20.457031 9.171875 20.480469 20.480468zm0 0" fill="#54596e"/><path d="m191.601562 334.507812c64.09375 0 116.050782-51.960937 116.050782-116.054687v-95.570313h-232.105469v95.570313c0 64.09375 51.960937 116.054687 116.054687 116.054687" fill="#ffd578"/><path d="m191.601562 334.507812v6.824219c67.867188-.003906 122.871094-55.011719 122.878907-122.878906v-95.570313c0-1.800781-.730469-3.558593-2-4.828124-1.273438-1.273438-3.027344-2-4.828125-2h-232.105469c-1.800781 0-3.558594.726562-4.828125 2-1.273438 1.269531-2 3.027343-2 4.828124v95.570313c.003906 67.867187 55.015625 122.875 122.882812 122.878906v-13.652343c-30.1875-.007813-57.449218-12.214844-77.238281-31.992188-19.773437-19.789062-31.988281-47.050781-31.992187-77.234375v-88.746094h218.457031v88.746094c-.003906 30.183594-12.21875 57.445313-31.992187 77.234375-19.785157 19.777344-47.050782 31.988281-77.234376 31.996094z" fill="#54596e"/><path d="m314.367188 150.183594h-245.539063c-7.597656 0-13.761719-6.160156-13.761719-13.761719v-33.910156c0-7.597657 6.164063-13.761719 13.761719-13.761719h245.539063c7.601562 0 13.765624 6.164062 13.765624 13.761719v33.914062c0 7.597657-6.164062 13.757813-13.765624 13.757813" fill="#999"/><path d="m314.367188 150.183594v-6.824219h-245.539063c-3.824219-.007813-6.929687-3.109375-6.9375-6.9375v-33.910156c.007813-3.828125 3.113281-6.929688 6.9375-6.9375h245.539063c3.828124.007812 6.929687 3.109375 6.9375 6.9375v33.914062c-.007813 3.828125-3.109376 6.929688-6.9375 6.9375v13.648438c11.375-.003907 20.585937-9.214844 20.589843-20.589844v-33.910156c-.003906-11.378907-9.214843-20.585938-20.589843-20.589844h-245.539063c-11.371094.003906-20.582031 9.214844-20.585937 20.589844v33.914062c.003906 11.375 9.214843 20.585938 20.585937 20.589844h245.539063z" fill="#54596e"/><path d="m157.464844 252.585938c0 18.851562 15.285156 34.132812 34.136718 34.132812 18.847657 0 34.132813-15.28125 34.132813-34.132812zm0 0" fill="#54596e"/><path d="m157.464844 252.585938h-6.824219c.003906 22.625 18.335937 40.957031 40.960937 40.960937 22.621094-.003906 40.953126-18.335937 40.957032-40.960937 0-1.796876-.726563-3.554688-2-4.828126-1.269532-1.269531-3.027344-1.996093-4.824219-1.996093h-68.269531c-1.796875 0-3.554688.726562-4.824219 1.996093-1.273437 1.273438-2 3.03125-2 4.828126h6.824219v6.828124h68.269531v-6.828124h-6.828125c-.003906 7.5625-3.046875 14.34375-8 19.308593-4.960938 4.953125-11.746094 7.996094-19.304688 8-7.5625-.003906-14.347656-3.046875-19.308593-8-4.953125-4.964843-7.996094-11.746093-8-19.308593h-6.828125v6.828124zm0 0" fill="#54596e"/><path d="m205.253906 273.066406c0-3.769531-6.113281-6.828125-13.652344-6.828125-7.542968 0-13.65625 3.058594-13.65625 6.828125 0 3.769532 6.113282 6.828125 13.65625 6.828125 7.539063 0 13.652344-3.058593 13.652344-6.828125zm0 0" fill="#ff927d"/><path d="m157.464844 194.558594c0 5.65625-4.582032 10.242187-10.238282 10.242187s-10.238281-4.585937-10.238281-10.242187c0-5.652344 4.582031-10.238282 10.238281-10.238282s10.238282 4.585938 10.238282 10.238282zm0 0" fill="#54596e"/><path d="m246.214844 194.558594c0 5.65625-4.585938 10.242187-10.242188 10.242187s-10.238281-4.585937-10.238281-10.242187c0-5.652344 4.582031-10.238282 10.238281-10.238282s10.242188 4.585938 10.242188 10.238282zm0 0" fill="#54596e"/><g fill="#767983"><path d="m102.851562 95.574219h-13.652343v47.785156h13.652343z"/><path d="m294 95.574219h-13.652344v47.785156h13.652344z"/><path d="m143.8125 95.574219h-13.652344v47.785156h13.652344z"/><path d="m253.039062 95.574219h-13.652343v47.785156h13.652343z"/><path d="m198.425781 95.574219h-13.652343v47.785156h13.652343z"/></g><path d="m204.128906 238.839844 40.960938 6.828125c3.71875.621093 7.238281-1.894531 7.855468-5.613281.621094-3.71875-1.890624-7.234376-5.609374-7.855469l-40.960938-6.824219c-3.71875-.621094-7.238281 1.890625-7.855469 5.609375-.621093 3.71875 1.890625 7.234375 5.609375 7.855469" fill="#bfad88"/><path d="m138.109375 245.667969 40.957031-6.828125c3.71875-.617188 6.234375-4.136719 5.613282-7.855469-.621094-3.71875-4.136719-6.230469-7.855469-5.609375l-40.960938 6.824219c-3.71875.621093-6.230469 4.136719-5.609375 7.855469.617188 3.71875 4.136719 6.234374 7.855469 5.613281" fill="#bfad88"/></svg>