<svg height="436pt" viewBox="-61 0 436 436.90667" width="436pt" xmlns="http://www.w3.org/2000/svg"><path d="m256.46875 320.851562h-192.269531c-27.664063 0-50.09375 22.886719-50.09375 51.117188v58.109375h286.722656v-63.957031c0-25-19.863281-45.269532-44.359375-45.269532zm0 0" fill="#55a6ff"/><path d="m256.46875 320.851562v-6.824218h-192.269531c-15.734375-.003906-30.03125 6.53125-40.296875 17.019531-10.277344 10.480469-16.625 24.984375-16.621094 40.925781v58.105469c0 1.800781.726562 3.558594 2 4.828125 1.269531 1.273438 3.027344 2 4.824219 2h286.722656c1.796875 0 3.554687-.726562 4.824219-2 1.273437-1.269531 2-3.027344 2-4.824219v-63.960937c.003906-14.324219-5.703125-27.367188-14.941406-36.789063-9.226563-9.425781-22.089844-15.308593-36.242188-15.304687v13.652344c10.34375.003906 19.660156 4.253906 26.488281 11.210937 6.816407 6.960937 11.039063 16.554687 11.042969 27.230469v57.132812h-273.066406v-51.28125c0-12.292968 4.867187-23.347656 12.722656-31.367187 7.867188-8.015625 18.613281-12.921875 30.542969-12.925781h192.269531zm0 0" fill="#54596e"/><path d="m157.464844 395.945312c-15.078125 0-27.304688-12.226562-27.304688-27.304687v-54.613281c0-15.082032 12.226563-27.308594 27.304688-27.308594 15.082031 0 27.308594 12.226562 27.308594 27.308594v54.613281c0 15.078125-12.226563 27.304687-27.308594 27.304687zm0 0" fill="#ffd578"/><path d="m157.464844 395.945312v-6.824218c-11.304688-.023438-20.457032-9.175782-20.476563-20.480469v-54.613281c.019531-11.308594 9.171875-20.460938 20.476563-20.480469 11.308594.019531 20.460937 9.171875 20.480468 20.480469v54.613281c-.019531 11.304687-9.171874 20.457031-20.480468 20.480469v13.652344c18.855468-.003907 34.128906-15.28125 34.136718-34.132813v-54.613281c-.007812-18.855469-15.28125-34.128906-34.136718-34.132813-18.851563.003907-34.125 15.277344-34.132813 34.132813v54.613281c.007813 18.851563 15.28125 34.128906 34.132813 34.132813zm0 0" fill="#54596e"/><path d="m48.238281 402.773438v20.480468c0 3.769532 3.058594 6.824219 6.828125 6.824219 3.769532 0 6.828125-3.054687 6.828125-6.824219v-20.480468c0-3.769532-3.058593-6.828126-6.828125-6.828126-3.769531 0-6.828125 3.058594-6.828125 6.828126" fill="#54596e"/><path d="m253.039062 402.773438v20.480468c0 3.769532 3.058594 6.824219 6.828126 6.824219 3.769531 0 6.824218-3.054687 6.824218-6.824219v-20.480468c0-3.769532-3.054687-6.828126-6.824218-6.828126-3.769532 0-6.828126 3.058594-6.828126 6.828126" fill="#54596e"/><path d="m61.894531 184.320312c0 15.082032-12.226562 27.304688-27.308593 27.304688-15.082032 0-27.304688-12.222656-27.304688-27.304688 0-15.082031 12.222656-27.308593 27.304688-27.308593 15.082031 0 27.308593 12.226562 27.308593 27.308593zm0 0" fill="#ffd578"/><path d="m61.894531 184.320312h6.824219c-.003906-18.855468-15.277344-34.128906-34.132812-34.132812-18.851563.003906-34.128907 15.277344-34.132813 34.132812.003906 18.851563 15.28125 34.128907 34.132813 34.132813 18.855468-.003906 34.128906-15.28125 34.132812-34.132813h-13.652344c-.019531 11.304688-9.171875 20.460938-20.480468 20.480469-11.304688-.019531-20.457032-9.175781-20.480469-20.480469.023437-11.308593 9.175781-20.460937 20.480469-20.480468 11.308593.019531 20.460937 9.171875 20.480468 20.480468zm0 0" fill="#54596e"/><path d="m307.652344 184.320312c0 15.082032-12.226563 27.304688-27.304688 27.304688-15.082031 0-27.308594-12.222656-27.308594-27.304688 0-15.082031 12.226563-27.308593 27.308594-27.308593 15.078125 0 27.304688 12.226562 27.304688 27.308593zm0 0" fill="#ffd578"/><path d="m307.652344 184.320312h6.828125c-.003907-18.855468-15.28125-34.128906-34.132813-34.132812-18.855468.003906-34.128906 15.277344-34.132812 34.132812.003906 18.851563 15.277344 34.128907 34.132812 34.132813 18.851563-.003906 34.128906-15.28125 34.132813-34.132813h-13.652344c-.023437 11.304688-9.175781 20.460938-20.480469 20.480469-11.308594-.019531-20.460937-9.175781-20.480468-20.480469.019531-11.308593 9.171874-20.460937 20.480468-20.480468 11.304688.019531 20.457032 9.171875 20.480469 20.480468zm0 0" fill="#54596e"/><path d="m167.425781 6.828125h-19.917969c-62.367187 0-112.921874 45.132813-112.921874 109.226563v85.332031c0 48.8125 26.988281 91.074219 66.421874 112.097656 0 15.378906 12.132813 27.847656 27.097657 27.847656h58.722656c14.964844 0 27.097656-12.46875 27.097656-27.847656 39.433594-21.023437 66.421875-63.285156 66.421875-112.097656v-85.332031c0-64.09375-50.554687-109.226563-112.921875-109.226563zm0 0" fill="#ffd578"/><g fill="#54596e"><path d="m167.425781 6.828125v-6.828125h-19.917969c-32.832031-.00390625-62.78125 11.898438-84.535156 32.441406-21.765625 20.519532-35.238281 49.753906-35.210937 83.613282v85.332031c.003906 51.363281 28.398437 95.929687 70.03125 118.121093l3.214843-6.023437h-6.828124c0 9.5 3.761718 18.179687 9.871093 24.453125 6.097657 6.28125 14.652344 10.226562 24.054688 10.222656h58.722656c9.398437.003906 17.957031-3.941406 24.054687-10.222656 6.109376-6.273438 9.871094-14.953125 9.871094-24.453125h-6.828125l3.210938 6.023437c41.636719-22.191406 70.03125-66.757812 70.035156-118.121093v-85.332031c.027344-33.855469-13.445313-63.097657-35.210937-83.613282-21.753907-20.542968-51.703126-32.44531225-84.535157-32.441406v13.652344c29.539063.007812 56.046875 10.667968 75.160157 28.71875 19.101562 18.070312 30.910156 43.445312 30.933593 73.683594v85.332031c.003907 46.253906-25.570312 86.21875-62.804687 106.074219-2.230469 1.1875-3.613282 3.496093-3.613282 6.023437-.003906 5.878906-2.308593 11.125-6.003906 14.929687-3.714844 3.800782-8.707031 6.085938-14.269531 6.09375h-58.722656c-5.5625-.007812-10.558594-2.292968-14.269531-6.09375-3.695313-3.804687-6-9.050781-6.003907-14.929687 0-2.527344-1.382812-4.835937-3.613281-6.023437-37.234375-19.855469-62.808594-59.820313-62.804688-106.074219v-85.332031c.023438-30.238282 11.828126-55.613282 30.933594-73.6875 19.113282-18.046876 45.621094-28.710938 75.160156-28.714844h19.921876v-6.824219zm0 0"/><path d="m116.507812 153.601562c0 5.652344-4.585937 10.238282-10.242187 10.238282s-10.238281-4.585938-10.238281-10.238282c0-5.65625 4.582031-10.242187 10.238281-10.242187s10.242187 4.585937 10.242187 10.242187zm0 0"/><path d="m218.90625 153.601562c0 5.652344-4.585938 10.238282-10.238281 10.238282-5.65625 0-10.242188-4.585938-10.242188-10.238282 0-5.65625 4.585938-10.242187 10.242188-10.242187 5.652343 0 10.238281 4.585937 10.238281 10.242187zm0 0"/><path d="m126.386719 251.863281 12.207031-6.105469h37.738281l12.214844 6.105469c3.371094 1.6875 7.472656.320313 9.160156-3.050781 1.6875-3.375.320313-7.472656-3.054687-9.160156l-13.652344-6.828125c-.929688-.460938-2.015625-.71875-3.054688-.71875h-40.964843c-1.082031 0-2.089844.238281-3.054688.722656l-13.648437 6.824219c-3.371094 1.6875-4.738282 5.789062-3.050782 9.160156 1.6875 3.375 5.789063 4.738281 9.160157 3.050781zm0 0"/><path d="m150.640625 327.679688v13.652343c0 3.769531 3.054687 6.828125 6.824219 6.828125 3.773437 0 6.828125-3.058594 6.828125-6.828125v-13.652343c0-3.769532-3.054688-6.828126-6.828125-6.828126-3.769532 0-6.824219 3.058594-6.824219 6.828126"/></g><path d="m142.207031 177.484375c-3.246093 3.625-5.21875 8.414063-5.21875 13.664063 0 11.308593 9.164063 20.476562 20.476563 20.476562 11.316406 0 20.480468-9.167969 20.480468-20.476562 0-5.257813-1.976562-10.054688-5.238281-13.683594" fill="#ff927d"/><path d="m137.121094 172.929688c-4.320313 4.816406-6.964844 11.242187-6.960938 18.21875.003906 15.078124 12.21875 27.300781 27.304688 27.304687 15.085937-.003906 27.304687-12.226563 27.308594-27.304687.003906-6.988282-2.648438-13.425782-6.988282-18.246094-2.519531-2.804688-6.835937-3.03125-9.640625-.511719-2.804687 2.519531-3.035156 6.835937-.511719 9.640625 2.179688 2.433594 3.484376 5.585938 3.488282 9.117188-.011719 7.535156-6.113282 13.636718-13.652344 13.652343-7.539062-.015625-13.640625-6.117187-13.652344-13.652343.003906-3.527344 1.304688-6.671876 3.480469-9.113282 2.511719-2.808594 2.273437-7.125-.535156-9.636718-2.808594-2.515626-7.125-2.277344-9.640625.53125zm0 0" fill="#54596e"/><path d="m191.601562 68.265625 40.957032-42.46875" fill="#ffd578"/><path d="m196.511719 73.007812 40.960937-42.472656c2.617188-2.714844 2.539063-7.035156-.171875-9.652344-2.714843-2.617187-7.035156-2.539062-9.652343.175782l-40.960938 42.46875c-2.617188 2.714844-2.539062 7.035156.171875 9.65625 2.714844 2.617187 7.039063 2.535156 9.652344-.175782" fill="#54596e"/><path d="m184.773438 47.785156 27.304687 20.480469" fill="#ffd578"/><path d="m180.675781 53.246094 27.308594 20.480468c3.015625 2.265626 7.296875 1.652344 9.558594-1.363281 2.257812-3.019531 1.648437-7.296875-1.367188-9.558593l-27.304687-20.480469c-3.015625-2.261719-7.296875-1.648438-9.558594 1.367187s-1.652344 7.296875 1.363281 9.554688" fill="#54596e"/><path d="m198.425781 34.132812 27.308594 20.480469" fill="#ffd578"/><path d="m194.332031 39.59375 27.304688 20.480469c3.015625 2.261719 7.296875 1.652343 9.558593-1.363281 2.261719-3.019532 1.648438-7.296876-1.367187-9.558594l-27.304687-20.480469c-3.015626-2.261719-7.296876-1.648437-9.558594 1.367187-2.261719 3.015626-1.648438 7.292969 1.367187 9.554688" fill="#54596e"/></svg>