<svg height="436pt" viewBox="-54 0 436 436.90667" width="436pt" xmlns="http://www.w3.org/2000/svg"><path d="m270.121094 320.851562h-192.265625c-27.667969 0-50.09375 22.890626-50.09375 51.121094v58.105469h286.71875v-63.957031c0-25-19.859375-45.269532-44.359375-45.269532zm0 0" fill="#999"/><path d="m270.121094 320.851562v-6.824218h-192.265625c-15.738281-.003906-30.035157 6.53125-40.300781 17.019531-10.277344 10.480469-16.625 24.984375-16.621094 40.925781v58.105469c0 1.824219.710937 3.539063 2 4.828125 1.289062 1.289062 3.003906 2 4.828125 2h286.71875c1.820312 0 3.535156-.707031 4.824219-2 1.292968-1.289062 2.003906-3 2.003906-4.824219v-63.960937c0-14.324219-5.707032-27.367188-14.945313-36.789063-9.226562-9.425781-22.089843-15.308593-36.242187-15.304687v13.652344c10.34375.003906 19.660156 4.253906 26.488281 11.210937 6.816406 6.960937 11.039063 16.554687 11.042969 27.230469v57.132812h-273.066406v-51.28125c.003906-12.292968 4.867187-23.347656 12.722656-31.367187 7.867187-8.015625 18.617187-12.921875 30.546875-12.925781h192.265625zm0 0" fill="#54596e"/><path d="m171.121094 395.945312c-15.082032 0-27.308594-12.226562-27.308594-27.304687v-54.613281c0-15.082032 12.226562-27.308594 27.308594-27.308594 15.078125 0 27.304687 12.226562 27.304687 27.308594v54.613281c0 15.078125-12.226562 27.304687-27.304687 27.304687zm0 0" fill="#ffd578"/><path d="m171.121094 395.945312v-6.824218c-11.308594-.023438-20.460938-9.175782-20.480469-20.480469v-54.613281c.019531-11.308594 9.171875-20.460938 20.480469-20.480469 11.304687.019531 20.457031 9.171875 20.480468 20.480469v54.613281c-.023437 11.304687-9.175781 20.457031-20.480468 20.480469v13.652344c18.851562-.003907 34.128906-15.277344 34.132812-34.132813v-54.613281c-.003906-18.855469-15.28125-34.128906-34.132812-34.132813-18.855469.003907-34.128906 15.277344-34.132813 34.132813v54.613281c.003907 18.855469 15.277344 34.128906 34.132813 34.132813zm0 0" fill="#54596e"/><path d="m61.894531 402.773438v20.480468c0 3.769532 3.054688 6.824219 6.824219 6.824219s6.828125-3.054687 6.828125-6.824219v-20.480468c0-3.773438-3.058594-6.828126-6.828125-6.828126s-6.824219 3.058594-6.824219 6.828126" fill="#54596e"/><path d="m266.691406 402.773438v20.480468c0 3.769532 3.058594 6.824219 6.828125 6.824219s6.828125-3.054687 6.828125-6.824219v-20.480468c0-3.773438-3.058594-6.828126-6.828125-6.828126s-6.828125 3.058594-6.828125 6.828126" fill="#54596e"/><path d="m171.121094 334.507812c64.09375 0 116.050781-51.960937 116.050781-116.054687v-96.199219c0-41.125-33.339844-74.46875-74.464844-74.46875h-83.171875c-41.128906 0-74.46875 33.34375-74.46875 74.46875v96.199219c0 64.09375 51.960938 116.054687 116.054688 116.054687zm0 0" fill="#ffd578"/><g fill="#54596e"><path d="m171.121094 334.507812v6.824219c67.863281-.003906 122.875-55.011719 122.878906-122.878906v-96.199219c-.003906-44.898437-36.394531-81.289062-81.292969-81.292968h-83.171875c-44.902344.003906-81.289062 36.394531-81.296875 81.292968v96.199219c.003907 67.867187 55.015625 122.875 122.882813 122.878906v-13.652343c-30.183594-.003907-57.449219-12.214844-77.234375-31.992188-19.777344-19.789062-31.988281-47.050781-31.992188-77.234375v-96.199219c.003907-18.699218 7.558594-35.566406 19.808594-47.828125 12.261719-12.25 29.128906-19.808593 47.832031-19.8125h83.171875c18.699219.003907 35.566407 7.5625 47.828125 19.8125 12.25 12.261719 19.804688 29.128907 19.808594 47.828125v96.199219c-.003906 30.183594-12.214844 57.445313-31.992188 77.234375-19.785156 19.777344-47.050781 31.988281-77.230468 31.992188zm0 0"/><path d="m136.988281 252.585938c0 18.851562 15.277344 34.132812 34.132813 34.132812 18.851562 0 34.132812-15.28125 34.132812-34.132812zm0 0"/><path d="m136.988281 252.585938h-6.828125c.003906 22.621093 18.332032 40.957031 40.960938 40.960937 22.625-.003906 40.953125-18.339844 40.957031-40.960937 0-1.796876-.726563-3.554688-1.996094-4.828126-1.273437-1.269531-3.03125-1.996093-4.828125-1.996093h-68.265625c-1.796875 0-3.558593.726562-4.828125 1.996093-1.273437 1.273438-2 3.03125-2 4.828126h6.828125v6.828124h68.265625v-6.828124h-6.828125c-.003906 7.5625-3.042969 14.34375-7.996093 19.308593-4.964844 4.949219-11.746094 7.992188-19.308594 8-7.566406-.007812-14.347656-3.046875-19.308594-8-4.953125-4.964843-7.996094-11.75-8-19.308593h-6.824219v6.828124zm0 0"/><path d="m136.988281 174.078125c0 5.65625-4.585937 10.242187-10.242187 10.242187s-10.238282-4.585937-10.238282-10.242187c0-5.652344 4.582032-10.238281 10.238282-10.238281s10.242187 4.585937 10.242187 10.238281zm0 0"/><path d="m225.734375 174.078125c0 5.65625-4.585937 10.242187-10.242187 10.242187-5.652344 0-10.238282-4.585937-10.238282-10.242187 0-5.652344 4.585938-10.238281 10.238282-10.238281 5.65625 0 10.242187 4.585937 10.242187 10.238281zm0 0"/></g><path d="m157.464844 266.238281h27.308594v-13.652343h-27.308594" fill="#fff"/><path d="m201.746094 6.828125h-74.90625c-57.8125 0-106.039063 41.039063-117.148438 95.570313l-2.410156 23.988281v204.707031c0 5.65625 4.585938 10.238281 10.238281 10.238281 5.652344 0 10.242188-4.582031 10.242188-10.238281v-20.480469c0 5.65625 4.585937 10.238281 10.238281 10.238281s10.238281-4.582031 10.238281-10.238281v54.613281c0 5.65625 4.589844 10.238282 10.242188 10.238282 5.652343 0 10.238281-4.582032 10.238281-10.238282v-192.160156c0-34.125 37.207031-55.214844 66.488281-37.683594l124.660157 74.636719v121.074219c0 5.65625 4.585937 10.238281 10.238281 10.238281 5.652343 0 10.242187-4.582031 10.242187-10.238281v-20.480469c0 5.65625 4.585938 10.238281 10.238282 10.238281 5.652343 0 10.242187-4.582031 10.242187-10.238281v54.613281c0 5.65625 4.585937 10.238282 10.238281 10.238282s10.242188-4.582032 10.242188-10.238282v-238.839843c0-66.027344-53.527344-119.558594-119.5625-119.558594zm0 0" fill="#bfad88"/><path d="m201.746094 6.828125v-6.828125h-74.90625c-61.117188.0117188-112.089844 43.363281-123.835938 101.035156l-.101562.679688-2.414063 23.988281-.035156.683594v204.707031c.003906 9.429688 7.640625 17.0625 17.066406 17.066406 9.425781-.003906 17.0625-7.636718 17.066407-17.066406v-20.480469c0-1.796875-.726563-3.558593-1.996094-4.828125-1.273438-1.269531-3.03125-2-4.828125-2-1.800781 0-3.558594.730469-4.828125 2-1.273438 1.269532-2 3.03125-2 4.828125.003906 9.429688 7.640625 17.0625 17.066406 17.066407 9.425781-.003907 17.0625-7.636719 17.066406-17.066407 0-1.796875-.726562-3.558593-2-4.828125-1.269531-1.269531-3.027344-2-4.828125-2-1.796875 0-3.554687.730469-4.828125 2-1.269531 1.269532-1.996094 3.03125-1.996094 4.828125v54.613281c.003907 9.429688 7.640626 17.0625 17.066407 17.066407 9.425781-.003907 17.0625-7.636719 17.066406-17.066407v-192.160156c.015625-10.953125 4.421875-20.085937 11.300781-26.699218 6.882813-6.59375 16.242188-10.476563 25.875-10.46875 6.335938.003906 12.792969 1.636718 18.976563 5.335937l121.339843 72.65625v117.203125c.007813 9.429688 7.640626 17.0625 17.066407 17.066406 9.425781-.003906 17.0625-7.636718 17.066406-17.066406v-20.480469c0-1.796875-.726563-3.558593-1.996094-4.828125-1.273437-1.269531-3.03125-2-4.828125-2s-3.558594.730469-4.828125 2c-1.273437 1.269532-2 3.03125-2 4.828125.003907 9.429688 7.640625 17.0625 17.066407 17.066407 9.425781-.003907 17.0625-7.636719 17.066406-17.066407 0-1.796875-.726563-3.558593-1.996094-4.828125-1.273438-1.269531-3.03125-2-4.828125-2s-3.558594.730469-4.828125 2c-1.273438 1.269532-2 3.03125-2 4.828125v54.613281c.003906 9.429688 7.640625 17.0625 17.066406 17.066407 9.425782-.003907 17.0625-7.636719 17.066406-17.066407v-238.839843c-.003906-69.800781-56.578124-126.38281275-126.386718-126.386719v13.652344c31.15625.007812 59.292968 12.609375 79.714844 33.023437 20.414062 20.421875 33.015624 48.5625 33.019531 79.714844v238.835937c-.003907 1.882813-1.53125 3.410157-3.410157 3.414063-1.882812-.003906-3.410156-1.53125-3.414062-3.414063v-54.613281c0-1.796875-.730469-3.558593-2-4.828125-1.273438-1.269531-3.03125-2-4.828125-2s-3.558594.730469-4.828125 2c-1.273438 1.269532-2 3.03125-2 4.828125-.003906 1.882813-1.53125 3.410157-3.414062 3.414063-1.878907-.003906-3.410157-1.53125-3.414063-3.414063 0-1.796875-.726563-3.558593-1.996094-4.828125-1.273437-1.269531-3.03125-2-4.828125-2s-3.558594.730469-4.828125 2c-1.273437 1.269532-2 3.03125-2 4.828125v20.480469c-.003906 1.882812-1.53125 3.40625-3.414062 3.414062-1.878907-.007812-3.410157-1.53125-3.414063-3.414062v-121.074219c0-2.394531-1.261718-4.628906-3.316406-5.859375l-124.660156-74.636718c-8.292969-4.972657-17.28125-7.285157-25.992188-7.277344-13.285156.003906-25.925781 5.277344-35.316406 14.257812-9.394531 8.960938-15.53125 21.820313-15.511719 36.5625v192.160156c-.003906 1.882813-1.535156 3.410157-3.414062 3.414063-1.882813-.003906-3.410157-1.53125-3.414063-3.414063v-54.613281c0-1.796875-.726562-3.558593-2-4.828125-1.269531-1.269531-3.027344-2-4.828125-2-1.796875 0-3.554687.730469-4.828125 2-1.269531 1.269532-1.996094 3.03125-1.996094 4.828125-.003906 1.882813-1.535156 3.410157-3.414062 3.414063-1.878906-.003906-3.410156-1.53125-3.414062-3.414063 0-1.796875-.726563-3.558593-1.996094-4.828125-1.273438-1.269531-3.03125-2-4.828125-2-1.800781 0-3.558594.730469-4.828125 2-1.273438 1.269532-2 3.03125-2 4.828125v20.480469c-.003906 1.882812-1.53125 3.40625-3.414063 3.414062-1.878906-.007812-3.410156-1.53125-3.414062-3.414062v-204.363281l2.378906-23.644531-6.792969-.683594 6.691406 1.359375c10.46875-51.394531 55.949219-90.121094 110.457032-90.109375h74.90625zm0 0" fill="#54596e"/><path d="m294 136.535156v40.957032c0 7.542968-6.113281 13.65625-13.652344 13.65625-7.542968 0-13.65625-6.113282-13.65625-13.65625v-88.746094" fill="#bfad88"/><path d="m287.171875 136.535156v40.957032c-.003906 3.765624-3.058594 6.820312-6.824219 6.828124-3.769531-.007812-6.820312-3.0625-6.828125-6.828124v-88.746094c0-3.769532-3.054687-6.824219-6.828125-6.824219-3.769531 0-6.824218 3.054687-6.824218 6.824219v88.746094c.003906 11.316406 9.164062 20.476562 20.480468 20.480468 11.3125-.003906 20.472656-9.164062 20.480469-20.480468v-40.957032c0-3.773437-3.058594-6.828125-6.828125-6.828125s-6.828125 3.054688-6.828125 6.828125zm0 0" fill="#54596e"/><path d="m61.894531 204.800781c-.007812 3.765625-3.0625 6.816407-6.828125 6.824219-3.765625-.007812-6.820312-3.058594-6.828125-6.824219v-40.960937c0-3.773438-3.054687-6.828125-6.824219-6.828125-3.769531 0-6.828124 3.054687-6.828124 6.828125v40.960937c.003906 11.3125 9.167968 20.472657 20.480468 20.476563 11.3125-.003906 20.476563-9.164063 20.480469-20.476563 0-3.773437-3.058594-6.828125-6.828125-6.828125s-6.824219 3.058594-6.824219 6.828125zm0 0" fill="#54596e"/></svg>