<svg height="437pt" viewBox="-34 0 437 437.11488" width="437pt" xmlns="http://www.w3.org/2000/svg"><path d="m150.242188 286.851562h68.265624v81.917969h-68.265624zm0 0" fill="#ffd578"/><path d="m218.507812 368.769531v-6.824219h-61.4375v-68.269531h54.613282v75.09375h6.824218v-6.824219 6.824219h6.828126v-81.917969c0-1.800781-.730469-3.554687-2-4.828124-1.269532-1.273438-3.027344-2-4.824219-2h-68.269531c-1.796876 0-3.554688.726562-4.828126 2-1.269531 1.269531-1.996093 3.027343-1.996093 4.828124v81.917969c0 1.800781.726562 3.558594 2 4.828125 1.269531 1.273438 3.027343 2 4.824219 2h68.269531c1.796875 0 3.554687-.726562 4.824219-2 1.273437-1.269531 2-3.027344 2-4.828125zm0 0" fill="#54596e"/><path d="m309.0625 320.984375h-49.867188l-74.820312 54.613281-74.820312-54.613281h-43.039063c-32.933594 0-59.632813 22.886719-59.632813 51.117187v58.109376h354.988282v-63.960938c-.003906-25-23.648438-45.265625-52.808594-45.265625zm0 0" fill="#8065c4"/><path d="m309.0625 320.984375v-6.828125h-49.867188c-1.457031 0-2.847656.453125-4.023437 1.3125l-70.796875 51.675781-70.792969-51.675781c-1.179687-.859375-2.566406-1.3125-4.023437-1.3125h-43.042969c-18.050781.003906-34.511719 6.257812-46.609375 16.613281-12.082031 10.328125-19.8554688 25.007813-19.8476562 41.328125v58.113282c0 1.796874.7265622 3.554687 2.0000002 4.824218 1.269531 1.273438 3.027344 2 4.824218 2h354.988282c1.796875 0 3.554687-.726562 4.824218-2 1.273438-1.269531 2.003907-3.027344 2.003907-4.824218v-63.960938c.007812-14.703125-7.007813-27.921875-17.851563-37.191406-10.863281-9.300782-25.617187-14.898438-41.78125-14.902344v13.65625c12.992188-.007812 24.640625 4.53125 32.894532 11.613281 8.265624 7.117188 13.078124 16.53125 13.085937 26.828125v57.128906h-341.335937v-51.28125c.007812-11.910156 5.582031-22.785156 15.082031-30.960937 9.488281-8.144531 22.839843-13.335937 37.722656-13.328125h40.8125l73.023437 53.300781c2.398438 1.75 5.652344 1.75 8.050782 0l73.019531-53.300781h47.640625zm0 0" fill="#54596e"/><path d="m122.9375 330.75v99.460938h122.878906v-99.464844l-61.441406 44.851562zm0 0" fill="#a1b7ff"/><path d="m122.9375 330.75h-6.828125v99.460938c0 1.796874.726563 3.554687 2 4.824218 1.269531 1.273438 3.027344 2 4.828125 2h122.878906c1.796875 0 3.554688-.726562 4.824219-2 1.273437-1.269531 2-3.027344 2-4.824218v-99.464844c0-2.570313-1.441406-4.921875-3.730469-6.085938-2.292968-1.164062-5.046875-.941406-7.121094.574219l-57.414062 41.910156-57.414062-41.910156c-2.074219-1.515625-4.824219-1.734375-7.117188-.570313-2.289062 1.164063-3.734375 3.519532-3.734375 6.085938h6.828125l-4.027344 5.511719 61.441406 44.847656c2.398438 1.75 5.652344 1.75 8.050782 0l50.585937-36.925781v79.199218h-109.226562v-92.632812h-6.824219l-4.027344 5.511719zm0 0" fill="#54596e"/><path d="m150.242188 375.597656-34.132813 13.652344-13.652344-68.265625h47.785157zm0 0" fill="#a1b7ff"/><path d="m150.242188 375.597656-2.535157-6.339844-26.515625 10.605469-10.410156-52.050781h32.632812v47.785156h6.828126l-2.535157-6.339844 2.535157 6.339844h6.828124v-54.613281c0-1.796875-.730468-3.554687-2-4.828125-1.273437-1.269531-3.03125-2-4.828124-2h-47.785157c-2.050781 0-3.980469.914062-5.28125 2.5s-1.816406 3.65625-1.414062 5.667969l13.652343 68.265625c.394532 1.984375 1.660157 3.699218 3.441407 4.664062 1.78125.960938 3.90625 1.085938 5.789062.335938l34.132813-13.65625c2.582031-1.03125 4.292968-3.554688 4.292968-6.335938zm0 0" fill="#54596e"/><path d="m218.507812 375.597656 34.132813 13.652344 13.65625-68.265625h-47.789063zm0 0" fill="#a1b7ff"/><path d="m218.507812 375.597656-2.535156 6.339844 34.132813 13.652344c1.878906.75 4.007812.628906 5.789062-.335938 1.777344-.964844 3.042969-2.679687 3.441407-4.664062l13.652343-68.265625c.402344-2.007813-.113281-4.082031-1.414062-5.664063-1.296875-1.585937-3.230469-2.5-5.277344-2.5h-47.789063c-1.796874 0-3.554687.726563-4.828124 2-1.269532 1.269532-1.996094 3.027344-1.996094 4.828125v54.613281c0 2.78125 1.707031 5.300782 4.289062 6.335938l2.535156-6.339844h6.828126v-47.789062h32.632812l-10.410156 52.054687-26.511719-10.605469-2.539063 6.339844h6.828126zm0 0" fill="#54596e"/><path d="m163.890625 430.289062h40.957031l-9.105468-61.519531h-22.753907zm0 0" fill="#fff"/><path d="m163.890625 430.289062v6.824219h40.957031c1.976563 0 3.878906-.867187 5.167969-2.367187 1.292969-1.496094 1.875-3.503906 1.585937-5.457032l-9.109374-61.519531c-.492188-3.339843-3.371094-5.824219-6.75-5.824219h-22.753907c-3.378906 0-6.257812 2.484376-6.753906 5.828126l-9.101563 61.515624c-.289062 1.953126.292969 3.964844 1.585938 5.460938s3.195312 2.363281 5.167969 2.363281v-6.824219l6.753906.996094 8.238281-55.6875h10.972656l7.082032 47.863282h-33.046875v6.828124l6.753906.996094zm0 0" fill="#54596e"/><path d="m314.082031 184.453125v-61.734375c0-34.429688-29.460937-63.421875-69.558593-72.128906-23.554688-5.117188-45.832032-14.910156-66.5625-27.203125l-27.71875-16.429688s-16.917969 17.476563-30.820313 32.496094c-2.21875 2.394531-76.140625-35.089844-78.40625-32.496094-21.726563 24.882813 13.652344 97.648438 13.652344 115.761719v61.734375" fill="#fff"/><path d="m320.910156 184.453125v-61.734375c.007813-19.203125-8.273437-36.808594-21.691406-50.484375-13.4375-13.707031-32.007812-23.695313-53.246094-28.316406-22.65625-4.917969-44.277344-14.394531-64.527344-26.402344l-27.722656-16.429687c-2.714844-1.609376-6.191406-1.1406255-8.386718 1.125-.015626.019531-16.949219 17.507812-30.921876 32.601562l.015626-.015625 4.761718 4.4375-1.644531-6.308594c-.71875.195313-1.925781.617188-3.117187 1.871094l4.761718 4.4375-1.644531-6.308594 1.464844 5.628907v-5.820313c-.285157.003906-.714844.003906-1.464844.191406l1.464844 5.628907v-5.820313 3.113281l.628906-3.066406-.628906-.046875v3.117187l.628906-3.070312c-.242187-.023438-2.195313-.644531-4.589844-1.613281-8.640625-3.421875-25.101562-11.109375-39.929687-17.890625-7.433594-3.398438-14.488282-6.582032-20.125-8.953125-2.828125-1.1875-5.289063-2.171875-7.359375-2.90625-1.042969-.367188-1.980469-.675781-2.902344-.921875-.957031-.234375-1.75-.4687502-3.257813-.496094-.554687.00390625-1.21875.0351562-2.164062.296875-.914062.265625-2.269531.820313-3.488281 2.230469l5.191406 4.429687-5.140625-4.488281c-6.71875 7.78125-8.722656 17.992188-8.742188 28.621094.039063 17.386718 5.4375 37.171875 10.644532 54.554687 2.613281 8.667969 5.199218 16.699219 7.09375 23.285157.949218 3.289062 1.71875 6.214843 2.230468 8.609374.519532 2.382813.75 4.28125.742188 5.179688v61.734375c0 3.769531 3.054688 6.824219 6.824219 6.824219s6.828125-3.054688 6.828125-6.824219v-61.734375c-.011719-2.566406-.429688-5.136719-1.042969-8.039062-2.164063-10.019532-7.109375-24.148438-11.511719-39.4375-4.410156-15.203126-8.183594-31.449219-8.15625-44.152344-.023437-8.972656 1.882813-15.730469 5.371094-19.640625l.050781-.058594-4.921875-4.207031 1.78125 6.238281c.757813-.222656 1.996094-.710937 3.144532-2.03125l-4.925782-4.207031 1.78125 6.238281-1.585937-5.550781v5.78125c.320312-.003906.792969-.011719 1.585937-.230469l-1.589844-5.550781v5.78125-2.832032l-.554687 2.796876.554687.035156v-2.832032l-.554687 2.796876c.285156.03125 2.253906.648437 4.675781 1.613281 8.726563 3.417969 25.226563 11.101562 40.023438 17.882812 7.421875 3.394531 14.441406 6.578125 20.03125 8.945313 2.800781 1.1875 5.234375 2.167968 7.269531 2.902344 1.023437.367187 1.941406.671874 2.84375.917968.941406.234375 1.695313.476563 3.25.507813.484375-.003907 1.082031-.023438 1.972656-.246094.855469-.230469 2.167969-.703125 3.429688-2.03125l.015625-.019531c6.910156-7.464844 14.597656-15.570313 20.550781-21.800782 5.949219-6.230468 10.15625-10.570312 10.164063-10.582031l-4.90625-4.75-3.480469 5.875 27.71875 16.429688c21.199219 12.566406 44.140625 22.6875 68.589843 28 18.859376 4.085937 35.070313 12.949219 46.390626 24.523437 11.332031 11.605469 17.78125 25.707032 17.792968 40.933594v61.734375c0 3.769531 3.058594 6.824219 6.828125 6.824219s6.828125-3.054688 6.828125-6.824219zm0 0" fill="#54596e"/><path d="m88.800781 184.453125c0 15.078125-12.222656 27.304687-27.304687 27.304687-15.082032 0-27.308594-12.226562-27.308594-27.304687 0-15.082031 12.226562-27.308594 27.308594-27.308594 15.082031 0 27.304687 12.226563 27.304687 27.308594zm0 0" fill="#ffd578"/><path d="m88.800781 184.453125h6.828125c-.003906-18.855469-15.28125-34.132813-34.132812-34.136719-18.855469.003906-34.128906 15.28125-34.132813 34.136719.003907 18.851563 15.277344 34.125 34.132813 34.132813 18.851562-.003907 34.128906-15.28125 34.132812-34.132813h-13.652344c-.019531 11.304687-9.175781 20.457031-20.480468 20.476563-11.308594-.019532-20.460938-9.171876-20.480469-20.476563.019531-11.308594 9.171875-20.460937 20.480469-20.480469 11.304687.019532 20.460937 9.171875 20.480468 20.480469zm0 0" fill="#54596e"/><path d="m334.5625 184.453125c0 15.078125-12.226562 27.304687-27.308594 27.304687-15.078125 0-27.304687-12.226562-27.304687-27.304687 0-15.082031 12.226562-27.308594 27.304687-27.308594 15.082032 0 27.308594 12.226563 27.308594 27.308594zm0 0" fill="#ffd578"/><path d="m334.5625 184.453125h6.828125c-.007813-18.855469-15.28125-34.132813-34.136719-34.136719-18.851562.003906-34.125 15.28125-34.132812 34.136719.007812 18.851563 15.28125 34.125 34.132812 34.132813 18.855469-.003907 34.128906-15.28125 34.136719-34.132813h-13.65625c-.019531 11.304687-9.171875 20.457031-20.480469 20.476563-11.304687-.019532-20.457031-9.171876-20.476562-20.476563.019531-11.308594 9.171875-20.460937 20.476562-20.480469 11.308594.019532 20.460938 9.171875 20.480469 20.480469zm0 0" fill="#54596e"/><path d="m194.335938 116.183594h-19.921876c-62.363281 0-112.917968-29.960938-112.917968 34.132812v51.203125c0 48.808594 26.984375 91.070313 66.417968 112.097657 0 15.378906 12.132813 27.847656 27.101563 27.847656h58.71875c14.96875 0 27.101563-12.472656 27.101563-27.847656 39.433593-21.027344 66.417968-63.289063 66.417968-112.097657v-51.203125c0-64.09375-50.550781-34.132812-112.917968-34.132812zm0 0" fill="#ffd578"/><g fill="#54596e"><path d="m194.335938 116.183594v-6.824219h-19.921876c-14.539062 0-28.601562-1.695313-41.683593-3.441406-13.097657-1.734375-25.175781-3.542969-36.074219-3.554688-5.832031.003907-11.359375.519531-16.554688 2.042969-7.777343 2.203125-14.835937 7.175781-19.144531 14.996094-4.347656 7.796875-6.273437 17.820312-6.289062 30.914062v51.203125c.007812 51.363281 28.402343 95.925781 70.035156 118.117188l3.210937-6.019531h-6.824218c-.003906 9.496093 3.757812 18.175781 9.871094 24.453124 6.097656 6.277344 14.652343 10.226563 24.054687 10.222657h58.71875c9.402344.003906 17.957031-3.945313 24.054687-10.222657 6.113282-6.277343 9.875-14.953124 9.875-24.453124h-6.828124l3.210937 6.019531c41.636719-22.191407 70.03125-66.753907 70.035156-118.117188v-51.203125c-.003906-8.742187-.875-16.078125-2.730469-22.34375-2.703124-9.363281-8.078124-16.441406-15.242187-20.4375-7.128906-4.027344-15.296875-5.15625-24.015625-5.171875-10.898438.011719-22.976562 1.820313-36.074219 3.554688-13.082031 1.742187-27.144531 3.441406-41.683593 3.441406v13.652344c15.59375-.003907 30.285156-1.800781 43.484374-3.558594 13.1875-1.761719 24.925782-3.449219 34.273438-3.4375 4.996094-.003906 9.277344.476563 12.707031 1.492187 5.15625 1.601563 8.363281 3.890626 11.089844 8.585938 2.683594 4.722656 4.554687 12.472656 4.539063 24.226562v51.199219c.003906 46.257813-25.574219 86.21875-62.804688 106.074219-2.230469 1.1875-3.617188 3.496094-3.617188 6.023438 0 5.878906-2.304687 11.125-6.003906 14.929687-3.710937 3.800781-8.703125 6.085937-14.269531 6.09375h-58.71875c-5.5625-.007813-10.558594-2.292969-14.269531-6.09375-3.695313-3.804687-6-9.050781-6.003906-14.929687 0-2.527344-1.386719-4.835938-3.613282-6.023438-37.234375-19.855469-62.808594-59.816406-62.804687-106.074219v-51.199219c-.003907-7.820312.808593-13.90625 2.164062-18.460937 2.113281-6.863281 4.96875-10.144531 8.898438-12.457031 3.960937-2.28125 9.746093-3.398438 17.269531-3.386719 9.351562-.011719 21.085938 1.675781 34.273438 3.441406 13.199218 1.753907 27.890624 3.554688 43.488281 3.554688h19.917969zm0 0"/><path d="m129.761719 143.492188c-22.621094 0-40.960938 3.054687-40.960938 6.824218v32.859375c0 12.015625 11.6875 21.753907 26.109375 21.753907h29.707032c14.417968 0 26.105468-9.738282 26.105468-21.753907v-32.859375c0-3.769531-18.339844-6.824218-40.960937-6.824218zm0 0"/><path d="m238.988281 143.492188c-22.621093 0-40.960937 3.054687-40.960937 6.824218v32.859375c0 12.015625 11.6875 21.753907 26.109375 21.753907h29.707031c14.417969 0 26.105469-9.738282 26.105469-21.753907v-32.859375c0-3.769531-18.339844-6.824218-40.960938-6.824218zm0 0"/><path d="m153.296875 251.996094 12.203125-6.105469h37.742188l12.214843 6.105469c3.371094 1.6875 7.46875.320312 9.160157-3.054688 1.683593-3.371094.316406-7.472656-3.054688-9.15625l-13.652344-6.828125c-.929687-.464843-2.015625-.71875-3.054687-.71875h-40.964844c-1.082031 0-2.089844.234375-3.058594.71875l-13.644531 6.828125c-3.371094 1.683594-4.738281 5.785156-3.050781 9.15625 1.6875 3.375 5.789062 4.742188 9.160156 3.054688zm0 0"/><path d="m68.324219 170.796875h232.105469c3.769531 0 6.824218-3.054687 6.824218-6.824219 0-3.769531-3.054687-6.828125-6.824218-6.828125h-232.105469c-3.773438 0-6.828125 3.058594-6.828125 6.828125 0 3.769532 3.054687 6.824219 6.828125 6.824219"/><path d="m177.550781 327.8125v13.652344c0 3.769531 3.054688 6.828125 6.824219 6.828125s6.828125-3.058594 6.828125-6.828125v-13.652344c0-3.769531-3.058594-6.828125-6.828125-6.828125s-6.824219 3.054687-6.824219 6.828125"/></g><path d="m95.628906 68.398438 30.71875-36.375" fill="#999"/><path d="m100.84375 72.800781 30.722656-36.371093c2.429688-2.882813 2.070313-7.1875-.8125-9.621094-2.878906-2.433594-7.1875-2.070313-9.621094.808594l-30.71875 36.375c-2.433593 2.878906-2.070312 7.1875.808594 9.621093 2.882813 2.433594 7.1875 2.070313 9.621094-.8125" fill="#54596e"/></svg>