<svg height="430pt" viewBox="-51 0 430 430.08" width="430pt" xmlns="http://www.w3.org/2000/svg"><path d="m268.082031 327.679688h-201.578125c-32.9375 0-59.636718 22.886718-59.636718 51.117187v44.457031h314.027343v-50.308594c0-25-23.644531-45.265624-52.8125-45.265624zm0 0" fill="#ffb8f2"/><path d="m268.082031 327.679688v-6.828126h-201.578125c-18.054687.007813-34.515625 6.257813-46.613281 16.617188-12.082031 10.324219-19.859375 25.007812-19.8515625 41.328125v44.457031c0 1.796875.7304685 3.554688 1.9999995 4.824219 1.273438 1.273437 3.03125 2 4.828126 2h314.027343c1.796875 0 3.554688-.726563 4.824219-1.996094 1.273438-1.273437 2-3.03125 2-4.828125v-50.304687c.011719-14.707031-7-27.925781-17.851562-37.191407-10.859376-9.304687-25.617188-14.898437-41.785157-14.902343v13.652343c13-.007812 24.648438 4.53125 32.898438 11.613282 8.265625 7.117187 13.074219 16.53125 13.085937 26.828125v43.476562h-300.375v-37.628906c.011719-11.910156 5.585938-22.785156 15.085938-30.960937 9.488281-8.144532 22.84375-13.335938 37.726562-13.328126h201.578125zm0 0" fill="#54596e"/><path d="m293.585938 163.839844c0 15.082031-12.226563 27.308594-27.304688 27.308594-15.082031 0-27.308594-12.226563-27.308594-27.308594 0-15.082032 12.226563-27.304688 27.308594-27.304688 15.078125 0 27.304688 12.222656 27.304688 27.304688zm0 0" fill="#ffd578"/><path d="m293.585938 163.839844h6.828124c-.003906-18.851563-15.28125-34.128906-34.132812-34.132813-18.855469.003907-34.128906 15.28125-34.132812 34.132813.003906 18.855468 15.277343 34.128906 34.132812 34.132812 18.851562-.003906 34.128906-15.277344 34.132812-34.132812h-13.652343c-.023438 11.308594-9.175781 20.460937-20.480469 20.480468-11.308594-.019531-20.460938-9.171874-20.480469-20.480468.019531-11.304688 9.171875-20.460938 20.480469-20.480469 11.304688.019531 20.457031 9.175781 20.480469 20.480469zm0 0" fill="#54596e"/><path d="m88.785156 163.839844c0 15.082031-12.222656 27.308594-27.304687 27.308594s-27.308594-12.226563-27.308594-27.308594c0-15.082032 12.226563-27.304688 27.308594-27.304688s27.304687 12.222656 27.304687 27.304688zm0 0" fill="#ffd578"/><path d="m88.785156 163.839844h6.828125c-.003906-18.851563-15.28125-34.128906-34.132812-34.132813-18.855469.003907-34.128907 15.28125-34.132813 34.132813.003906 18.855468 15.277344 34.128906 34.132813 34.132812 18.851562-.003906 34.128906-15.277344 34.132812-34.132812h-13.652343c-.019532 11.308594-9.175782 20.460937-20.480469 20.480468-11.308594-.019531-20.460938-9.171874-20.480469-20.480468.019531-11.304688 9.171875-20.460938 20.480469-20.480469 11.304687.019531 20.460937 9.175781 20.480469 20.480469zm0 0" fill="#54596e"/><path d="m163.878906 375.464844c-15.078125 0-27.304687-12.226563-27.304687-27.304688v-68.265625h54.613281v68.265625c0 15.078125-12.226562 27.304688-27.308594 27.304688zm0 0" fill="#ffd578"/><path d="m163.878906 375.464844v-6.824219c-11.304687-.019531-20.457031-9.175781-20.480468-20.480469v-61.441406h40.960937v61.441406c-.019531 11.304688-9.171875 20.460938-20.480469 20.480469v13.652344c18.855469-.003907 34.128906-15.28125 34.132813-34.132813v-68.265625c0-1.800781-.726563-3.558593-2-4.828125-1.269531-1.273437-3.027344-2-4.824219-2h-54.613281c-1.796875 0-3.558594.726563-4.828125 2-1.269532 1.269532-2 3.027344-2 4.828125v68.265625c.003906 18.851563 15.28125 34.128906 34.132812 34.132813zm0 0" fill="#54596e"/><path d="m163.878906 307.199219c-56.550781 0-102.398437-66.324219-102.398437-122.878907v-150.1875l204.800781 68.265626v81.921874c0 56.554688-45.847656 122.878907-102.402344 122.878907zm0 0" fill="#ffd578"/><g fill="#54596e"><path d="m163.878906 307.199219v-6.824219c-12.789062-.003906-25.050781-3.734375-36.433594-10.328125-17.058593-9.867187-31.980468-26.269531-42.503906-45.300781-10.542968-19.015625-16.652344-40.601563-16.632812-60.425782v-140.714843l191.144531 63.714843v77c.046875 26.4375-10.898437 55.984376-28.539063 78.4375-8.800781 11.234376-19.230468 20.703126-30.597656 27.289063-11.382812 6.589844-23.644531 10.324219-36.433594 10.328125v13.652344c15.484376.003906 30.160157-4.554688 43.28125-12.167969 19.695313-11.4375 36.042969-29.644531 47.601563-50.5 11.539063-20.871094 18.324219-44.449219 18.339844-67.039063v-81.921874c0-2.949219-1.871094-5.542969-4.667969-6.476563l-204.796875-68.265625c-2.082031-.691406-4.375-.34375-6.152344.9375-1.777343 1.28125-2.835937 3.347656-2.835937 5.539062v150.1875c.046875 30.117188 12.027344 62.007813 31.445312 86.855469 9.730469 12.414063 21.367188 23.066407 34.5 30.683594 13.117188 7.609375 27.796875 12.167969 43.28125 12.164063zm0 0"/><path d="m116.09375 153.601562c0 5.652344-4.585938 10.238282-10.242188 10.238282-5.652343 0-10.238281-4.585938-10.238281-10.238282 0-5.65625 4.585938-10.242187 10.238281-10.242187 5.65625 0 10.242188 4.585937 10.242188 10.242187zm0 0"/><path d="m232.148438 153.601562c0 5.652344-4.585938 10.238282-10.242188 10.238282s-10.238281-4.585938-10.238281-10.238282c0-5.65625 4.582031-10.242187 10.238281-10.242187s10.242188 4.585937 10.242188 10.242187zm0 0"/><path d="m170.707031 423.253906v-20.480468c0-3.769532-3.058593-6.828126-6.828125-6.828126-3.769531 0-6.824218 3.058594-6.824218 6.828126v20.480468c0 3.769532 3.054687 6.824219 6.824218 6.824219 3.769532 0 6.828125-3.054687 6.828125-6.824219"/></g><path d="m157.054688 232.105469h13.652343c7.539063 0 13.652344-6.113281 13.652344-13.652344s-6.113281-13.652344-13.652344-13.652344h-13.652343c-7.542969 0-13.65625 6.113281-13.65625 13.652344s6.113281 13.652344 13.65625 13.652344" fill="#ff927d"/><path d="m136.574219 218.453125h54.613281c3.769531 0 6.824219-3.054687 6.824219-6.828125 0-3.769531-3.054688-6.824219-6.824219-6.824219h-54.613281c-3.769531 0-6.828125 3.054688-6.828125 6.824219 0 3.773438 3.058594 6.828125 6.828125 6.828125" fill="#ff927d"/><path d="m41 191.148438v20.476562c0 3.773438 3.058594 6.828125 6.828125 6.828125s6.824219-3.054687 6.824219-6.828125v-20.476562c0-3.773438-3.054688-6.828126-6.824219-6.828126s-6.828125 3.054688-6.828125 6.828126" fill="#f4a14e"/><path d="m273.105469 191.148438v20.476562c0 3.773438 3.058593 6.828125 6.828125 6.828125 3.769531 0 6.828125-3.054687 6.828125-6.828125v-20.476562c0-3.773438-3.058594-6.828126-6.828125-6.828126-3.769532 0-6.828125 3.054688-6.828125 6.828126" fill="#f4a14e"/><path d="m6.867188 395.945312h20.480468c15.078125 0 27.304688 12.226563 27.304688 27.308594h-47.785156zm0 0" fill="#ffd578"/><path d="m6.867188 395.945312v6.828126h20.480468c11.304688.019531 20.457032 9.171874 20.480469 20.480468h6.824219v-6.828125h-40.960938v-20.480469h-6.824218v6.828126-6.828126h-6.8281255v27.308594c0 1.796875.7304685 3.554688 1.9999995 4.824219 1.273438 1.273437 3.03125 2 4.828126 2h47.785156c1.796875 0 3.554687-.726563 4.828125-1.996094 1.269531-1.273437 2-3.03125 2-4.828125-.003907-18.855468-15.28125-34.128906-34.132813-34.132812h-20.480468c-1.796876 0-3.558594.726562-4.828126 1.996094-1.269531 1.273437-1.9999995 3.03125-1.9999995 4.828124zm0 0" fill="#54596e"/><path d="m300.414062 395.945312h20.480469v27.308594h-47.789062c0-15.082031 12.226562-27.308594 27.308593-27.308594zm0 0" fill="#ffd578"/><path d="m300.414062 395.945312v6.828126h13.652344v13.652343h-40.960937v6.828125h6.828125c.019531-11.308594 9.171875-20.460937 20.480468-20.480468v-13.652344c-18.855468.003906-34.128906 15.277344-34.132812 34.132812 0 1.796875.726562 3.554688 2 4.824219 1.269531 1.273437 3.027344 2 4.824219 2h47.789062c1.796875 0 3.554688-.726563 4.824219-2 1.273438-1.269531 2-3.027344 2-4.824219v-27.308594c0-1.796874-.726562-3.554687-2-4.828124-1.269531-1.269532-3.027344-1.996094-4.824219-1.996094h-20.480469zm0 0" fill="#54596e"/><path d="m184.359375 6.828125h-157.011719v20.480469c0 45.242187 36.675782 81.917968 81.917969 81.917968h157.015625v-20.480468c0-45.242188-36.675781-81.917969-81.921875-81.917969zm0 0" fill="#61c5a8"/><path d="m184.359375 6.828125v-6.828125h-157.011719c-1.796875 0-3.558594.726562-4.828125 2-1.269531 1.269531-2 3.027344-2 4.828125v20.480469c.003907 49.011718 39.730469 88.738281 88.746094 88.746094h157.015625c1.796875 0 3.554688-.726563 4.824219-2 1.273437-1.273438 2-3.03125 2-4.828126v-20.480468c-.003907-49.015625-39.730469-88.74218775-88.746094-88.746094v13.652344c20.757813.003906 39.488281 8.394531 53.101563 21.996094 13.597656 13.609374 21.988281 32.339843 21.992187 53.097656v13.652344h-150.1875c-20.757813 0-39.488281-8.394532-53.097656-21.992188-13.597657-13.613281-21.992188-32.339844-21.996094-53.097656v-13.65625h150.1875zm0 0" fill="#54596e"/><path d="m259.453125 75.09375h-75.09375c-3.769531 0-6.824219 3.054688-6.824219 6.828125 0 3.769531 3.054688 6.824219 6.824219 6.824219h75.09375c3.769531 0 6.828125-3.054688 6.828125-6.824219 0-3.773437-3.058594-6.828125-6.828125-6.828125" fill="#54596e"/><path d="m109.265625 54.613281h40.960937c7.5625.003907 14.34375 3.046875 19.308594 8 4.953125 4.960938 7.996094 11.746094 8 19.308594 0 3.769531 3.054688 6.824219 6.824219 6.824219s6.828125-3.054688 6.828125-6.824219c-.007812-22.625-18.335938-40.957031-40.960938-40.960937h-40.960937c-3.769531 0-6.824219 3.054687-6.824219 6.824218 0 3.773438 3.054688 6.828125 6.824219 6.828125zm0 0" fill="#54596e"/></svg>