<svg height="436pt" viewBox="-41 0 436 436.90667" width="436pt" xmlns="http://www.w3.org/2000/svg"><path d="m177.945312 382.292969c-15.078124 0-27.304687-12.226563-27.304687-27.304688v-68.269531h54.613281v68.269531c0 15.078125-12.226562 27.304688-27.308594 27.304688zm0 0" fill="#ffd578"/><path d="m177.945312 382.292969v-6.828125c-11.304687-.019532-20.457031-9.171875-20.480468-20.476563v-61.441406h40.960937v61.441406c-.019531 11.304688-9.171875 20.457031-20.480469 20.476563v13.65625c18.855469-.003906 34.128907-15.28125 34.132813-34.132813v-68.269531c0-1.796875-.726563-3.554688-2-4.828125-1.269531-1.269531-3.027344-1.996094-4.824219-1.996094h-54.613281c-1.796875 0-3.558594.726563-4.828125 1.996094-1.269531 1.273437-2 3.03125-2 4.828125v68.269531c.007812 18.851563 15.28125 34.125 34.132812 34.132813zm0 0" fill="#54596e"/><path d="m295.804688 320.851562h-228.886719c-32.9375 0-59.636719 22.886719-59.636719 51.117188v58.109375h341.332031v-63.957031c0-25-23.644531-45.269532-52.808593-45.269532zm0 0" fill="#fff"/><g fill="#54596e"><path d="m295.804688 320.851562v-6.824218h-228.886719c-18.054688.003906-34.515625 6.257812-46.613281 16.613281-12.085938 10.324219-19.859376 25.007813-19.851563 41.328125v58.109375c0 1.800781.730469 3.558594 2 4.828125 1.273437 1.273438 3.03125 2 4.828125 2h341.332031c1.796875 0 3.554688-.726562 4.828125-2 1.269532-1.269531 2-3.027344 2-4.824219v-63.960937c.007813-14.703125-7.003906-27.925782-17.851562-37.191406-10.863282-9.300782-25.617188-14.898438-41.789063-14.902344v13.652344c13-.003907 24.648438 4.535156 32.902344 11.617187 8.265625 7.113281 13.074219 16.527344 13.082031 26.824219v57.132812h-327.679687v-51.28125c.007812-11.910156 5.582031-22.789062 15.085937-30.964844 9.484375-8.140624 22.84375-13.332031 37.726563-13.328124h228.886719zm0 0"/><path d="m68.71875 402.773438v20.480468c0 3.769532 3.058594 6.824219 6.828125 6.824219s6.828125-3.054687 6.828125-6.824219v-20.480468c0-3.769532-3.058594-6.828126-6.828125-6.828126s-6.828125 3.058594-6.828125 6.828126"/><path d="m273.519531 402.773438v20.480468c0 3.769532 3.058594 6.824219 6.828125 6.824219 3.769532 0 6.824219-3.054687 6.824219-6.824219v-20.480468c0-3.769532-3.054687-6.828126-6.824219-6.828126-3.769531 0-6.828125 3.058594-6.828125 6.828126"/></g><path d="m294 102.398438c0-64.09375-51.960938-95.570313-116.054688-95.570313s-116.050781 31.476563-116.050781 95.570313zm0 0" fill="#fff35f"/><path d="m294 102.398438h6.828125c.003906-16.941407-3.453125-32.015626-9.820313-44.980469-9.542968-19.472657-25.570312-33.96875-45.214843-43.402344-19.667969-9.457031-42.976563-14.01171875-67.847657-14.015625-33.136718.0117188-63.589843 8.085938-86.179687 25.132812-11.273437 8.519532-20.519531 19.320313-26.878906 32.285157-6.371094 12.964843-9.824219 28.039062-9.820313 44.980469 0 1.796874.730469 3.554687 2 4.828124 1.273438 1.269532 3.03125 2 4.828125 2h232.105469c1.796875 0 3.554688-.726562 4.828125-2 1.269531-1.273437 2-3.03125 2-4.828124h-6.828125v-6.824219h-232.105469v6.824219h6.824219c.007812-15.105469 3.046875-27.996094 8.421875-38.964844 8.078125-16.421875 21.480469-28.722656 38.882813-37.113282 17.375-8.375 38.722656-12.671874 61.921874-12.667968 30.957032-.011719 58.53125 7.65625 77.945313 22.371094 9.726563 7.363281 17.472656 16.449218 22.859375 27.414062 5.378906 10.964844 8.417969 23.859375 8.421875 38.964844h6.828125v-6.828125zm0 0" fill="#54596e"/><path d="m328.132812 170.667969c0 15.078125-12.226562 27.304687-27.304687 27.304687-15.082031 0-27.308594-12.226562-27.308594-27.304687 0-15.082031 12.226563-27.308594 27.308594-27.308594 15.078125 0 27.304687 12.226563 27.304687 27.308594zm0 0" fill="#ffd578"/><path d="m328.132812 170.667969h6.828126c-.007813-18.855469-15.28125-34.132813-34.132813-34.132813-18.855469 0-34.128906 15.277344-34.136719 34.132813.007813 18.851562 15.28125 34.125 34.136719 34.132812 18.851563-.003906 34.125-15.28125 34.132813-34.132812h-13.652344c-.023438 11.304687-9.175782 20.457031-20.480469 20.480469-11.308594-.023438-20.460937-9.175782-20.480469-20.480469.019532-11.308594 9.171875-20.460938 20.480469-20.480469 11.304687.019531 20.457031 9.171875 20.480469 20.480469zm0 0" fill="#54596e"/><path d="m82.375 170.667969c0 15.078125-12.226562 27.304687-27.308594 27.304687-15.082031 0-27.304687-12.226562-27.304687-27.304687 0-15.082031 12.222656-27.308594 27.304687-27.308594 15.082032 0 27.308594 12.226563 27.308594 27.308594zm0 0" fill="#ffd578"/><path d="m82.375 170.667969h6.824219c-.003907-18.855469-15.277344-34.132813-34.132813-34.132813-18.851562 0-34.128906 15.277344-34.132812 34.132813.003906 18.851562 15.28125 34.125 34.132812 34.132812 18.855469-.003906 34.128906-15.28125 34.132813-34.132812h-13.652344c-.019531 11.304687-9.171875 20.457031-20.480469 20.480469-11.304687-.023438-20.460937-9.175782-20.480468-20.480469.019531-11.308594 9.175781-20.460938 20.480468-20.480469 11.308594.019531 20.460938 9.171875 20.480469 20.480469zm0 0" fill="#54596e"/><path d="m177.945312 320.851562c-64.09375 0-116.050781-51.957031-116.050781-116.050781v-103.277343c0-7.054688 5.71875-12.777344 12.773438-12.777344h206.554687c7.054688 0 12.777344 5.722656 12.777344 12.777344v103.277343c0 64.09375-51.960938 116.050781-116.054688 116.050781zm0 0" fill="#ffd578"/><path d="m177.945312 320.851562v-6.824218c-30.179687-.003906-57.445312-12.21875-77.234374-31.992188-19.777344-19.789062-31.988282-47.054687-31.992188-77.234375v-103.277343c.007812-3.285157 2.667969-5.945313 5.949219-5.953126h206.554687c3.28125.007813 5.945313 2.667969 5.949219 5.953126v103.277343c-.003906 30.179688-12.214844 57.445313-31.992187 77.234375-19.785157 19.773438-47.050782 31.988282-77.234376 31.992188v13.652344c67.867188-.003907 122.875-55.011719 122.882813-122.878907v-103.277343c-.003906-10.832032-8.777344-19.601563-19.605469-19.601563h-206.554687c-10.828125 0-19.597657 8.773437-19.601563 19.601563v103.277343c.003906 67.863281 55.015625 122.875 122.878906 122.878907zm0 0" fill="#54596e"/><path d="m143.8125 197.972656c0 18.851563 15.285156 34.132813 34.132812 34.132813 18.851563 0 34.132813-15.28125 34.132813-34.132813zm0 0" fill="#54596e"/><path d="m143.8125 197.972656h-6.824219c.003907 22.625 18.335938 40.957032 40.957031 40.960938 22.625-.003906 40.957032-18.335938 40.960938-40.960938 0-1.796875-.726562-3.554687-2-4.828125-1.269531-1.269531-3.027344-1.996093-4.828125-1.996093h-68.265625c-1.796875 0-3.554688.726562-4.824219 1.996093-1.273437 1.273438-2 3.03125-2 4.828125h6.824219v6.828125h68.265625v-6.828125h-6.824219c-.003906 7.5625-3.046875 14.34375-8 19.308594-4.960937 4.953125-11.746094 7.996094-19.308594 8-7.558593-.003906-14.34375-3.046875-19.304687-8-4.953125-4.964844-7.996094-11.746094-8-19.308594h-6.828125v6.828125zm0 0" fill="#54596e"/><path d="m191.601562 218.453125c0-3.769531-6.113281-6.828125-13.65625-6.828125-7.539062 0-13.652343 3.058594-13.652343 6.828125s6.113281 6.828125 13.652343 6.828125c7.542969 0 13.65625-3.058594 13.65625-6.828125zm0 0" fill="#ff927d"/><path d="m150.640625 139.945312c0 5.65625-4.585937 10.242188-10.242187 10.242188-5.652344 0-10.238282-4.585938-10.238282-10.242188 0-5.652343 4.585938-10.238281 10.238282-10.238281 5.65625 0 10.242187 4.585938 10.242187 10.238281zm0 0" fill="#54596e"/><path d="m225.734375 139.945312c0 5.65625-4.585937 10.242188-10.242187 10.242188-5.652344 0-10.238282-4.585938-10.238282-10.242188 0-5.652343 4.585938-10.238281 10.238282-10.238281 5.65625 0 10.242187 4.585938 10.242187 10.238281zm0 0" fill="#54596e"/><path d="m184.773438 430.078125v-81.917969c0-3.769531-3.058594-6.828125-6.828126-6.828125-3.769531 0-6.824218 3.058594-6.824218 6.828125v81.917969c0 3.773437 3.054687 6.828125 6.824218 6.828125 3.769532 0 6.828126-3.054688 6.828126-6.828125" fill="#54596e"/><path d="m164.289062 314.027344c-7.539062 0-13.652343 6.113281-13.652343 13.652344v13.652343c0 7.542969 6.113281 13.65625 13.652343 13.65625 7.539063 0 13.652344-6.113281 13.652344-13.65625v-13.652343c0-7.539063-6.113281-13.652344-13.652344-13.652344zm0 0" fill="#ff927d"/><path d="m164.289062 314.027344v-6.828125c-11.3125.003906-20.472656 9.167969-20.480468 20.480469v13.652343c.007812 11.316407 9.167968 20.476563 20.480468 20.480469 11.3125-.003906 20.476563-9.164062 20.480469-20.480469v-13.652343c-.003906-11.3125-9.167969-20.476563-20.480469-20.480469v13.652343c3.765626.007813 6.820313 3.0625 6.828126 6.828126v13.652343c-.007813 3.769531-3.0625 6.820313-6.828126 6.828125-3.765624-.007812-6.820312-3.058594-6.824218-6.828125v-13.652343c.003906-3.765626 3.058594-6.820313 6.824218-6.828126zm0 0" fill="#54596e"/><path d="m191.597656 314.027344c-7.542968 0-13.65625 6.113281-13.65625 13.652344v13.652343c0 7.542969 6.113282 13.65625 13.65625 13.65625 7.539063 0 13.652344-6.113281 13.652344-13.65625v-13.652343c0-7.539063-6.113281-13.652344-13.652344-13.652344zm0 0" fill="#ff927d"/><path d="m191.597656 314.027344v-6.828125c-11.316406.003906-20.476562 9.167969-20.480468 20.480469v13.652343c.003906 11.316407 9.164062 20.476563 20.480468 20.480469 11.3125-.003906 20.472656-9.164062 20.480469-20.480469v-13.652343c-.007813-11.3125-9.167969-20.476563-20.480469-20.480469v13.652343c3.765625.007813 6.820313 3.0625 6.824219 6.828126v13.652343c-.003906 3.769531-3.058594 6.820313-6.824219 6.828125-3.769531-.007812-6.820312-3.058594-6.828125-6.828125v-13.652343c.007813-3.765626 3.058594-6.820313 6.828125-6.828126zm0 0" fill="#54596e"/><path d="m247.480469 363.996094-42.230469-15.835938v-27.308594l41.347656-20.671874c6.097656-3.046876 13.265625 1.386718 13.265625 8.199218v47.035156c0 6.398438-6.394531 10.828126-12.382812 8.582032zm0 0" fill="#ff927d"/><path d="m247.480469 363.996094 2.398437-6.394532-37.800781-14.175781v-18.355469l37.570313-18.785156 1.042968-.257812 1.652344.683594c.4375.449218.675781.902343.6875 1.667968v47.035156c-.007812.734376-.25 1.210938-.691406 1.664063l-1.636719.683594-.839844-.160157.011719.003907-2.394531 6.390625-2.386719 6.394531c1.832031.6875 3.746094 1.023437 5.613281 1.019531 4.277344-.003906 8.238281-1.710937 11.15625-4.550781 2.925781-2.820313 4.835938-6.933594 4.824219-11.449219v-47.035156c.015625-4.550781-1.925781-8.691406-4.867188-11.496094-2.941406-2.828125-6.882812-4.5-11.128906-4.507812-2.390625-.003906-4.863281.554687-7.148437 1.703125l-41.347657 20.671875c-2.316406 1.15625-3.773437 3.515625-3.773437 6.105468v27.308594c0 2.84375 1.765625 5.390625 4.429687 6.390625l42.230469 15.835938.007813.003906zm0 0" fill="#54596e"/><path d="m108.410156 363.996094 42.230469-15.835938v-27.308594l-41.347656-20.671874c-6.097657-3.046876-13.265625 1.386718-13.265625 8.199218v47.035156c0 6.398438 6.390625 10.828126 12.382812 8.582032zm0 0" fill="#ff927d"/><path d="m108.410156 363.996094 2.398438 6.390625 42.230468-15.835938c2.660157-.996093 4.425782-3.546875 4.425782-6.390625v-27.308594c0-2.589843-1.453125-4.945312-3.773438-6.105468l-41.34375-20.671875c-2.285156-1.144531-4.757812-1.707031-7.152344-1.703125-4.242187.007812-8.1875 1.683594-11.125 4.507812-2.941406 2.808594-4.882812 6.945313-4.867187 11.496094v47.039062c-.011719 4.515626 1.898437 8.625 4.820313 11.449219 2.917968 2.835938 6.882812 4.546875 11.160156 4.550781 1.867187 0 3.78125-.335937 5.613281-1.019531l.011719-.003906-2.398438-6.394531-2.386718-6.398438-.839844.160156-1.636719-.683593c-.441406-.453125-.679687-.929688-.695313-1.664063v-47.035156c.015626-.765625.253907-1.214844.691407-1.667969l1.652343-.683593 1.042969.257812 37.574219 18.789062v18.359376l-37.800781 14.175781.011719-.003907zm0 0" fill="#54596e"/><path d="m109.679688 75.09375c0 18.851562 30.5625 34.132812 68.265624 34.132812 37.703126 0 68.269532-15.28125 68.269532-34.132812" fill="#fff35f"/><path d="m102.851562 75.09375c-.011718 6.605469 2.742188 12.71875 6.980469 17.695312 6.402344 7.5 16.066407 13.09375 27.761719 17.074219 11.703125 3.949219 25.519531 6.183594 40.351562 6.191407 19.785157-.019532 37.738282-3.949219 51.324219-10.71875 6.792969-3.40625 12.535157-7.53125 16.789063-12.546876 4.242187-4.976562 6.992187-11.089843 6.980468-17.695312 0-3.769531-3.058593-6.828125-6.828124-6.828125-3.769532 0-6.824219 3.058594-6.824219 6.828125-.015625 2.816406-1.082031 5.6875-3.75 8.875-3.960938 4.75-11.609375 9.578125-21.707031 12.960938-10.085938 3.410156-22.539063 5.472656-35.984376 5.46875-17.921874.019531-34.097656-3.695313-45.21875-9.277344-5.5625-2.773438-9.816406-6-12.46875-9.152344-2.671874-3.191406-3.738281-6.058594-3.75-8.875 0-3.769531-3.058593-6.828125-6.828124-6.828125-3.769532 0-6.828126 3.058594-6.828126 6.828125zm0 0" fill="#54596e"/><path d="m116.507812 184.320312c0 7.539063-6.113281 13.652344-13.65625 13.652344-7.539062 0-13.652343-6.113281-13.652343-13.652344 0-7.539062 6.113281-13.652343 13.652343-13.652343 7.542969 0 13.65625 6.113281 13.65625 13.652343zm0 0" fill="#ff927d"/><path d="m266.691406 184.320312c0 7.539063-6.109375 13.652344-13.652344 13.652344-7.539062 0-13.652343-6.113281-13.652343-13.652344 0-7.539062 6.113281-13.652343 13.652343-13.652343 7.542969 0 13.652344 6.113281 13.652344 13.652343zm0 0" fill="#ff927d"/></svg>