<svg height="436pt" viewBox="-52 0 436 436.90667" width="436pt" xmlns="http://www.w3.org/2000/svg"><path d="m289.046875 73.839844c-3.621094-44.882813-60.777344-67.011719-122.527344-67.011719-61.746093 0-118.90625 22.128906-122.527343 67.011719l-35.4375 136.609375c-6.425782 24.785156 12.28125 48.964843 37.878906 48.964843h240.175781c25.597656 0 44.304687-24.179687 37.878906-48.964843zm0 0" fill="#fff35f"/><path d="m289.046875 73.839844 6.804687-.546875c-1-12.625-5.890624-23.859375-13.5-33.171875-11.441406-13.996094-28.667968-23.878906-48.777343-30.417969-20.132813-6.527344-43.285157-9.69921875-67.054688-9.703125-31.691406.0234375-62.289062 5.609375-86.09375 17.386719-11.894531 5.902343-22.125 13.402343-29.734375 22.734375-7.613281 9.3125-12.503906 20.546875-13.503906 33.171875l6.804688.546875-6.605469-1.714844-35.441407 136.609375c-1.007812 3.890625-1.492187 7.792969-1.492187 11.617187.003906 12.332032 4.996094 23.792969 13.222656 32.167969 8.210938 8.382813 19.792969 13.730469 32.757813 13.722657h240.175781c12.964844.007812 24.542969-5.339844 32.757813-13.71875 8.222656-8.375 13.21875-19.835938 13.222656-32.167969 0-3.828125-.484375-7.730469-1.492188-11.617188l-35.441406-136.609375-6.609375 1.710938 6.804687-.546875-6.804687.546875-6.609375 1.714844 35.441406 136.609374c.71875 2.769532 1.054688 5.507813 1.054688 8.1875.003906 8.609376-3.5 16.683594-9.3125 22.601563-5.824219 5.914063-13.820313 9.625-23.015625 9.636719h-240.171875c-9.195313-.011719-17.191406-3.722656-23.015625-9.636719-5.8125-5.917969-9.316407-13.988281-9.3125-22.601563 0-2.675781.335937-5.414062 1.054687-8.1875l35.441406-136.609374.195313-1.167969c.8125-9.816407 4.425781-18.179688 10.480469-25.640625 9.054687-11.164063 23.941406-20.085938 42.402344-26.058594 18.433593-5.984375 40.300781-9.039062 62.839843-9.035156 30.058594-.019532 58.914063 5.457031 80.027344 15.964844 10.570313 5.238281 19.164063 11.6875 25.21875 19.128906 6.054687 7.460937 9.667969 15.824218 10.476563 25.640625l.195312 1.167969zm0 0" fill="#54596e"/><path d="m270.726562 334.507812h-201.585937c-32.933594 0-59.632813 22.886719-59.632813 51.113282v44.457031h314.027344v-50.304687c0-25-23.648437-45.265626-52.808594-45.265626zm0 0" fill="#fff"/><path d="m270.726562 334.507812v-6.828124h-201.585937c-18.050781.003906-34.511719 6.257812-46.609375 16.613281-12.082031 10.328125-19.859375 25.007812-19.847656 41.328125v44.457031c0 1.800781.726562 3.558594 2 4.828125 1.269531 1.273438 3.027344 2 4.824218 2h314.027344c1.796875 0 3.554688-.726562 4.824219-2 1.273437-1.269531 2-3.027344 2-4.824219v-50.308593c.007813-14.703126-7.003906-27.921876-17.851563-37.191407-10.859374-9.300781-25.613281-14.898437-41.78125-14.898437v13.648437c12.996094-.003906 24.644532 4.535157 32.898438 11.617188 8.265625 7.117187 13.074219 16.53125 13.082031 26.824219v43.480468h-300.375v-37.628906c.011719-11.910156 5.585938-22.789062 15.085938-30.960938 9.488281-8.144531 22.839843-13.335937 37.722656-13.332031h201.585937zm0 0" fill="#54596e"/><path d="m50.46875 402.773438v20.480468c0 3.769532 3.054688 6.824219 6.824219 6.824219s6.828125-3.054687 6.828125-6.824219v-20.480468c0-3.769532-3.058594-6.828126-6.828125-6.828126s-6.824219 3.058594-6.824219 6.828126" fill="#54596e"/><path d="m268.921875 402.773438v20.480468c0 3.769532 3.054687 6.824219 6.824219 6.824219 3.769531 0 6.828125-3.054687 6.828125-6.824219v-20.480468c0-3.769532-3.058594-6.828126-6.828125-6.828126-3.769532 0-6.824219 3.058594-6.824219 6.828126" fill="#54596e"/><path d="m166.519531 382.292969c-15.078125 0-27.304687-12.226563-27.304687-27.304688v-68.269531h54.613281v68.269531c0 15.078125-12.226563 27.304688-27.308594 27.304688zm0 0" fill="#ffd578"/><path d="m166.519531 382.292969v-6.828125c-11.304687-.019532-20.457031-9.171875-20.480469-20.476563v-61.441406h40.960938v61.441406c-.019531 11.304688-9.171875 20.457031-20.480469 20.476563v13.65625c18.855469-.003906 34.128907-15.28125 34.132813-34.132813v-68.269531c0-1.796875-.726563-3.554688-1.996094-4.828125-1.273438-1.269531-3.03125-1.996094-4.828125-1.996094h-54.613281c-1.796875 0-3.558594.726563-4.828125 1.996094-1.269531 1.273437-2 3.03125-2 4.828125v68.269531c.003906 18.851563 15.28125 34.125 34.132812 34.132813zm0 0" fill="#54596e"/><path d="m166.519531 314.027344c-56.554687 0-102.398437-66.328125-102.398437-122.878906v-102.402344h204.800781v102.402344c0 56.550781-45.847656 122.878906-102.402344 122.878906zm0 0" fill="#ffd578"/><g fill="#54596e"><path d="m166.519531 314.027344v-6.828125c-12.789062-.003907-25.050781-3.734375-36.433593-10.328125-17.058594-9.867188-31.984376-26.265625-42.503907-45.296875-10.542969-19.015625-16.648437-40.605469-16.636719-60.425781v-95.578126h191.148438v95.578126c.046875 26.433593-10.898438 55.980468-28.539062 78.433593-8.800782 11.238281-19.230469 20.703125-30.597657 27.289063-11.382812 6.59375-23.644531 10.324218-36.433593 10.328125v13.652343c15.484374.003907 30.160156-4.554687 43.28125-12.164062 19.695312-11.4375 36.042968-29.648438 47.601562-50.5 11.539062-20.871094 18.328125-44.449219 18.34375-67.039062v-102.402344c0-1.796875-.726562-3.554688-1.996094-4.828125-1.277344-1.269531-3.035156-1.996094-4.832031-1.996094h-204.800781c-1.796875 0-3.558594.726563-4.828125 1.996094-1.269531 1.273437-2 3.03125-2 4.828125v102.402344c.046875 30.113281 12.027343 62.007812 31.445312 86.855468 9.730469 12.414063 21.367188 23.0625 34.5 30.679688 13.121094 7.613281 27.796875 12.171875 43.28125 12.167968zm0 0"/><path d="m118.734375 160.425781c0 5.65625-4.585937 10.242188-10.242187 10.242188-5.652344 0-10.238282-4.585938-10.238282-10.242188s4.585938-10.238281 10.238282-10.238281c5.65625 0 10.242187 4.582031 10.242187 10.238281zm0 0"/><path d="m234.789062 160.425781c0 5.65625-4.585937 10.242188-10.242187 10.242188s-10.238281-4.585938-10.238281-10.242188 4.582031-10.238281 10.238281-10.238281 10.242187 4.582031 10.242187 10.238281zm0 0"/><path d="m173.347656 430.078125v-47.785156c0-3.769531-3.058594-6.828125-6.828125-6.828125s-6.824219 3.058594-6.824219 6.828125v47.785156c0 3.773437 3.054688 6.828125 6.824219 6.828125s6.828125-3.054688 6.828125-6.828125"/></g><path d="m159.695312 238.933594h13.652344c7.539063 0 13.652344-6.113282 13.652344-13.652344 0-7.542969-6.113281-13.65625-13.652344-13.65625h-13.652344c-7.542968 0-13.65625 6.113281-13.65625 13.65625 0 7.539062 6.113282 13.652344 13.65625 13.652344" fill="#ff927d"/><path d="m139.214844 225.28125h54.613281c3.769531 0 6.824219-3.058594 6.824219-6.828125s-3.054688-6.828125-6.824219-6.828125h-54.613281c-3.769532 0-6.828125 3.058594-6.828125 6.828125s3.058593 6.828125 6.828125 6.828125" fill="#ff927d"/><path d="m88.574219 184.320312v6.828126h50.640625c1.796875 0 3.554687-.730469 4.824218-2 1.273438-1.273438 2-3.03125 2-4.828126v-34.460937c0-14.902344-12.070312-26.972656-26.96875-26.976563h-68.601562c-1.796875 0-3.558594.726563-4.828125 1.996094-1.269531 1.269532-2 3.027344-2 4.828125v16.507813c.003906 24.816406 20.113281 44.925781 44.933594 44.933594v-13.65625c-8.660157-.003907-16.4375-3.488282-22.117188-9.160157-5.671875-5.679687-9.160156-13.457031-9.164062-22.117187v-9.683594h61.777343c7.351563.015625 13.304688 5.96875 13.320313 13.324219v27.636719h-43.816406zm0 0" fill="#aaa"/><path d="m244.46875 184.320312v-6.828124h-43.816406v-27.636719c.015625-7.355469 5.96875-13.308594 13.320312-13.320313h61.773438v9.679688c-.003906 8.660156-3.488282 16.4375-9.160156 22.117187-5.679688 5.671875-13.457032 9.15625-22.117188 9.160157v13.65625c24.816406-.003907 44.925781-20.113282 44.933594-44.933594v-16.507813c0-1.800781-.730469-3.554687-2-4.828125-1.273438-1.269531-3.03125-2-4.828125-2h-68.601563c-14.898437.003906-26.96875 12.074219-26.972656 26.976563v34.464843c0 1.796876.730469 3.554688 2 4.824219 1.273438 1.273438 3.03125 2 4.828125 2h50.640625zm0 0" fill="#aaa"/><path d="m139.214844 157.011719h47.785156c3.769531 0 6.828125-3.054688 6.828125-6.824219s-3.058594-6.828125-6.828125-6.828125h-47.785156c-3.769532 0-6.828125 3.058594-6.828125 6.828125s3.058593 6.824219 6.828125 6.824219" fill="#aaa"/></svg>