<svg height="436pt" viewBox="-41 0 436 436.90667" width="436pt" xmlns="http://www.w3.org/2000/svg"><path d="m177.945312 382.292969c-15.078124 0-27.304687-12.226563-27.304687-27.304688v-68.269531h54.613281v68.269531c0 15.078125-12.226562 27.304688-27.308594 27.304688zm0 0" fill="#ffd578"/><path d="m177.945312 382.292969v-6.828125c-11.304687-.019532-20.457031-9.171875-20.480468-20.476563v-61.441406h40.960937v61.441406c-.019531 11.304688-9.171875 20.457031-20.480469 20.476563v13.65625c18.855469-.003906 34.128907-15.28125 34.132813-34.132813v-68.269531c0-1.796875-.726563-3.554688-2-4.828125-1.269531-1.269531-3.027344-1.996094-4.824219-1.996094h-54.613281c-1.796875 0-3.558594.726563-4.828125 1.996094-1.269531 1.273437-2 3.03125-2 4.828125v68.269531c.007812 18.851563 15.28125 34.125 34.132812 34.132813zm0 0" fill="#54596e"/><path d="m294 109.226562c0-68.671874-51.960938-102.398437-116.054688-102.398437s-116.050781 33.726563-116.050781 102.398437zm0 0" fill="#55a6ff"/><path d="m294 109.226562h6.828125c.082031-36.046874-13.914063-64.035156-36.523437-82.257812-22.574219-18.261719-53.144532-26.9609375-86.359376-26.96875-33.210937.0078125-63.78125 8.707031-86.359374 26.96875-22.605469 18.222656-36.601563 46.210938-36.519532 82.257812 0 1.796876.730469 3.554688 2 4.828126 1.273438 1.269531 3.03125 2 4.828125 2h232.105469c1.796875 0 3.554688-.726563 4.828125-2 1.269531-1.269532 2-3.03125 2-4.828126h-6.828125v-6.828124h-232.105469v6.828124h6.824219c.082031-32.625 12.070312-55.835937 31.464844-71.648437 19.425781-15.769531 46.882812-23.933594 77.761718-23.925781 30.878907-.003906 58.339844 8.15625 77.765626 23.925781 19.394531 15.8125 31.378906 39.023437 31.460937 71.648437h6.828125v-6.828124zm0 0" fill="#54596e"/><path d="m295.804688 320.851562h-228.886719c-32.9375 0-59.636719 22.886719-59.636719 51.117188v58.109375h341.332031v-63.957031c0-25-23.640625-45.269532-52.808593-45.269532zm0 0" fill="#adf2a2"/><path d="m295.804688 320.851562v-6.824218h-228.886719c-18.054688.003906-34.515625 6.257812-46.613281 16.613281-12.085938 10.324219-19.859376 25.007813-19.851563 41.328125v58.109375c0 1.800781.730469 3.558594 2 4.828125 1.273437 1.273438 3.03125 2 4.828125 2h341.332031c1.796875 0 3.554688-.726562 4.828125-2 1.269532-1.269531 2-3.027344 2-4.824219v-63.960937c.007813-14.703125-7.003906-27.925782-17.851562-37.191406-10.863282-9.300782-25.617188-14.898438-41.789063-14.902344v13.652344c13-.003907 24.648438 4.535156 32.902344 11.617187 8.265625 7.113281 13.074219 16.527344 13.082031 26.824219v57.132812h-327.679687v-51.28125c.007812-11.910156 5.582031-22.789062 15.085937-30.964844 9.484375-8.140624 22.84375-13.332031 37.726563-13.328124h228.886719zm0 0" fill="#54596e"/><path d="m68.71875 402.773438v20.480468c0 3.769532 3.058594 6.824219 6.828125 6.824219s6.828125-3.054687 6.828125-6.824219v-20.480468c0-3.769532-3.058594-6.828126-6.828125-6.828126s-6.828125 3.058594-6.828125 6.828126" fill="#54596e"/><path d="m273.519531 402.773438v20.480468c0 3.769532 3.058594 6.824219 6.828125 6.824219 3.769532 0 6.824219-3.054687 6.824219-6.824219v-20.480468c0-3.769532-3.054687-6.828126-6.824219-6.828126-3.769531 0-6.828125 3.058594-6.828125 6.828126" fill="#54596e"/><path d="m197.289062 7.992188c-6.300781-.714844-12.734374-1.164063-19.34375-1.164063-64.09375 0-116.050781 33.726563-116.050781 102.398437h61.4375c0-61.597656 32-94.984374 73.957031-101.234374zm0 0" fill="#f4a14e"/><path d="m197.289062 7.992188.773438-6.78125c-6.503906-.738282-13.199219-1.210938-20.117188-1.210938-33.210937.0078125-63.78125 8.707031-86.359374 26.96875-22.605469 18.222656-36.601563 46.210938-36.519532 82.257812 0 1.796876.730469 3.554688 2 4.828126 1.273438 1.269531 3.03125 2 4.828125 2h61.4375c1.796875 0 3.554688-.726563 4.828125-2 1.269532-1.269532 2-3.03125 2-4.828126.011719-29.644531 7.667969-51.75 19.78125-67.152343 12.140625-15.386719 28.863282-24.398438 48.355469-27.328125 3.382813-.503906 5.878906-3.453125 5.816406-6.871094-.058593-3.417969-2.652343-6.277344-6.054687-6.664062l-.769532 6.78125-1.003906-6.75c-22.46875 3.3125-42.726562 14.121093-57.070312 32.390624-14.375 18.253907-22.71875 43.640626-22.707032 75.59375h6.824219v-6.828124h-61.4375v6.828124h6.824219c.082031-32.625 12.070312-55.835937 31.464844-71.648437 19.425781-15.769531 46.882812-23.933594 77.761718-23.925781 6.296876 0 12.46875.429687 18.574219 1.125l.769531-6.785156-1.003906-6.75zm0 0" fill="#54596e"/><path d="m328.132812 170.667969c0 15.078125-12.226562 27.304687-27.304687 27.304687-15.082031 0-27.308594-12.226562-27.308594-27.304687 0-15.082031 12.226563-27.308594 27.308594-27.308594 15.078125 0 27.304687 12.226563 27.304687 27.308594zm0 0" fill="#ffd578"/><path d="m328.132812 170.667969h6.828126c-.007813-18.855469-15.28125-34.132813-34.132813-34.132813-18.855469 0-34.128906 15.277344-34.136719 34.132813.007813 18.851562 15.28125 34.125 34.136719 34.132812 18.851563-.003906 34.125-15.28125 34.132813-34.132812h-13.652344c-.023438 11.304687-9.175782 20.457031-20.480469 20.480469-11.308594-.023438-20.460937-9.175782-20.480469-20.480469.019532-11.308594 9.171875-20.460938 20.480469-20.480469 11.304687.019531 20.457031 9.171875 20.480469 20.480469zm0 0" fill="#54596e"/><path d="m82.375 170.667969c0 15.078125-12.226562 27.304687-27.308594 27.304687-15.082031 0-27.304687-12.226562-27.304687-27.304687 0-15.082031 12.222656-27.308594 27.304687-27.308594 15.082032 0 27.308594 12.226563 27.308594 27.308594zm0 0" fill="#ffd578"/><path d="m82.375 170.667969h6.824219c-.003907-18.855469-15.277344-34.132813-34.132813-34.132813-18.851562 0-34.128906 15.277344-34.132812 34.132813.003906 18.851562 15.28125 34.125 34.132812 34.132812 18.855469-.003906 34.128906-15.28125 34.132813-34.132812h-13.652344c-.019531 11.304687-9.171875 20.457031-20.480469 20.480469-11.304687-.023438-20.460937-9.175782-20.480468-20.480469.019531-11.308594 9.175781-20.460938 20.480468-20.480469 11.308594.019531 20.460938 9.171875 20.480469 20.480469zm0 0" fill="#54596e"/><path d="m177.945312 375.464844c-15.078124 0-27.304687-12.226563-27.304687-27.304688v-68.265625h54.613281v68.265625c0 15.078125-12.226562 27.304688-27.308594 27.304688zm0 0" fill="#ffd578"/><path d="m177.945312 375.464844v-6.824219c-11.304687-.019531-20.457031-9.175781-20.480468-20.480469v-61.441406h40.960937v61.441406c-.019531 11.304688-9.171875 20.460938-20.480469 20.480469v13.652344c18.855469-.003907 34.128907-15.28125 34.132813-34.132813v-68.265625c0-1.800781-.726563-3.558593-2-4.828125-1.269531-1.273437-3.027344-2-4.824219-2h-54.613281c-1.796875 0-3.558594.726563-4.828125 2-1.269531 1.269532-2 3.03125-2 4.828125v68.265625c.007812 18.851563 15.28125 34.128906 34.132812 34.132813zm0 0" fill="#54596e"/><path d="m177.945312 320.851562c-64.09375 0-116.050781-51.957031-116.050781-116.050781v-95.574219h232.105469v95.574219c0 64.09375-51.960938 116.050781-116.054688 116.050781zm0 0" fill="#ffd578"/><path d="m177.945312 320.851562v-6.824218c-30.179687-.003906-57.445312-12.21875-77.234374-31.992188-19.777344-19.789062-31.988282-47.054687-31.992188-77.234375v-88.75h218.453125v88.75c0 30.179688-12.214844 57.445313-31.988281 77.234375-19.789063 19.777344-47.054688 31.988282-77.238282 31.992188v13.652344c67.867188-.003907 122.875-55.011719 122.882813-122.878907v-95.574219c0-1.796874-.730469-3.554687-2-4.828124-1.273437-1.269532-3.03125-2-4.828125-2h-232.105469c-1.796875 0-3.558593.730468-4.828125 2-1.269531 1.273437-2 3.03125-2 4.828124v95.574219c.003906 67.863281 55.011719 122.875 122.878906 122.878907zm0 0" fill="#54596e"/><path d="m143.8125 197.972656c0 18.851563 15.285156 34.132813 34.132812 34.132813 18.851563 0 34.132813-15.28125 34.132813-34.132813zm0 0" fill="#54596e"/><path d="m143.8125 197.972656h-6.824219c.003907 22.625 18.335938 40.957032 40.957031 40.960938 22.625-.003906 40.957032-18.335938 40.960938-40.960938 0-1.796875-.726562-3.554687-2-4.828125-1.269531-1.269531-3.027344-1.996093-4.828125-1.996093h-68.265625c-1.796875 0-3.554688.726562-4.824219 1.996093-1.273437 1.273438-2 3.03125-2 4.828125h6.824219v6.828125h68.265625v-6.828125h-6.824219c-.003906 7.5625-3.046875 14.34375-8 19.308594-4.960937 4.953125-11.746094 7.996094-19.308594 8-7.558593-.003906-14.34375-3.046875-19.304687-8-4.953125-4.964844-7.996094-11.746094-8-19.308594h-6.828125v6.828125zm0 0" fill="#54596e"/><path d="m191.601562 218.453125c0-3.769531-6.113281-6.828125-13.65625-6.828125-7.539062 0-13.652343 3.058594-13.652343 6.828125s6.113281 6.828125 13.652343 6.828125c7.542969 0 13.65625-3.058594 13.65625-6.828125zm0 0" fill="#ff927d"/><path d="m150.640625 139.945312c0 5.65625-4.585937 10.242188-10.242187 10.242188-5.652344 0-10.238282-4.585938-10.238282-10.242188 0-5.652343 4.585938-10.238281 10.238282-10.238281 5.65625 0 10.242187 4.585938 10.242187 10.238281zm0 0" fill="#54596e"/><path d="m225.734375 139.945312c0 5.65625-4.585937 10.242188-10.242187 10.242188-5.652344 0-10.238282-4.585938-10.238282-10.242188 0-5.652343 4.585938-10.238281 10.238282-10.238281 5.65625 0 10.242187 4.585938 10.242187 10.238281zm0 0" fill="#54596e"/><path d="m177.945312 6.828125c-6.605468 0-13.039062.449219-19.34375 1.164063 41.957032 6.25 73.957032 39.636718 73.957032 101.234374h61.441406c0-68.671874-51.960938-102.398437-116.054688-102.398437zm0 0" fill="#fff35f"/><path d="m177.945312 6.828125v-6.828125c-6.914062 0-13.609374.472656-20.113281 1.210938-3.398437.386718-5.996093 3.246093-6.054687 6.664062s2.4375 6.367188 5.820312 6.867188c19.488282 2.933593 36.210938 11.945312 48.351563 27.332031 12.117187 15.402343 19.773437 37.507812 19.785156 67.152343 0 1.796876.726563 3.554688 2 4.828126 1.269531 1.269531 3.027344 2 4.824219 2h61.441406c1.796875 0 3.554688-.726563 4.828125-2 1.269531-1.269532 2-3.03125 2-4.828126.082031-36.046874-13.914063-64.035156-36.523437-82.257812-22.574219-18.261719-53.144532-26.9609375-86.359376-26.96875v13.652344c30.878907-.003906 58.339844 8.15625 77.765626 23.925781 19.394531 15.8125 31.378906 39.023437 31.460937 71.648437h6.828125v-6.828124h-61.441406v6.828124h6.828125c.011719-31.953124-8.332031-57.339843-22.707031-75.59375-14.347657-18.269531-34.601563-29.074218-57.070313-32.390624l-1.007813 6.75.773438 6.785156c6.105469-.695313 12.277344-1.125 18.570312-1.125zm0 0" fill="#54596e"/><g fill="#ff927d"><path d="m109.679688 163.839844c0 3.769531-3.054688 6.828125-6.828126 6.828125-3.769531 0-6.824218-3.058594-6.824218-6.828125 0-3.769532 3.054687-6.828125 6.824218-6.828125 3.773438 0 6.828126 3.058593 6.828126 6.828125zm0 0"/><path d="m136.988281 163.839844c0 3.769531-3.058593 6.828125-6.828125 6.828125-3.769531 0-6.828125-3.058594-6.828125-6.828125 0-3.769532 3.058594-6.828125 6.828125-6.828125 3.769532 0 6.828125 3.058593 6.828125 6.828125zm0 0"/><path d="m123.332031 177.492188c0 3.769531-3.054687 6.828124-6.824219 6.828124-3.769531 0-6.828124-3.058593-6.828124-6.828124 0-3.769532 3.058593-6.824219 6.828124-6.824219 3.769532 0 6.824219 3.054687 6.824219 6.824219zm0 0"/><path d="m232.558594 163.839844c0 3.769531-3.054688 6.828125-6.824219 6.828125s-6.828125-3.058594-6.828125-6.828125c0-3.769532 3.058594-6.828125 6.828125-6.828125s6.824219 3.058593 6.824219 6.828125zm0 0"/><path d="m259.867188 163.839844c0 3.769531-3.058594 6.828125-6.828126 6.828125-3.769531 0-6.824218-3.058594-6.824218-6.828125 0-3.769532 3.054687-6.828125 6.824218-6.828125 3.769532 0 6.828126 3.058593 6.828126 6.828125zm0 0"/><path d="m246.214844 177.492188c0 3.769531-3.058594 6.828124-6.828125 6.828124s-6.828125-3.058593-6.828125-6.828124c0-3.769532 3.058594-6.824219 6.828125-6.824219s6.828125 3.054687 6.828125 6.824219zm0 0"/></g></svg>