<svg height="436pt" viewBox="-34 0 436 436.90667" width="436pt" xmlns="http://www.w3.org/2000/svg"><path d="m143.8125 286.71875h68.265625v109.226562h-68.265625zm0 0" fill="#ffd578"/><path d="m212.078125 395.945312v-6.824218h-61.441406v-95.574219h54.613281v102.398437h6.828125v-6.824218 6.824218h6.828125v-109.226562c0-1.796875-.730469-3.554688-2-4.828125-1.269531-1.269531-3.03125-1.996094-4.828125-1.996094h-68.265625c-1.796875 0-3.558594.726563-4.828125 1.996094-1.269531 1.273437-2 3.03125-2 4.828125v109.226562c0 1.796876.730469 3.554688 2 4.828126 1.273437 1.269531 3.03125 2 4.828125 2h68.265625c1.796875 0 3.554687-.730469 4.828125-2 1.269531-1.273438 2-3.03125 2-4.828126zm0 0" fill="#54596e"/><path d="m295.804688 320.851562h-43.039063l-74.820313 75.09375-74.820312-75.09375h-36.210938c-32.933593 0-59.636718 22.886719-59.636718 51.117188v58.109375h341.335937v-63.957031c0-25-23.648437-45.269532-52.808593-45.269532zm0 0" fill="#f4a14e"/><path d="m295.804688 320.851562v-6.824218h-43.039063c-1.824219 0-3.546875.714844-4.835937 2.007812l-69.984376 70.238282-69.984374-70.238282c-1.289063-1.292968-3.011719-2.007812-4.835938-2.007812h-36.210938c-18.054687.003906-34.515624 6.257812-46.609374 16.613281-12.085938 10.328125-19.859376 25.007813-19.851563 41.328125v58.109375c0 1.800781.730469 3.558594 2 4.828125 1.269531 1.273438 3.027344 2 4.824219 2h341.335937c1.796875 0 3.554688-.726562 4.824219-2 1.273438-1.269531 2-3.027344 2-4.824219v-63.960937c.007812-14.703125-7.003906-27.925782-17.851562-37.191406-10.859376-9.300782-25.613282-14.898438-41.78125-14.902344v13.652344c12.996093-.003907 24.644531 4.535156 32.898437 11.617187 8.265625 7.117187 13.074219 16.53125 13.082031 26.824219v57.132812h-327.683594v-51.28125c.011719-11.910156 5.585938-22.789062 15.085938-30.964844 9.488281-8.140624 22.839844-13.332031 37.722656-13.328124h33.378906l72.820313 73.085937c1.289063 1.289063 3.011719 2.007813 4.835937 2.007813 1.824219 0 3.546876-.714844 4.835938-2.007813l72.820312-73.085937h40.203126zm0 0" fill="#54596e"/><path d="m143.8125 368.640625-34.132812 13.652344-6.828126-68.265625h40.960938zm0 0" fill="#f4a14e"/><path d="m143.8125 368.640625-2.535156-6.339844-25.710938 10.285157-5.171875-51.734376h26.589844v47.789063h6.828125l-2.535156-6.339844 2.535156 6.339844h6.824219v-54.613281c0-1.800782-.726563-3.558594-2-4.828125-1.269531-1.269531-3.027344-2-4.824219-2h-40.960938c-1.925781 0-3.769531.816406-5.0625 2.246093-1.292968 1.425782-1.921874 3.34375-1.730468 5.261719l6.828125 68.265625c.210937 2.132813 1.417969 4.042969 3.25 5.15625 1.832031 1.113282 4.085937 1.296875 6.074219.5l34.136718-13.652344c2.582032-1.03125 4.289063-3.554687 4.289063-6.335937zm0 0" fill="#54596e"/><path d="m212.078125 368.640625 34.132813 13.652344 6.828124-68.265625h-40.960937zm0 0" fill="#f4a14e"/><path d="m212.078125 368.640625-2.535156 6.339844 34.132812 13.652343c1.988281.792969 4.242188.609376 6.074219-.503906 1.835938-1.109375 3.039062-3.023437 3.253906-5.15625l6.824219-68.265625c.191406-1.914062-.4375-3.832031-1.730469-5.257812-1.289062-1.433594-3.132812-2.25-5.058594-2.25h-40.960937c-1.796875 0-3.554687.726562-4.828125 2-1.269531 1.269531-2 3.03125-2 4.828125v54.613281c0 2.78125 1.710938 5.304687 4.292969 6.339844l2.535156-6.339844h6.828125v-47.789063h26.589844l-5.175782 51.734376-25.707031-10.285157-2.535156 6.339844h6.828125zm0 0" fill="#54596e"/><path d="m68.71875 402.773438v20.480468c0 3.769532 3.054688 6.824219 6.828125 6.824219 3.769531 0 6.824219-3.054687 6.824219-6.824219v-20.480468c0-3.769532-3.054688-6.828126-6.824219-6.828126-3.773437 0-6.828125 3.058594-6.828125 6.828126" fill="#54596e"/><path d="m219.746094 6.828125h-42.640625c-18.386719 0-33.292969 14.902344-33.292969 33.289063v28.148437h109.226562v-28.148437c0-18.386719-14.90625-33.289063-33.292968-33.289063zm0 0" fill="#fff35f"/><path d="m219.746094 6.828125v-6.828125h-42.640625c-22.160157.00390625-40.117188 17.957031-40.121094 40.117188v28.148437c0 1.796875.730469 3.554687 2 4.828125 1.269531 1.269531 3.03125 2 4.828125 2h109.226562c1.796876 0 3.554688-.730469 4.824219-2 1.273438-1.273438 2-3.03125 2-4.828125v-28.148437c-.003906-22.160157-17.960937-40.11328175-40.117187-40.117188v13.652344c7.328125.003906 13.902344 2.953125 18.714844 7.753906 4.796874 4.808594 7.746093 11.378906 7.75 18.710938v21.324218h-95.574219v-21.324218c.003906-7.332032 2.953125-13.902344 7.753906-18.710938 4.808594-4.800781 11.382813-7.75 18.714844-7.753906h42.640625zm0 0" fill="#54596e"/><path d="m273.519531 402.773438v20.480468c0 3.769532 3.054688 6.824219 6.824219 6.824219s6.828125-3.054687 6.828125-6.824219v-20.480468c0-3.769532-3.058594-6.828126-6.828125-6.828126s-6.824219 3.058594-6.824219 6.828126" fill="#54596e"/><path d="m41.410156 259.414062c0 22.621094 18.339844 40.960938 40.960938 40.960938h238.933594c22.621093 0 40.960937-18.339844 40.960937-40.960938h-47.789063v-137.875c0-36.960937-29.964843-66.925781-66.925781-66.925781h-139.210937c-36.960938 0-66.929688 29.964844-66.929688 66.925781zm0 0" fill="#fff35f"/><path d="m41.410156 259.414062h-6.824218c.003906 26.394532 21.390624 47.78125 47.785156 47.785157h238.933594c26.394531-.003907 47.78125-21.390625 47.785156-47.785157 0-1.800781-.726563-3.554687-1.996094-4.828124-1.273438-1.269532-3.03125-2-4.828125-2h-40.960937v-131.046876c-.003907-40.734374-33.019532-73.746093-73.753907-73.753906h-139.210937c-40.734375.007813-73.75 33.019532-73.753906 73.753906v137.875h13.652343v-137.875c.003907-16.617187 6.71875-31.597656 17.605469-42.496093 10.894531-10.886719 25.878906-17.597657 42.496094-17.601563h139.210937c16.617188.003906 31.597657 6.714844 42.496094 17.601563 10.886719 10.898437 17.601563 25.878906 17.605469 42.496093v137.875c0 1.796876.726562 3.554688 2 4.824219 1.269531 1.273438 3.027344 2 4.824218 2h47.789063v-6.828125h-6.828125c-.003906 9.449219-3.808594 17.9375-9.996094 24.136719-6.199218 6.1875-14.691406 9.996094-24.136718 10h-238.933594c-9.445313-.003906-17.9375-3.8125-24.136719-10-6.183594-6.195313-9.992187-14.6875-9.996094-24.132813zm0 0" fill="#54596e"/><path d="m334.957031 184.320312c0 15.082032-12.222656 27.304688-27.304687 27.304688-15.082032 0-27.308594-12.222656-27.308594-27.304688 0-15.082031 12.226562-27.308593 27.308594-27.308593 15.082031 0 27.304687 12.226562 27.304687 27.308593zm0 0" fill="#ffd578"/><path d="m334.957031 184.320312h6.828125c-.003906-18.855468-15.28125-34.128906-34.132812-34.132812-18.855469.003906-34.128906 15.277344-34.132813 34.132812.003907 18.851563 15.277344 34.128907 34.132813 34.132813 18.851562-.003906 34.128906-15.28125 34.132812-34.132813h-13.652344c-.023437 11.304688-9.175781 20.460938-20.480468 20.480469-11.308594-.019531-20.460938-9.175781-20.480469-20.480469.019531-11.308593 9.171875-20.460937 20.480469-20.480468 11.304687.019531 20.457031 9.171875 20.480468 20.480468zm0 0" fill="#54596e"/><path d="m75.546875 184.320312c0 15.082032-12.226563 27.304688-27.308594 27.304688s-27.308593-12.222656-27.308593-27.304688c0-15.082031 12.226562-27.308593 27.308593-27.308593s27.308594 12.226562 27.308594 27.308593zm0 0" fill="#ffd578"/><path d="m75.546875 184.320312h6.824219c-.003906-18.855468-15.277344-34.128906-34.132813-34.132812-18.855469.003906-34.128906 15.277344-34.132812 34.132812.003906 18.851563 15.277343 34.128907 34.132812 34.132813 18.855469-.003906 34.128907-15.28125 34.132813-34.132813h-13.652344c-.019531 11.304688-9.171875 20.460938-20.480469 20.480469-11.308593-.019531-20.460937-9.175781-20.480469-20.480469.019532-11.308593 9.171876-20.460937 20.480469-20.480468 11.308594.019531 20.460938 9.171875 20.480469 20.480468zm0 0" fill="#54596e"/><path d="m177.945312 334.507812c64.09375 0 116.054688-51.960937 116.054688-116.054687v-62.875c0-25.601563-20.753906-46.351563-46.347656-46.351563h-139.414063c-25.59375 0-46.347656 20.75-46.347656 46.351563v62.875c0 64.09375 51.960937 116.054687 116.054687 116.054687zm0 0" fill="#ffd578"/><path d="m177.945312 334.507812v6.824219c67.867188-.003906 122.875-55.011719 122.878907-122.878906v-62.875c-.003907-29.375-23.804688-53.171875-53.171875-53.179687h-139.414063c-29.367187.007812-53.167969 23.804687-53.171875 53.179687v62.875c.003906 67.867187 55.011719 122.875 122.878906 122.878906v-13.652343c-30.183593-.003907-57.445312-12.214844-77.234374-31.992188-19.777344-19.789062-31.988282-47.050781-31.992188-77.234375v-62.875c.003906-10.9375 4.414062-20.773437 11.574219-27.949219 7.175781-7.164062 17.011719-11.570312 27.945312-11.578125h139.414063c10.933594.003907 20.769531 4.414063 27.941406 11.578125 7.164062 7.175782 11.574219 17.011719 11.578125 27.949219v62.875c-.003906 30.183594-12.214844 57.445313-31.992187 77.234375-19.789063 19.777344-47.050782 31.988281-77.234376 31.992188zm0 0" fill="#54596e"/><path d="m143.8125 252.585938c0 18.851562 15.277344 34.132812 34.132812 34.132812 18.851563 0 34.132813-15.28125 34.132813-34.132812zm0 0" fill="#54596e"/><path d="m143.8125 252.585938h-6.828125c.003906 22.621093 18.332031 40.957031 40.960937 40.960937 22.625-.003906 40.953126-18.339844 40.960938-40.960937 0-1.796876-.730469-3.554688-2-4.828126-1.269531-1.269531-3.03125-1.996093-4.828125-1.996093h-68.265625c-1.796875 0-3.558594.726562-4.828125 1.996093-1.269531 1.273438-2 3.03125-2 4.828126h6.828125v6.828124h68.265625v-6.828124h-6.828125c0 7.5625-3.042969 14.34375-7.996094 19.308593-4.960937 4.949219-11.746094 7.992188-19.308594 8-7.5625-.003906-14.347656-3.046875-19.308593-8-4.953125-4.964843-7.996094-11.746093-8-19.308593h-6.824219v6.828124zm0 0" fill="#54596e"/><path d="m191.597656 273.066406c0-3.769531-6.113281-6.828125-13.652344-6.828125-7.539062 0-13.652343 3.058594-13.652343 6.828125 0 3.769532 6.113281 6.828125 13.652343 6.828125 7.539063 0 13.652344-3.058593 13.652344-6.828125zm0 0" fill="#ff927d"/><path d="m143.8125 194.558594c0 5.65625-4.585938 10.242187-10.242188 10.242187-5.652343 0-10.238281-4.585937-10.238281-10.242187 0-5.652344 4.585938-10.238282 10.238281-10.238282 5.65625 0 10.242188 4.585938 10.242188 10.238282zm0 0" fill="#54596e"/><path d="m232.558594 194.558594c0 5.65625-4.585938 10.242187-10.242188 10.242187-5.652344 0-10.238281-4.585937-10.238281-10.242187 0-5.652344 4.585937-10.238282 10.238281-10.238282 5.65625 0 10.242188 4.585938 10.242188 10.238282zm0 0" fill="#54596e"/><g fill="#ff927d"><path d="m253.039062 245.761719c0 3.769531-3.058593 6.824219-6.828124 6.824219-3.769532 0-6.824219-3.054688-6.824219-6.824219 0-3.773438 3.054687-6.828125 6.824219-6.828125 3.769531 0 6.828124 3.054687 6.828124 6.828125zm0 0"/><path d="m123.332031 252.585938c0 3.769531-3.058593 6.828124-6.828125 6.828124-3.769531 0-6.824218-3.058593-6.824218-6.828124 0-3.769532 3.054687-6.824219 6.824218-6.824219 3.769532 0 6.828125 3.054687 6.828125 6.824219zm0 0"/><path d="m109.679688 238.933594c0 3.769531-3.058594 6.828125-6.828126 6.828125-3.769531 0-6.828124-3.058594-6.828124-6.828125 0-3.769532 3.058593-6.828125 6.828124-6.828125 3.769532 0 6.828126 3.058593 6.828126 6.828125zm0 0"/><path d="m136.984375 225.28125c0 3.769531-3.054687 6.824219-6.824219 6.824219-3.773437 0-6.828125-3.054688-6.828125-6.824219 0-3.773438 3.054688-6.828125 6.828125-6.828125 3.769532 0 6.824219 3.054687 6.824219 6.828125zm0 0"/><path d="m239.386719 225.28125c0 3.769531-3.058594 6.824219-6.828125 6.824219-3.769532 0-6.828125-3.054688-6.828125-6.824219 0-3.773438 3.058593-6.828125 6.828125-6.828125 3.769531 0 6.828125 3.054687 6.828125 6.828125zm0 0"/><path d="m266.691406 218.453125c0 3.769531-3.054687 6.828125-6.828125 6.828125-3.769531 0-6.824219-3.058594-6.824219-6.828125s3.054688-6.828125 6.824219-6.828125c3.773438 0 6.828125 3.058594 6.828125 6.828125zm0 0"/></g><path d="m150.636719 47.785156h61.441406v-13.652344h-61.441406" fill="#f4a14e"/><path d="m134.5 85.089844c-11.117188 6.175781-17.996094 14.710937-17.996094 24.136718 0 18.851563 27.507813 34.132813 61.441406 34.132813 33.933594 0 61.441407-15.28125 61.441407-34.132813 0-9.152343-6.488281-17.464843-17.046875-23.597656" fill="#fff35f"/><path d="m131.183594 79.121094c-6.195313 3.449218-11.4375 7.648437-15.28125 12.683594-3.832032 5.007812-6.234375 11.015624-6.222656 17.421874-.011719 6.402344 2.386718 12.414063 6.222656 17.421876 5.78125 7.542968 14.632812 13.25 25.292968 17.273437 10.671876 4 23.253907 6.257813 36.75 6.265625 17.996094-.019531 34.355469-3.992188 46.761719-10.855469 6.195313-3.449219 11.4375-7.648437 15.28125-12.683593 3.835938-5.007813 6.234375-11.015626 6.222657-17.421876.011718-6.21875-2.253907-12.070312-5.894532-16.984374-3.652344-4.9375-8.644531-9.082032-14.550781-12.515626-3.261719-1.894531-7.4375-.785156-9.332031 2.476563-1.890625 3.261719-.785156 7.4375 2.476562 9.332031 4.652344 2.691406 8.183594 5.773438 10.414063 8.808594 2.246093 3.066406 3.222656 5.949219 3.234375 8.882812-.011719 3.019532-1.050782 5.992188-3.433594 9.148438-3.542969 4.710938-10.273438 9.425781-19.226562 12.761719-8.9375 3.363281-20 5.402343-31.953126 5.398437-15.9375.015625-30.296874-3.652344-40.128906-9.140625-4.921875-2.726562-8.675781-5.886719-11.050781-9.019531-2.382813-3.15625-3.421875-6.128906-3.433594-9.148438.011719-3.023437 1.050781-5.992187 3.433594-9.152343 2.375-3.132813 6.128906-6.292969 11.046875-9.019531 3.296875-1.832032 4.484375-5.988282 2.652344-9.28125-1.832032-3.292969-5.988282-4.480469-9.28125-2.652344zm0 0" fill="#54596e"/></svg>