<svg height="436pt" viewBox="-41 0 436 436.90667" width="436pt" xmlns="http://www.w3.org/2000/svg"><path d="m334.960938 177.492188c0 15.082031-12.226563 27.308593-27.308594 27.308593-15.078125 0-27.304688-12.226562-27.304688-27.308593 0-15.078126 12.226563-27.304688 27.304688-27.304688 15.082031 0 27.308594 12.226562 27.308594 27.304688zm0 0" fill="#f4a14e"/><path d="m334.960938 177.492188h6.824218c-.003906-18.851563-15.277344-34.128907-34.132812-34.132813-18.851563.003906-34.128906 15.28125-34.132813 34.132813.003907 18.855468 15.28125 34.128906 34.132813 34.132812 18.855468 0 34.128906-15.277344 34.132812-34.132812h-13.652344c-.019531 11.308593-9.171874 20.460937-20.480468 20.480468-11.304688-.019531-20.457032-9.171875-20.480469-20.480468.023437-11.304688 9.175781-20.457032 20.480469-20.480469 11.308594.023437 20.460937 9.175781 20.480468 20.480469zm0 0" fill="#54596e"/><path d="m295.804688 341.332031h-83.726563v-68.265625h-68.265625v68.265625h-76.894531c-32.9375 0-59.636719 22.886719-59.636719 51.117188v37.628906h341.332031v-43.480469c0-24.996094-23.640625-45.265625-52.808593-45.265625zm0 0" fill="#f4a14e"/><path d="m295.804688 341.332031v-6.824219h-76.898438v-61.441406c0-1.796875-.726562-3.554687-2-4.828125-1.269531-1.269531-3.027344-2-4.828125-2h-68.265625c-1.796875 0-3.554688.730469-4.824219 2-1.273437 1.273438-2 3.03125-2 4.828125v61.441406h-70.070312c-18.054688.003907-34.515625 6.253907-46.613281 16.613282-12.085938 10.324218-19.859376 25.007812-19.851563 41.328125v37.628906c0 1.800781.730469 3.558594 2 4.828125 1.273437 1.273438 3.03125 2 4.828125 2h341.332031c1.796875 0 3.554688-.726562 4.828125-2 1.269532-1.269531 2-3.027344 2-4.824219v-43.480469c.007813-14.707031-7.003906-27.925781-17.851562-37.191406-10.863282-9.300781-25.617188-14.898437-41.789063-14.902344v13.652344c13-.003906 24.648438 4.53125 32.902344 11.617188 8.265625 7.113281 13.074219 16.527344 13.082031 26.824218v36.652344h-327.679687v-30.800781c.007812-11.914063 5.582031-22.789063 15.085937-30.964844 9.484375-8.140625 22.84375-13.332031 37.726563-13.328125h76.894531c1.796875 0 3.554688-.726562 4.828125-2 1.269531-1.269531 2-3.027344 2-4.824218v-61.441407h54.613281v61.4375c0 1.796875.726563 3.554688 2 4.828125 1.269532 1.269532 3.027344 2 4.824219 2h83.726563zm0 0" fill="#54596e"/><path d="m75.546875 177.492188c0 15.082031-12.226563 27.308593-27.308594 27.308593-15.078125 0-27.304687-12.226562-27.304687-27.308593 0-15.078126 12.226562-27.304688 27.304687-27.304688 15.082031 0 27.308594 12.226562 27.308594 27.304688zm0 0" fill="#f4a14e"/><path d="m75.546875 177.492188h6.828125c-.007812-18.851563-15.28125-34.128907-34.136719-34.132813-18.851562.003906-34.125 15.28125-34.132812 34.132813.007812 18.855468 15.28125 34.128906 34.132812 34.132812 18.855469 0 34.128907-15.277344 34.136719-34.132812h-13.65625c-.019531 11.308593-9.171875 20.460937-20.480469 20.480468-11.304687-.019531-20.457031-9.171875-20.476562-20.480468.019531-11.304688 9.171875-20.457032 20.476562-20.480469 11.308594.023437 20.460938 9.175781 20.480469 20.480469zm0 0" fill="#54596e"/><path d="m48.238281 186.464844c0 30.265625 14.738281 69.984375 39.804688 99.191406 18.988281 22.121094 53.410156 35.195312 89.902343 35.195312 36.496094 0 70.914063-13.074218 89.90625-35.195312 25.066407-29.207031 39.800782-68.925781 39.800782-99.191406v-36.277344h-259.414063zm0 0" fill="#8065c4"/><path d="m48.238281 186.464844h-6.824219c.011719 16.234375 3.898438 34.441406 10.972657 52.488281 7.085937 18.035156 17.382812 35.882813 30.476562 51.148437 10.402344 12.101563 24.710938 21.441407 41.097657 27.8125 16.394531 6.363282 34.921874 9.761719 53.984374 9.765626 19.0625-.003907 37.589844-3.40625 53.988282-9.765626 16.390625-6.371093 30.695312-15.710937 41.097656-27.8125 13.09375-15.265624 23.390625-33.117187 30.476562-51.152343 7.074219-18.042969 10.960938-36.253907 10.972657-52.488281v-36.273438c0-1.800781-.730469-3.558594-2-4.828125-1.273438-1.273437-3.03125-2-4.828125-2h-259.414063c-1.796875 0-3.554687.726563-4.824219 2-1.273437 1.269531-2 3.03125-2 4.828125v36.277344h13.652344v-29.453125h245.761719v29.453125c.011719 14.03125-3.46875 30.8125-10.03125 47.5-6.550781 16.691406-16.15625 33.304687-28.128906 47.246094-8.585938 10.019531-20.984375 18.277343-35.675781 23.976562-14.683594 5.703125-31.613282 8.84375-49.046876 8.839844-17.429687.003906-34.359374-3.136719-49.042968-8.839844-14.691406-5.699219-27.089844-13.960938-35.679688-23.976562-11.96875-13.941407-21.578125-30.554688-28.128906-47.25-6.5625-16.683594-10.039062-33.464844-10.027344-47.5h-6.828125zm0 0" fill="#54596e"/><path d="m55.066406 157.011719 30.074219 54.613281 45.421875-13.652344h95.171875l46.734375 13.652344 28.359375-54.613281v-27.304688c0-67.863281-55.015625-122.878906-122.882813-122.878906-67.863281 0-122.878906 55.015625-122.878906 122.878906zm0 0" fill="#f4a14e"/><path d="m55.066406 157.011719-5.980468 3.292969 30.074218 54.613281c1.550782 2.816406 4.867188 4.171875 7.945313 3.246093l44.464843-13.367187h93.183594l45.800782 13.378906c3.125.914063 6.472656-.519531 7.972656-3.40625l28.355468-54.613281c.496094-.960938.769532-2.066406.769532-3.144531v-27.304688c-.003906-71.636719-58.070313-129.70312475-129.707032-129.707031-71.636718.00390625-129.703124 58.070312-129.707031 129.707031v27.304688c0 1.15625.289063 2.28125.847657 3.292969l5.980468-3.292969h6.828125v-27.304688c.003907-32.070312 12.976563-61.039062 33.992188-82.0625 21.019531-21.011719 49.992187-33.988281 82.058593-33.992187 32.070313.003906 61.039063 12.980468 82.0625 33.992187 21.011719 21.023438 33.988282 49.992188 33.992188 82.0625v25.640625l-25.003906 48.152344-41.347656-12.082031c-.613282-.175781-1.273438-.269531-1.914063-.269531h-95.171875c-.640625 0-1.351562.101562-1.964844.285156l-40.136718 12.066406-27.414063-49.78125-5.980469 3.292969h6.828125zm0 0" fill="#54596e"/><path d="m143.8125 225.28125c0 18.847656 15.285156 34.132812 34.132812 34.132812 18.851563 0 34.132813-15.285156 34.132813-34.132812zm0 0" fill="#54596e"/><path d="m143.8125 225.28125h-6.824219c.003907 22.621094 18.335938 40.953125 40.957031 40.957031 22.625 0 40.957032-18.335937 40.960938-40.957031 0-1.800781-.726562-3.558594-2-4.828125-1.269531-1.273437-3.027344-2-4.828125-2h-68.265625c-1.796875 0-3.554688.726563-4.824219 2-1.273437 1.269531-2 3.03125-2 4.828125h6.824219v6.824219h68.265625v-6.824219h-6.824219c-.003906 7.558594-3.046875 14.34375-8 19.304688-4.960937 4.953124-11.746094 7.996093-19.308594 8-7.558593-.003907-14.34375-3.046876-19.304687-8-4.953125-4.960938-7.996094-11.746094-8-19.304688h-6.828125v6.824219zm0 0" fill="#54596e"/><path d="m191.601562 245.761719c0-3.773438-6.113281-6.828125-13.65625-6.828125-7.539062 0-13.652343 3.054687-13.652343 6.828125 0 3.769531 6.113281 6.824219 13.652343 6.824219 7.542969 0 13.65625-3.054688 13.65625-6.824219zm0 0" fill="#ff927d"/><g fill="#54596e"><path d="m143.8125 160.425781c0 5.65625-4.582031 10.242188-10.238281 10.242188s-10.242188-4.585938-10.242188-10.242188 4.585938-10.238281 10.242188-10.238281 10.238281 4.582031 10.238281 10.238281zm0 0"/><path d="m232.558594 160.425781c0 5.65625-4.582032 10.242188-10.238282 10.242188s-10.242187-4.585938-10.242187-10.242188 4.585937-10.238281 10.242187-10.238281 10.238282 4.582031 10.238282 10.238281zm0 0"/><path d="m68.71875 389.121094v34.132812c0 3.769532 3.058594 6.824219 6.828125 6.824219s6.828125-3.054687 6.828125-6.824219v-34.132812c0-3.769532-3.058594-6.828125-6.828125-6.828125s-6.828125 3.058593-6.828125 6.828125"/><path d="m273.519531 389.121094v34.132812c0 3.769532 3.058594 6.824219 6.828125 6.824219 3.769532 0 6.824219-3.054687 6.824219-6.824219v-34.132812c0-3.769532-3.054687-6.828125-6.824219-6.828125-3.769531 0-6.828125 3.058593-6.828125 6.828125"/></g><path d="m191.601562 389.121094c0 7.539062-6.113281 13.652344-13.65625 13.652344-7.539062 0-13.652343-6.113282-13.652343-13.652344 0-7.542969 6.113281-13.65625 13.652343-13.65625 7.542969 0 13.65625 6.113281 13.65625 13.65625zm0 0" fill="#fff35f"/><path d="m120.1875 343.871094c-.179688 1.414062-.265625 2.847656-.265625 4.289062-.003906 12.589844 6.828125 23.816406 17.359375 31.691406 10.550781 7.90625 24.890625 12.675782 40.664062 12.683594 15.773438-.007812 30.113282-4.777344 40.667969-12.683594 10.53125-7.875 17.363281-19.101562 17.359375-31.691406 0-1.492187-.09375-2.972656-.285156-4.433594l-6.769531.878907c.152343 1.167969.230469 2.351562.230469 3.554687-.003907 10.027344-5.398438 19.285156-14.632813 26.230469-9.210937 6.921875-22.179687 11.320313-36.570313 11.316406-14.390624.003907-27.355468-4.394531-36.570312-11.316406-9.230469-6.945313-14.628906-16.203125-14.628906-26.230469 0-1.164062.070312-2.3125.214844-3.4375zm0 0" fill="#fff35f"/></svg>